<?xml version="1.0" encoding="UTF-8"?>
<svg width="107px" height="65px" viewBox="0 0 107 65" version="1.1" xmlns="http://www.w3.org/2000/svg" xmlns:xlink="http://www.w3.org/1999/xlink">
    <!-- Generator: Sketch 49.3 (51167) - http://www.bohemiancoding.com/sketch -->
    <title>Group 9</title>
    <desc>Created with Sketch.</desc>
    <defs></defs>
    <g id="UI-Kit" stroke="none" stroke-width="1" fill="none" fill-rule="evenodd">
        <g id="Style-Guide" transform="translate(-860.000000, -3936.000000)">
            <g id="Group-9" transform="translate(860.000000, 3936.000000)">
                <g id="bicycle" fill-rule="nonzero">
                    <g id="Group" transform="translate(61.000000, 27.000000)" fill="#C6C5CA">
                        <path d="M23.7737018,22.4872 L17.5353509,16.0218 C16.9440526,15.409 16.9440526,14.4156 17.5353509,13.803 C18.1268421,13.19 19.085193,13.1902 19.6764912,13.803 L25.9148421,20.2684 C26.5061404,20.8812 26.5061404,21.8746 25.9148421,22.4872 C25.619,22.7938 24.8949298,23.2604 23.7737018,22.4872 Z" id="Shape"></path>
                        <path d="M18.6058246,16.4816 L9.95268421,16.4816 C9.11649123,16.4816 8.43873684,15.7792 8.43873684,14.9126 C8.43873684,14.0462 9.11629825,13.3436 9.95268421,13.3436 L18.6058246,13.3436 C19.4420175,13.3436 20.1197719,14.046 20.1197719,14.9126 C20.1197719,15.779 19.4420175,16.4816 18.6058246,16.4816 Z" id="Shape"></path>
                        <path d="M5.26475439,16.4818 L1.63147368,16.4818 C0.795280702,16.4818 0.117526316,15.7794 0.117526316,14.9128 C0.117526316,14.0464 0.795087719,13.3438 1.63147368,13.3438 L5.26475439,13.3438 C6.10094737,13.3438 6.77870175,14.0462 6.77870175,14.9128 C6.77870175,15.7792 6.10094737,16.4818 5.26475439,16.4818 Z" id="Shape"></path>
                        <path d="M17.5351579,16.022 C16.9724211,15.3812 16.9438596,14.4158 17.5351579,13.8032 L23.155193,7.979 C23.7468772,7.3662 24.7052281,7.3662 25.2963333,7.979 C25.8876316,8.5918 25.8876316,9.5852 25.2963333,10.1978 L19.6764912,16.022 C19.3806491,16.3284 18.3346842,16.9324 17.5351579,16.022 Z" id="Shape"></path>
                        <path d="M26.5181053,6.7126 C25.926807,6.0998 25.926807,5.1064 26.5181053,4.4938 L30.403807,0.4668 C30.9952982,-0.146 31.9536491,-0.146 32.5449474,0.4668 C33.1362456,1.0796 33.1362456,2.073 32.5449474,2.6856 L28.6592456,6.7126 C27.7713333,7.5194 26.8137544,7.019 26.5181053,6.7126 Z" id="Shape"></path>
                    </g>
                    <path d="M80.5,62 C69.1962275,62 60,52.8037725 60,41.5 C60,30.1962275 69.1962275,21 80.5,21 C91.8037725,21 101,30.1964199 101,41.5 C101,52.8035801 91.8037725,62 80.5,62 Z M80.5,26.02922 C71.9694243,26.02922 65.02922,32.9694243 65.02922,41.5 C65.02922,50.0305757 71.9694243,56.97078 80.5,56.97078 C89.0305757,56.97078 95.97078,50.0305757 95.97078,41.5 C95.97078,32.9694243 89.0305757,26.02922 80.5,26.02922 Z" id="Shape" fill="#8D8DA0"></path>
                    <path d="M79.5,23 C69.2989157,23 61,31.0746206 61,41 C61,50.9251869 69.2989157,59 79.5,59 C89.7008865,59 98,50.9253794 98,41 C98,31.0746206 89.7010843,23 79.5,23 Z M79.5,56.4834301 C70.7252949,56.4834301 63.5864746,49.5375509 63.5864746,41 C63.5864746,32.4624491 70.7252949,25.5165699 79.5,25.5165699 C88.2747051,25.5165699 95.4135254,32.4624491 95.4135254,41 C95.4135254,49.5375509 88.2747051,56.4834301 79.5,56.4834301 Z" id="Shape" fill="#8D8DA0"></path>
                    <circle id="Oval" fill="#8D8DA0" cx="80.5" cy="41.5" r="5.5"></circle>
                    <path d="M20.5,62 C9.19622753,62 0,52.8037725 0,41.5 C0,30.1962275 9.19622753,21 20.5,21 C31.8037725,21 41,30.1962275 41,41.5 C41,52.8037725 31.8037725,62 20.5,62 Z M20.5,26.0290277 C11.9694243,26.0290277 5.02921999,32.969232 5.02921999,41.5 C5.02921999,50.0305757 11.9694243,56.97078 20.5,56.97078 C29.0305757,56.97078 35.97078,50.0305757 35.97078,41.5 C35.97078,32.969232 29.0305757,26.0290277 20.5,26.0290277 Z" id="Shape" fill="#8D8DA0"></path>
                    <path d="M21.5,24 C11.2989157,24 3,32.0746206 3,42 C3,51.9251869 11.2989157,60 21.5,60 C31.7008865,60 40,51.9253794 40,42 C40.0001978,32.0750056 31.7010843,24 21.5,24 Z M21.5,57.4838151 C12.7252949,57.4838151 5.58647461,50.5377434 5.58647461,42.000385 C5.58647461,33.462834 12.7252949,26.5169549 21.5,26.5169549 C30.2747051,26.5169549 37.4135254,33.462834 37.4135254,42.000385 C37.4135254,50.5377434 30.2747051,57.4838151 21.5,57.4838151 Z" id="Shape" fill="#8D8DA0"></path>
                    <circle id="Oval" fill="#8D8DA0" cx="20.5" cy="41.5" r="5.5"></circle>
                    <g id="Group" transform="translate(19.000000, 0.000000)" fill="#B6B6C7">
                        <path d="M50.4984158,16.2412735 L46.6075248,4.8206278 C46.430297,4.30019283 46.5560396,3.72750224 46.9360396,3.32314798 C47.1144554,3.13321525 51.3914851,-1.30465471 58.7140594,0.667946188 C59.5407921,0.890659193 60.0259406,1.7238565 59.7970297,2.52909417 C59.5683168,3.33413901 58.7124752,3.80636771 57.8857426,3.58365471 C53.8273267,2.49110762 51.0710891,3.95330045 49.880396,4.8198565 L53.4471287,15.2889103 C53.7174257,16.082 53.2762376,16.9379507 52.4617822,17.2009641 C52.299802,17.2530269 50.9665347,17.5871928 50.4984158,16.2412735 Z" id="Shape"></path>
                        <path d="M19.750099,18.344417 C21.6976238,18.9412108 24.2552475,19.4913408 27.0669307,19.4913408 C28.309901,19.4913408 29.6037624,19.3835516 30.9150495,19.1247803 L30.2980198,16.1597085 C24.7156436,17.2609327 19.3152475,15.0557848 17.8578218,14.3888027 L14.2691089,6.8869417 C13.9069307,6.12952466 12.9829703,5.80152915 12.2051485,6.15459193 C11.4273267,6.50726906 11.0906931,7.40699103 11.4530693,8.16440807 L27.6445545,42.0115785 C27.9077228,42.5620942 28.4914851,43.370417 29.7085149,42.7439283 C30.4669307,42.3534574 30.8229703,41.4915291 30.4605941,40.7341121 L19.750099,18.344417 Z" id="Shape"></path>
                        <path d="M35.0180198,30.3479731 L28.24,39.8604215 L1.70059406,39.8604215 C0.842772277,39.8604215 0.147128713,40.5376233 0.147128713,41.3731345 C0.147128713,42.2084529 0.842574257,42.8858475 1.70059406,42.8858475 L29.0528713,42.8858475 C29.5619802,42.8858475 30.0390099,42.6428879 30.3291089,42.2354484 L37.2528713,32.518991 C36.5093069,31.7939686 35.7641584,31.0706816 35.0180198,30.3479731 Z" id="Shape"></path>
                        <path d="M51.3263366,10.1140628 C50.6215842,9.63778475 49.6536634,9.80843498 49.1643564,10.4946996 L41.0360396,21.9018475 C41.780198,22.6264843 42.5243564,23.3511211 43.2685149,24.0757578 L51.7168317,12.2193274 C52.2065347,11.53287 52.0314851,10.5905336 51.3263366,10.1140628 Z" id="Shape"></path>
                    </g>
                    <circle id="Oval" fill="#8D8DA0" cx="47.5" cy="41.5" r="5.5"></circle>
                    <path d="M23.7824757,5.38430714 L31.5597384,8 L44.7737919,4.91316409 C46.659898,4.47261704 46.2628641,1.9458825 44.3159158,2.00088456 L24.6430408,2.55691825 C22.9798275,2.60378496 22.3813515,4.57059499 23.7824757,5.38430714 Z" id="Shape" fill="#FF3F62"></path>
                    <path d="M30.4074264,3 L24.5991522,3.18038573 C22.980375,3.23068196 22.3978202,5.33310223 23.7616703,6.20345393 L31.3320351,9 L38,7.28917181 L31.1238036,4.74902307 C30.4666499,4.32944662 30.2624046,3.6239758 30.4074264,3 Z" id="Shape" fill="#FF0C38"></path>
                    <g id="Group" transform="translate(19.000000, 10.000000)" fill="#B6B6C7">
                        <path d="M30.8080886,39.9309488 L27.5494146,33.0204465 C27.1961551,32.271386 27.5243196,31.3815907 28.2825728,31.0328047 C29.041019,30.6838279 29.9415411,31.008014 30.2946076,31.7570744 L33.5534747,38.6677674 C33.9065411,39.4168279 33.5627405,40.2751581 32.8201234,40.6554093 C31.8634272,41.1453116 31.0650222,40.4753907 30.8080886,39.9309488 Z" id="Shape"></path>
                        <path d="M17.6905791,16.6944372 C21.9190759,13.5490698 27.3708544,10.2244465 34.1078797,7.48278605 L33.0753196,4.66980465 C26.2749778,7.42500465 20.7228196,10.7547767 16.3657595,13.9384744 C16.8441076,14.8399023 17.2523829,15.7745116 17.6905791,16.6944372 Z" id="Shape"></path>
                        <path d="M7.15167089,21.9515907 C2.58458544,26.6763163 0.460009494,30.2498 0.347661392,30.4408791 C-0.0720031646,31.155614 0.174699367,32.0709628 0.898205696,32.4853488 C1.62171203,32.8995442 2.54810127,32.656214 2.96776582,31.9414791 C2.99363291,31.8976186 5.05045253,28.4377907 9.48627215,23.872107 C8.70137975,23.2403256 7.92922785,22.592907 7.15167089,21.9515907 Z" id="Shape"></path>
                        <path d="M60.7768481,30.7114791 L50.6066424,1.02633488 C50.3639937,0.318083721 49.628712,-0.103548837 48.886288,0.0368046512 C45.9642722,0.591544186 43.1953354,1.27366977 40.5721424,2.0503814 L41.5431234,4.8872 C43.6514842,4.26609767 45.8555918,3.70697209 48.1643259,3.2311814 L57.9077247,31.6706884 C58.1216108,32.2942698 58.7107627,32.6874884 59.3421899,32.6874884 C59.5033766,32.6874884 59.6668797,32.6619349 59.8278734,32.6081581 C60.6199082,32.3432791 61.0447848,31.4941023 60.7768481,30.7114791 Z" id="Shape"></path>
                    </g>
                    <g id="Group" transform="translate(25.000000, 23.000000)" fill="#FF3F62">
                        <path d="M3.2771831,11.4324412 C2.69016901,10.9498529 2.15264789,10.4137353 1.60428169,9.8875 C1.06774648,10.4736471 0.560197183,11.0455882 0.0889295775,11.5955 L2.27273239,13.8993235 C2.79408451,13.2866176 3.36256338,12.6444706 3.97028169,11.9829706 C3.73839437,11.8017941 3.50571831,11.6204118 3.2771831,11.4324412 Z" id="Shape"></path>
                        <path d="M12.6435775,0.0172941176 C12.0810141,0.428441176 11.5377746,0.838352941 11.0093239,1.24641176 C11.4518028,2.26429412 11.8445915,3.30152941 12.1957746,4.35544118 C12.7654366,3.90517647 13.3546197,3.45161765 13.9682535,2.99620588 L13.9710141,2.99229412 L12.6435775,0.0172941176 Z" id="Shape"></path>
                    </g>
                    <path d="M35.6597656,24 C33.8400465,25.3839378 32.2193254,26.743906 30.801342,28.0258716 C28.9707972,29.6809905 27.3750738,31.2873578 26,32.7826119 L28.2228326,35 L28.2242104,34.9995937 C29.5429901,33.5620291 31.0747428,32.015992 32.836593,30.4230315 C34.0662074,29.3114936 35.4542722,28.1390161 36.9994095,26.9431785 L37,26.9421628 L35.6597656,24 Z" id="Shape" fill="#B6B6C7"></path>
                    <g id="Group" transform="translate(51.000000, 20.000000)" fill="#FF0C38">
                        <polygon id="Shape" points="10.3135238 3.89183544 11.8577143 1.67335443 9.35904762 0.0375949367 8.16609524 1.75120253"></polygon>
                        <path d="M1.76609524,10.9458228 L0.16647619,13.2440506 L2.67580952,14.8648101 L3.91371429,13.0864557 C3.19752381,12.3729114 2.48190476,11.6593671 1.76609524,10.9458228 Z" id="Shape"></path>
                    </g>
                    <g id="Group" transform="translate(51.000000, 12.000000)" fill="#FF3F62">
                        <path d="M8.9315625,3.0394 L7.963125,0.0708 C7.29,0.2836 6.627375,0.5036 5.9745,0.73 L7.0093125,3.673 C7.6404375,3.4554 8.28075,3.2436 8.9315625,3.0394 Z" id="Shape"></path>
                        <path d="M0.187125,3.0064 L1.20075,5.955 C1.8061875,5.6864 2.4223125,5.423 3.0495,5.1652 L2.06475,2.2072 C1.428375,2.4682 0.8023125,2.7346 0.187125,3.0064 Z" id="Shape"></path>
                    </g>
                    <g id="Group" transform="translate(53.000000, 12.000000)" fill="#B6B6C7">
                        <path d="M6.8072,2.94466667 L5.744,0.0721388889 C4.191,0.559222222 2.6904,1.07780556 1.242,1.62225 L2.2768,4.50352778 L2.2792,4.50352778 C3.7326,3.95538889 5.2414,3.43466667 6.8048,2.94661111 L6.8072,2.94466667 Z" id="Shape"></path>
                        <polygon id="Shape" points="0.016 19.2122778 2.6282 20.9039444 9.9044 10.7084444 7.2624 9.05897222"></polygon>
                    </g>
                </g>
                <g id="Group-12" transform="translate(60.000000, 10.000000)">
                    <g id="Group-10">
                        <ellipse id="Oval-2" fill="#FFFFFF" cx="23.5897436" cy="32.8695652" rx="21.2307692" ry="21.1304348"></ellipse>
                        <g id="chronometer" fill="#FF4163" fill-rule="nonzero">
                            <path d="M22.999957,51.1604513 C11.9126658,51.1604513 2.92737681,42.446052 2.92737681,31.6974887 C2.92737681,20.9455863 11.9126658,12.2324391 22.999957,12.2324391 C34.085096,12.2324391 43.0716763,20.9455863 43.0716763,31.6974887 C43.0716763,42.446052 34.0851821,51.1604513 22.999957,51.1604513 Z M22.999957,9.39130435 C10.2974693,9.39130435 0,19.3772231 0,31.6958191 C0,44.0152499 10.2974693,54 22.999957,54 C35.6999482,54 46,44.0119943 46,31.6958191 C46,19.3772231 35.7016698,9.39130435 22.999957,9.39130435 Z" id="Shape" stroke="#FF4163" stroke-width="2"></path>
                            <path d="M31.05,2.81491964 C31.05,3.67554595 30.3093042,4.36869267 29.4034206,4.36869267 L28.8260264,4.36869267 L28.8260264,6.86287625 C23.1771208,5.75759507 18.3221771,6.86287625 18.3221771,6.86287625 L18.3221771,4.36869267 L17.7443338,4.36869267 C16.8388993,4.36869267 16.1,3.67554595 16.1,2.81491964 L16.1,1.54190638 C16.1000898,0.682121676 16.8407856,0 17.7444236,0 L29.4009055,0 C30.3093042,0 31.05,0.68136423 31.05,1.54190638 L31.05,2.81491964 Z" id="Shape"></path>
                            <path d="M43.3657359,10.4269197 L36.1675758,5.86889549 C35.7247976,5.58896956 35.4290295,5.7583192 35.2743281,5.9163419 L35.1468087,6.08418656 L33.35,8.41587291 C33.35,8.41587291 37.8869464,10.0215261 41.7371759,13.7257525 L43.5458713,11.3813927 C43.9572721,10.83865 43.4210613,10.4639105 43.3657359,10.4269197 Z" id="Shape"></path>
                        </g>
                    </g>
                    <g id="Group-11" transform="translate(3.000000, 13.000000)" fill="#8C8DA1" font-family=".SFNSDisplay, .SF NS Display" font-size="28" font-weight="normal">
                        <text id="30">
                            <tspan x="2.73828125" y="27">30 </tspan>
                        </text>
                    </g>
                </g>
            </g>
        </g>
    </g>
</svg>