<?xml version="1.0" encoding="UTF-8"?>
<svg width="103px" height="94px" viewBox="0 0 103 94" version="1.1" xmlns="http://www.w3.org/2000/svg" xmlns:xlink="http://www.w3.org/1999/xlink">
    <!-- Generator: Sketch 49.3 (51167) - http://www.bohemiancoding.com/sketch -->
    <title>exercise (6)</title>
    <desc>Created with Sketch.</desc>
    <defs></defs>
    <g id="UI-Kit" stroke="none" stroke-width="1" fill="none" fill-rule="evenodd">
        <g id="Style-Guide" transform="translate(-861.000000, -4095.000000)" fill-rule="nonzero">
            <g id="exercise-(6)" transform="translate(861.000000, 4095.000000)">
                <path d="M74.9390436,80.5362709 C74.9390436,80.5362709 74.3309768,82.2918621 74.5337291,83.608607 C74.5337291,83.608607 74.7364813,86.9004691 74.5337291,88.217214 C74.1284146,89.3144328 73.3175956,93.045347 75.1417958,93.7037194 C77.1687483,94.3620919 79.8035775,93.9232455 81.019711,92.3869746 C82.2358444,90.8507037 85.6814926,92.3869746 86.6950639,92.825821 C87.7084451,93.2646673 88.7220163,93.4841934 89.1273308,92.825821 C89.1273308,92.825821 92.3704168,93.9230398 91.9649123,90.4118573 L90.3434643,90.4118573 C90.3434643,90.4118573 89.3300831,90.4118573 88.9245786,89.9730109 C88.5192641,89.5341646 88.1137596,89.3146385 87.5056928,89.0951125 C87.5056928,89.0951125 83.0464734,86.9004691 81.6277777,82.9502346 C80.0063297,79 80.0063297,79 80.0063297,79 L74.9390436,80.5362709 Z" id="Shape" fill="#E7BEB0"></path>
                <path d="M65.4000097,17.7162233 C65.4000097,17.7162233 69.8172648,25.9206791 71.9207853,30.6707337 C71.9207853,30.6707337 79.7036337,42.9775186 80.7552954,46.2161462 C80.7552954,46.2161462 82.8588159,49.8865234 81.596743,53.9888525 C80.1242589,58.0911816 79.7036337,68.6705635 79.7036337,68.6705635 C79.7036337,68.6705635 78.8621861,78.6024223 80.1242589,83.3522745 C80.1242589,83.3522745 78.4415608,80.7613724 75.2863787,81.4090979 C72.1311965,82.0568234 72.9726441,84 72.9726441,84 C72.9726441,84 72.5520189,83.3522745 72.5520189,80.9773484 C72.5520189,78.6024223 70.4484984,70.3977641 70.4484984,70.3977641 C70.4484984,70.3977641 67.9243527,63.7045329 71.0795348,55.9318266 C71.0795348,55.9318266 72.1311965,53.1249486 70.2380872,50.1022969 C68.3449779,47.0796453 63.2966864,43.6250417 58.8794314,37.3637625 L55.0932128,34.1251349 C55.0932128,34.1251349 49.6242961,34.1251349 45.417255,27.8638557 C41.210214,21.6025765 41,20.738875 41,20.738875 C41,20.738875 58.2483949,12.5344192 65.4000097,17.7162233 Z" id="Shape" fill="#344A5E"></path>
                <path d="M0.42189634,91.3095141 C0.42189634,91.3095141 1.25692666,93.6705131 5.84910418,92.8120778 C5.84910418,92.8120778 6.6841345,92.8120778 7.10155181,92.3828601 C7.10155181,92.3828601 9.60644707,93.6707143 10.4414774,92.3828601 C10.4414774,92.3828601 11.2765077,93.0267872 12.9463727,92.5975695 C12.9463727,92.5975695 14.1988203,92.812279 14.8250441,92.5975695 C14.8250441,92.5975695 17.1211329,93.2414967 17.5387459,92.3828601 C17.5387459,92.3828601 18.7911935,93.0267872 19,92.1681506 L17.3301351,91.9534412 L13.3639857,91.0948046 L10.6502839,90.8800952 C10.6502839,90.8800952 9.39783626,90.236168 8.77161245,90.236168 C8.14538863,90.236168 5.64049337,90.0214586 5.64049337,90.0214586 C5.64049337,90.0214586 3.97062843,89.3775315 4.17923923,88.0896772 C4.38804574,86.801823 6.47532799,78.859988 8.56280594,73.4940628 C10.6502839,68.1279364 10.8588947,66.4108644 11.0677012,64.2643736 C11.2765077,62.3325922 11.9027315,60.1861014 13.1551792,58.4690295 C14.1988203,56.7519576 16.2862982,53.532322 16.2862982,53.532322 L18.582387,38.2927804 L14.8250441,34 C14.8250441,34 14.6162376,38.9367075 14.6162376,40.4392712 C14.6162376,40.4392712 11.9025358,46.663833 10.0238644,49.2395415 C7.93638643,51.81525 6.05771499,57.6105942 6.05771499,57.6105942 C6.05771499,57.6105942 5.22268467,60.6155203 3.97023704,61.6888663 C2.92659591,62.7620111 2.09156559,69.6307013 2.09156559,69.6307013 L0.421700645,84.4410251 C0.213285531,84.6555334 -0.412938284,89.8069504 0.42189634,91.3095141 Z" id="Shape" fill="#E5BEB1"></path>
                <g id="Group" transform="translate(11.000000, 14.000000)">
                    <path d="M1.97233465,32.2852832 C1.32981496,32.5024602 0.901535433,32.9366106 0.473055118,33.5879381 C0.258814961,34.0220885 0.0447755906,34.4564425 0.0447755906,34.8905929 C0.259015748,35.9760708 1.32981496,35.7590973 1.75809449,37.0617522 C1.75809449,37.0617522 1.54385433,37.7130796 2.18637402,37.7130796 C2.18637402,37.7130796 1.75809449,37.9302566 2.18637402,38.5815841 C2.18637402,38.5815841 3.68565354,39.6670619 3.68565354,39.8842389 C3.68565354,40.1014159 3.68565354,40.3183894 3.68565354,40.7527434 C3.68565354,41.1868938 3.8998937,41.8382212 4.75645276,41.8382212 C5.6132126,41.8382212 7.11229134,42.0553982 7.96905118,42.4895487 C8.82581102,42.7067257 9.68237008,43.7922035 9.89661024,44.0093805 C10.1108504,44.2265575 14.1800079,46.1805398 16.3218071,45.7461858 C18.4636063,45.3120354 19.5344055,40.9697168 19.5344055,40.9697168 L19.5344055,27.5090177 L16.9643268,24.2523805 C16.9643268,24.2523805 13.1092087,19.4759115 13.1092087,14.699646 C13.1092087,9.92338053 11.8241693,7.31786726 11.8241693,7.31786726 L7.75481102,3.62707965 C7.75481102,3.62707965 1.97213386,9.27184956 4.11393307,17.0877788 L6.46977165,21.4298938 C6.46977165,21.4298938 5.18473228,26.2063628 5.39897244,29.6799735 C5.39897244,29.6799735 5.39897244,30.3313009 3.89969291,30.9826283 C3.04313386,31.6339558 2.40061417,32.0683097 1.97233465,32.2852832 Z" id="Shape" fill="#FAE1DA"></path>
                    <path d="M28.7439213,10.3573274 L28.9581614,17.0877788 L28.7439213,17.9562832 C28.7439213,17.9562832 31.0997598,19.6930885 32.8132795,19.9102655 C34.7408386,20.1274425 37.7391969,22.5155752 37.7391969,22.5155752 C37.7391969,22.5155752 35.8116378,18.1734602 33.6698386,16.2194779 C31.7422795,14.0483186 29.8147205,11.2260354 29.8147205,11.2260354 L24.8888031,6.01541593 C24.8888031,6.01541593 24.2462835,5.58126549 24.4605236,4.06143363 C24.6747638,2.54160177 25.1030433,0.587619469 25.1030433,0.587619469 C25.1030433,0.587619469 25.5313228,-0.0637079646 26.3880827,0.587619469 C26.3880827,0.587619469 26.8163622,-0.280884956 27.673122,0.153469027 C28.5298819,0.587823009 28.5298819,0.587619469 28.5298819,0.587619469 C28.5298819,0.587619469 29.3866417,0.370442478 30.0291614,0.587619469 C30.0291614,0.587619469 30.8859213,0.153469027 31.7424803,1.2389469 C31.7424803,1.2389469 31.9567205,1.45612389 31.7424803,1.67309735 C31.5282402,1.89027434 31.7424803,1.67309735 31.7424803,1.67309735 L31.3142008,1.67309735 C31.3142008,1.67309735 31.0999606,2.54160177 30.8859213,2.75857522 C30.8859213,2.75857522 31.1001614,4.06123009 31.1001614,4.49538053 C31.1001614,4.49538053 32.8134803,7.10069027 34.527,7.96919469 C36.2403189,8.83769912 34.527,7.96919469 34.527,7.96919469 C34.527,7.96919469 34.527,8.83769912 35.1695197,9.48902655 C35.8120394,10.140354 41.166437,16.0023009 43.5222756,19.2589381 C45.8781142,22.5155752 50.5899921,30.7656549 50.5899921,30.7656549 C50.5899921,30.7656549 51.8750315,32.9368142 49.5191929,34.4564425 C47.1633543,35.9760708 44.5932756,35.3249469 43.5222756,35.1077699 C42.6655157,34.8905929 38.3821181,34.2392655 37.0970787,33.805115 C35.8120394,33.3709646 30.886122,30.7656549 29.815122,29.8971504 C28.7443228,29.028646 26.3882835,28.5944956 24.6749646,28.3773186 C22.7474055,28.1601416 20.1773268,25.7720088 20.1773268,25.7720088 C20.1773268,25.7720088 13.3238504,25.9891858 13.5378898,13.8309381 C13.9659685,1.45592035 26.3880827,7.31786726 28.7439213,10.3573274 Z" id="Shape" fill="#F9E1DA"></path>
                </g>
                <path d="M25.6483187,9.27914504 C25.6483187,9.27914504 22.8787116,12.2511509 20.5353208,14.1617688 C18.1919301,16.0723866 13.0789322,20.9550104 14.1440735,30.0835843 C14.1440735,30.0835843 14.5700901,34.7540498 16.7005725,38.3629284 L17.126589,35.3909225 C17.126589,35.3909225 16.0614477,34.3295344 15.8483396,32.843432 C15.8483396,32.2065594 15.6352314,31.782044 15.422323,31.1451713 C15.422323,30.9328141 15.422323,30.5082987 15.2092149,30.2959415 C14.7831983,29.2345535 14.5700901,27.9608082 14.7831983,26.8992212 C14.7831983,26.0499914 14.9963064,25.4131187 15.422323,24.5640879 C16.7005725,22.2289547 18.6179467,21.3797248 19.4701795,22.0165974 C19.8961961,22.2289547 20.5353208,23.9272153 21.1744456,25.4133178 C21.8135703,26.8994202 22.452695,28.5976809 22.8787116,30.0837833 C23.5178363,32.2067584 25.009194,36.6648667 26.71346,37.938612 C26.71346,37.938612 27.5656929,39 30.9742249,39 C30.9742249,39 27.5654931,37.5138975 26.5003518,35.8156369 C25.4352105,34.1173763 25.4352105,26.687063 25.648119,25.4133178 C25.8612271,24.1395725 26.5003518,22.0165974 29.4828673,21.3797248 C32.2524744,20.7428522 37.3654722,26.0501904 37.7914888,26.8992212 C38.2175054,27.5360938 39.2828464,29.4467117 39.2828464,30.9328141 C39.2828464,30.9328141 40.1350793,28.5976809 40.3479877,24.7764451 C40.3479877,24.7764451 44.3958443,21.8044393 48.4435011,22.4413119 C48.4435011,22.4413119 46.9521435,16.2849429 48.4435011,13.1005798 C49.9348587,9.91621668 51,1 51,1 C51,1 49.5086424,1.84922983 47.1652516,1.63687262 C39.069938,0.787642786 31.8264578,3.75964867 25.6483187,9.27914504 Z" id="Shape" fill="#FF0C38"></path>
                <path d="M99.9543273,28.804737 C95.0825832,31.1850374 92.117001,29.2374635 87.0333729,29.4539283 C82.1616288,29.670393 73.2652796,24.6931246 73.2652796,24.6931246 L67.1226285,24.2603981 C67.1226285,24.2603981 57.8027098,30.5358461 47,21.8800977 C47.6354535,21.8800977 48.270907,21.8800977 49.1182446,21.8800977 C49.1182446,21.8800977 47.6354535,15.6046497 49.1182446,12.3586933 C50.6010356,9.11273697 51.6600586,0.0240591505 51.6600586,0.0240591505 C51.6600586,0.0240591505 58.0145938,-0.192405564 59.4973849,0.673250423 C60.9801759,1.53890641 62.8865365,3.0535508 67.5463965,3.70274207 C72.2064552,4.35193334 88.939932,10.1946548 94.2354442,13.2241464 C99.3190723,16.4701028 101.649002,18.4176766 102.07277,19.2833326 C102.496141,20.5815123 104.826071,26.6406985 99.9543273,28.804737 Z" id="Shape" fill="#425A6B"></path>
                <g id="Group" transform="translate(55.000000, 14.000000)" fill="#344A5E">
                    <path d="M11.2667565,10.0553276 C11.2667565,10.0553276 10.6201244,10.4598621 9.5424715,10.8645862 C7.81818653,10.6622241 2.64512953,9.6507931 0.0586010363,9.24625862 L11.2667565,10.0553276 Z" id="Shape"></path>
                    <path d="M38.8565285,5.20015517 C38.4255078,5.20015517 38.2098964,4.9977931 37.7788756,4.79562069 L37.3478549,4.59325862 C37.1322435,4.59325862 36.9168342,4.39089655 36.9168342,4.39089655 C36.4858135,4.18853448 36.2702021,4.18853448 35.8391813,3.98636207 L35.4081606,3.784 C35.1925492,3.784 34.9771399,3.58163793 34.9771399,3.58163793 C34.7615285,3.58163793 34.5461192,3.37927586 34.5461192,3.37927586 L33.6838756,3.37927586 C33.2528549,3.37927586 33.0372435,3.17691379 32.6062228,3.17691379 C32.1752021,3.17691379 31.9595907,2.97455172 31.5285699,2.97455172 C31.0975492,2.97455172 30.8819378,2.77218966 30.4509171,2.77218966 C30.0198964,2.77218966 29.804285,2.56982759 29.3732642,2.56982759 L28.7266321,2.56982759 L28.08,2.56982759 C27.4333679,2.56982759 26.5711244,2.56982759 25.9244922,2.36746552 C25.2778601,2.36746552 24.4156166,2.36746552 23.7689845,2.36746552 C23.1223523,2.36746552 22.2601088,2.36746552 21.6134767,2.36746552 C20.9668446,2.36746552 20.104601,2.56982759 19.4579689,2.56982759 C18.8113368,2.56982759 18.3803161,2.77218966 17.7336839,2.77218966 C17.5180725,2.77218966 17.5180725,2.77218966 17.3026632,2.77218966 L16.8716425,2.77218966 L15.3627668,2.97455172 C9.97409845,3.37908621 4.37002073,1.35622414 4.37002073,1.35622414 L2.64573575,0.951689655 L3.07675648,0.142431034 L4.58563212,0.951689655 C4.80124352,1.15405172 5.23226425,1.15405172 5.66328497,1.15405172 C6.0943057,1.15405172 6.3099171,1.35641379 6.74093782,1.35641379 C7.38756995,1.55877586 8.24981347,1.76094828 8.8964456,1.76094828 L9.32746632,1.76094828 L9.54307772,1.76094828 L9.75868912,1.76094828 L10.1897098,1.76094828 L10.836342,1.76094828 L11.0519534,1.76094828 L11.2675648,1.76094828 L11.9141969,1.76094828 L12.3452176,1.76094828 L12.560829,1.76094828 L12.7764404,1.76094828 L13.4230725,1.76094828 L13.6386839,1.76094828 L13.8542953,1.76094828 C14.2853161,1.76094828 14.5009275,1.76094828 14.9319482,1.76094828 L17.087456,1.55858621 C17.7340881,1.55858621 18.5963316,1.35622414 19.2429637,1.35622414 C19.8895959,1.35622414 20.7518394,1.35622414 21.3984715,1.15386207 C22.0451036,1.15386207 22.9073472,1.15386207 23.5539793,1.15386207 C24.2006114,1.15386207 25.0628549,1.15386207 25.709487,1.15386207 C26.3561192,1.15386207 27.2183627,1.15386207 27.8649948,1.35622414 L28.5116269,1.35622414 L29.1582591,1.35622414 C29.5892798,1.35622414 29.8048912,1.55858621 30.2359119,1.55858621 C30.6669326,1.55858621 30.882544,1.76094828 31.3135648,1.76094828 C31.7445855,1.76094828 31.9601969,1.96331034 32.3912176,1.96331034 C32.8222383,1.96331034 33.0378497,2.16567241 33.4688705,2.16567241 L33.8998912,2.36803448 C34.1155026,2.36803448 34.3309119,2.57039655 34.3309119,2.57039655 C34.5465233,2.57039655 34.7619326,2.77275862 34.7619326,2.77275862 L35.1929534,2.97512069 C35.6239741,3.17748276 35.8395855,3.17748276 36.2706062,3.37965517 C36.4862176,3.37965517 36.7016269,3.58201724 36.7016269,3.58201724 L37.1326477,3.78437931 C38.2098964,4.79562069 38.6409171,4.99798276 38.8565285,5.20015517 Z" id="Shape"></path>
                </g>
                <path d="M59,14.467925 C58.3852162,15.7477262 57.3606405,17.880795 57.3606405,23 C54.9015051,23 46.7043233,22.7866331 41.9910446,18.7340625 C41.9910446,18.7340625 38.3023416,16.1744599 40.9664689,13.8282243 C40.9664689,13.8282243 41.9910446,14.2547581 42.4010286,14.8946587 C42.4010286,14.8946587 44.0403881,14.2547581 44.6551719,15.3211924 C44.6551719,15.3211924 45.4749478,14.2547581 47.1143073,14.467925 C48.7536668,14.6812918 51.0080023,12.9747568 52.032578,12.1216893 C53.0571536,11.2684218 55.1064971,10.2019874 57.1558406,11.9083224 C57.1556485,11.9083224 58.5902082,13.8280243 59,14.467925 Z" id="Shape" fill="#E3BEB2"></path>
                <path d="M35.3720446,20.0268897 L40.4400327,25.091463 C40.4400327,25.091463 42.4231854,27.8348395 44.4063382,29.9449465 C44.6267573,30.1560363 45.0673891,30.5780182 45.2878082,31 L53,31 C50.1353772,27.8346417 46.3894909,23.8251219 45.72844,23.1920502 C45.2878082,22.5589785 45.2878082,21.714817 45.2878082,21.714817 C43.5250747,20.8706555 41.7621345,18.3383689 41.7621345,18.3383689 C41.7621345,18.1272791 41.5417154,16.6502437 41.5417154,16.6502437 C41.7621345,16.4391539 41.9823471,15.5951902 41.9823471,15.5951902 L42.4229788,15.5951902 C42.643398,15.3841004 42.4229788,15.1732084 42.4229788,15.1732084 C41.7619279,14.1181549 40.8804579,14.5401367 40.8804579,14.5401367 C40.219407,14.1181549 39.3379369,14.5401367 39.3379369,14.5401367 C39.3379369,14.5401367 39.3379369,14.5401367 38.4564668,14.1181549 C37.5749967,13.6961731 37.134365,14.5401367 37.134365,14.5401367 C36.0326823,14.1181549 35.8122632,14.5401367 35.8122632,14.5401367 C35.8122632,14.5401367 35.3716314,16.4393517 35.1512123,17.9165849 C34.7109937,19.6047101 35.3720446,20.0268897 35.3720446,20.0268897 Z" id="Shape" fill="#FAE1DA"></path>
                <path d="M40,49.3876903 L38.7294164,51.3233577 C38.5175863,51.3233577 38.3059548,51.1082163 38.0941247,51.1082163 C37.670663,50.8930749 37.4588329,51.3233577 37.4588329,51.7534387 C37.4588329,53.4739647 37.2470028,55.1946924 36.1882493,57.1303597 C31.7412068,65.3031103 22,57.9907236 22,57.9907236 C23.6940452,55.4098337 28.5647479,58.2058649 24.7529972,52.3988628 C24.1177054,50.6783368 25.8117507,48.9576092 27.5059945,49.6028316 C27.9294561,49.817973 28.1412862,49.817973 28.3531163,49.6028316 C29.2002382,48.7424678 29.4118698,47.4520229 28.5649465,46.5918607 C26.0237793,43.1506071 29.4120683,41 29.4120683,41 C30.6826519,41.2151414 33.223819,42.9356674 35.1296944,45.5165572 C35.9768163,46.8070021 37.0355697,48.7426695 38.5179834,48.7426695 C38.9412465,48.9576092 39.5765383,49.1727506 40,49.3876903 Z" id="Shape" fill="#425A6B"></path>
                <ellipse id="Oval" fill="#FBE1DA" transform="translate(28.000000, 48.500000) rotate(-15.605389) translate(-28.000000, -48.500000) " cx="28" cy="48.5" rx="2" ry="2.5"></ellipse>
                <path d="M37.4364975,49.8425208 C38.309288,51.3172285 39.6183715,53.845186 39.4001227,56.3731435 C39.4001227,57.8478512 39.181874,59.3223614 39.4001227,61.0077981 C39.6183715,63.1144951 40.927455,65.2209947 42.6728314,66.4849735 C44.6364566,67.5382232 46.8183306,68.1702126 49,67.9596811 C47.0363748,65.8529841 45.9455401,62.6930372 46.3818331,59.9545483 C46.6000818,58.6905695 47.0363748,57.4265908 47.0363748,56.162612 C47.0363748,53.8453835 45.7272913,51.9494154 43.7636661,50.4747077 C41.8000409,49.210729 38.9636252,49.210729 37,49" id="Shape" fill="#425A6B"></path>
                <path d="M37.444375,50.8162037 C37.6666667,49.6771219 37.444375,48.5378265 37,47.1708429 C38.555625,46.7152529 39.8889583,47.1708429 41,48.5378265 C40.1110417,49.2213183 39.444375,50.5883019 39,51.9552855 C38.3333333,52.1831873 37.88875,51.4996955 37.444375,50.8162037 Z" id="Shape" fill="#F26F5A"></path>
                <path d="M40.5417837,57.4476954 C39.6906927,59.910335 39.9035153,62.3731845 40.7546064,64.835824 C41.1800521,65.9551675 41.8183206,67.0747208 42.456589,68.1940643 C42.8820348,69.3134078 43.30768,70.6567039 42.8820348,72 C43.7331258,71.3283519 44.1585716,69.9850558 43.9457489,68.8657124 C43.7329263,67.7463689 43.0946579,66.6268155 42.6692121,65.5074721 C41.6054979,62.8208799 40.9672295,59.910335 41.1798527,57" id="Shape" fill="#425A6B"></path>
            </g>
        </g>
    </g>
</svg>