<?xml version="1.0" encoding="UTF-8"?>
<svg width="64px" height="97px" viewBox="0 0 64 97" version="1.1" xmlns="http://www.w3.org/2000/svg" xmlns:xlink="http://www.w3.org/1999/xlink">
    <!-- Generator: Sketch 49.3 (51167) - http://www.bohemiancoding.com/sketch -->
    <title>chef</title>
    <desc>Created with Sketch.</desc>
    <defs></defs>
    <g id="UI-Kit" stroke="none" stroke-width="1" fill="none" fill-rule="evenodd">
        <g id="Style-Guide" transform="translate(-1382.000000, -4292.000000)" fill-rule="nonzero">
            <g id="chef" transform="translate(1379.000000, 4289.000000)">
                <g id="Group" transform="translate(24.000000, 75.000000)" fill="#EAEAEA">
                    <ellipse id="Oval" cx="1.02057143" cy="1.0352" rx="1" ry="1"></ellipse>
                    <ellipse id="Oval" cx="18.1353061" cy="1.0352" rx="1" ry="1"></ellipse>
                </g>
                <path d="M40.2421555,88 L29.7003578,88 C25.8516402,92.4064022 20.9290306,94.5508733 14.6791728,94.5508733 C12.4029974,94.5508733 10.1423419,94.1922602 8,93.5071749 C11.1501235,97.1301214 15.6037115,100 20.5746946,100 C27.1635701,100 30.9584722,98.6876826 33.6742418,95.4710733 C34.011244,95.071359 34.5169487,94.8387767 35.0520807,94.8387767 C35.5872127,94.8387767 36.0929175,95.071359 36.4299196,95.4710733 C39.0380581,98.5608727 43.514019,100 50.5181005,100 C55.557008,100 60.5560075,97.0268814 64,93.2560873 C61.0617122,94.1344069 57.9585514,94.5508733 55.5275808,94.5508733 C49.1993176,94.5506785 44.0596319,92.3475748 40.2421555,88 Z" id="Shape" fill="#E4AD40"></path>
                <path d="M9.8783527,36.1987278 C10.5032997,36.4450059 10.9391262,37.0062201 11.0141115,37.6601937 L13.7800768,62 L56.2195089,62 L58.9856813,37.6601937 C59.0606667,37.0062201 59.4964932,36.4450059 60.1214402,36.1987278 C64.300113,34.5549838 67,30.6465348 67,26.2422892 C67,20.3269576 62.0785165,15.5150165 56.0285241,15.5150165 C55.2821919,15.5150165 54.5356527,15.5891429 53.8106562,15.7341554 C52.8820392,15.922712 51.9606722,15.3823585 51.6909735,14.492841 C49.6303262,7.72627037 43.1426431,3 35.9142206,3 C28.4803134,3 21.9427091,7.89659919 20.0177398,14.9076251 C19.8855832,15.3894471 19.5535348,15.7955223 19.1017584,16.0268131 C18.6518463,16.2599266 18.1196989,16.2965848 17.6393369,16.1288889 C16.4679497,15.7211934 15.2321413,15.515219 13.9714759,15.515219 C7.92148352,15.515219 3,20.3271601 3,26.2424918 C2.99979286,30.6465348 5.6996799,34.5547813 9.8783527,36.1987278 Z M54.1998757,19.0907066 C55.2105209,19.0907066 56.0285241,19.8913128 56.0285241,20.8786529 C56.0285241,21.8659929 55.210728,22.6665992 54.1998757,22.6665992 C52.183764,22.6665992 50.5427861,24.270242 50.5427861,26.2422892 C50.5427861,27.2296293 49.72499,28.0302355 48.7141378,28.0302355 C47.7032855,28.0302355 46.8854894,27.2296293 46.8854894,26.2422892 C46.8856965,22.2990049 50.1659951,19.0907066 54.1998757,19.0907066 Z M34.0855722,8.36343383 C35.0962174,8.36343383 35.9142206,9.16404005 35.9142206,10.1513801 C35.9142206,11.1387202 35.0964245,11.9393264 34.0855722,11.9393264 C32.0694605,11.9393264 30.4284827,13.5429692 30.4284827,15.5150165 C30.4284827,16.5023566 29.6106866,17.3029628 28.5998343,17.3029628 C27.588982,17.3029628 26.7711859,16.5023566 26.7711859,15.5150165 C26.7711859,11.5717321 30.0516916,8.36343383 34.0855722,8.36343383 Z M15.79971,19.0907066 C16.8103552,19.0907066 17.6283584,19.8913128 17.6283584,20.8786529 C17.6283584,21.8659929 16.8105623,22.6665992 15.79971,22.6665992 C13.7835982,22.6665992 12.1426204,24.270242 12.1426204,26.2422892 C12.1426204,27.2296293 11.3248243,28.0302355 10.313972,28.0302355 C9.30332689,28.0302355 8.48532368,27.2296293 8.48532368,26.2422892 C8.48553082,22.2990049 11.7658294,19.0907066 15.79971,19.0907066 Z" id="Shape" fill="#E9E7D1"></path>
                <g id="Group">
                    <path d="M8.02884267,40.3924088 L10.79808,65.7751903 C10.8994133,66.6975327 11.6646827,67.3957893 12.5766827,67.3957893 L57.3035947,67.3957893 C58.2155947,67.3957893 58.980864,66.6975327 59.0821973,65.7751903 L61.8514347,40.3924088 C66.7312427,37.9474791 69.8271787,32.931133 69.8271787,27.3225894 C69.8271787,19.2876868 63.406496,12.7506105 55.514656,12.7506105 C55.074464,12.7506105 54.6340693,12.7710382 54.1954987,12.8118936 C51.293312,5.19503706 43.95536,0 35.8347093,0 C27.5549653,0 20.2048533,5.29098544 17.3762347,13.0733272 C16.3924907,12.8589393 15.3862507,12.7504042 14.365824,12.7504042 C6.473984,12.7504042 0.0533013333,19.2874804 0.0533013333,27.322383 C0.0530986667,32.931133 3.14903467,37.9474791 8.02884267,40.3924088 Z M14.365824,16.3935536 C15.5992533,16.3935536 16.8083627,16.603402 17.9544427,17.0187656 C18.4244267,17.1896156 18.9450773,17.152268 19.3852693,16.91477 C19.8272853,16.679129 20.15216,16.2654161 20.2814613,15.7745319 C22.1648427,8.63163961 28.5612053,3.64294314 35.8345067,3.64294314 C42.9069653,3.64294314 49.2542827,8.45810717 51.2704107,15.3519463 C51.5342827,16.2581942 52.435744,16.8087109 53.3442987,16.6166078 C54.053632,16.4690743 54.7840427,16.3933473 55.5142507,16.3933473 C61.433536,16.3933473 66.2486933,21.2957934 66.2486933,27.322383 C66.2486933,31.8094655 63.6069333,35.7914263 59.5187413,37.4660865 C58.907296,37.7169967 58.4808853,38.2887664 58.40752,38.9550402 L55.701312,63.7526398 L14.1787627,63.7526398 L11.4725547,38.9550402 C11.3991893,38.2887664 10.9727787,37.7169967 10.3613333,37.4660865 C6.27293867,35.7914263 3.63138133,31.8094655 3.63138133,27.322383 C3.63138133,21.2959997 8.44653867,16.3935536 14.365824,16.3935536 Z" id="Shape"></path>
                    <path d="M10.7875413,29.1441641 C11.776352,29.1441641 12.5766827,28.3284998 12.5766827,27.3225894 C12.5766827,25.313451 14.182208,23.6796462 16.1547627,23.6796462 C17.1435733,23.6796462 17.943904,22.8639819 17.943904,21.8580715 C17.943904,20.8521611 17.143776,20.0364968 16.1547627,20.0364968 C12.208032,20.0364968 8.9984,23.3051381 8.9984,27.3225894 C8.99860267,28.3284998 9.79873067,29.1441641 10.7875413,29.1441641 Z" id="Shape" fill="#E4AD40"></path>
                    <path d="M28.6783467,18.2151284 C29.6671573,18.2151284 30.467488,17.399464 30.467488,16.3935536 C30.467488,14.3844153 32.0730133,12.7506105 34.045568,12.7506105 C35.0343787,12.7506105 35.8347093,11.9349461 35.8347093,10.9290358 C35.8347093,9.92312537 35.0345813,9.10746101 34.045568,9.10746101 C30.0988373,9.10746101 26.8892053,12.3761023 26.8892053,16.3935536 C26.8892053,17.399464 27.689536,18.2151284 28.6783467,18.2151284 Z" id="Shape" fill="#E4AD40"></path>
                    <path d="M48.3580907,29.1441641 C49.3469013,29.1441641 50.147232,28.3284998 50.147232,27.3225894 C50.147232,25.313451 51.7527573,23.6796462 53.725312,23.6796462 C54.7141227,23.6796462 55.5144533,22.8639819 55.5144533,21.8580715 C55.5144533,20.8521611 54.7143253,20.0364968 53.725312,20.0364968 C49.7785813,20.0364968 46.5689493,23.3051381 46.5689493,27.3225894 C46.569152,28.3284998 47.36928,29.1441641 48.3580907,29.1441641 Z" id="Shape" fill="#E4AD40"></path>
                    <path d="M21.521984,77.4140376 C21.521984,79.92479 23.527776,81.9677681 25.9946347,81.9677681 C28.4614933,81.9677681 30.4672853,79.92479 30.4672853,77.4140376 C30.4672853,74.9032853 28.4614933,72.8603071 25.9946347,72.8603071 C23.527776,72.8603071 21.521984,74.903079 21.521984,77.4140376 Z M26.8892053,77.4140376 C26.8892053,77.916477 26.4873173,78.324825 25.9946347,78.324825 C25.501952,78.324825 25.100064,77.9166833 25.100064,77.4140376 C25.100064,76.911392 25.501952,76.5032503 25.9946347,76.5032503 C26.48752,76.5032503 26.8892053,76.911392 26.8892053,77.4140376 Z" id="Shape" fill="#314E55"></path>
                    <path d="M39.4127893,77.4140376 C39.4127893,79.92479 41.4185813,81.9677681 43.88544,81.9677681 C46.3522987,81.9677681 48.3580907,79.92479 48.3580907,77.4140376 C48.3580907,74.9032853 46.3522987,72.8603071 43.88544,72.8603071 C41.4185813,72.8603071 39.4127893,74.903079 39.4127893,77.4140376 Z M44.7800107,77.4140376 C44.7800107,77.916477 44.3781227,78.324825 43.88544,78.324825 C43.3927573,78.324825 42.9908693,77.9166833 42.9908693,77.4140376 C42.9908693,76.911392 43.3927573,76.5032503 43.88544,76.5032503 C44.3781227,76.5032503 44.7800107,76.911392 44.7800107,77.4140376 Z" id="Shape" fill="#314E55"></path>
                </g>
            </g>
        </g>
    </g>
</svg>