<?xml version="1.0" encoding="UTF-8"?>
<svg width="98px" height="105px" viewBox="0 0 98 105" version="1.1" xmlns="http://www.w3.org/2000/svg" xmlns:xlink="http://www.w3.org/1999/xlink">
    <!-- Generator: Sketch 49.3 (51167) - http://www.bohemiancoding.com/sketch -->
    <title>Group 3</title>
    <desc>Created with Sketch.</desc>
    <defs></defs>
    <g id="UI-Kit" stroke="none" stroke-width="1" fill="none" fill-rule="evenodd">
        <g id="Style-Guide" transform="translate(-136.000000, -4286.000000)" fill="#00BCFF">
            <g id="Group-3" transform="translate(136.000000, 4286.000000)">
                <path d="M75.0583607,56.709074 C72.3898416,56.709074 70.2125479,54.49012 70.2125479,51.7614966 C70.2125479,49.2398568 74.0508586,44.5426629 74.4865351,44.0140756 C74.7740817,43.6691028 75.3459072,43.6691028 75.6334537,44.0140756 C76.0702195,44.5426629 79.907441,49.2398568 79.907441,51.7614966 C79.907441,54.49012 77.7301473,56.709074 75.0583607,56.709074 Z M62.5359266,69.6633583 C59.8674076,69.6633583 57.6912031,67.4444043 57.6912031,64.7180066 C57.6912031,62.195254 61.5284246,57.4958345 61.9651903,56.9694728 C62.2527369,56.6233872 62.8234732,56.6233872 63.1121089,56.9694728 C63.5477855,57.4958345 67.3828286,62.195254 67.3828286,64.7180066 C67.3828286,67.4444043 65.2088024,69.6633583 62.5359266,69.6633583 Z M49.1998666,56.709074 C46.5291692,56.709074 44.3540539,54.49012 44.3540539,51.7614966 C44.3540539,49.2398568 48.1901862,44.5426629 48.6280411,44.0140756 C48.9134093,43.6691028 49.4874132,43.6691028 49.7727813,44.0140756 C50.2117255,44.5426629 54.0467685,49.2398568 54.0467685,51.7614966 C54.0467685,54.49012 51.8716532,56.709074 49.1998666,56.709074 Z M35.8648958,69.6633583 C33.1941984,69.6633583 31.0201723,67.4444043 31.0201723,64.7180066 C31.0201723,62.195254 34.8552153,57.4958345 35.2908919,56.9694728 C35.5795276,56.6233872 36.1524423,56.6233872 36.4388997,56.9694728 C36.8767547,57.4958345 40.7117977,62.195254 40.7117977,64.7180066 C40.7117977,67.4444043 38.5377716,69.6633583 35.8648958,69.6633583 Z M22.5255682,56.709074 C19.8581384,56.709074 17.6808447,54.49012 17.6808447,51.7614966 C17.6808447,49.2398568 21.5180661,44.5426629 21.9548319,44.0140756 C22.2423784,43.6691028 22.8142039,43.6691028 23.1017505,44.0140756 C23.5374271,44.5426629 27.3757377,49.2398568 27.3757377,51.7614966 C27.3757377,54.49012 25.198444,56.709074 22.5255682,56.709074 Z M76.3490525,29.7689254 C75.2881801,29.7689254 74.2447346,29.8501609 73.2154487,30.0204217 C73.4300194,28.6872688 73.5629008,27.3429878 73.5629008,25.943066 C73.5629008,11.6211315 62.2037233,0 48.1738483,0 C34.5295471,0 23.423062,11.0280008 22.8468797,24.8391531 C10.1153209,25.502391 0,36.2199164 0,49.3845228 C0,62.9853529 10.7840845,74 24.100539,74 L76.3490525,74 C88.3018394,74 98,64.100394 98,51.8805678 C98,39.6718698 88.3018394,29.7689254 76.3490525,29.7689254 Z" id="Fill-76"></path>
                <path d="M34.4077321,92.260497 C33.957069,92.7887502 30,97.5050579 30,100.034643 C30,102.773072 32.2432007,105 34.9966285,105 C37.7545516,105 40,102.773072 40,100.034643 C40,97.5050579 36.0406833,92.7887502 35.5911441,92.260497 C35.2933243,91.9131677 34.704428,91.9131677 34.4077321,92.260497" id="Fill-77"></path>
                <path d="M61.4099798,92.260497 C60.957069,92.7887502 57,97.5050579 57,100.034643 C57,102.773072 59.2443246,105 61.9988762,105 C64.7567993,105 67,102.773072 67,100.034643 C67,97.5050579 63.042931,92.7887502 62.5933918,92.260497 C62.295572,91.9131677 61.704428,91.9131677 61.4099798,92.260497" id="Fill-78"></path>
                <path d="M21.4094842,78.2588106 C20.9588718,78.7903915 17,83.5031463 17,86.034856 C17,88.7731675 19.2440724,91 21.9994381,91 C24.7559276,91 27,88.7731675 27,86.034856 C27,83.5031463 23.0433757,78.7903915 22.5927632,78.2588106 C22.2961007,77.9137298 21.7061468,77.9137298 21.4094842,78.2588106" id="Fill-79"></path>
                <path d="M48.4072368,78.2588106 C47.9577481,78.7903915 44,83.5031463 44,86.034856 C44,88.7731675 46.2440724,91 48.9994381,91 C51.7570514,91 54,88.7731675 54,86.034856 C54,83.5031463 50.0411282,78.7903915 49.5905158,78.2588106 C49.2938532,77.9137298 48.7038993,77.9137298 48.4072368,78.2588106" id="Fill-80"></path>
                <path d="M73.4094842,78.2588106 C72.9599955,78.7903915 69,83.5031463 69,86.034856 C69,88.7731675 71.2440724,91 73.9994381,91 C76.7570514,91 79,88.7731675 79,86.034856 C79,83.5031463 75.0433757,78.7903915 74.5927632,78.2588106 C74.2961007,77.9137298 73.7072705,77.9137298 73.4094842,78.2588106" id="Fill-81"></path>
            </g>
        </g>
    </g>
</svg>