<?xml version="1.0" encoding="UTF-8"?>
<svg width="120px" height="109px" viewBox="0 0 120 109" version="1.1" xmlns="http://www.w3.org/2000/svg" xmlns:xlink="http://www.w3.org/1999/xlink">
    <!-- Generator: Sketch 49.3 (51167) - http://www.bohemiancoding.com/sketch -->
    <title>exercise (7)</title>
    <desc>Created with Sketch.</desc>
    <defs></defs>
    <g id="UI-Kit" stroke="none" stroke-width="1" fill="none" fill-rule="evenodd">
        <g id="Style-Guide" transform="translate(-1103.000000, -4087.000000)" fill-rule="nonzero">
            <g id="exercise-(7)" transform="translate(1103.000000, 4087.000000)">
                <path d="M85.7887708,58.3301894 C85.7887708,58.3301894 101.12591,57.5872632 103.891531,58.3301894 C106.657152,59.0731156 111.937124,62.540027 111.937124,65.5117317 C111.937124,68.4834364 112.188629,69.474082 111.685618,70.9599343 C110.931336,72.4457867 111.434112,74.4268457 111.434112,74.4268457 C111.434112,74.4268457 110.177054,82.3513142 108.668491,84.8278121 C107.159928,87.3043101 106.908422,93 106.908422,93 L99.8683811,93 C99.8683811,93 100.874169,86.8088712 100.622663,83.5896792 C100.371157,80.3702551 99.8683811,75.1697719 101.62845,71.7028605 C101.62845,71.7028605 98.3598177,71.2076538 95.8457026,72.1980672 C93.3313518,73.1887128 84.5314775,76.4079048 79,73.931639 L85.7887708,58.3301894 Z" id="Shape" fill="#F5B54C"></path>
                <path d="M12.2281867,89.9999796 C12.2281867,89.9999796 18.4241794,88.000051 20.1588808,86.9999694 C21.8938145,85.9998879 25.8590454,84.2500382 29.0809987,84.2500382 C32.3029521,84.2500382 37.7552026,83.9999592 40.2336462,82.7500331 C42.7120897,81.500107 43.7032812,80.2499465 43.7032812,80.2499465 L51.1383795,73.7500025 L59.3169877,73 L67,77.2499363 C67,77.2499363 59.5649017,84.2500382 55.5994385,86.9999694 C51.6339753,89.9999796 48.1643402,91.7500637 45.6858967,91.9999083 C45.6858967,91.9999083 41.2248377,93.4999134 38.0028843,92.9999898 C38.0028843,92.9999898 35.5244408,92.7499108 34.0374211,93.2500688 C32.5504015,93.7499924 25.858813,94.7500739 21.8933498,94.7500739 C17.9278866,94.7500739 15.2017613,96 15.2017613,96 C15.2017613,96 10.9888488,94.2501503 12.2281867,89.9999796 Z" id="Shape" fill="#FFD15C"></path>
                <path d="M62.1706039,60.1105631 C62.1706039,60.1105631 60.4329492,59.8617961 60.4329492,60.1105631 C60.4329492,60.1105631 59.4399705,62.348767 59.4399705,62.846068 C59.4399705,63.3433689 59.1916676,64.3382039 58.4469917,64.8355048 C57.7023158,65.3328058 57.4540129,66.3276408 57.4540129,66.3276408 C57.4540129,66.3276408 55.7163583,68.0685438 55.7163583,69.3119127 C55.7163583,69.3119127 55.7163583,70.3067477 54.9716824,70.5552816 C54.2270065,70.8040486 53.2340277,72.0474175 53.2340277,72.0474175 L51,74.7829223 L53.4823306,77.2698933 L56.4610342,75.7777574 C56.4610342,75.7777574 56.2127313,77.2698933 56.2127313,77.7671942 C56.2127313,78.2644952 56.4610342,79.0105631 56.4610342,79.0105631 C56.4610342,79.0105631 64.4041662,78.7617961 65.6454478,79.7566311 C67.1347996,80.7514661 67.1347996,81 67.1347996,81 L73.8368827,77.5184272 L79.2979169,79.7566311 C79.2979169,79.7566311 80.0425928,78.2644952 80.7872687,78.0157281 C81.5319446,77.7669611 85.503627,72.2959514 86,69.5602134 L62.1706039,60.1105631 Z" id="Shape" fill="#425A6B"></path>
                <path d="M99.4565696,91 C99.4565696,91 103.340831,92.2194453 106.25397,91 C106.25397,91 105.768523,96.1219903 107.467703,97.585416 C109.16711,99.0488418 106.25397,101 106.25397,101 L98,98.8048613 C98.2426099,99.0488418 98.4854473,92.9511582 99.4565696,91 Z" id="Shape" fill="#E8EAE8"></path>
                <path d="M98.5000611,96.2990007 C98.5000611,96.2990007 99.7499745,98.8535258 101.000122,99.1088107 C102.250036,99.364335 104.750097,98.8532863 105.500092,97.5761435 C105.500092,97.5761435 105.500092,96.8098099 107.000082,97.0653343 C107.000082,97.0653343 106.250087,95.0218579 106.750005,94.2555244 C106.750005,94.2555244 107.5,94 107.750076,94 C107.750076,94 108.000153,94.2555244 108.000153,94.7663336 C108.750148,97.0653343 110.250138,99.1088107 112.250046,100.641478 C113.250117,101.407811 114.249954,101.918621 114.999949,101.918621 C114.999949,101.918621 118.749924,101.663096 119,103.706812 C119,103.706812 117.999929,106.005813 110.49998,104.473146 C110.49998,104.473146 105.500092,103.196003 102.749954,103.706812 C100.000051,103.962336 96.4999185,102.684954 96,101.663336 C96,101.663336 96.7499949,100.386193 96.4999185,99.8751442 C96.2500764,99.364335 97.4999898,95.5326671 98.5000611,96.2990007 Z" id="Shape" fill="#425A6B"></path>
                <path d="M96.7412071,102 C96.7412071,102 100.694389,103.555625 102.91801,103.333333 C105.141632,103.111042 107.859314,103.555625 109.836021,104 C111.812496,104.444375 117.989299,105.555625 119.71886,103.555625 C119.71886,103.555625 120.707213,104.666667 118.977652,105.333333 C117.001177,106 115.024471,106 115.024471,106 C115.024471,106 110.083167,105.777708 108.353606,105.555625 C106.624046,105.333333 104.400425,105.333333 104.400425,105.333333 C104.400425,105.333333 97.2354996,105.777708 96,103.333333 L96.4940609,102.888958 L96.7412071,102 Z" id="Shape" fill="#E8EAE8"></path>
                <path d="M88.1102622,14.6479802 L87.8675402,16.6918929 C87.8675402,16.6918929 87.3823237,18.9913844 85.4410028,19.7578816 C83.4999093,20.5243788 88.5954787,25.3789408 88.5954787,25.3789408 L93.9337701,31 C93.9337701,31 93.9337701,26.145438 95.3896471,24.1015253 C96.1175856,23.3350281 96.3603076,22.568531 96.6028021,22.0576127 C97.0880186,21.2911155 97.8159571,20.7801972 98.7866175,20.5246183 L99.0293395,20.5246183 C100,20.5246183 100,18.736045 100,18.736045 C100,18.736045 89.8086337,9.2824999 88.1102622,14.6479802 Z" id="Shape" fill="#F5B54C"></path>
                <path d="M89.3815448,13.2987631 C89.3815448,13.2987631 91.9340537,20.3771737 99.0806958,20.8654978 C99.0806958,20.8654978 101.888288,21.597755 101.888288,19.6451453 C101.888288,19.6451453 101.888288,18.4247928 102.143611,17.9364687 C102.654017,17.4483735 102.398933,17.2042114 102.143611,17.2042114 C102.143611,17.2042114 102.909339,17.2042114 102.909339,16.7161162 C102.909339,16.7161162 103.930391,14.2751824 103.164662,12.0784106 C103.164662,12.0784106 103.164662,11.5903154 103.419985,11.5903154 C103.675307,11.5903154 104.185714,10.3699629 103.930391,9.88163881 C103.675068,9.39331475 103.164662,8.41712429 103.164662,8.41712429 L103.164662,7.68486702 L102.654256,5.48809523 L93.7208339,5 L91.4236477,9.39354358 C91.4234084,9.63747678 87.8500874,9.88163881 89.3815448,13.2987631 Z" id="Shape" fill="#FFD15C"></path>
                <path d="M88.7979836,17 C88.7979836,17 89.0537951,15.5217391 88.0307889,13.3043478 C87.0077827,11.0869565 86.240588,5.66658967 88.2866003,3.20297554 C90.5881845,0.985584239 94.1683465,0 96.2143589,0 C98.0045598,0.246453804 103.630495,2.71006793 103.886306,4.92745924 C104.142117,7.14485054 103.886306,7.39130435 103.886306,7.39130435 C103.886306,7.39130435 103.886306,6.89862772 103.630495,6.65217391 C103.374683,6.15949728 102.607488,5.91304348 102.096105,6.40572011 C101.584722,6.65217391 100.817527,7.14485054 99.794521,6.40572011 C99.2831378,6.1592663 98.7715148,5.91304348 98.515943,5.91304348 C97.7487483,5.91304348 96.7257421,6.15949728 96.9815536,7.14485054 C96.9815536,7.14485054 96.7257421,9.11578804 94.935781,9.36224185 C94.935781,9.36224185 93.6572031,10.5940489 93.6572031,12.3187636 L92.6339571,12.3187636 C92.6339571,12.3187636 92.1225739,9.36224185 90.0765615,10.3478261 C90.332373,10.1013723 90.5881845,16.0144158 88.7979836,17 Z" id="Shape" fill="#425A6B"></path>
                <path d="M91.8570877,12.5140764 C92.1143138,13.0092639 92.1143138,15.7333755 91.0856505,15.9808531 C90.0569872,16.228563 88.5141129,13.999871 88.2571279,13.5044514 C87.7429168,11.7709469 87.9999018,10.2851523 89.0285651,10.0376746 C90.0572283,9.78996482 91.3428766,10.780572 91.8570877,12.5140764 Z" id="Shape" fill="#FFD15C"></path>
                <path d="M101.825714,32 C101.825714,32 105.889286,37.4299607 106.905,39.4043867 C106.905,39.4043867 107.412857,39.4043867 108.174762,40.885264 C108.682619,42.3661414 110.968333,49.2769794 110.968333,52.2387341 C110.968333,55.2004888 111.47619,57.4218048 111.47619,57.4218048 C111.47619,57.4218048 111.47619,58.6557921 112.238095,59.3962308 C113,60.1366695 113,61.6175468 113,61.6175468 L111.984048,62.1110955 L111.222143,63.8388628 C111.222143,63.8388628 110.20619,64.3324115 109.952381,63.5919728 C109.952381,63.5919728 108.936429,64.0855215 108.682619,63.3450828 L106.142857,58.9024508 C106.142857,58.9024508 105.88881,56.4342447 104.873095,54.2129287 C103.857143,51.9916127 102.079524,47.7958707 102.333333,45.5745547 C102.333333,45.5745547 97.7619048,43.1063487 97,37.4297293 L101.825714,32 Z" id="Shape" fill="#F5B54C"></path>
                <path d="M86.6563925,19 C86.6563925,19 87.9139802,19.4950668 88.417204,20.7330818 C88.9201919,21.9708648 89.6747917,24.1990134 91.1839912,24.6943122 C92.4415789,25.189379 94.4540022,28.1602437 94.4540022,28.1602437 C94.4540022,28.1602437 94.9569901,27.9125943 94.9569901,27.1698781 C94.9569901,25.189379 96.4661897,23.2086477 96.7178015,23.4562972 C96.7178015,23.4562972 99.9878125,26.4271619 100.742412,29.6456761 C100.742412,29.6456761 101.2454,31.1311085 102,31.378758 C102,31.378758 101.497012,35.0923389 99.2332127,35.8350551 C99.2332127,35.8350551 97.7240132,46.7281486 93.9510143,53.4125943 C89.9264035,60.0970401 89.4234156,59.8493906 88.9204277,62.5728381 C88.4174398,65.2962855 85.3990406,70 85.3990406,70 C85.3990406,70 61,62.8202554 61,59.1066744 C61,59.1066744 62.5091996,55.6407429 64.0183991,55.6407429 C64.0183991,55.6407429 65.2759868,52.6698781 67.2884101,52.4222287 C67.2884101,52.4222287 67.791398,51.1844457 69.0492215,50.9367963 C69.0492215,50.9367963 69.5522094,48.213581 71.8160088,44.9950668 C71.8160088,44.9950668 73.5768202,41.5291352 74.33142,37.3202554 C75.3376316,33.1116077 76.0922314,28.9027278 78.1044189,25.6844457 C79.8649945,22.4659315 82.3804057,19.7427162 86.6563925,19 Z" id="Shape" fill="#F05640"></path>
                <path d="M81.9613606,40 C81.9613606,40 79.9537268,39.254004 81.2084685,39.005261 C82.4632102,38.7565179 89.992131,36.51853 92,38.508008 C92,38.508008 91.4981504,36.27002 91.7489575,34.2807751 C92.2508072,32.2915302 90.4942159,28.8100601 89.992131,28.0640641 C89.4902813,27.3180681 85.9766281,23.5880882 81.9613606,25.5773331 C78.1969002,27.566578 76.9421585,31.0480481 78.9497923,35.275281 C78.9497923,35.275281 80.204534,37.513269 80.204534,38.7565179 C80.204534,39.751257 81.2084685,40 81.9613606,40 Z" id="Shape" fill="#F26F5A"></path>
                <path d="M91.2501318,36 C91.2501318,36 94,44.4633299 95.2501318,45.956845 C96.5000293,47.45036 97.7501611,48.6948782 98,49.1928721 C98.2500732,49.9396296 102.499912,57.407205 102.499912,57.407205 C102.499912,57.407205 103.249897,58.4029595 104.749868,57.407205 C106.499912,56.4114505 106.249839,56.1626869 106.749751,56.1626869 C106.749751,56.1626869 108.749634,55.1669324 109.749692,55.9136899 C109.749692,55.9136899 110.249604,56.1626869 109.999766,56.4114505 L110.999824,56.1624535 L111.999883,56.9092111 C111.999883,56.9092111 112.749868,57.6559686 112.749868,57.9049656 C112.749868,58.1539626 112.749868,58.6517231 112.249956,58.4027262 C112.249956,58.4027262 112.999941,59.1494837 113.250015,59.3984807 C113.500088,59.3984807 114,59.6474776 114,60.3942352 C114,61.1409927 112.999941,60.6432321 112.999941,60.6432321 C112.999941,60.6432321 111.499971,59.8964746 110.749985,60.1454716 C110.749985,60.1454716 110.499912,60.3944685 111.000059,60.6432321 C111.250132,60.6432321 112.249956,61.1409927 112.249956,61.1409927 L113.250015,61.6387533 C113.250015,61.6387533 114,61.8877503 113.749927,62.3855108 C113.499854,62.8832714 112.749634,62.6345078 112.749634,62.6345078 L111.749575,62.1367472 L110.749517,61.8877503 C110.749517,61.8877503 109.999531,62.1367472 109.249546,62.6345078 C108.499561,63.1322684 105.249546,65.1237774 101.749692,63.1322684 C98.2498389,61.1407593 94.2498389,57.6559686 94.2498389,57.6559686 C94.2498389,57.6559686 92.9999414,55.9134566 92.4997949,55.415696 C91.9998828,55.166699 90.2498389,52.4286659 90.2498389,52.4286659 C90.2498389,52.4286659 89.2497803,51.6819083 88.7498682,50.4373902 C88.7498682,50.4373902 86.4999121,46.2058419 85.4998535,45.2100874 C84.4997949,44.2143329 82,39.7337877 82,36.9957545 L91.2501318,36 Z" id="Shape" fill="#FFD15C"></path>
                <g id="Group" transform="translate(0.000000, 90.000000)" fill="#E8EAE8">
                    <path d="M13.5004179,0.0667317073 C13.5004179,0.0667317073 12.7362388,3.52681707 15.7929552,5.99843902 L12.2268657,8.22282927 L9.67952239,10.9414512 L4.58507463,8.71706098 L3.82089552,1.79665854 L8.40597015,0.807963415 C8.40597015,0.808195122 11.2078806,0.808195122 13.5004179,0.0667317073 Z" id="Shape"></path>
                    <path d="M4.07570149,1.54965854 C4.07570149,1.54965854 2.03797015,1.05542683 1.27379104,2.04389024 C0.25480597,3.03258537 0,4.02104878 0,4.02104878 C0,4.02104878 0.25480597,6.49267073 0.764179104,8.22259756 C1.27355224,10.1997561 1.01898507,13.1656098 1.01898507,13.1656098 C1.01898507,13.1656098 0.764179104,15.6372317 2.54734328,17.3671585 C4.33050746,19.0970854 7.64179104,19.0973171 10.1891343,18.8500854 C12.7364776,18.6028537 12.7364776,18.6028537 12.7364776,18.6028537 C12.7364776,18.6028537 13.2458507,18.108622 12.9912836,17.6141585 C12.4819104,16.8726951 11.9722985,16.8726951 11.9722985,16.8726951 C11.9722985,16.8726951 8.15140299,16.1312317 6.36823881,13.6596098 C4.8398806,10.6942195 2.54734328,4.26828049 4.07570149,1.54965854 Z" id="Shape"></path>
                </g>
                <path d="M9.18646578,90.7642021 C9.18646578,90.7642021 8.42640906,90.5184642 7.66635234,91.2554474 C6.65286421,91.9924306 5.89280749,92.4836759 5.63961359,94.2033801 C5.38618218,95.6773464 5.63961359,96.4143296 6.1462389,96.9055749 C6.65286421,97.1513127 8.17297765,97.3968203 8.17297765,98.3795412 L9.69309109,96.6598371 C9.69309109,96.6598371 11.7198298,98.1338034 14,98.3795412 L11.4666359,100.344983 C11.4666359,100.344983 9.9465225,102.064687 9.9465225,103.292916 C10.1999539,104.521144 10.9600106,104.766882 11.4666359,105.01262 C11.9732613,105.01262 12.9867494,106.486586 12.4801241,107.22357 C12.4801241,107.22357 8.93327189,108.206291 6.90629562,107.960553 C4.87955687,107.714815 2.8525806,107.469307 2.09252388,105.258358 C2.09252388,105.258358 2.59914919,100.590721 2.3459553,98.6255094 C2.0927614,96.6602977 1.07927327,92.2383987 4.37269405,90.7644324 C4.62612546,90.7642021 9.69309109,89.0447282 9.18646578,90.7642021 Z" id="Shape" fill="#425A6B"></path>
                <path d="M7.16659375,106 C7.16659375,106 7.4,106 7.86659375,106 C8.8,106 9.5,104.971339 9.26659375,103.942919 C9.0331875,102.657274 10.6665937,100.857177 10.6665937,100.857177 L13,98.8000964 C10.9,98.5428709 9.03340625,97 9.03340625,97 L7.63340625,98.8000964 C7.63340625,98.8000964 6,101.628613 6,103.942919 C6,106 7.16659375,106 7.16659375,106 Z" id="Shape" fill="#344A5E"></path>
            </g>
        </g>
    </g>
</svg>