<?xml version="1.0" encoding="UTF-8"?>
<svg width="107px" height="105px" viewBox="0 0 107 105" version="1.1" xmlns="http://www.w3.org/2000/svg" xmlns:xlink="http://www.w3.org/1999/xlink">
    <!-- Generator: Sketch 49.3 (51167) - http://www.bohemiancoding.com/sketch -->
    <title>Group 6</title>
    <desc>Created with Sketch.</desc>
    <defs></defs>
    <g id="UI-Kit" stroke="none" stroke-width="1" fill="none" fill-rule="evenodd">
        <g id="Style-Guide" transform="translate(-369.000000, -4286.000000)" fill-rule="nonzero">
            <g id="Group-6" transform="translate(369.000000, 4286.000000)">
                <g id="sun" transform="translate(21.000000, 0.000000)">
                    <path d="M68,53 C68,71.7783196 52.7778112,87 33.9988644,87 C15.2221888,87 0,71.7783196 0,53 C0,34.2216804 15.2199177,19 33.9988644,19 C52.7778112,19 68,34.2216804 68,53" id="Shape" fill="#F6C300"></path>
                    <g id="Group" transform="translate(2.000000, 0.000000)">
                        <path d="M31.5,77.5228125 C17.7013184,77.5228125 6.47944336,66.294375 6.47944336,52.5 C6.47944336,38.6990625 17.7035742,27.4771875 31.5,27.4771875 C45.2964258,27.4771875 56.5228125,38.6990625 56.5228125,52.5 C56.5228125,66.2966309 45.2986816,77.5228125 31.5,77.5228125" id="Shape" fill="#F3E100"></path>
                        <polygon id="Shape" fill="#F3E100" points="35.0919434 15.2994434 27.9060059 15.2994434 31.5 0"></polygon>
                        <polygon id="Shape" fill="#F3E100" points="27.9080566 89.69625 35.0939941 89.69625 31.5 105"></polygon>
                        <polygon id="Shape" fill="#F3E100" points="16.0102441 18.4865625 9.79125 22.0805566 5.25 7.03274414"></polygon>
                        <polygon id="Shape" fill="#F3E100" points="46.9897559 86.5091309 53.20875 82.9194434 57.75 97.9672559"></polygon>
                        <polygon id="Shape" fill="#F3E100" points="61.9194434 74.20875 65.5111816 67.9875 76.9672559 78.75"></polygon>
                        <polygon id="Shape" fill="#F3E100" points="46.9897559 18.4865625 53.20875 22.0805566 57.75 7.03274414"></polygon>
                        <polygon id="Shape" fill="#F3E100" points="16.0102441 86.5091309 9.79125 82.9194434 5.25 97.9672559"></polygon>
                        <polygon id="Shape" fill="#F3E100" points="61.9194434 30.7869434 65.5111816 37.0125 76.9672559 26.25"></polygon>
                        <polygon id="Shape" fill="#F3E100" points="68.6985059 56.0939941 68.6985059 48.9060059 84 52.5"></polygon>
                        <polygon id="Shape" fill="#F9E000" points="24.0361816 15.9971191 19.6766309 17.1631934 20.1380566 10.1630566"></polygon>
                        <polygon id="Shape" fill="#F9E000" points="38.9310059 89.0114941 43.2905566 87.845625 42.8291309 94.8435059"></polygon>
                        <polygon id="Shape" fill="#F9E000" points="6.7790625 24.609375 3.58743164 27.8010059 0.485625 21.5075684"></polygon>
                        <polygon id="Shape" fill="#F9E000" points="56.188125 80.3994434 59.3797559 77.2078125 62.4815625 83.50125"></polygon>
                        <polygon id="Shape" fill="#F9E000" points="66.8259375 64.3081934 67.9940625 59.9506934 73.8258691 63.8488184"></polygon>
                        <polygon id="Shape" fill="#F9E000" points="67.9940625 45.058125 66.8259375 40.6983691 73.8258691 41.16"></polygon>
                        <polygon id="Shape" fill="#F9E000" points="59.3818066 27.8010059 56.1903809 24.609375 62.4838184 21.5075684"></polygon>
                        <polygon id="Shape" fill="#F9E000" points="19.6766309 87.845625 24.0361816 89.0114941 20.1380566 94.8435059"></polygon>
                        <polygon id="Shape" fill="#F9E000" points="43.2905566 17.1631934 38.9310059 15.9928125 42.8291309 10.1610059"></polygon>
                    </g>
                </g>
                <g id="thermometer" transform="translate(0.000000, 28.000000)">
                    <path d="M12,70 C5.38318887,70 0,64.5994245 0,57.9612425 C0,54.6133346 1.40687361,51.3894907 3.85990728,49.1162986 L5.08612175,47.9798542 L5.08612175,6.93620866 C5.08612175,3.11160993 8.18771417,0 12,0 C15.8122858,0 18.9138783,3.11160993 18.9138783,6.93620866 L18.9138783,47.9800059 L20.1400927,49.1164503 C22.5929752,51.3896424 24,54.6134863 24,57.9613941 C23.9998488,64.5994245 18.6168111,70 12,70 Z" id="Shape" fill="#DBD9D7"></path>
                    <path d="M16.2718676,50.9936779 L16.2718676,7.34214497 C16.2718676,4.94789777 14.3554965,3 12,3 C9.64450355,3 7.72813239,4.94774758 7.72813239,7.34214497 L7.72813239,50.9936779 C5.41119976,52.4775045 4,55.0492702 4,57.8683904 C4,62.3521597 7.58880024,66 12,66 C16.4111998,66 20,62.3521597 20,57.8683904 C20,55.0492702 18.5888002,52.4776546 16.2718676,50.9936779 Z" id="Shape" fill="#00BCFF"></path>
                    <path d="M11.4998526,64 C8.46713823,64 6,61.4833195 6,58.3897056 C6,56.4513114 6.95741232,54.6788721 8.5608606,53.6481184 L9.7183908,52.9041779 L9.7183908,27.8173854 C9.7183908,26.8151928 10.5176835,26 11.5,26 C12.4823165,26 13.2816092,26.8153431 13.2816092,27.8173854 L13.2816092,52.9040276 L14.4391394,53.6479681 C16.0424403,54.6787217 17,56.4513114 17,58.3895553 C16.9997053,61.4831692 14.5324197,64 11.4998526,64 Z" id="Shape" fill="#00A6E3"></path>
                    <g id="Group" transform="translate(1.000000, 10.000000)" fill="#DBD9D7">
                        <path d="M5.86768421,31.7137534 C5.86768421,31.0575205 5.31047368,30.5256027 4.62268421,30.5256027 L0.0576315789,30.5256027 L0.0576315789,32.9019041 L4.62268421,32.9019041 C5.31047368,32.9019041 5.86768421,32.3699863 5.86768421,31.7137534 Z" id="Shape"></path>
                        <path d="M5.86768421,21.5749178 C5.86768421,20.9186849 5.31047368,20.3867671 4.62268421,20.3867671 L0.0576315789,20.3867671 L0.0576315789,22.7630685 L4.62268421,22.7630685 C5.31047368,22.7630685 5.86768421,22.231 5.86768421,21.5749178 Z" id="Shape"></path>
                        <path d="M5.86768421,11.4359315 C5.86768421,10.7796986 5.31047368,10.2477808 4.62268421,10.2477808 L0.0576315789,10.2477808 L0.0576315789,12.6240822 L4.62268421,12.6240822 C5.31047368,12.6240822 5.86768421,12.0921644 5.86768421,11.4359315 Z" id="Shape"></path>
                        <path d="M5.86768421,1.29709589 C5.86768421,0.640863014 5.31047368,0.108945205 4.62268421,0.108945205 L0.0576315789,0.108945205 L0.0576315789,2.48524658 L4.62268421,2.48524658 C5.31047368,2.48524658 5.86768421,1.95317808 5.86768421,1.29709589 Z" id="Shape"></path>
                    </g>
                </g>
            </g>
        </g>
    </g>
</svg>