<?xml version="1.0" encoding="UTF-8"?>
<svg width="81px" height="101px" viewBox="0 0 81 101" version="1.1" xmlns="http://www.w3.org/2000/svg" xmlns:xlink="http://www.w3.org/1999/xlink">
    <!-- Generator: Sketch 49.3 (51167) - http://www.bohemiancoding.com/sketch -->
    <title>Group 2</title>
    <desc>Created with Sketch.</desc>
    <defs></defs>
    <g id="UI-Kit" stroke="none" stroke-width="1" fill="none" fill-rule="evenodd">
        <g id="Style-Guide" transform="translate(-1123.000000, -4288.000000)" fill-rule="nonzero">
            <g id="Group-2" transform="translate(1124.000000, 4289.000000)">
                <path d="M79,8.06593131 C78.9739274,5.21183254 75.0891089,3.30082728 66.4590759,1.86136876 C59.2891089,0.670092755 49.6943894,0 39.5,0 C29.3056106,0 19.7108911,0.670092755 12.5409241,1.86136876 C3.91089109,3.30082728 0.0521452145,5.21183254 0,8.04111306 C0,8.06593131 0,8.06593131 0,8.09074956 C0,8.26447731 0.0260726073,8.43820506 0.0521452145,8.58711457 L8.65610561,91.4056154 C8.91683168,94.0859865 12.2019802,95.9473552 18.9547855,97.2875407 C24.5082508,98.404362 31.9128713,99 39.8389439,99 C47.5564356,99 54.8567657,98.3299072 60.410231,97.113813 C67.0066007,95.6743545 70.2656766,93.6888945 70.369967,91.0085234 L74.6458746,50.0087741 C74.6719472,49.8846829 74.6719472,49.7605916 74.6980198,49.6365004 L78.9478548,8.61193282 C78.9739274,8.43820506 79,8.26447731 79,8.09074956 L79,8.06593131 Z M66.4590759,90.7603409 C66.4590759,90.7851592 66.4590759,90.8099774 66.4590759,90.8596139 C66.1722772,91.3063424 64.2950495,92.6217097 58.5590759,93.738531 C53.3966997,94.7560792 46.7481848,95.326899 39.8389439,95.326899 C32.6168317,95.326899 25.7858086,94.8057157 20.5973597,93.837804 C14.7049505,92.745801 12.8277228,91.4800702 12.5409241,91.0333417 L8.68217822,53.8804212 C10.4551155,54.5753322 12.7755776,55.1957884 15.669637,55.7417899 C22.0834983,56.9330659 30.5570957,57.6031587 39.5,57.6031587 C48.4429043,57.6031587 56.9165017,56.9330659 63.330363,55.7417899 C66.2244224,55.1957884 68.5188119,54.5753322 70.2917492,53.8804212 L66.4590759,90.7603409 Z M61.3227723,52.3168714 C55.3260726,53.3344197 47.5564356,53.8804212 39.5,53.8804212 C31.4435644,53.8804212 23.7,53.3344197 17.6772277,52.3168714 C11.6283828,51.2993231 9.12541254,50.1080471 8.39537954,49.5124091 C9.12541254,48.9167711 11.6283828,47.7254951 17.6772277,46.7079469 C23.6739274,45.6903986 31.4435644,45.1443971 39.5,45.1443971 C47.5564356,45.1443971 55.3,45.6903986 61.3227723,46.7079469 C67.3716172,47.7254951 69.8485149,48.9167711 70.6046205,49.5124091 C69.8745875,50.1080471 67.3716172,51.2993231 61.3227723,52.3168714 Z M71.2042904,45.5166708 C69.3270627,44.6480321 66.7458746,43.9283028 63.330363,43.2830283 C56.9165017,42.0917523 48.4429043,41.4216596 39.5,41.4216596 C30.5570957,41.4216596 22.0834983,42.0917523 15.669637,43.2830283 C12.280198,43.9283028 9.67293729,44.6480321 7.82178218,45.5166708 L4.38019802,12.3098521 C6.36171617,13.0792178 9.07326733,13.7244924 12.5669967,14.3201304 C19.7369637,15.5114064 29.3316832,16.1814991 39.5260726,16.1814991 C49.720462,16.1814991 59.3151815,15.5114064 66.4851485,14.3201304 C69.9788779,13.7493106 72.6643564,13.0792178 74.6719472,12.3098521 L71.2042904,45.5166708 Z M64.3211221,10.8952118 C57.5422442,11.9127601 48.729703,12.4587616 39.5,12.4587616 C30.270297,12.4587616 21.4577558,11.9127601 14.6788779,10.8952118 C7.56105611,9.82802707 5.0320132,8.63675107 4.19768977,8.09074956 C5.0320132,7.54474806 7.56105611,6.35347205 14.6788779,5.28628729 C21.4577558,4.26873903 30.270297,3.72273753 39.5,3.72273753 C48.729703,3.72273753 57.5422442,4.26873903 64.3211221,5.28628729 C71.4389439,6.35347205 73.9679868,7.54474806 74.8023102,8.09074956 C73.9679868,8.63675107 71.4650165,9.82802707 64.3211221,10.8952118 Z" id="Shape" stroke="#FFFFFF" stroke-width="2" fill="#C7DBE4"></path>
                <path d="M5.98754883,36.5000254 C6.63525391,44.9182129 7.0374584,48.2169663 7.56616211,53.598877 C8.50963586,63.2029166 10.9211968,90.930984 11.6520996,91.8396809 C13.4924117,94.1276541 27.2299183,96.3676758 37.7922363,96.3676758 C50.5769333,96.3676758 61.8984375,95.0825195 67.2739258,91.8396809 C67.8420102,91.496976 71.003894,55.4634017 71.7268066,49.6171875 C72.1267057,46.3831931 72.5956182,41.1639823 73.0695801,36.5000254 C73.0696754,36.5000254 51.7418561,25.7513814 36.2140941,34.3064246 C20.6863322,42.8614678 5.67650506,36.5000254 5.98754883,36.5000254 Z" id="Shape" fill="#00BCFF"></path>
            </g>
        </g>
    </g>
</svg>