<?xml version="1.0" encoding="UTF-8"?>
<svg width="100px" height="81px" viewBox="0 0 100 81" version="1.1" xmlns="http://www.w3.org/2000/svg" xmlns:xlink="http://www.w3.org/1999/xlink">
    <!-- Generator: Sketch 48.2 (47327) - http://www.bohemiancoding.com/sketch -->
    <title>cereal (1)</title>
    <desc>Created with Sketch.</desc>
    <defs>
        <linearGradient x1="50%" y1="0%" x2="50%" y2="89.1047832%" id="linearGradient-1">
            <stop stop-color="#75FAE8" offset="0%"></stop>
            <stop stop-color="#00BCFF" offset="100%"></stop>
        </linearGradient>
        <path d="M50.9998024,15.4513824 L49.6529949,40 L18.309434,40 L16,13.306716 C20.2198652,10.0022095 28.4819315,10.4466286 33.4302387,13.378757 C35.1813849,14.4168657 37.3718493,15.1229074 39.6482801,15.451582 L40.4978657,15.451582 L51,15.451582 L51,15.4513824 L50.9998024,15.4513824 Z" id="path-2"></path>
    </defs>
    <g id="Style-Guide" stroke="none" stroke-width="1" fill="none" fill-rule="evenodd" transform="translate(-1833.000000, -4101.000000)">
        <g id="cereal-(1)" transform="translate(1833.000000, 4101.000000)" fill-rule="nonzero">
            <polygon id="Shape" fill="#D7E6ED" points="18.3910791 39 15 0 53 0 49.4061263 39"></polygon>
            <g id="Shape">
                <use fill="#00BCFF" fill-rule="evenodd" xlink:href="#path-2"></use>
                <use fill="url(#linearGradient-1)" fill-rule="evenodd" xlink:href="#path-2"></use>
            </g>
            <path d="M70,33 L70,44.9996988 C70,64.7997841 54.2501952,81 35.0005857,81 C15.7498048,81 0,64.7995833 0,44.9996988 L0,33 L34.9998048,33 L70,33 Z" id="Shape" fill="#C7DBE4"></path>
            <path d="M35.0100637,70.207234 C32.1553192,71.8435551 28.4741644,70.8640321 26.8269573,68.0307817 L24.3413107,63.7557212 C23.0020528,61.4502586 23.4048326,58.6002846 25.1386503,56.7364036 C25.0849196,56.6685139 25.0343967,56.5968415 24.9898885,56.5193955 L0.238878757,13.6716349 C-0.253118082,12.8195295 0.0391929986,11.730507 0.892268203,11.2387546 C1.74494243,10.7470022 2.83559557,11.0392664 3.3277929,11.8913718 L28.0786021,54.7391323 C28.1247143,54.8191665 28.1618045,54.9017889 28.194484,54.9854067 C30.6873482,54.4245701 33.3756879,55.5010499 34.7163492,57.8077072 L37.2023968,62.0815731 C38.8492029,64.9150226 37.8626028,68.5717094 35.0100637,70.207234 Z" id="Shape" fill="#8D8DA0"></path>
            <path d="M69.2131894,46 C68.3245721,64.8557194 53.7417754,78.893844 35.0782768,78.893844 C35.0780818,78.893844 35.0784719,80 35.0782768,80 C35.0780818,80 35.0784719,78.893844 35.0782768,78.893844 C16.4147782,78.893844 1.88881233,64.8557194 1,46 L70,46 L69.2131894,46 Z" id="Shape" fill="#CF8F3D"></path>
            <path d="M0,44.9996988 L0,33 L4.34116095,33 L4.34116095,44.9998996 C4.34116095,62.3738986 18.0944837,76.5086979 34.9993166,76.5086979 C51.9055163,76.5086979 65.6586438,62.3738986 65.6586438,44.9998996 L65.6586438,33 L70,33 L70,44.9996988 C70,64.7997841 54.2500635,81 35.0002929,81 C35.0000976,81 34.9999024,81 34.9997071,81 C34.9995119,81 34.9993166,81 34.9991214,81 C15.7497413,81 0,64.7995833 0,44.9996988 Z" id="Shape" fill="#C7DBE4"></path>
            <path d="M45.0963538,54.6957924 L44.7556415,54.6957924 C43.7769405,54.6957924 42.9835391,53.8684008 42.9835391,52.8478962 C42.9835391,51.8273915 43.7767412,51 44.7556415,51 L45.0963538,51 C46.0750548,51 46.8684561,51.8273915 46.8684561,52.8478962 C46.8684561,53.8684008 46.075254,54.6957924 45.0963538,54.6957924 Z M47.2278976,65.3042076 L46.8865876,65.3042076 C45.9078866,65.3042076 45.1144853,66.1315992 45.1144853,67.1521038 C45.1144853,68.1726085 45.9076874,69 46.8865876,69 L47.2278976,69 C48.2065987,69 49,68.1726085 49,67.1521038 C48.9998008,66.1315992 48.2065987,65.3042076 47.2278976,65.3042076 Z M12.1134124,54.1135615 L11.7721024,54.1135615 C10.7934013,54.1135615 10,54.9409531 10,55.9614577 C10,56.9819623 10.7932021,57.8093539 11.7721024,57.8093539 L12.1134124,57.8093539 C13.0921134,57.8093539 13.8855147,56.9819623 13.8855147,55.9614577 C13.8855147,54.9409531 13.0921134,54.1135615 12.1134124,54.1135615 Z" id="Shape" fill="#663310"></path>
            <path d="M98.2698854,46.8117395 L90.4610267,46.8117395 L90.4610267,44 L75.1784776,44 L60,44 L60,64.8176535 C60,73.168138 66.8535413,80 75.2302216,80 C83.6080689,80 90.4610267,73.168138 90.4610267,64.8176535 L90.4610267,63.7351115 L98.2698854,63.7351115 C99.2253973,63.7351115 100,62.9583493 100,62.0002908 L100,48.5463663 C100.000194,47.5885017 99.2255918,46.8117395 98.2698854,46.8117395 Z M96.5399653,60.2656641 L90.4612212,60.2656641 L90.4612212,50.2811869 L96.5399653,50.2811869 L96.5399653,60.2656641 Z" id="Shape" fill="#FF0C38"></path>
            <path d="M86.5336601,32.41222 C86.184079,32.801015 85.6929959,33 85.1993293,33 C84.7879404,33 84.3747629,32.8619912 84.0400871,32.5802391 C83.3035619,31.9605374 83.2258551,30.8803603 83.8663896,30.1675696 C86.0443657,27.7453426 85.9535422,22.2574847 83.679774,18.8753128 C80.9361878,14.7943038 80.3381834,7.51214006 83.8663896,3.58787247 C84.5073215,2.87527288 85.6236361,2.79996059 86.3599626,3.42004456 C87.0964878,4.03993739 87.1741946,5.11992336 86.5336601,5.8327141 C84.355684,8.25494103 84.4089459,13.6871749 86.6431651,17.0104733 C89.4817483,21.2325494 90.1153269,28.4288877 86.5336601,32.41222 Z M78.1150936,5.83252295 C78.7556281,5.11992336 78.67812,4.03974625 77.9413961,3.41985342 C77.2050696,2.79996059 76.0885562,2.87527288 75.447823,3.58768132 C71.9196169,7.51194891 72.5174226,14.7939215 75.2612075,18.8751216 C77.5349757,22.2572936 77.6257992,27.7451515 75.447823,30.1673784 C74.8072886,30.879978 74.8847966,31.959964 75.6215206,32.5800479 C75.9561963,32.8618 76.3693739,32.9998089 76.7807627,32.9998089 C77.2744294,32.9998089 77.7655124,32.8006327 78.1150936,32.4120289 C81.6963629,28.4288877 81.0631818,21.2323582 78.2245986,17.0102821 C75.9903794,13.6869837 75.9373162,8.25474988 78.1150936,5.83252295 Z" id="Shape" fill="#D7E6ED"></path>
            <path d="M36.2219057,62.1048067 C37.8283442,64.9308747 36.8661239,68.5782339 34.0833124,70.2092993 C31.2985452,71.8413575 27.7076252,70.8643863 26.1007956,68.0385169 L23.6760787,63.7745935 C22.3696496,61.4751369 22.7625562,58.6325875 24.4538734,56.7735621 C24.4014598,56.7058493 24.3521754,56.6343636 24.3087581,56.5571193 L11,33 L15.0164874,33 L27.3219548,54.7810968 C27.3669367,54.8609225 27.4031177,54.9433297 27.4349961,55.0267296 C29.8667537,54.467354 32.4891951,55.5410295 33.7969932,57.8416776 L36.2219057,62.1048067 Z" id="Shape" fill="#8D8DA0"></path>
        </g>
    </g>
</svg>