<?xml version="1.0" encoding="UTF-8"?>
<svg width="119px" height="107px" viewBox="0 0 119 107" version="1.1" xmlns="http://www.w3.org/2000/svg" xmlns:xlink="http://www.w3.org/1999/xlink">
    <!-- Generator: Sketch 48.2 (47327) - http://www.bohemiancoding.com/sketch -->
    <title>exercise (5)</title>
    <desc>Created with Sketch.</desc>
    <defs></defs>
    <g id="Style-Guide" stroke="none" stroke-width="1" fill="none" fill-rule="evenodd" transform="translate(-363.000000, -4088.000000)">
        <g id="exercise-(5)" transform="translate(363.000000, 4088.000000)" fill-rule="nonzero">
            <path d="M50.570026,39 C50.3113819,39.9620967 50.8286702,40.9239679 51.3457161,41.8860645 C51.862762,42.8481612 52.638452,43.5696773 53.1557403,44.2911935 C54.4484763,45.7342257 55.2241663,47.4178385 55.7414546,49.3418064 C56.2585005,51.2657743 56.0000988,53.1899676 54.9657646,54.8733549 C54.1900745,55.8354516 53.4143845,56.7973228 53.1557403,58 C52.1214061,57.0379033 52.1214061,55.5948711 52.3800503,54.1518388 C52.6386944,52.7088065 52.8970962,51.5063548 52.3800503,50.0633225 C51.8630044,48.6202903 50.0529801,47.6581936 49.0186459,46.2151613 C47.4672659,44.2911935 47.72591,41.4051289 49.5356918,39.7215161" id="Shape" fill="#425A6B"></path>
            <g id="Group" transform="translate(0.000000, 74.000000)">
                <path d="M32.8027808,6.60266667 L34.5416712,13.2809275 L47.4586438,8.33414493 C47.4586438,5.61344928 45.9682329,3.88197101 43.7326164,2.64533333 L32.8027808,6.60266667 Z" id="Shape" fill="#F8E1DA"></path>
                <path d="M77.0181507,23.6693333 C77.0181507,23.6693333 86.4573425,21.9378551 91.9222603,23.9167536 C91.9222603,23.9167536 99.3743151,25.4008116 100.616247,25.4008116 C101.858178,25.4008116 102.851863,25.8954203 103.845548,24.4113623 C104.839233,22.9273043 106.081164,21.9378551 107.571575,22.9273043 C109.061986,23.9167536 110.055671,26.390029 111.297603,26.390029 C112.539534,26.390029 115.520356,27.132058 116.265562,27.874087 L116.514041,28.3686957 C116.514041,28.3686957 117.507726,28.1212754 118.252932,29.1107246 C118.252932,29.1107246 119.743342,30.3473623 118.501411,30.8422029 L118.004685,30.8422029 C118.004685,30.8422029 116.762753,31.5842319 115.520589,30.8422029 C114.278658,30.3475942 113.781699,30.3475942 113.533452,30.3475942 C113.285205,30.3475942 110.80111,30.8422029 109.310699,31.0896232 C107.571808,31.5842319 103.845781,31.0896232 102.107123,30.8422029 C100.616712,30.5947826 94.6550685,30.5947826 91.1775205,31.0896232 C87.6999726,31.5844638 76.273411,32.3262609 72.795863,31.8316522 L77.0181507,23.6693333 Z" id="Shape" fill="#F7E1DA"></path>
                <path d="M0.013739726,29.6055652 L1.50415068,29.6055652 C1.50415068,29.6055652 1.75263014,29.3581449 2.99456164,29.1109565 C2.99456164,29.1109565 11.1918219,26.1428406 11.9370274,23.1747246 C12.6822329,20.2066087 11.9370274,12.5388986 11.6885479,10.5602319 C11.4400685,8.58156522 11.4400685,0.171826087 11.4400685,0.171826087 L19.1406027,3.88197101 C19.1406027,3.88197101 20.1342877,6.85008696 18.8921233,11.3022609 C17.6501918,15.7544348 17.6501918,23.1747246 17.6501918,23.1747246 C17.6501918,23.1747246 18.8921233,28.8635362 18.1469178,30.1004058 C17.6501918,31.3370435 14.4208904,31.0898551 12.9304795,30.5950145 C11.4400685,29.8529855 8.45924658,30.5950145 6.96883562,31.0896232 C5.47842466,31.5842319 3.9880137,31.5842319 2.99432877,31.0896232 C2.99456164,31.0896232 -0.234739726,32.0788406 0.013739726,29.6055652 Z" id="Shape" fill="#F7E1DA"></path>
            </g>
            <path d="M38.252361,37 L37.4508725,32.1530124 C37.4508725,32.1530124 36.649384,31.132531 37.1836262,29.8571087 C37.7178684,28.5816863 44.3970229,12 44.3970229,12 L46,12.7653012 L43.5955344,34.7038571 L38.252361,37 Z" id="Shape" fill="#E1BEB3"></path>
            <path d="M39.212794,32 L37.5744121,33.2344907 C37.5744121,33.2344907 35.7021323,36.4444444 35.7021323,37.6789352 C35.7021323,37.6789352 36.1701474,37.9259259 35.9362496,38.9134259 C35.7023517,39.9009259 35,41.1356481 35,41.1356481 C35,41.1356481 35.2341172,41.6293981 35.7021323,41.8763889 C36.1701474,42.1233796 36.1701474,42.6171296 35.9362496,42.8641204 C35.9362496,42.8641204 35.7021323,43.3578704 36.1703668,43.6048611 C36.1703668,43.6048611 35.7023517,44.0986111 36.1703668,44.5925926 C36.1703668,44.5925926 36.8724992,44.5925926 36.8724992,45.5803241 C36.8724992,46.3210648 37.5746315,46.8148148 38.0426466,46.8148148 C38.5106616,46.8148148 40.3831608,46.8148148 40.6170586,47.0618056 C39.9149263,48.2962963 39.212794,50.0247685 38.7447789,52 L45.5319849,48.2962963 L46,42.3703704 C46,42.3703704 41.787206,32 39.212794,32 Z" id="Shape" fill="#F7E1DA"></path>
            <path d="M38,32.6706515 C38,32.6706515 38.9612728,28.1389122 45.2089826,29.146044 C51.6970669,30.1531759 50.9761687,39.4682606 50.9761687,39.4682606 C50.9761687,39.4682606 51.2165432,42.9928681 46.6507791,44 L42.5657641,37.7058388 C42.5657641,37.7058388 42.0852403,36.1952591 40.883593,35.6918111 C39.682171,35.4399692 39.201422,34.1812313 39.9223203,33.1740995 C39.682171,32.9224935 40.6434438,31.6635197 38,32.6706515 Z" id="Shape" fill="#425A6B"></path>
            <path d="M45.9208471,2.50721895 C46.1577609,1.99709455 47.1049721,2.25203717 46.6313665,3.01734334 L47.8154915,0.97660661 C48.0524053,0.211300442 48.9996165,0.721424834 48.7629247,1.486731 L49.2365303,0.211300442 C49.4734441,-0.298823951 50.4206553,0.211300442 50.1839635,0.721424834 L49.9470497,1.23154923 C50.1839635,0.721424834 51.1311747,0.976367451 50.8944829,1.486731 C50.8944829,1.486731 50.6575691,3.01734334 50.4208773,3.78264951 C50.1839635,4.54795567 49.7103579,6.07856801 49.2367523,6.5886924 C48.7631467,7.09881679 48.2893191,9.3947353 48.2893191,9.3947353 C48.2893191,9.3947353 48.9998385,8.8846109 49.2367523,8.11930474 C49.4736662,7.35399857 50.1841856,6.5886924 50.894705,6.84387418 C50.894705,6.84387418 51.1316188,7.09905595 50.894705,7.35399857 C50.894705,7.86412296 50.4210994,8.37448651 50.4210994,8.37448651 C50.4210994,8.37448651 49.9474938,9.90509885 49.71058,10.1602806 C49.71058,10.1602806 49.2369744,10.9255868 48.526455,11.9460747 C47.5790217,12.7113809 46.3948967,13.2215053 46.1579829,14.2419932 C46.1579829,15.0072994 45.6843773,19.8543182 45.9210691,21.1297487 C46.1579829,22.4051793 45.4474635,30.058241 45.4474635,30.058241 C45.4474635,30.058241 45.4474635,34.650078 45.9210691,35.6705659 C45.9210691,35.6705659 41.6579526,39.241915 40.9474332,38.9869724 C40.9474332,38.9869724 40.2369138,31.5890925 40.2369138,29.5481166 C40.2369138,29.5481166 40,28.7828104 40,27.5073799 C40,26.2319493 42.1315582,16.0277873 42.1315582,16.0277873 C42.1315582,16.0277873 42.368472,13.9870506 42.368472,12.9665627 C42.368472,12.4564383 42.368472,10.6706442 42.8420776,8.88485006 C43.0789915,7.86436212 43.5525971,6.84411333 44.0262026,5.82362539 C44.2631165,5.56844362 44.2631165,5.56844362 44.2631165,5.313501 C44.4998082,4.80313745 45.9208471,2.50721895 45.9208471,2.50721895 Z" id="Shape" fill="#F7E1DA"></path>
            <path d="M19.3520243,78.6532385 C19.3520243,78.6532385 19.8432385,77.9088077 19.3520243,77.164377 C19.3520243,77.164377 28.686477,87.5864075 35.073414,90.0679209 C35.073414,90.0679209 45.6362478,101.730592 56.1988514,103.715896 C56.1988514,103.715896 64.3051534,105.700967 66.515963,106.693619 C68.7267727,107.686271 76.3418604,105.949188 76.3418604,105.949188 C76.3418604,105.949188 79.2896066,101.482603 77.3245192,97.0160188 C77.3245192,97.0160188 74.8679873,98.0086707 70.446368,96.5198092 C66.0247488,95.0309477 57.9184468,89.8199324 53.9880418,89.5717113 C53.9880418,89.5717113 55.2161926,83.6162653 49.5664225,80.3903211 L44.4078667,76.4199462 C44.4078667,76.4199462 45.8817398,81.1347519 43.9166525,82.8716019 C41.9515651,84.6086845 38.7580967,84.3604634 36.547287,85.1048941 C34.5821997,85.8493249 32.1256678,82.1271711 31.8799455,80.8865307 C31.6342232,79.6458904 32.1256678,75.4272943 32.1256678,75.4272943 L31.143009,72.9457809 C31.143009,72.9457809 21.3171116,66.4941253 17.1412146,65.2532523 C12.9653176,64.0123793 11.7369365,67.7347657 11.7369365,67.7347657 C11.7369365,67.7347657 11,73.9384328 11,75.1790732 C11.4912143,74.9310847 13.2108096,78.1570289 19.3520243,78.6532385 Z" id="Shape" fill="#425A6B"></path>
            <path d="M34.4999766,89.2602676 C34.9999062,89.5069221 35.5000703,89.7533455 36,90 C35.2499883,87.7808029 34.7500586,85.8082603 34.7500586,84.0821411 C33.7499648,83.0957542 32.9999531,81.862944 32.9999531,81.1232117 C32.7498711,80.1368248 32.9999531,77.4245499 33.2500352,76.1917397 L32.9999531,74.2191971 L32.5000234,72.9863869 C32.5000234,72.9863869 32.0000938,72.7397324 31,72 C31.250082,77.9176277 32.2499414,83.5890633 34.4999766,89.2602676 Z" id="Shape" fill="#344A5E"></path>
            <path d="M50.3381024,61.6381992 C49.0840823,63.8995129 44.31843,72.4423318 45.8233481,78.7236015 C45.8233481,78.7236015 43.5659709,83.2462288 40.3052367,82.9948932 C37.0445024,82.9948932 33.0315442,84 33.0315442,84 C33.0315442,84 29.77081,74.4523098 30.7741671,63.3968417 C30.7741671,63.3968417 28.2658919,58.8742144 32.2790852,56.1104652 C32.2790852,56.1104652 38.5496556,52.0902735 38.5496556,50.0802955 C38.5496556,49.0751887 38.5496556,47.5676463 38.2987576,46.3114394 C39.0512166,46.3114394 40.0545737,46.3114394 40.3052367,46.562775 C39.5527776,48.0703174 38.5494205,50.8340667 39.3018795,50.0802955 C39.5527776,49.8289599 39.8034405,49.3265243 40.0543386,48.8240886 C40.8067976,47.8189818 41.3083586,46.562775 41.3083586,46.562775 C41.3083586,46.562775 40.8067976,39.0250629 40.0543386,38.2712917 C39.3018795,37.5175205 39.0509815,36.009978 40.3052367,35.5075424 C40.3052367,35.5075424 40.3052367,36.5126492 40.8067976,36.5126492 C41.5592567,36.2613136 42.8132767,36.5126492 43.5657358,35.758878 C45.3215519,34.5026712 45.5722149,34 45.5722149,34 C45.5722149,34 46.0737758,36.2613136 46.3246739,37.0150848 C46.575572,37.7688561 48.0804901,41.2863765 48.331153,42.2914833 C48.582051,43.2965901 51.5918872,49.0754242 51.8425502,50.5829667 C52.3448166,52.0902735 51.5923575,59.12555 50.3381024,61.6381992 Z" id="Shape" fill="#FF0C38"></path>
        </g>
    </g>
</svg>