<?xml version="1.0" encoding="UTF-8"?>
<svg width="127px" height="73px" viewBox="0 0 127 73" version="1.1" xmlns="http://www.w3.org/2000/svg" xmlns:xlink="http://www.w3.org/1999/xlink">
    <!-- Generator: Sketch 48.2 (47327) - http://www.bohemiancoding.com/sketch -->
    <title>man</title>
    <desc>Created with Sketch.</desc>
    <defs></defs>
    <g id="Style-Guide" stroke="none" stroke-width="1" fill="none" fill-rule="evenodd" transform="translate(-1350.000000, -4105.000000)">
        <g id="man" transform="translate(1350.000000, 4105.000000)" fill-rule="nonzero">
            <g id="Group" transform="translate(16.000000, 48.000000)" fill="#FFD15C">
                <path d="M24.29075,0.330074468 C24.024,0.330074468 23.7575,0.069 23.49075,0.069 L21.89075,0.069 C21.89075,0.069 23.49075,6.85473404 22.69075,9.72581915 C21.89075,12.5966596 22.9575,12.0747553 22.9575,12.0747553 L28.5575,11.2917766 C28.5575,11.2917766 29.62425,3.98389362 29.89075,1.37412766 C28.02425,0.591148936 25.89075,1.11305319 24.29075,0.330074468 Z" id="Shape"></path>
                <path d="M16.5575,20.4264468 C16.5575,20.4264468 13.3575,20.9483511 12.29075,21.2094255 C11.224,21.4705 9.89075,22.2534787 9.09075,22.5143085 C8.29075,22.7751383 7.7575,23.2972872 6.1575,22.775383 C4.82425,22.2534787 0.5575,21.7313298 0.5575,21.7313298 C0.5575,21.7313298 -1.0425,17.0334574 1.3575,15.7285745 C1.3575,15.7285745 5.62425,14.9455957 7.49075,14.9455957 C9.09075,15.2066702 10.424,15.2066702 10.424,15.2066702 C10.424,15.2066702 12.55725,14.4236915 13.624,13.6407128 C14.69075,12.5966596 14.95725,13.1188085 14.95725,13.1188085 L16.5575,20.4264468 Z" id="Shape"></path>
            </g>
            <path d="M27,64.3681938 C27,64.3681938 25.6496054,64.6314361 24.5691378,64.6314361 C23.4886702,64.6314361 23.2187432,64.3681938 22.4084558,64.6314361 C22.4084558,64.6314361 20.5177008,64.6314361 19.4374864,64.8946784 C18.3570188,65.1579207 18.3570188,65.4209163 18.0870918,65.4209163 C18.0870918,65.4209163 18.8973792,65.157674 18.627199,66.2103965 C18.3570188,67.2631189 17.8169116,68.8420793 18.0870918,70.1577974 C18.357272,71.2105198 18.627199,72 18.0870918,72 C17.8169116,72 17.8169116,72 17.5469846,72 C13.7657278,71.7367577 11.8749728,71.4737621 11.8749728,71.4737621 C11.8749728,71.4737621 10.5245782,71.4737621 9.44411058,71.4737621 C8.36364298,71.2105198 2.69163117,69.3685639 1.34123657,68.0525991 C-0.00915802893,66.7366343 -0.279338234,64.8946784 0.260768962,64.3684405 C0.530949167,63.8422026 3.77209877,62.2632423 6.47288797,62 C8.90375017,62 9.71403758,62 9.71403758,62 C9.71403758,62 12.685007,62.5262379 13.2253674,62.7894802 C13.7657278,63.0527225 18.8973792,63.8422026 20.517954,64.1051982 C22.1382756,63.8419559 25.6496054,63.5787136 27,64.3681938 Z" id="Shape" fill="#3F5A6C"></path>
            <path d="M84.7288737,68.1989637 C84.7288737,68.1989637 80.2247852,70.327653 73.600921,71.6583021 C67.2420908,72.7227714 63.7976417,71.1261921 59.8233729,69.2634331 C55.8491041,67.4006741 52.1398693,63.4092259 52.1398693,63.4092259 C52.1398693,63.4092259 48.6954202,70.5938327 32.0034911,71.1259426 C32.0034911,71.1259426 29.3538957,63.4092259 30.1487495,61.5464668 C30.9436033,59.6837078 32.2682767,59.4177776 32.2682767,59.4177776 C32.2682767,59.4177776 39.6869947,56.4907987 41.5414879,55.1601496 C43.3962295,53.5635703 50.2848793,48.5076527 51.6095528,48.2417225 C51.6095528,48.2417225 48.4301377,42.3875153 48.4301377,40.790936 L46.3106105,50.3704118 L35.9775115,47.9755428 C35.9775115,47.9755428 36.7723653,38.1298873 37.0373993,34.9367287 C37.0373993,31.7435701 39.1569266,18.9709357 43.3962295,16.0439568 C47.6355323,13.1169779 52.4046549,17.1084262 52.9344747,18.7050055 C53.4642944,20.3015848 63.5326077,33.3403989 64.3274614,34.1386885 C65.1223152,34.9369782 66.4469887,37.0656674 66.4469887,37.0656674 C66.4469887,37.0656674 71.745931,41.0571157 72.5407848,42.653695 C73.3356385,43.9840946 73.3356385,43.9840946 73.3356385,43.9840946 L85.5234791,52.499101 C84.9936594,53.0314604 91.8825576,63.1432956 84.7288737,68.1989637 Z" id="Shape" fill="#425A6B"></path>
            <path d="M114.985106,56.1110166 C115.482546,57.4072431 115.233942,57.4072431 115.233942,58.7037127 C114.985106,59.9999392 116.477658,61.0370663 116.477658,61.8148508 C116.975098,62.0741934 117.472771,62.0741934 117.970211,62.3332928 C118.716488,62.5926354 119.462764,63.1110774 119.960204,63.3704199 C121.452757,64.4075469 123.194146,65.7037735 124.437862,67 C124.686699,66.2222155 125.184139,65.1850884 125.681579,64.9259889 C126.179019,64.1482044 125.681579,62.5926354 125.681579,61.5555083 C125.681579,60.5183812 126.179019,57.9259282 125.930415,56.8888011 C125.681579,55.8516741 125.184139,53.777663 125.184139,52.9998785 C125.432975,52.2220939 125.930415,51.4443094 125.681579,50.1480829 C125.432742,48.8518564 125.432742,44.9629337 125.432742,43.1480221 C125.432742,41.5924531 125.432742,40.036884 124.189026,39.518442 C122.94531,39 122.94531,39 122.94531,39 L112.49744,45.2222762 L112,54.2963481 L114.736269,54.0370055 C114.487666,54.296105 114.487666,54.814547 114.985106,56.1110166 Z" id="Shape" fill="#F8583C"></path>
            <path d="M126.785395,65.7272727 C126.283831,66.272642 125.531367,67.9090057 125.280467,68.7271875 L125.029568,69 C124.528003,68.7271875 123.52464,68.4546307 123.023076,67.9090057 C122.521511,67.0908239 120.514784,65.1816477 119.009856,64.3634659 C118.006492,63.8180966 117.003364,63.5452841 116.501564,63.5452841 C116.250665,63.5452841 116.250665,63.2724716 116.250665,62.9999148 C116.250665,62.7271023 116.501564,62.4545455 116.501564,61.9089205 C116.501564,61.636108 116.250665,61.0907386 116,60.5453693 C116,60.2725568 116,60 116.2509,60 C117.003364,60 118.257392,60 119.009856,60.2728125 C120.765684,60.545625 122.772176,61.3638068 124.026204,61.0909943 C124.778668,61.0909943 125.782032,60.8181818 126.283596,60.8181818 C126.534496,60.8181818 126.534496,60.8181818 126.534496,61.0909943 C126.534496,61.3638068 126.534496,61.3638068 126.534496,61.6363636 C126.785395,62.9999148 127.28696,64.9090909 126.785395,65.7272727 Z" id="Shape" fill="#FE7255"></path>
            <path d="M93,20.8045814 L93,20 C93,20 89.6213284,20.2682776 84.9432801,21.8774404 C80.5252046,23.4866032 77.9262076,24.8274884 76.626831,25.6320698 C75.3274544,26.1683736 73.7681049,26.4366512 72.4684846,26.4366512 C71.1688643,26.4366512 66.4910597,25.9003474 66.4910597,25.9003474 C66.4910597,25.9003474 66.7510325,28.3140916 66.2310869,29.9232544 C65.7111413,31.5324172 66.2310869,36.8962094 66.2310869,36.8962094 C66.2310869,36.8962094 70.6491624,37.4325132 71.169108,37.4325132 C71.169108,37.4325132 74.5477796,38.5053722 76.8868038,37.7007908 C79.2258279,36.8962094 84.9435237,36.6279318 86.2429004,35.8233504 C87.542277,35.018769 87.8022498,35.018769 87.8022498,35.018769 L93,20.8045814 Z" id="Shape" fill="#F4573E"></path>
            <g id="Group" transform="translate(71.000000, 19.000000)">
                <path d="M29.703235,2.33398058 C29.703235,2.33398058 27.5798157,1.81626214 27.0487742,1.55728155 C26.5179816,1.03956311 24.1290415,0.00388349515 23.3327281,0.262864078 C22.5364147,0.52184466 15.6351152,5.95873786 15.1040737,8.02985437 C14.5732811,10.1009709 16.4311797,13.984466 15.9003871,15.2791262 C15.3695945,16.5735437 12.9806544,18.1269417 11.6532995,19.1626214 C10.5914654,20.198301 10.0606728,22.2694175 8.99883871,23.3050971 C8.20252535,24.0817961 7.93700461,23.0461165 5.81358525,23.3050971 C3.6901659,23.5640777 3.15912442,24.5995146 2.36281106,24.3407767 C1.30097696,24.0817961 0.770184332,23.3050971 0.770184332,23.3050971 L0.239391705,29.2597087 C0.239391705,29.2597087 3.42464516,29.2597087 4.48647926,30.2953883 C5.28279263,31.331068 6.60989862,34.6966019 6.60989862,34.6966019 L7.93700461,41.1691748 L8.73331797,41.9458738 C8.73331797,41.9458738 12.7148848,45.3116505 13.7767189,45.8293689 C14.838553,46.3470874 11.1222581,49.9718447 11.1222581,49.9718447 C11.1222581,49.9718447 20.1472258,50.4895631 29.4374654,42.2048544 C32.0919263,39.8747573 43.771106,34.1788835 43.771106,34.1788835 C43.771106,34.1788835 41.1166452,31.331068 44.3018986,27.7063107 C47.4871521,24.0817961 51.7342396,19.9393204 53.857659,19.4216019 C53.857659,19.4216019 51.7342396,17.8682039 50.9379263,16.0558252 C49.8760922,14.2434466 47.4871521,11.3956311 46.6908387,10.8779126 L43.771106,12.6902913 L41.1166452,13.2080097 C41.1166452,13.2080097 41.9129585,14.5024272 38.9932258,15.2791262 C36.0734931,16.0558252 30.4992995,18.3859223 30.4992995,18.3859223 L29.7029862,12.6900485 L30.2337788,7.77087379 L31.0300922,3.62839806 L29.703235,2.33398058 Z" id="Shape" fill="#F67059"></path>
                <path d="M45.0987097,6.47621359 C45.0987097,6.47621359 44.5679171,5.95849515 44.3023963,5.69951456 C43.7716037,5.44053398 43.7716037,5.44053398 43.7716037,5.44053398 L44.8334378,10.3597087 L46.1605438,9.06529126 C45.895023,9.32427184 46.1605438,7.25291262 45.0987097,6.47621359 Z" id="Shape" fill="#F8583C"></path>
            </g>
            <path d="M101.094799,23.4244146 C102.435781,23.6840929 102.972374,23.4244146 102.972374,23.4244146 C102.972374,23.4244146 101.631393,27.837485 100.558457,30.1738593 C100.29016,31.9911204 100.29016,33.8081382 100.29016,35.6253994 L100.29016,38.4808868 C100.29016,38.7405651 100.29016,38.7405651 100.29016,39 C100.826503,38.7403217 101.094799,38.4808868 101.631142,38.2212086 C102.435781,37.9615303 102.972123,37.4424171 103.776762,36.923304 C105.38604,35.8848342 106.727021,35.1060428 108.604596,34.5869296 C110.213874,34.0678165 111.823151,33.5484599 113.164133,33.0293468 C114.773411,32.2505553 116.382688,31.4717639 117.991966,31.2120856 C117.991966,31.2120856 114.505114,28.0969199 115.846346,23.4241712 C116.919282,18.7514226 116.919282,18.7514226 116.919282,18.7514226 C116.919282,18.7514226 117.723921,14.078674 117.992218,11.2231865 C118.260515,8.36769903 111.555106,1.09889782 103.508716,5.25253328 C103.508716,5.25253328 101.094799,8.8868122 100.826503,9.66560364 C100.826503,9.66560364 100.826503,12.001978 101.094799,12.5210911 C101.363096,13.0402043 100.021864,14.8574654 100.021864,15.8959351 C100.021864,16.9344048 100.021864,19.2707792 100.021864,20.0495706 C100.021864,20.5689271 99.7538183,22.9053015 101.094799,23.4244146 Z" id="Shape" fill="#FFD15C"></path>
            <g id="Group" transform="translate(78.000000, 33.000000)">
                <path d="M33.2950685,1.64471429 L32.5060274,1.38468908 C32.5060274,1.38468908 29.349863,2.16452101 28.0348767,2.94435294 C26.7198904,3.72418487 26.9827397,3.98421008 22.511589,5.54387395 L22.7746849,6.58373109 C22.7746849,6.58373109 25.4049041,5.28409244 26.1939452,5.02406723 C26.9829863,4.76404202 30.1391507,4.24423529 31.1912877,3.46440336 C32.7691233,2.68457143 33.2950685,1.64471429 33.2950685,1.64471429 Z" id="Shape" fill="#F8583C"></path>
                <path d="M32.7691233,1.38468908 C32.7691233,1.38468908 32.7691233,2.68432773 31.9800822,3.20437815 C31.1910411,3.72418487 28.5608219,4.50401681 27.2458356,4.76404202 C25.9308493,5.02406723 22.511589,5.54387395 21.7225479,6.06368067 C20.9335068,6.58348739 19.0923288,9.1830084 18.3032877,9.96284034 C17.7773425,10.7426723 16.4621096,12.5623613 16.4621096,13.3421933 C16.1990137,14.3820504 15.6730685,15.9417143 15.1471233,16.2014958 C14.6211781,16.7213025 14.0949863,16.7213025 13.5690411,16.461521 C13.0430959,16.2014958 12.5169041,15.9417143 11.4650137,16.461521 C10.6759726,16.9813277 9.3609863,17.7611597 8.83479452,18.2812101 C8.04575342,18.5412353 5.41553425,19.3210672 4.88958904,19.3210672 C4.36364384,19.3210672 4.62649315,19.3210672 4.36364384,18.8012605 C4.10054795,18.5412353 3.31150685,19.3210672 2.25961644,19.3210672 C1.20747945,19.5810924 0.418438356,19.8408739 0.418438356,19.8408739 C0.418438356,19.8408739 0.681534247,26.3395546 0.418438356,27.1193866 C0.155342466,27.8992185 0.155342466,27.8992185 0.155342466,27.8992185 L2.25936986,28.9390756 C2.25936986,28.9390756 2.78531507,23.7402773 2.78531507,23.4802521 C2.78531507,22.9604454 1.99627397,22.7004202 2.25936986,22.440395 C2.52246575,22.1803697 5.94147945,21.1407563 5.94147945,21.1407563 C5.94147945,21.1407563 6.20457534,21.660563 6.73052055,21.9205882 C7.25646575,21.9205882 9.88668493,20.8807311 10.9388219,20.1008992 C11.9909589,19.3210672 13.8318904,18.2812101 15.4099726,18.2812101 C16.9880548,18.2812101 17.7770959,17.2413529 18.3030411,16.2017395 C18.8289863,15.1618824 19.8811233,12.562605 21.7223014,9.96308403 C23.5634795,7.62358824 26.7196438,4.76428571 26.7196438,4.76428571 C26.7196438,4.76428571 30.9279452,3.98445378 31.9798356,3.46464706 C33.031726,2.94484034 34.3469589,2.1650084 35.136,1.12515126 C35.9250411,0.0852941176 35.9250411,0.0852941176 35.9250411,0.0852941176 L32.7691233,1.38468908 Z" id="Shape" fill="#F4573E"></path>
            </g>
            <path d="M117.731316,15.9167156 C117.731316,12.9528362 116.924759,9.98870422 115.849267,7.29436028 C115.58033,7.02482484 115.311646,6.48600658 115.04271,6.21647114 L114.773774,5.9469357 L114.504838,5.67740026 C114.235902,5.40786482 113.967217,5.40786482 113.698281,5.138582 C112.891725,4.33022829 111.816232,3.79141003 111.278612,2.71352089 C109.665499,1.90516718 107.783449,1.36634892 106.976893,1.09681348 C104.826159,0.557995215 102.137554,2.44398545 102.137554,2.44398545 C102.137554,2.44398545 99.9868204,5.67740026 101.599933,6.7552894 C101.599933,6.7552894 102.675426,5.138582 103.213046,4.86904656 C103.750667,4.59951112 108.052386,4.59951112 109.127878,4.86904656 C110.203371,5.138582 112.354104,5.9469357 111.816484,7.56364311 C111.278864,9.18035051 111.547548,9.98870422 111.816484,10.7970579 C112.08542,11.6054116 112.354104,14.3000082 111.547548,16.1859984 L112.623041,16.7248167 C112.623041,16.7248167 113.429597,14.2997556 115.04271,14.2997556 C116.386887,14.2997556 113.698533,21.5749389 114.773774,24 C114.773774,24 115.58033,23.1916463 116.386887,20.7665852 C116.924507,19.1498778 117.46238,17.5331704 118,16.1859984 C117.731316,16.1859984 117.731316,16.1859984 117.731316,15.9167156 Z" id="Shape" fill="#425A6B"></path>
            <path d="M109,1.40134902 C109,1.40134902 111.785774,-0.574796436 114.318447,0.166287058 C116.85112,0.907370552 119.890233,3.87170453 120.396673,6.34206004 C120.903112,8.81241554 121.916229,11.5296445 119.130455,14 L115.078225,6.83627009 L109,1.40134902 Z" id="Shape" fill="#F05640"></path>
            <path d="M101.036318,5.18345294 C101.036318,5.18345294 102.856249,3.55603696 103.636185,3.01364973 C104.67618,2.4712625 107.015987,2.19994174 108.575858,3.01364973 C110.135729,3.82735772 112.475536,6.26848169 113.515531,8.43828491 C114.555526,10.6080881 117.155149,16.8466856 115.335462,22 C115.335462,22 118.715264,21.4576128 118.97508,18.4738473 C119.23514,15.4903361 117.415209,10.6080881 115.595278,8.43803062 C113.775347,6.26822741 110.395789,2.47075393 107.795922,1.65704594 C105.715932,0.301204997 100.516443,0.843846513 101.036318,5.18345294 Z" id="Shape" fill="#F26F5A"></path>
            <ellipse id="Oval" fill="#FFD15C" transform="translate(116.000000, 15.500000) rotate(-68.407131) translate(-116.000000, -15.500000) " cx="116" cy="15.5" rx="3" ry="1.5"></ellipse>
            <path d="M110,22 C110,22 105.609723,28.3448098 100,30 C100.731713,27.5172146 101.463426,24.4827854 101.463426,24.4827854 C101.463426,24.4827854 107.804861,24.4827854 110,22 Z" id="Shape" fill="#F5B54C"></path>
            <path d="M101.225374,28.500245 C101.225374,28.500245 102.205811,29.2502504 101.960644,29.7501758 C101.715478,30.2501012 101.225374,30.750261 101.225374,31.7501119 C101.225374,32.7499627 101.960644,36.5002237 101.470541,37.5000746 L100,38 C100,38 100,32.7499627 100,30.4999467 C100,28.5000107 100.980437,27 100.980437,27 C100.980437,27 101.470311,28.0003196 101.225374,28.500245 Z" id="Shape" fill="#F8583C"></path>
            <path d="M103,24 L102,24 C103,24 103,24 103,24 Z" id="Shape" fill="#F5B54C"></path>
            <path d="M89.0588397,67.8960146 C89.0588397,67.8960146 87.5883975,68.4224954 87,67.10617 L88.1765192,66.3163254 C88.1765192,66.3163254 89.3530385,65 90.235359,65 C91.1176795,65 92,65 92,65 L89.0588397,67.8960146 Z" id="Shape" fill="#F5B54C"></path>
            <path d="M87,67.9642642 L88.6852805,67 C89.9487473,68.285786 87,67.9642642 87,67.9642642 Z" id="Shape" fill="#FFFFFF"></path>
            <path d="M88,67.8606339 C88,68.1106817 88,68.6105429 88.5322897,69.1104041 C88.5322897,69.1104041 88.2660201,69.860313 88.7985594,70.610222 C89.3308491,71.1100832 89.8633883,71.3601309 89.8633883,71.3601309 C89.8633883,71.3601309 90.3956781,72.3600877 91.7267767,72.3600877 C91.7267767,72.3600877 92.2590664,73.3600444 93.3238954,72.8599489 C94.3887244,72.3600877 94.6547445,72.3600877 95.1872838,72.1100399 C95.7195735,72.1100399 99.4463502,71.8599921 100.51093,71.1100832 C101.575759,70.610222 103.971437,70.1101264 105.302286,70.610222 C106.633135,70.8602698 117.812966,71.3601309 121.007203,70.610222 C124.201441,69.860313 125,68.6105429 125,67.8606339 C125,67.8606339 117.812966,63.3611801 117.014406,63.1111323 C116.215847,62.8610846 116.215847,63.1111323 116.215847,63.1111323 C116.215847,63.1111323 116.215847,63.6109935 115.151018,63.6109935 C114.086189,63.6109935 112.75534,64.1108547 110.891952,64.6109503 C109.028563,65.1108115 104.503477,64.6109503 103.438648,64.6109503 C102.373819,64.6109503 101.309239,64.860998 101.309239,64.860998 C101.309239,64.860998 98.115002,65.1110458 96.2516136,64.860998 C94.3882253,64.6109503 93.5896659,64.3611368 92.7911066,64.6109503 C92.2588169,64.860998 89.5968692,66.360816 88.7983098,66.8606772 C88.2662696,67.3605384 88,67.6105861 88,67.8606339 Z" id="Shape" fill="#FFD15C"></path>
            <path d="M92,66 C91.7271565,66.2857525 91.7271565,66.2857525 91.4545687,66.5712373 C91.1817252,66.5712373 91.1817252,66.8569898 90.9091374,66.8569898 C90.6362939,66.8569898 90.3637061,67.1427424 90.3637061,67.1427424 C90.0908626,67.1427424 89.8182748,67.4284949 89.8182748,67.4284949 C89.5454313,67.4284949 89.5454313,67.7142475 89.2728435,67.7142475 C89,67.7142475 89,68 89,68 L89.2728435,67.7142475 C89.545687,67.7142475 89.545687,67.4284949 89.8182748,67.4284949 C90.0911183,67.1427424 90.0911183,67.1427424 90.3637061,66.8572576 C90.6365496,66.8572576 90.9091374,66.5715051 90.9091374,66.5715051 C90.9091374,66.5715051 91.1819809,66.5715051 91.1819809,66.2857525 C91.1819809,66.2857525 91.4548244,66.2857525 91.4548244,66 C91.7274122,66.2854847 92,66 92,66 Z" id="Shape" fill="#F5B54C"></path>
            <g id="Group" transform="translate(27.000000, 29.000000)" fill="#344A5E">
                <path d="M30.8780576,20.6691236 C30.8780576,20.6691236 30.8780576,10.3859775 30.3409712,7.48568539 C29.8038849,4.32164045 31.6838129,10.3859775 31.6838129,13.8137753 C31.4151439,17.241573 31.6838129,21.1966292 31.6838129,21.1966292 L30.8780576,20.6691236 Z" id="Shape"></path>
                <path d="M32.2208993,21.4601348 C32.2208993,21.4601348 32.2208993,14.3410337 32.2208993,10.1222247 C32.2208993,6.16716854 32.7579856,16.4503146 32.7579856,18.8233483 C32.7579856,20.9326292 32.7579856,21.9873933 32.7579856,21.9873933" id="Shape"></path>
                <path d="M33.8324101,20.9326292 C33.8324101,20.9326292 34.3694964,13.0225169 34.3694964,9.5947191 C34.3694964,6.43067416 33.563741,3.53038202 33.2950719,1.94835955 C33.2950719,1.68460674 33.2950719,1.68460674 33.2950719,1.42110112 C32.7579856,0.102831461 35.1752518,4.58514607 34.9065827,9.85847191 C34.3697482,15.6593034 34.3697482,20.141618 33.8324101,20.9326292 Z" id="Shape"></path>
                <path d="M24.1633453,19.6143596 C24.1633453,19.6143596 24.4320144,19.6143596 24.7004317,19.6143596 C24.7004317,19.6143596 24.9691007,19.6143596 25.237518,19.6143596 C25.5059353,19.6143596 25.5061871,19.6143596 25.7746043,19.6143596 C26.0432734,19.6143596 26.3116906,19.6143596 26.5803597,19.6143596 L26.8490288,19.6143596 L27.1176978,19.6143596 L27.3863669,19.6143596 L27.655036,19.6143596 L27.923705,19.6143596 C28.1923741,19.6143596 28.1923741,19.6143596 28.4607914,19.8781124 C28.7294604,19.8781124 28.9978777,20.1418652 29.2665468,20.1418652 C29.5352158,20.1418652 29.8036331,20.405618 30.0723022,20.405618 C30.3409712,20.405618 30.6093885,20.6693708 30.8780576,20.6693708 C31.1467266,20.6693708 31.4151439,20.9331236 31.6838129,20.9331236 C31.952482,20.9331236 32.2208993,21.1968764 32.4895683,21.1968764 C32.7582374,21.1968764 32.7582374,21.4606292 33.0266547,21.4606292 C33.2953237,21.4606292 33.2953237,21.724382 33.563741,21.724382 C33.8324101,21.9881348 33.8324101,21.9881348 33.8324101,21.9881348 C33.8324101,21.9881348 33.563741,21.9881348 33.2953237,21.9881348 C33.2953237,21.9881348 33.0266547,21.9881348 32.7582374,21.724382 C32.4895683,21.724382 32.4895683,21.724382 32.2211511,21.4606292 C31.952482,21.4606292 31.6840647,21.1968764 31.4153957,21.1968764 C31.1467266,21.1968764 30.8783094,20.9331236 30.6096403,20.9331236 C30.3409712,20.9331236 30.072554,20.6693708 29.8038849,20.6693708 C29.5352158,20.6693708 29.2667986,20.405618 28.9981295,20.405618 C28.7294604,20.405618 28.4610432,20.1418652 28.1923741,20.1418652 C27.923705,20.1418652 27.923705,20.1418652 27.6552878,19.8781124 L27.3866187,19.8781124 C27.1179496,19.8781124 26.8495324,19.8781124 26.5808633,19.8781124 C26.3121942,19.8781124 26.043777,19.8781124 25.7751079,19.8781124 C25.5064388,19.8781124 25.2380216,19.8781124 25.2380216,19.8781124 C24.9693525,19.8781124 24.9693525,19.8781124 24.7009353,19.8781124 C24.4320144,19.6143596 24.1633453,19.6143596 24.1633453,19.6143596 Z" id="Shape"></path>
                <path d="M20.9403237,12.2315056 C20.9403237,11.9677528 20.9403237,11.9677528 20.9403237,11.7042472 L20.9403237,11.4404944 L20.9403237,11.1767416 L20.9403237,10.9129888 C20.9403237,10.9129888 20.9403237,10.649236 20.9403237,10.3857303 C20.9403237,10.1222247 20.9403237,10.1219775 20.9403237,9.85847191 C20.9403237,9.5947191 20.9403237,9.5947191 20.9403237,9.33121348 L20.9403237,9.06746067 L20.9403237,8.80370787 C20.9403237,8.53995506 20.9403237,8.53995506 20.9403237,8.27644944 C20.9403237,8.01269663 20.9403237,8.01269663 20.9403237,7.74919101 C20.9403237,7.4854382 20.9403237,7.4854382 20.9403237,7.22193258 C20.9403237,6.95817978 20.9403237,6.43092135 20.9403237,6.16716854 C20.9403237,5.90341573 20.9403237,5.3761573 20.9403237,5.11240449 C20.9403237,4.84865169 20.9403237,4.84865169 20.9403237,4.58514607 C20.9403237,4.32139326 20.9403237,4.32139326 20.9403237,4.05788764 C20.9403237,3.79438202 20.9403237,3.79413483 20.9403237,3.53062921 L20.9403237,3.2668764 L20.9403237,3.0031236 C20.9403237,2.73937079 20.9403237,2.73937079 20.9403237,2.47586517 C20.9403237,2.21235955 20.9403237,2.21211236 20.9403237,1.94860674 C20.9403237,1.68485393 20.9403237,1.68485393 20.9403237,1.42134831 L20.9403237,1.15759551 L20.9403237,0.893842697 L20.9403237,0.630089888 C20.9403237,0.366337079 20.9403237,0.366337079 20.9403237,0.366337079 L20.9403237,0.10258427 C20.9403237,0.10258427 20.9403237,0.366337079 21.2089928,0.366337079 L21.2089928,0.630089888 L21.2089928,0.893842697 C21.2089928,0.893842697 21.2089928,1.15759551 21.4776619,1.15759551 C21.4776619,1.15759551 21.4776619,1.42134831 21.7463309,1.68485393 C21.7463309,1.94860674 21.7463309,1.94860674 22.015,2.21211236 C22.015,2.47586517 22.015,2.47586517 22.015,2.73937079 L22.015,3.0031236 L22.015,3.2668764 C22.015,3.53062921 22.015,3.53062921 22.015,3.79413483 C22.015,4.05788764 22.015,4.58514607 22.2836691,4.84889888 C22.2836691,5.11265169 22.2836691,5.63991011 22.2836691,5.90366292 C22.2836691,6.16741573 22.2836691,6.69467416 22.2836691,6.95842697 C22.2836691,7.22217978 22.2836691,7.7494382 22.2836691,8.01319101 C22.2836691,8.27694382 22.2836691,8.27694382 22.2836691,8.54044944 L22.2836691,8.80420225 L22.2836691,9.06795506 C22.2836691,9.33170787 22.2836691,9.33170787 22.2836691,9.59521348 C22.2836691,9.85896629 22.2836691,9.85896629 22.2836691,10.1224719 C22.2836691,10.3859775 22.2836691,10.3862247 22.2836691,10.6497303 L22.2836691,10.9134831 L22.2836691,11.177236 L22.2836691,11.4409888 C20.9403237,11.968 20.9403237,12.2315056 20.9403237,12.2315056 Z" id="Shape"></path>
                <path d="M28.7294604,31.2157753 C28.4607914,32.0067865 27.923705,32.7977978 27.1179496,33.588809 C26.3121942,34.1160674 25.5064388,34.3798202 24.4320144,34.3798202 C25.5064388,33.588809 26.3121942,32.5340449 27.1179496,31.4795281 C27.923705,30.1612584 28.1923741,28.579236 28.1923741,26.9972135 C28.9978777,28.3154831 29.2665468,29.6337528 28.7294604,31.2157753 Z" id="Shape"></path>
                <path d="M24.7006835,34.3798202 C24.7006835,34.3798202 22.5520863,34.1160674 22.2834173,28.8427416 C22.2834173,28.8427416 22.5520863,30.9520225 23.0891727,32.0067865 C23.626259,33.0615506 24.1633453,34.1163146 24.7006835,34.3798202 Z" id="Shape"></path>
                <path d="M7.77982014,15.6593034 C7.77982014,15.3955506 8.31690647,15.1320449 8.58557554,15.3955506 C8.8542446,15.6593034 9.39133094,15.922809 9.92841727,15.922809 C11.0028417,15.922809 15.8373741,16.7138202 16.9115468,17.2410787 C18.2543885,17.7683371 19.597482,18.2958427 19.8658993,18.0320899 C20.4029856,18.0320899 19.8658993,18.2958427 19.5972302,19.6141124 C19.3285612,20.932382 19.8658993,22.2508989 18.5228058,22.2508989 C17.1797122,22.2508989 16.6426259,21.7236404 14.4940288,21.4598876 C12.3454317,21.1961348 10.7339209,21.1961348 9.39082734,20.6688764 C8.04773381,20.141618 6.70489209,20.141618 6.70489209,19.3506067 C6.97406475,18.5595955 7.51115108,16.7140674 7.77982014,15.6593034 Z" id="Shape"></path>
                <path d="M4.2881295,29.8975056 C4.55679856,29.8975056 5.09388489,30.1612584 5.09388489,30.424764 C5.09388489,30.9520225 5.09388489,31.4795281 5.36255396,32.0067865 C5.89964029,32.7977978 8.04848921,37.5438652 8.31690647,38.8621348 C8.58557554,40.1804045 8.85399281,41.762427 9.12266187,42.0261798 C9.39133094,42.2899326 8.85399281,42.2899326 7.51115108,42.817191 C6.16830935,43.0809438 5.36255396,44.6629663 4.55679856,43.3444494 C3.75104317,42.2896854 4.01971223,41.4986742 2.94528777,39.3893933 C2.13953237,37.2801124 1.06510791,35.9615955 0.796690647,34.379573 C0.528021583,32.7975506 -0.277733813,31.7427865 0.528021583,31.4792809 C1.33377698,30.9522697 3.21370504,30.1612584 4.2881295,29.8975056 Z" id="Shape"></path>
            </g>
            <g id="Group" transform="translate(90.000000, 68.000000)" fill="#F5B54C">
                <path d="M2.98,0.0663529412 C2.98,0.0663529412 2.67514286,0.317411765 2.37057143,0.317411765 C2.06571429,0.317411765 2.06571429,0.568470588 1.76114286,0.568470588 C1.76114286,0.568470588 1.45628571,0.568470588 1.45628571,0.819529412 C1.45628571,0.819529412 1.15142857,0.819529412 1.15142857,1.07058824 L0.846571429,1.32164706 L0.541714286,1.57270588 L0.236857143,1.82376471 L0.236857143,2.07482353 C0.236857143,2.32588235 0.236857143,2.32588235 0.236857143,2.57670588 L0.236857143,2.82776471 C0.236857143,2.82776471 0.236857143,2.82776471 0.236857143,2.57670588 C0.236857143,2.57670588 0.236857143,2.32564706 0.236857143,2.07482353 L0.236857143,1.82376471 L0.541714286,1.57270588 L0.846571429,1.32164706 L1.15142857,1.07058824 L1.45628571,0.819529412 C1.45628571,0.819529412 1.76114286,0.819529412 1.76114286,0.568470588 C2.066,0.568470588 2.37057143,0.317411765 2.37057143,0.317411765 C2.67514286,0.317411765 2.98,0.0663529412 2.98,0.0663529412 Z" id="Shape"></path>
                <path d="M1.76085714,3.83105882 C1.76085714,3.58 1.76085714,3.58 1.76085714,3.32917647 L1.76085714,3.07811765 C1.76085714,3.07811765 2.06571429,3.07811765 2.06571429,2.82705882 C2.06571429,2.82705882 2.37057143,2.82705882 2.37057143,2.576 C2.37057143,2.576 2.67542857,2.576 2.67542857,2.32494118 L2.98028571,2.32494118 C3.28514286,2.32494118 3.28514286,2.07388235 3.58971429,2.07388235 C3.89457143,2.07388235 3.89457143,2.07388235 3.89457143,1.82282353 C3.89457143,1.82282353 3.58971429,1.82282353 3.58971429,2.07388235 C3.58971429,2.07388235 3.28485714,2.32494118 2.98028571,2.32494118 C2.98028571,2.32494118 2.67542857,2.32494118 2.67542857,2.576 C2.67542857,2.576 2.37057143,2.576 2.37057143,2.82705882 C2.37057143,2.82705882 2.06571429,2.82705882 2.06571429,3.07811765 C2.06571429,3.07811765 1.76085714,3.07811765 1.76085714,3.32917647 C1.76085714,3.32917647 1.76085714,3.32917647 1.456,3.58023529 L1.456,3.83129412 C1.76085714,3.32917647 1.76085714,3.58023529 1.76085714,3.83105882 Z" id="Shape"></path>
            </g>
            <path d="M13,62.0987287 C13,62.0987287 9.68612268,61.0217438 6.8822197,61.5603625 C4.07831673,62.0989811 2.03889731,62.9064043 1.78414912,63.7140799 C1.52940092,64.5217555 1.52916194,66.1371067 2.03913629,66.675473 C2.54911063,67.2138392 8.66665195,71.2522172 12.2355164,70.9831603 C12.2355164,70.9831603 9.17662629,71.2524696 5.86274897,69.6371184 C2.29412346,68.0217672 1.01942658,66.9447823 1.01942658,64.7910649 C0.764439408,62.6373474 3.05860702,61.2910531 5.6077618,61.0219962 C7.90192941,61.0219962 11.4705549,60.7526869 13,62.0987287 Z" id="Shape" fill="#E8EAE8"></path>
            <path d="M49.1742129,16.9087227 C49.1742129,16.9087227 47.608987,17.7269167 47.3480345,18.8179271 C47.087082,19.9089376 47.8696949,20.454315 48.1306474,20.454315 C48.6523079,20.454315 49.9568259,19.3633045 50.2175338,18.8179271 C50.7391942,18.2725497 51.0001467,17.9997332 51.0001467,17.9997332 L54.9132115,23.7270908 L63.2610014,35.1818061 C63.2610014,35.1818061 64.8262273,36 66.9131137,36 C69,36 69,36 69,36 L67.1738216,26.4544892 C67.1738216,26.4544892 66.3912086,25.9091118 65.3476432,25.0909178 C64.3040777,24.2727239 57.7824662,19.3635602 56.7389008,17.9999889 C55.9562878,16.6364175 53.8694015,13.9090192 52.0432231,13.3636418 C50.2170447,12.5454478 46.8258849,13.3636418 46.8258849,13.3636418 C46.8258849,13.3636418 43.6954331,13.0908252 43.1737727,13.6364583 C42.6521122,14.1818357 42.3911597,15.0000296 41.6085468,15.5456627 C40.8259338,16.0910401 40.0433209,17.1820506 39.5216604,18.0002446 C39.2607079,18.8184385 39,22.6365917 39,23.1822248 C39,23.1822248 40.3042734,23.1822248 40.3042734,22.0912143 L40.3042734,23.4547856 C40.3042734,23.4547856 42.1304518,24.000163 41.8694993,20.7273873 C41.8694993,20.7273873 42.3911597,18.8181828 42.3911597,18.545622 L42.9128202,18.0002446 C42.9128202,18.0002446 42.6518677,19.3638159 42.6518677,20.1820099 C42.6518677,21.0002038 42.6518677,21.8183978 42.6518677,21.8183978 L42.6518677,23.1819691 C42.6518677,23.1819691 44.2170936,23.7273465 44.4780461,20.1820099 C44.4780461,20.1820099 45.260659,18.545622 45.260659,18.2728054 C45.260659,18.2728054 46.043272,17.1817949 46.043272,16.9092341 C46.043272,16.9092341 46.5649324,16.6364175 46.8258849,16.6364175 C46.8263741,16.3633453 48.3916,16.9087227 49.1742129,16.9087227 Z" id="Shape" fill="#FFD15C"></path>
            <g id="Group" transform="translate(39.000000, 18.000000)" fill="#FFFFFF">
                <path d="M3.68139535,4.13771429 C3.68139535,4.13771429 4.17744186,3.52828571 4.4255814,3.83285714 L4.4255814,5.052 C4.4255814,5.052 4.17744186,5.66142857 3.68139535,5.35685714 C3.68139535,5.35685714 3.68139535,4.44257143 3.68139535,4.13771429 Z" id="Shape"></path>
                <path d="M1.44883721,5.96628571 C1.44883721,5.96628571 1.94488372,5.35685714 2.19302326,5.66142857 C2.19302326,5.66142857 1.94488372,4.44228571 1.69697674,4.44228571 C1.44883721,4.13742857 1.44883721,5.05171429 1.44883721,5.05171429 L1.44883721,5.96628571 Z" id="Shape"></path>
                <path d="M0.208604651,5.96628571 L0.208604651,4.13771429 C1.20069767,4.44257143 0.208604651,5.96628571 0.208604651,5.96628571 Z" id="Shape"></path>
                <path d="M8.39465116,0.785428571 C8.39465116,0.785428571 8.39465116,2.00457143 8.89069767,2.30914286 C8.89069767,2.30914286 9.63488372,1.69971429 9.88302326,1.39485714 C10.1311628,1.09 9.88302326,0.785428571 9.88302326,0.480571429 C9.63488372,0.175714286 9.38697674,0.175714286 9.13883721,0.175714286 C8.64255814,0.480571429 8.39465116,0.785428571 8.39465116,0.785428571 Z" id="Shape"></path>
            </g>
            <path d="M72.2320126,27.8084495 C71.4642651,29.3403746 70.9525134,29.5957752 71.4642651,31.1277003 C71.7202609,32.6596254 72.2320126,35.7234756 72.2320126,37 C71.7202609,37 68.9050268,36.7445994 67.6255276,36.4894381 C67.3695318,36.4894381 67.1137759,36.2340375 67.1137759,35.7234756 C67.1137759,34.1915505 66.8577801,30.3617378 67.1137759,29.0852133 C67.3697717,28.0638502 67.3697717,26.5319251 67.3697717,25.7659625 C67.3697717,25.2554006 67.6257675,25 68.1375192,25 C69.1612625,25 70.6967575,25.2554006 72.2322525,25.5105619 C72.4882483,25.5105619 73,25.7659625 73,26.2765244 C72.4880084,26.7873257 72.4880084,27.2978876 72.2320126,27.8084495 Z" id="Shape" fill="#FA7157"></path>
        </g>
    </g>
</svg>