<?xml version="1.0" encoding="UTF-8"?>
<svg width="36px" height="105px" viewBox="0 0 36 105" version="1.1" xmlns="http://www.w3.org/2000/svg" xmlns:xlink="http://www.w3.org/1999/xlink">
    <!-- Generator: Sketch 48.2 (47327) - http://www.bohemiancoding.com/sketch -->
    <title>thermometer</title>
    <desc>Created with Sketch.</desc>
    <defs></defs>
    <g id="Style-Guide" stroke="none" stroke-width="1" fill="none" fill-rule="evenodd" transform="translate(-895.000000, -4286.000000)">
        <g id="thermometer" transform="translate(895.000000, 4286.000000)" fill-rule="nonzero">
            <path d="M18,105 C8.07478331,105 0,96.8991368 0,86.9418637 C0,81.9200019 2.11031042,77.0842361 5.78986092,73.6744479 L7.62918262,71.9697813 L7.62918262,10.404313 C7.62918262,4.66741489 12.2815713,0 18,0 C23.7184287,0 28.3708174,4.66741489 28.3708174,10.404313 L28.3708174,71.9700088 L30.2101391,73.6746754 C33.8894628,77.0844636 36,81.9202294 36,86.9420912 C35.9997732,96.8991368 27.9252167,105 18,105 Z" id="Shape" fill="#DBD9D7"></path>
            <path d="M24.4078014,76.3714191 L24.4078014,10.5476789 C24.4078014,6.93730616 21.5332447,4 18,4 C14.4667553,4 11.5921986,6.93707969 11.5921986,10.5476789 L11.5921986,76.3714191 C8.11679965,78.6089353 6,82.4869947 6,86.738049 C6,93.4992884 11.3832004,99 18,99 C24.6167996,99 30,93.4992884 30,86.738049 C30,82.4869947 27.8832004,78.6091618 24.4078014,76.3714191 Z" id="Shape" fill="#FF9A8F"></path>
            <path d="M17.4997723,94 C12.81285,94 9,90.2249793 9,85.5845584 C9,82.6769671 10.4796372,80.0183081 12.9576936,78.4721776 L14.746604,77.3562668 L14.746604,9.72607817 C14.746604,8.22278924 15.9818744,7 17.5,7 C19.0181256,7 20.253396,8.22301472 20.253396,9.72607817 L20.253396,77.3560414 L22.0423064,78.4719521 C24.520135,80.0180826 26,82.6769671 26,85.5843329 C25.9995445,90.2247538 22.1864668,94 17.4997723,94 Z" id="Shape" fill="#FF4A36"></path>
            <g id="Group" transform="translate(1.000000, 15.000000)" fill="#B7B3AE">
                <path d="M8.80152632,48.0511416 C8.80152632,47.0568493 7.96571053,46.2509132 6.93402632,46.2509132 L0.0864473684,46.2509132 L0.0864473684,49.8513699 L6.93402632,49.8513699 C7.96571053,49.8513699 8.80152632,49.0454338 8.80152632,48.0511416 Z" id="Shape"></path>
                <path d="M8.80152632,32.6892694 C8.80152632,31.6949772 7.96571053,30.8890411 6.93402632,30.8890411 L0.0864473684,30.8890411 L0.0864473684,34.4894977 L6.93402632,34.4894977 C7.96571053,34.4894977 8.80152632,33.6833333 8.80152632,32.6892694 Z" id="Shape"></path>
                <path d="M8.80152632,17.3271689 C8.80152632,16.3328767 7.96571053,15.5269406 6.93402632,15.5269406 L0.0864473684,15.5269406 L0.0864473684,19.1273973 L6.93402632,19.1273973 C7.96571053,19.1273973 8.80152632,18.3214612 8.80152632,17.3271689 Z" id="Shape"></path>
                <path d="M8.80152632,1.9652968 C8.80152632,0.971004566 7.96571053,0.165068493 6.93402632,0.165068493 L0.0864473684,0.165068493 L0.0864473684,3.76552511 L6.93402632,3.76552511 C7.96571053,3.76552511 8.80152632,2.95936073 8.80152632,1.9652968 Z" id="Shape"></path>
            </g>
        </g>
    </g>
</svg>