<?xml version="1.0" encoding="UTF-8"?>
<svg width="91px" height="92px" viewBox="0 0 91 92" version="1.1" xmlns="http://www.w3.org/2000/svg" xmlns:xlink="http://www.w3.org/1999/xlink">
    <!-- Generator: Sketch 48.2 (47327) - http://www.bohemiancoding.com/sketch -->
    <title>weightlifting (1)</title>
    <desc>Created with Sketch.</desc>
    <defs></defs>
    <g id="Style-Guide" stroke="none" stroke-width="1" fill="none" fill-rule="evenodd" transform="translate(-1606.000000, -4096.000000)">
        <g id="weightlifting-(1)" transform="translate(1606.000000, 4096.000000)" fill-rule="nonzero">
            <path d="M17.8305697,83.7928791 C24.1215173,86.8275405 30.793675,87.9655164 30.793675,87.9655164 C43.7567803,88.7242262 55.1948669,83.7928791 55.1948669,83.7928791 C55.1948669,86.2585526 55.7667713,88.7240484 56.5293699,91 L73.4958056,91 C78.4522502,84.1721451 82.6462749,74.3096287 80.3586576,61.4126287 C75.4022129,62.9298706 72.7332069,59.5159431 72.7332069,59.5159431 C61.6763302,51.7398343 49.2851292,60.6539189 49.2851292,60.6539189 C35.1782153,50.4121366 24.1213386,63.4988585 24.1213386,63.4988585 C25.2651473,61.7918947 26.0277459,53.6363421 26.0277459,53.6363421 C27.1715546,43.3945597 31.5560949,34.2907532 31.5560949,34.2907532 C32.3186936,29.9285718 37.2751383,30.4975597 37.2751383,30.4975597 C39.5627556,32.2045235 42.2315829,32.3942454 42.2315829,32.3942454 C46.8068176,33.7219431 47.7599319,32.3942454 47.7599319,32.3942454 C48.5225306,35.2391849 50.2382436,34.1012091 50.2382436,34.1012091 C53.6696696,32.3942454 51.1913579,29.5493058 51.1913579,29.5493058 C49.8568549,28.032064 51.9539566,27.2733542 51.9539566,27.2733542 C53.8603639,26.5146444 53.2884596,25.3766686 53.2884596,25.3766686 L48.7132249,15.1348862 C44.1379902,14.1866323 33.8437123,18.5488136 33.8437123,18.5488136 C25.0744529,20.4454993 21.8337213,30.6872816 21.8337213,30.6872816 C21.8337213,30.6872816 -2.94850197,63.1195925 0.29222968,72.9821088 C3.3424457,82.6549033 17.8305697,83.7928791 17.8305697,83.7928791 Z" id="Shape" fill="#FFD15C"></path>
            <g id="Group" transform="translate(16.000000, 41.000000)" fill="#F8B64C">
                <path d="M37.2222542,24.9702465 C37.8001806,25.7365035 38.5708094,26.8857993 39.3412575,28.2265246 C40.1118863,29.7588592 40.6898127,31.4828028 41.0750368,33.3983556 C41.4602609,35.3139085 41.8456656,37.6125 42.6161137,39.9110915 C43.3867425,42.0180739 44.5425953,44.1252359 45.8909699,45.8491796 C47.2395251,47.5731232 48.780602,48.9140282 50.3216789,49.8717148 C50.8996054,50.2547535 51.6702341,50.6379718 52.2481605,50.8294014 L53.9819398,50.8294014 C53.211311,50.4463627 52.2481605,49.6801056 51.0923077,48.722419 C48.780602,46.4238275 46.276194,42.9759401 44.9278194,38.9534049 C44.1571906,37.0378521 43.7719666,34.9308697 43.0013378,32.8238873 C42.230709,30.7169049 41.4602609,28.9929613 40.304408,27.4604472 C39.3412575,26.1195423 38.1854047,25.1618556 37.2220736,24.5872077 C36.4514448,24.0125599 35.8735184,23.8209507 35.8735184,23.8209507 C35.8735184,23.8209507 36.6443278,24.204169 37.2222542,24.9702465 Z" id="Shape"></path>
                <path d="M9.28908361,35.1224789 C9.28908361,35.1224789 11.0228629,35.5055176 13.7197926,35.8887359 C16.4167224,36.2717746 19.6917592,36.654993 23.1593177,36.4633838 C23.9299465,36.4633838 24.893097,36.4633838 25.6637258,36.2717746 C26.4343545,36.0801655 27.397505,36.0801655 27.9754314,35.8887359 C28.7460602,35.6971268 29.5165084,35.5056972 30.0944348,35.314088 C30.6723612,35.1224789 31.44299,34.9310493 32.0209164,34.547831 C32.5988428,34.1647923 33.1767692,33.9731831 33.5619933,33.7815739 C33.9472174,33.5899648 34.3326221,33.2069261 34.7178462,33.0153169 C35.2957726,32.6322782 35.873699,32.440669 35.873699,32.440669 C35.873699,32.440669 35.6809967,32.8237077 35.1030702,33.3983556 C34.5251438,33.9730035 33.7545151,34.9306901 32.5986622,35.6969472 C32.0207358,36.0799859 31.4428094,36.4632042 30.6721806,36.846243 C29.9015518,37.2292817 29.1311037,37.6125 28.3604749,37.8039296 C26.6266957,38.3785775 24.8929164,38.5701866 22.9664348,38.7616162 C21.0399532,38.7616162 19.3061739,38.7616162 17.5723946,38.3785775 C15.8386154,38.1869683 14.2975385,37.6123204 13.1416856,37.0376725 C10.8301605,36.0801655 9.28908361,35.1224789 9.28908361,35.1224789 Z" id="Shape"></path>
                <path d="M2.73919064,24.7788169 C2.73919064,24.7788169 2.54648829,24.3957782 2.16126421,23.8211303 C1.77604013,23.2464824 1.19811371,22.2887958 0.81270903,20.9478908 C0.42748495,19.7985951 0.0420802676,18.2662606 0.0420802676,16.5423169 C0.0420802676,14.8183732 0.234782609,13.0944296 0.620006689,11.3704859 C1.19793311,9.64654225 1.77585953,8.11420775 2.54648829,6.58169366 C3.31711706,5.24078873 4.28026756,3.90006338 5.05089632,2.94219718 C6.78467559,1.02664437 8.32575251,0.0689577465 8.32575251,0.0689577465 C8.32575251,0.0689577465 8.13305017,0.451996479 7.74782609,1.02664437 C7.36260201,1.60129225 6.78467559,2.55897887 6.20674916,3.51684507 C5.05089632,5.62382746 3.70234114,8.68867606 2.93189298,11.7535246 C2.5466689,13.2858592 2.35396656,14.8183732 2.16126421,16.3507077 C1.96856187,17.8830423 1.96856187,19.2239472 2.16126421,20.373243 C2.35396656,21.5225387 2.35396656,22.6718345 2.54648829,23.2464824 C2.73919064,24.204169 2.73919064,24.7788169 2.73919064,24.7788169 Z" id="Shape"></path>
            </g>
            <path d="M74,92 L91,92 L91,60.0113466 C86.7500433,59.8197376 81.0217052,62.1183277 81.0217052,62.1183277 C80.8368643,62.1183277 80.8368643,62.1183277 80.6521965,62.1183277 C82.8695953,75.1436122 78.8043064,85.1042295 74,92 Z" id="Shape" fill="#FF0C38"></path>
            <g id="Group" transform="translate(0.000000, 33.000000)" fill="#231F20" opacity="0.1">
                <path d="M18.1203816,51.3934833 C24.4502061,54.4541307 31.1635965,55.6018511 31.1635965,55.6018511 C44.2068114,56.3670578 55.7155833,51.3934833 55.7155833,51.3934833 C55.7155833,53.8802705 56.2910219,56.3668784 57.0583333,58.6623191 L59.7436535,58.6623191 C58.4009035,55.9843647 57.6337719,52.9237173 57.6337719,49.4805562 C57.6337719,49.4805562 46.125,54.4539514 33.0817851,53.688924 C33.0817851,53.688924 26.1765219,52.5412036 20.0385702,49.4805562 C20.0385702,49.4805562 5.46073246,48.3328359 2.19997368,38.3858663 C0.857223684,34.5601915 7.18704825,19.8309939 7.18704825,19.8309939 C2.58353947,27.8650365 -1.06096491,36.0904255 0.281785088,40.298614 C3.54272368,50.2457629 18.1203816,51.3934833 18.1203816,51.3934833 Z" id="Shape"></path>
                <path d="M47.8514956,29.96931 C47.8514956,29.96931 60.5111447,20.9788936 71.6363509,29.0129362 C71.6363509,29.0129362 74.3216711,32.2647508 79.3089254,30.9258632 C81.418807,42.5944134 78.1580482,51.9673435 73.7464123,58.8536657 L74.3218509,58.8536657 C79.3089254,51.9673435 83.5288684,42.0203739 81.227114,29.0129362 C76.2400395,30.5431702 73.5545395,27.1000091 73.5545395,27.1000091 C62.2376404,19.0659666 49.7696842,28.056383 49.7696842,28.056383 C35.5755921,17.7268997 24.450386,30.9256839 24.450386,30.9256839 C25.6012632,29.2041033 26.3685746,20.9787143 26.3685746,20.9787143 C27.5194518,10.649231 31.9310877,1.46746809 31.9310877,1.46746809 C31.9310877,0.893607903 32.1229605,0.511094225 32.3146535,0.128401216 C31.3556491,0.702261398 30.2047719,1.65863526 30.0128991,3.38021581 C30.0128991,3.38021581 25.7929561,12.5619787 24.450386,22.891462 C24.450386,22.891462 23.6830746,31.1168511 22.5321974,32.8384316 C22.5321974,32.8386109 33.4655307,19.4484802 47.8514956,29.96931 Z" id="Shape"></path>
            </g>
            <circle id="Oval" fill="#40596B" cx="35" cy="22" r="22"></circle>
            <path d="M35.5,38 C26.2906642,38 19,30.5174147 19,21.5 C19,12.4825853 26.4825853,5 35.5,5 C44.7093358,5 52,12.4825853 52,21.5 C52,30.5174147 44.7093358,38 35.5,38 Z M35.5,9.60448803 C28.9766605,9.60448803 23.7964091,14.7847394 23.7964091,21.3080789 C23.7964091,27.8314184 28.9766605,33.0116697 35.5,33.0116697 C42.0233395,33.0116697 47.2035909,27.8314184 47.2035909,21.3080789 C47.2035909,14.7847394 42.0231596,9.60448803 35.5,9.60448803 Z" id="Shape" fill="#334A5E"></path>
            <circle id="Oval" fill="#CDD6E0" cx="35.5" cy="22.5" r="4.5"></circle>
        </g>
    </g>
</svg>