<?xml version="1.0" encoding="UTF-8"?>
<svg width="112px" height="102px" viewBox="0 0 112 102" version="1.1" xmlns="http://www.w3.org/2000/svg" xmlns:xlink="http://www.w3.org/1999/xlink">
    <!-- Generator: Sketch 48.2 (47327) - http://www.bohemiancoding.com/sketch -->
    <title>exercise (2)</title>
    <desc>Created with Sketch.</desc>
    <defs></defs>
    <g id="Style-Guide" stroke="none" stroke-width="1" fill="none" fill-rule="evenodd" transform="translate(-604.000000, -4091.000000)">
        <g id="exercise-(2)" transform="translate(604.000000, 4091.000000)" fill-rule="nonzero">
            <path d="M61.292977,16.1931157 C62.8909948,17.8636567 63.3474796,20.2498881 63.575829,22.3976307 C63.8041784,24.5453732 63.575829,26.9318284 64.0323138,29.3180598 C64.4887986,31.7045149 65.4019822,34.0907464 67,36 C65.1738468,35.2840858 63.1193442,34.5681716 61.7496758,33.3750559 C58.7819896,30.9886008 57.6406706,26.6931157 58.0971554,22.6363433 C58.3255048,19.7726866 59.4668238,17.1477425 61.0648416,15" id="Shape" fill="#425A6B"></path>
            <path d="M62,43.0405385 C62,43.0405385 62.2279238,45.139957 63.1391918,45.8397632 C64.0506735,46.5395693 64.2783837,47.0060339 64.2783837,47.0060339 C64.2783837,47.0060339 64.5063075,48.8721107 65.6454993,49.5719169 C66.556981,50.5050647 67.9240966,56.5699785 67.468249,57.036443 C67.2403252,57.7362492 64.9619415,63.5680401 65.8732095,65.9005815 C66.7846912,68.2333416 71.3416721,67.0668522 71.3416721,67.0668522 C71.3416721,67.0668522 75.8986531,67.0668522 76.5822109,68 L80,61.7017446 L72.2529401,51.2046521 C72.2529401,51.2046521 70.6579007,47.0058152 69.0630748,45.6062028 C69.0630748,45.6062028 67.6959592,43.740126 65.8732095,42.8069782 C63.822536,42.107172 63.822536,42.5736366 63.822536,42.5736366 C63.3671156,42.3407324 62,41.1744616 62,43.0405385 Z" id="Shape" fill="#E3BEB2"></path>
            <path d="M60.461379,68.4853732 L61.8621987,68.9567092 C61.8621987,68.9567092 67.4654777,72.4922814 70.2671172,75.3207391 C70.2671172,75.3207391 78.4384928,79.0920898 80.5397225,80.2705402 C82.6409521,81.4489906 86.8434113,83.0989979 86.8434113,83.0989979 L73.0687567,68.2495948 C73.0687567,68.2495948 78.4384928,62.8284577 77.5047589,60 L86.6100873,67.5424803 C86.6100873,67.5424803 102.252647,79.0920898 106.221564,83.5703339 C106.921974,84.5132268 107.622384,85.2203412 108.089251,85.6916772 C109.956937,87.8130205 111.357757,90.6414782 111.824843,93.469936 C112.058386,94.6483864 112.058386,95.8270577 111.824843,96.7697297 C110.657566,99.8339659 108.322793,101.955309 106.221564,101.955309 C104.120334,102.191088 93.1473191,101.483973 88.477774,100.069744 C83.8084478,98.6555155 61.6286558,93.2343785 61.6286558,93.2343785 C61.6286558,93.2343785 62.0955228,97.0057291 55.7918339,97.4770651 C49.488145,97.948401 41.5500935,100.776859 41.5500935,100.776859 L16.5688809,100.54108 C16.5688809,100.54108 5.82918981,99.1268514 2.79422627,96.5341722 C-0.24095615,93.9414929 -0.24095615,91.5843711 0.226129686,89.4630278 C0.692996643,87.3416845 1.62694944,85.2203412 5.59586577,84.0418908 C9.56478211,82.8634404 18.9036534,82.6276619 21.9388358,83.0989979 C24.9740182,83.5703339 37.81472,84.0418908 37.81472,84.0418908 L37.3478531,81.684769 C37.3478531,81.68499 52.0564605,67.3069228 60.461379,68.4853732 Z" id="Shape" fill="#425A6B"></path>
            <path d="M32,54.784656 C32,54.784656 33.6420486,73.319367 36.9259259,82 C36.9259259,82 47.4814815,77.073071 53.1111111,73.319147 C58.5060995,69.565223 61.5555556,69.330754 61.5555556,69.330754 C61.5555556,69.330754 60.6172106,67.688371 59.2098032,66.515366 C57.8023958,65.342361 58.037037,61.353748 58.037037,61.353748 C58.037037,61.353748 59.4444444,56.19213 61.5555556,54.549967 C63.4320255,52.907584 67.6542477,47.276808 67.6542477,47.276808 L70,45.165267 L70,37.657859 C69.5309375,37.1887009 69.0616551,36.954012 68.5925926,36.719323 C65.5431366,34.842471 62.0246181,32.73093 60.1481481,31.088547 C58.037037,29.446164 59.2098032,23.815388 59.2098032,23.815388 L47.4814815,21 L47.4814815,25.926929 C47.4814815,25.926929 47.4814815,27.334623 41.3827894,27.334623 C35.5185185,27.099934 32.4692824,27.803781 32.4692824,27.803781 L32.0002199,31.088327 L32.0002199,54.784656 L32,54.784656 Z" id="Shape" fill="#F8E1DA"></path>
            <path d="M62.6513961,32.0017849 C62.6513961,32.0017849 68.6784935,35.7566809 69.7945528,36.9299896 C70.9106122,38.1032983 67.1158429,45.6130902 67.1158429,45.6130902 L66.8925473,47.4904281 C66.8925473,47.4904281 63.3208643,53.8266913 59.9724769,55 C57.5172719,54.7654703 60.1959818,31.7670352 62.6513961,32.0017849 Z" id="Shape" fill="#F9E1DA"></path>
            <path d="M62.3502132,68.401938 C62.3502132,68.401938 59.2867969,68.6353084 53.8671104,72.3679217 C48.2117086,76.1007537 37.6078301,81 37.6078301,81 C35.0158445,73.7677063 33.3662787,59.7698597 32.8950688,55.3373541 C32.8950688,55.1039837 31.0100085,49.5048451 31.0100085,47.4051681 C30.7742931,45.3054911 34.7803501,39.9397228 34.7803501,39.9397228 C34.7803501,39.9397228 35.4872753,37.3735238 36.9011258,35.5069984 C37.8437664,34.3405841 40.2000366,28.9745971 43.2634529,27.1082904 C43.9703781,26.6417685 44.441588,26.4083981 44.9130187,26.1750278 C45.619944,25.9416574 46.3268692,25.9416574 47.0337944,26.1750278 C47.0337944,26.1750278 45.1487341,28.9745971 44.6773033,29.9078598 C43.9703781,30.8411225 40.6714673,35.0404764 40.2000366,35.9735204 C39.7286058,36.9065644 38.3149762,40.1728744 38.5504707,42.2725514 C38.7861861,44.3722284 42.0850969,44.8387504 42.0850969,44.8387504 C42.0850969,44.8387504 49.8612744,46.238535 50.5681997,45.7720131 C51.5108403,45.0721207 53.1601852,43.9057064 55.0454664,40.8727667 C56.9305268,37.6066754 59.7582277,32.0075368 59.7582277,32.0075368 C59.7582277,32.0075368 60.4651529,31.0742741 60.7008683,29.9078598 C60.9365837,29.9078598 63.0573594,31.0742741 63.5285692,32.2409071 C63.2928539,33.1741698 62.3504342,36.4402611 62.1147188,37.3735238 C61.8790034,38.3067865 60.7008683,42.7392921 60.9365837,46.4721241 C61.1722991,50.2049561 61.8792243,51.8378924 64,53.0045254 C61.1722991,55.1042024 59.2872388,57.6704014 58.815808,60.4699707 C58.815808,61.1698631 58.815808,64.4359544 59.9939431,65.3692171 C61.4075726,66.768783 62.3502132,68.401938 62.3502132,68.401938 Z" id="Shape" fill="#FF0C38"></path>
            <path d="M63.901874,15.5137445 C63.901874,17.4064783 63.664571,19.0627591 63.4274904,20.4823649 C62.7158037,24.0313795 60.3434407,26.8705912 57.2596134,28.526872 C56.5479267,28.7635469 56.0735431,29 55.598937,29 C55.1245534,29 54.6499473,28.7633251 53.9382607,28.526872 C50.854211,26.8705912 48.4820703,24.0313795 47.7703837,20.4823649 C47.296,19.0627591 47.058697,17.6431533 47.058697,15.9868725 C47.058697,15.7501976 47.058697,15.5137445 47.058697,15.2770696 C46.3470103,6.28630651 52.2778067,5.81295668 55.598937,6.04963159 C58.6827643,5.81295668 64.8506413,6.04963159 63.901874,15.5137445 Z" id="Shape" fill="#F8E1DA"></path>
            <path d="M46.7193208,14.313239 C46.7193208,14.313239 46.7193208,10.4216651 48.372802,9.73490413 C49.0814052,9.50591227 49.3176801,9.04814316 49.7900084,8.59037405 C50.4986115,7.90361309 51.4434896,7.44584398 52.3881462,6.98786026 C53.5690776,6.53009115 55.2225588,6.30109929 56.8760401,6.53009115 C59.0018496,6.75908301 60.6553308,7.90361309 61.5999874,9.73490413 C61.8362622,10.1926732 62.3085905,10.8794342 63.0171937,10.8794342 L63.2534686,15 C63.2534686,15 64.1983466,11.795187 63.9620717,9.04814316 C63.7257969,6.30109929 62.5448654,1.03600342 56.6397652,0.120250593 C50.734665,-0.795502234 47.1916491,3.78304729 46.7193208,4.92757736 C45.5383893,7.21663751 46.0107176,11.1084261 46.7193208,14.313239 Z" id="Shape" fill="#425A6B"></path>
            <g id="Group" transform="translate(19.000000, 12.000000)">
                <ellipse id="Oval" fill="#F9E1DA" transform="translate(44.121748, 4.679639) rotate(-76.213888) translate(-44.121748, -4.679639) " cx="44.1217477" cy="4.67963853" rx="3.51100045" ry="1.16395792"></ellipse>
                <ellipse id="Oval" fill="#F9E1DA" transform="translate(27.482954, 4.768348) rotate(76.213888) translate(-27.482954, -4.768348) " cx="27.4829542" cy="4.7683477" rx="3.51100045" ry="1.16395792"></ellipse>
                <path d="M67.5201567,55.4172619 C65.4135737,55.8827976 56.7531034,56.5812103 50.6674922,54.7188492 C44.5818809,53.0891468 39.9004389,52.1580754 39.9004389,52.1580754 C39.9004389,52.1580754 35.4531348,50.994127 34.9850784,48.4331349 C34.7509404,45.8723611 34.9850784,40.9834722 34.9850784,39.8193056 C35.2192163,38.4224802 35.2192163,33.5335913 35.2192163,33.5335913 L35.2192163,32.1367659 C35.2192163,32.1367659 34.5170219,29.1102381 35.9214107,28.6447024 L36.3894671,28.6447024 L36.3894671,30.2744048 L36.8575235,30.5072817 L36.6233856,32.1369841 C36.6233856,32.1369841 36.3892476,33.9993452 37.091442,35.1635119 C37.5594984,36.3274603 37.5594984,37.7242857 37.5594984,37.7242857 C37.5594984,37.7242857 38.0275549,39.3539881 38.2616928,40.0524008 C38.4958307,40.7508135 38.9638871,44.01 38.9638871,44.01 C38.9638871,44.01 38.9638871,47.0365278 41.5385266,47.2691865 C44.1131661,47.5020635 52.071442,47.0363095 52.071442,47.0363095 C52.071442,47.0363095 56.7526646,46.5707738 56.9868025,46.1050198 C56.9868025,46.1050198 55.1143574,43.544246 53.4758307,39.1208929 C51.8373041,34.6975397 47.6241379,35.1632937 47.6241379,35.1632937 L51.6031661,24.9199802 C54.4119436,27.0152183 57.220721,30.2744048 58.6251097,32.8353968 C60.2636364,35.8619246 64.0085266,39.5866468 64.0085266,39.5866468 C64.0085266,39.5866468 69.6260815,47.7347222 69.8602194,49.8299603 C69.8608777,51.9251984 69.6267398,54.9515079 67.5201567,55.4172619 Z" id="Shape" fill="#F8E1DA"></path>
                <path d="M34.2831034,48.8986706 C34.0489655,51.4594444 30.7721317,51.9251984 29.3677429,51.9251984 C27.9633542,51.9251984 14.3875235,52.1580754 12.5150784,51.6923214 C10.6426332,51.2267857 2.68435737,49.3642063 2.68435737,49.3642063 C0.343636364,49.8297421 0.109717868,47.5018452 0.109717868,47.5018452 C0.109717868,47.5018452 -0.124420063,45.6394841 0.343855799,42.1474206 C0.811912226,38.6553571 3.15263323,33.0680556 4.08896552,31.6712302 C5.02529781,30.5072817 6.66360502,27.480754 7.13188088,24.9199802 C7.60015674,22.3592063 9.94065831,18.8671429 10.6428527,17.4703175 C11.1109091,16.7719048 12.2813793,15.6079563 13.9196865,14.9095437 L20.9416301,18.6344841 C20.2394357,20.2641865 18.835047,22.3594246 17.8987147,23.290496 C16.494326,25.1528571 15.5579937,27.7138492 15.3240752,27.7138492 C14.8560188,32.1372024 10.1745768,40.9836905 10.1745768,40.9836905 C11.3448276,41.9149802 16.7284639,44.0102183 18.1328527,44.242877 C19.5372414,44.475754 26.7933229,45.6397024 28.665768,45.8725794 C30.5382132,46.3381151 30.7723511,43.3118056 30.7723511,43.3118056 C30.7723511,43.3118056 31.2404075,40.7510317 31.2404075,40.052619 C31.4745455,39.3542063 32.6447962,37.4918452 32.6447962,37.4918452 C32.6447962,37.4918452 32.6447962,36.0950198 33.1128527,34.9310714 C33.5809091,33.767123 33.5809091,31.9045437 33.5809091,31.9045437 L33.3467712,30.2748413 L33.8148276,30.0419643 L33.8148276,28.4122619 L34.282884,28.4122619 C35.9214107,28.6451389 34.9850784,31.9043254 34.9850784,31.9043254 L34.9850784,33.3011508 C34.9850784,33.3011508 34.9850784,38.1900397 35.2192163,39.5868651 C34.9852978,41.216131 34.5170219,46.3378968 34.2831034,48.8986706 Z" id="Shape" fill="#F8E1DA"></path>
                <path d="M20.7072727,19.0998016 C20.7072727,19.0998016 23.0479937,15.3748611 25.3884953,14.4437897 C25.3884953,14.4437897 15.3236364,14.4437897 13.9192476,15.1422024 C12.2809404,16.0732738 18.8348276,19.5653373 20.7072727,19.0998016 Z" id="Shape" fill="#F9E1DA"></path>
            </g>
            <g id="Group" transform="translate(41.000000, 42.000000)">
                <path d="M30.7036573,9.40571429 L25.6164056,13.1567033 C25.154007,11.0468132 24.4603007,8.70241758 23.9976853,7.99912088 C23.0726713,7.06131868 22.6102727,5.42043956 22.6102727,5.42043956 C22.6102727,5.42043956 22.378965,4.95164835 21.4541678,4.01384615 C20.5291538,3.31054945 20.2980629,1.20065934 20.2980629,1.20065934 C20.5293706,-0.674725275 21.6854755,0.262857143 22.1478741,0.731868132 C22.1478741,0.731868132 22.1478741,0.0285714286 24.228993,0.966373626 C26.3101119,1.66967033 27.4662168,3.77956044 27.4662168,3.77956044 C28.8536294,5.18593407 30.7036573,9.40571429 30.7036573,9.40571429 Z" id="Shape" fill="#E5BEB1"></path>
                <path d="M0.18058042,58.870989 C0.18058042,58.870989 -0.0507272727,53.0101099 3.18671329,50.6659341 L5.96153846,51.1347253 C5.96153846,51.1347253 7.58025874,51.1347253 8.27396503,50.4314286 C8.96767133,49.4936264 10.5863916,48.3215385 11.9738042,48.3215385 C13.3612168,48.3215385 14.7486294,49.2593407 15.4423357,50.6659341 C16.3673497,51.838022 16.5984406,52.7758242 18.6795594,52.7758242 C20.5293706,52.7758242 22.6104895,52.7758242 22.6104895,52.7758242 C22.6104895,52.7758242 25.154007,52.7758242 25.8477133,53.7136264 C25.8477133,53.7136264 29.5475524,53.4791209 30.7036573,55.8235165 C31.8597622,58.1679121 29.0849371,58.1679121 28.8538462,57.9334066 C28.3914476,57.6989011 28.8538462,57.9334066 28.8538462,57.9334066 C28.8538462,57.9334066 28.1601399,59.8087912 26.3103287,59.8087912 C24.4605175,59.8087912 15.211028,59.5742857 11.7424965,58.6367033 C8.27374825,57.4643956 0.18058042,58.870989 0.18058042,58.870989 Z" id="Shape" fill="#E1BEB3"></path>
                <path d="M29.1223217,57.9643956 C29.1223217,57.4643956 29.1223217,57.4643956 29.1223217,57.9643956 C28.6223217,57.9643956 28.6223217,57.9643956 28.6223217,57.4643956 C28.6227903,57.4643956 29.1223217,57.4643956 29.1223217,57.9643956 Z" id="Shape" fill="#F5B54C"></path>
            </g>
            <g id="Group" transform="translate(11.000000, 82.000000)" fill="#344A5E">
                <path d="M33.0435109,11.2288889 C32.8109927,11.466 32.5786925,11.7028889 32.3461743,11.94 C31.8813559,11.94 31.6488378,11.7028889 31.1840194,11.7028889 C30.4866828,11.4657778 29.7893462,11.2288889 29.0920097,10.9917778 C27.4648184,10.5177778 25.6053269,10.0435556 23.5133172,9.56955556 C22.5834625,9.33244444 21.4213075,9.09555556 20.4914528,8.62133333 C20.0266344,8.38422222 19.3292978,8.38422222 18.8642615,8.14733333 L18.3994431,7.91022222 C18.1669249,7.91022222 18.1669249,7.91022222 17.9346247,7.67311111 L17.4698063,7.436 C17.2372881,7.436 17.2372881,7.436 17.0049879,7.19888889 C16.0751332,6.72488889 14.9129782,6.48777778 13.9831235,6.25066667 C13.0532688,6.01355556 11.8911138,5.77666667 10.9612591,5.53955556 C10.4964407,5.53955556 10.0314044,5.30244444 9.56658596,5.30244444 C9.10176755,5.30244444 8.63673123,5.06533333 8.17191283,5.06533333 C7.24205811,5.06533333 6.31242131,5.06533333 5.61508475,5.06533333 C5.15026634,5.06533333 4.91774818,5.06533333 4.45292978,5.06533333 L3.29077482,5.06533333 C2.59343826,5.06533333 2.12861985,5.06533333 1.66358354,5.06533333 C0.733728814,5.06533333 0.0363922518,5.06533333 0.0363922518,5.06533333 C0.0363922518,5.06533333 0.501210654,5.06533333 1.66358354,5.06533333 C2.59343826,5.06533333 3.98811138,5.06533333 5.61508475,5.06533333 C6.54493947,5.06533333 7.24227603,5.06533333 8.40443099,5.06533333 C9.33428571,5.06533333 10.2639225,5.30244444 11.4262954,5.30244444 C12.3561501,5.53955556 13.5183051,5.77644444 14.4481598,6.01355556 C15.6103148,6.25066667 16.5401695,6.48755556 17.7023245,6.96177778 C17.9348426,6.96177778 18.1671429,7.19888889 18.399661,7.19888889 C18.6321792,7.19888889 18.8644794,7.436 19.0969976,7.436 C19.561816,7.67311111 20.2591525,7.67311111 20.7241889,7.91 C21.8863438,8.14711111 22.8161985,8.384 23.7460533,8.62111111 C25.838063,9.09511111 27.6975545,9.56933333 29.3247458,10.0433333 C30.7189831,10.5177778 32.1136562,10.9917778 33.0435109,11.2288889 Z" id="Shape"></path>
                <path d="M89.9925908,8.62133333 C89.5277724,8.62133333 89.2952542,8.62133333 89.0627361,8.62133333 C88.8302179,8.62133333 88.3653995,8.38422222 88.1328814,8.38422222 C87.9003632,8.38422222 87.4355448,8.14711111 87.2030266,8.14711111 C86.9705085,8.14711111 86.9705085,8.14711111 86.7382082,7.91 C86.5056901,7.91 86.5056901,7.91 86.2733898,7.67288889 C86.0408717,7.67288889 85.5760533,7.43577778 85.3435351,7.43577778 C85.1110169,7.43577778 84.6461985,7.19866667 84.4136804,6.96177778 C84.1811622,6.96177778 84.1811622,6.72466667 83.948862,6.72466667 C83.7163438,6.72466667 83.7163438,6.48755556 83.4840436,6.48755556 L83.0192252,6.25044444 L82.5544068,6.01333333 C82.3218886,6.01333333 82.3218886,5.77622222 82.0895884,5.77622222 C81.8570702,5.77622222 81.8570702,5.53911111 81.62477,5.53911111 C81.3922518,5.302 80.9274334,5.302 80.6949153,5.06511111 C80.4623971,4.828 79.9975787,4.59111111 79.7650605,4.59111111 C79.5325424,4.354 79.3002421,4.11711111 78.8352058,3.88 C78.3703874,3.406 77.6730508,2.93177778 77.2080145,2.69488889 C76.9754964,2.45777778 75.8133414,1.03555556 75.8133414,1.03555556 L75.1160048,0.0873333333 L76.0458596,0.798444444 C76.2783777,1.03555556 76.510678,1.27244444 76.7431961,1.50955556 C76.9757143,1.74666667 77.2080145,1.98355556 77.4405327,2.22066667 C77.9053511,2.69466667 78.6026877,3.16888889 79.067724,3.40577778 C79.3002421,3.64288889 79.5325424,3.87977778 79.9975787,4.11688889 C80.2300969,4.354 80.4623971,4.59088889 80.9274334,4.59088889 C81.1599516,4.828 81.62477,5.06488889 81.8572881,5.06488889 C82.0898063,5.06488889 82.0898063,5.302 82.3221065,5.302 C82.5546247,5.302 82.5546247,5.53911111 82.7869249,5.53911111 L83.2517433,5.77622222 L83.7165617,6.01333333 C83.9490799,6.01333333 83.9490799,6.25044444 84.1813801,6.25044444 C84.4138983,6.25044444 84.4138983,6.48755556 84.6461985,6.48755556 C84.8787167,6.72466667 85.3435351,6.72466667 85.5760533,6.96155556 C85.8085714,7.19866667 86.2733898,7.19866667 86.505908,7.43555556 C86.7384262,7.43555556 86.7384262,7.43555556 86.9707264,7.67266667 C87.2032446,7.67266667 87.2032446,7.67266667 87.4355448,7.90977778 C87.668063,7.90977778 88.1328814,8.14688889 88.3653995,8.14688889 C88.5979177,8.14688889 89.0627361,8.384 89.2952542,8.384 C89.2952542,8.62133333 89.5277724,8.62133333 89.9925908,8.62133333 Z" id="Shape"></path>
            </g>
        </g>
    </g>
</svg>