<?xml version="1.0" encoding="UTF-8"?>
<svg width="101px" height="98px" viewBox="0 0 101 98" version="1.1" xmlns="http://www.w3.org/2000/svg" xmlns:xlink="http://www.w3.org/1999/xlink">
    <!-- Generator: Sketch 48.2 (47327) - http://www.bohemiancoding.com/sketch -->
    <title>yoga</title>
    <desc>Created with Sketch.</desc>
    <defs></defs>
    <g id="Style-Guide" stroke="none" stroke-width="1" fill="none" fill-rule="evenodd" transform="translate(-135.000000, -4093.000000)">
        <g id="yoga" transform="translate(135.000000, 4093.000000)" fill-rule="nonzero">
            <g id="Group" transform="translate(5.000000, 0.000000)" fill="#40596B">
                <path d="M32.6085191,94.4418611 C-0.17792161,104.397417 0.0323135593,90.2937778 0.0323135593,90.2937778 C1.29333051,82.2048889 14.1137352,80.3382222 14.1137352,80.3382222 C24.4121059,79.716 28.1951568,74.7382222 28.1951568,74.7382222 L64.9748835,74.7382222 C64.9748835,74.7382222 74.2222754,77.2271111 81.3681038,81.3751944 C81.3681038,81.3751944 93.3477648,82.4121667 92.9274915,90.2937778 C92.9274915,90.2937778 92.2969831,97.7604444 78.2155614,96.10125 C78.2155614,96.10125 62.4528496,93.6123611 57.6190169,91.5382222 L58.8800339,82.8271111 L33.6596949,86.5604444 L32.6085191,94.4418611 Z" id="Shape"></path>
                <path d="M61.6119089,32.6343889 C51.3135381,35.5380278 41.0153644,35.5380278 30.7169936,32.6343889 C32.6085191,26.2046944 33.2390275,19.5677222 32.6085191,13.1380278 C31.9780106,6.29358333 38.0728602,0.0713611111 45.849197,0.0713611111 L46.0594322,0.0713611111 C53.8357691,0.0713611111 59.9306186,6.08611111 59.3001102,13.1380278 C59.3001102,19.5677222 59.9306186,26.2048889 61.6119089,32.6343889 Z" id="Shape"></path>
            </g>
            <g id="Group" transform="translate(37.000000, 14.000000)" fill="#DFBEB4">
                <path d="M3.70010774,3.53370027 C4.0770988,5.87268483 3.51152384,7.74374091 2.56895782,7.97770515 C1.6263918,8.21166938 0.495241882,6.57435827 0.118074081,4.46933795 C-0.258916977,2.36431763 0.306657982,0.259297316 1.249224,0.025333079 C2.19179002,-0.208631158 3.32293994,1.19493499 3.70010774,3.53370027 Z" id="Shape"></path>
                <path d="M24.2998923,3.53367736 C23.9229012,5.87267391 24.4884762,7.74373959 25.4310422,7.97770503 C26.3736082,8.21167047 27.5047581,6.57435095 27.8819259,4.46931984 C28.258917,2.13032328 27.693342,0.259257599 26.750776,0.0252921614 C25.8080332,-0.208454002 24.6768833,1.19490008 24.2998923,3.53367736 Z" id="Shape"></path>
            </g>
            <path d="M34.2904404,44 L26.9757157,44 C26.9757157,44 28.2296797,57.000642 27.811757,58.4452223 C27.811757,58.4452223 17.9891044,72.4775968 16.9440038,74.9539095 C16.9440038,74.9539095 15.6900398,76.8111441 14.0181531,75.5729877 C14.0181531,75.5729877 11.9281479,74.5412552 10.4653205,74.5412552 C9.00229719,74.5412552 6.70342852,73.0966749 6.70342852,73.0966749 C6.70342852,73.0966749 3.98644123,74.1284074 3.56851854,78.6683787 C3.56851854,78.6683787 3.15059586,78.8748025 2.52361386,78.2557244 C2.52361386,78.2557244 0.642667875,76.8111441 1.06059056,79.0812264 C1.06059056,79.0812264 4.40455985,83.2083499 6.49436921,82.3830413 C6.49436921,82.3830413 7.53927389,83.6211976 10.4653205,82.5894652 C10.4653205,82.5894652 13.6002305,82.5894652 20.0791097,78.6685721 C20.0791097,78.6685721 33.0366723,67.3187408 34.9176183,61.7470371 C34.9174224,61.7468436 35.335345,49.984358 34.2904404,44 Z M8.58417857,78.0493005 C8.58417857,78.0493005 8.16625588,79.4938807 6.2853099,79.081033 C6.2853099,79.081033 4.61342322,78.6683787 6.07625059,75.985642 C6.07625059,75.985642 6.49417328,75.985642 6.49417328,75.1601399 C6.49417328,75.1601399 7.33021458,76.1918724 8.16605995,76.1918724 C8.16625588,75.985642 9.62908325,77.017568 8.58417857,78.0493005 Z" id="Shape" fill="#F6E1DA"></path>
            <ellipse id="Oval" fill="#FF7058" transform="translate(1.500000, 79.500000) rotate(-121.892413) translate(-1.500000, -79.500000) " cx="1.5" cy="79.5" rx="1.5" ry="1"></ellipse>
            <g id="Group" transform="translate(3.000000, 79.000000)" fill="#F8B64C">
                <path d="M3.1344,4.78045455 C2.37582222,4.29568182 1.80693333,3.56840909 1.23804444,2.84113636 C0.858844444,2.59863636 0.669155556,2.11386364 0.289955556,1.62909091 C0.289955556,1.62909091 0.100266667,1.38659091 0.100266667,1.14431818 C0.100266667,0.901818182 0.100266667,0.901818182 0.100266667,0.659545455 C0.289955556,0.417045455 0.669155556,0.417045455 0.858844444,0.417045455 C1.23804444,0.417045455 1.42773333,0.659545455 1.80693333,0.901818182 C2.18613333,1.14431818 2.37582222,1.38659091 2.56551111,1.62909091 C3.1344,2.11386364 3.70328889,2.59886364 4.08248889,3.08363636 C4.65137778,3.08363636 5.22026667,3.08363636 5.78915556,3.08363636 C5.22026667,3.08363636 4.65137778,3.08363636 4.08248889,3.08363636 C3.5136,2.59886364 2.94471111,2.11386364 2.56551111,1.62909091 C2.37582222,1.38659091 1.99662222,1.14431818 1.80693333,1.14431818 C1.61724444,0.901818182 1.23804444,0.901818182 1.04835556,0.659545455 C0.858666667,0.659545455 0.669155556,0.659545455 0.669155556,0.659545455 C0.669155556,0.659545455 0.669155556,0.902045455 0.858844444,1.14431818 C1.04853333,1.62909091 1.42773333,1.87159091 1.61742222,2.35636364 C1.80693333,3.56840909 2.56551111,4.29568182 3.1344,4.78045455 Z" id="Shape"></path>
                <path d="M6.92693333,4.53818182 C6.35804444,4.05340909 5.59946667,3.32613636 5.03057778,2.59886364 C4.84088889,2.11409091 4.46168889,1.87159091 4.272,1.38681818 C4.272,1.14431818 4.08231111,1.14431818 4.08231111,0.902045455 C4.08231111,0.659545455 4.08231111,0.659545455 4.272,0.417272727 C4.46168889,0.174772727 4.6512,0.174772727 4.6512,0.174772727 C5.59928889,0.659545455 6.54755556,1.38681818 7.11644444,2.35659091 L7.87502222,2.35659091 L7.11644444,2.35659091 C6.54755556,1.38681818 5.59946667,0.902045455 4.84088889,0.417272727 C4.6512,0.417272727 4.46168889,0.417272727 4.46168889,0.659772727 C4.46168889,0.659772727 4.46168889,0.659772727 4.46168889,0.902272727 L4.46168889,1.14477273 C4.65137778,1.62954545 4.84088889,1.87204545 5.22026667,2.35681818 C5.78915556,3.08363636 6.35804444,3.81090909 6.92693333,4.53818182 Z" id="Shape"></path>
            </g>
            <g id="Group" transform="translate(3.000000, 79.000000)" fill="#FF7058">
                <ellipse id="Oval" transform="translate(1.313238, 2.336228) rotate(-134.076216) translate(-1.313238, -2.336228) " cx="1.31323848" cy="2.3362283" rx="1.01578815" ry="1"></ellipse>
                <ellipse id="Oval" transform="translate(5.550285, 1.467659) rotate(-128.292057) translate(-5.550285, -1.467659) " cx="5.55028451" cy="1.46765948" rx="1" ry="1"></ellipse>
            </g>
            <path d="M5,77.1054285 C5.30008437,76.5091407 5.5998875,75.9125733 5.89997188,75.3162855 C6.20005625,75.0180018 6.20005625,74.7199977 6.49985938,74.421714 C6.79994375,74.1234303 7.09974688,73.8254262 7.69991563,74.1234303 C8,74.1234303 8,74.421714 8,74.421714 L8,74.7199977 C8,75.0182814 8,75.0182814 8,75.3162855 C8,75.6145692 8,75.9125733 8,76.210857 C8,76.8071448 7.69991563,77.7017163 7.10002812,78 C7.69991563,77.7017163 7.69991563,76.8071448 7.69991563,76.210857 C7.69991563,75.9125733 7.69991563,75.6145692 7.69991563,75.3162855 C7.69991563,75.0180018 7.69991563,75.0180018 7.69991563,75.0180018 C7.69991563,75.0180018 7.69991563,75.0180018 7.69991563,74.7197181 C7.39983126,74.7197181 7.10002812,74.7197181 7.10002812,75.0180018 C6.79994375,75.3162855 6.50014062,75.3162855 6.50014062,75.6142896 C5.89997188,75.9125733 5.29980313,76.5088611 5,77.1054285 Z" id="Shape" fill="#F8B64C"></path>
            <g id="Group" transform="translate(5.000000, 30.000000)">
                <ellipse id="Oval" fill="#FF7058" transform="translate(1.088599, 44.702042) rotate(115.850108) translate(-1.088599, -44.702042) " cx="1.08859864" cy="44.7020416" rx="1.02496253" ry="1"></ellipse>
                <path d="M61.3306212,14.8926917 L68.5060446,14.8926917 C68.5060446,14.8926917 70.7611337,3.23935833 64.2007521,1.60386667 L53.13,0.172691667 L45.1344568,0.172691667 L37.3439916,0.172691667 L26.0681616,1.60386667 C19.5077799,3.23935833 21.7628691,14.8926917 21.7628691,14.8926917 L28.9382925,14.8926917 C28.9382925,14.8926917 29.1433705,14.2793583 29.5533343,14.8926917 C29.5533343,14.8926917 33.8586267,23.6838667 32.6285432,33.4972 C32.6285432,33.4972 33.038507,39.2217083 27.0931671,44.7417083 L45.1344568,44.7417083 L63.1757465,44.7417083 C57.4352925,39.2217083 57.6403705,33.4972 57.6403705,33.4972 C56.6153649,23.6838667 60.7155794,14.8926917 60.7155794,14.8926917 C61.1257354,14.07485 61.3306212,14.8926917 61.3306212,14.8926917 Z" id="Shape" fill="#FF0C38"></path>
            </g>
            <path d="M66.0826298,61.7882931 C67.9659219,67.3729492 80.939647,78.7491651 80.939647,78.7491651 C87.6357316,82.6791729 90.565428,82.6791729 90.565428,82.6791729 C93.7042482,83.506594 94.5413324,82.4722691 94.5413324,82.4722691 C96.6339446,83.2996902 99.9818888,79.1627786 99.9818888,79.1627786 C100.191209,77.0943229 98.5170406,78.3353576 98.5170406,78.3353576 C97.8892766,78.9558749 97.4708326,78.7489711 97.4708326,78.7489711 C97.0523886,74.198446 94.3320123,73.1643151 94.3320123,73.1643151 C94.3320123,73.1643151 92.0302762,74.6122535 90.565428,74.6122535 C89.1005798,74.6122535 87.0081637,75.6463844 87.0081637,75.6463844 C85.3341916,76.8874191 84.0786635,75.0258671 84.0786635,75.0258671 C83.0324555,72.5437977 73.1973545,58.4788026 73.1973545,58.4788026 C72.9880344,56.8241543 74.0344386,44 74.0344386,44 L66.71059,44 C65.6641858,49.9984636 66.0826298,61.7882931 66.0826298,61.7882931 Z M92.8673603,76.0601919 C93.7044444,76.0601919 94.5413324,75.026061 94.5413324,75.026061 C94.7506525,75.8534821 94.9597764,75.8534821 94.9597764,75.8534821 C96.4246246,78.5424552 94.7504563,78.9560688 94.7504563,78.9560688 C92.8671641,79.5765862 92.4487201,77.9219379 92.4487201,77.9219379 C91.4025121,77.0945168 92.8673603,76.0601919 92.8673603,76.0601919 Z" id="Shape" fill="#F6E1DA"></path>
            <ellipse id="Oval" fill="#FF7058" transform="translate(99.500000, 79.500000) rotate(121.892413) translate(-99.500000, -79.500000) " cx="99.5" cy="79.5" rx="1.5" ry="1"></ellipse>
            <g id="Group" transform="translate(90.000000, 79.000000)" fill="#F8B64C">
                <path d="M4.80551111,4.78045455 C5.56408889,4.29568182 6.13297778,3.56840909 6.70186667,2.84113636 C7.08106667,2.59863636 7.27075556,2.11386364 7.64995556,1.62909091 C7.64995556,1.62909091 7.83964444,1.38659091 7.83964444,1.14431818 C7.83964444,0.901818182 7.83964444,0.901818182 7.83964444,0.659545455 C7.64995556,0.417045455 7.27075556,0.417045455 7.08106667,0.417045455 C6.70186667,0.417045455 6.51217778,0.659545455 6.13297778,0.901818182 C5.75377778,1.14431818 5.56408889,1.38659091 5.3744,1.62909091 C4.80551111,2.11386364 4.23662222,2.59886364 3.85742222,3.08363636 C3.28853333,3.08363636 2.71964444,3.08363636 2.15075556,3.08363636 C2.71964444,3.08363636 3.28853333,3.08363636 3.85742222,3.08363636 C4.42631111,2.59886364 4.9952,2.11386364 5.3744,1.62909091 C5.56408889,1.38659091 5.94328889,1.14431818 6.13297778,1.14431818 C6.32266667,0.901818182 6.70186667,0.901818182 6.89155556,0.659545455 C7.08124444,0.659545455 7.27075556,0.659545455 7.27075556,0.659545455 C7.27075556,0.659545455 7.27075556,0.902045455 7.08106667,1.14431818 C6.89137778,1.62909091 6.51217778,1.87159091 6.32248889,2.35636364 C6.1328,3.56840909 5.3744,4.29568182 4.80551111,4.78045455 Z" id="Shape"></path>
                <path d="M1.0128,4.53818182 C1.58168889,4.05340909 2.34026667,3.32613636 2.90915556,2.59886364 C3.09884444,2.11409091 3.47804444,1.87159091 3.66773333,1.38681818 C3.66773333,1.14431818 3.85742222,1.14431818 3.85742222,0.902045455 C3.85742222,0.659545455 3.85742222,0.659545455 3.66773333,0.417272727 C3.47804444,0.174772727 3.28853333,0.174772727 3.28853333,0.174772727 C2.34044444,0.659545455 1.39217778,1.38681818 0.823288889,2.35659091 L0.0647111111,2.35659091 L0.823288889,2.35659091 C1.39217778,1.38681818 2.34026667,0.902045455 3.09884444,0.417272727 C3.28853333,0.417272727 3.47804444,0.417272727 3.47804444,0.659772727 C3.47804444,0.659772727 3.47804444,0.659772727 3.47804444,0.902272727 L3.47804444,1.14477273 C3.28835556,1.62954545 3.09884444,1.87204545 2.71946667,2.35681818 C2.15057778,3.08363636 1.58168889,3.81090909 1.0128,4.53818182 Z" id="Shape"></path>
            </g>
            <g id="Group" transform="translate(92.000000, 79.000000)" fill="#FF7058">
                <ellipse id="Oval" transform="translate(4.758692, 2.252160) rotate(134.076216) translate(-4.758692, -2.252160) " cx="4.75869224" cy="2.2521595" rx="1" ry="1"></ellipse>
                <ellipse id="Oval" transform="translate(1.095017, 1.576419) rotate(128.292057) translate(-1.095017, -1.576419) " cx="1.09501741" cy="1.57641895" rx="1" ry="1"></ellipse>
            </g>
            <path d="M98,77.1054285 C97.6999156,76.5091407 97.4001125,75.9125733 97.1000281,75.3162855 C96.7999438,75.0180018 96.7999438,74.7199977 96.5001406,74.421714 C96.2000562,74.1234303 95.9002531,73.8254262 95.3000844,74.1234303 C95,74.1234303 95,74.421714 95,74.421714 L95,74.7199977 C95,75.0182814 95,75.0182814 95,75.3162855 C95,75.6145692 95,75.9125733 95,76.210857 C95,76.8071448 95.3000844,77.7017163 95.8999719,78 C95.3000844,77.7017163 95.3000844,76.8071448 95.3000844,76.210857 C95.3000844,75.9125733 95.3000844,75.6145692 95.3000844,75.3162855 C95.3000844,75.0180018 95.3000844,75.0180018 95.3000844,75.0180018 C95.3000844,75.0180018 95.3000844,75.0180018 95.3000844,74.7197181 C95.6001687,74.7197181 95.8999719,74.7197181 95.8999719,75.0180018 C96.2000562,75.3162855 96.4998594,75.3162855 96.4998594,75.6142896 C97.1000281,75.9125733 97.6999156,76.5088611 98,77.1054285 Z" id="Shape" fill="#F8B64C"></path>
            <ellipse id="Oval" fill="#FF7058" transform="translate(94.500000, 75.500000) rotate(-115.850108) translate(-94.500000, -75.500000) " cx="94.5" cy="75.5" rx="1.5" ry="1"></ellipse>
            <path d="M60.7515188,21 L42.2482795,21 C43.1089656,24.030303 43.1089656,27.0606061 42.2482795,30.0909091 C40.9573511,35.5454545 44.8301362,41 50.8545358,41 C51.284778,41 51.715222,41 52.1454642,41 C58.1698638,40.7979167 62.0426489,35.5454545 60.7517205,30.0909091 C59.8910344,27.0606061 59.8910344,24.030303 60.7515188,21 Z" id="Shape" fill="#DFBEB4"></path>
            <path d="M61,16.9411647 C61,23.5515558 55.8659786,34 49.5,34 C43.1340214,34 38,23.5513559 38,16.9411647 C38,10.3309735 43.1340214,5 49.5,5 C55.8659786,5 61,10.3309735 61,16.9411647 Z" id="Shape" fill="#F6E1DA"></path>
            <path d="M49.6990096,0 L49.497375,0 C42.4424327,0 37,5.35290144 37,11.735348 L37,14 L42.2407981,14 L43.8533078,10.5000483 L43.8533078,14 L52.9240289,14 L52.9240289,10.088153 L53.9318238,13.7940524 L54.7381732,13.7940524 L54.7381732,9.05880082 L56.9553976,14 L61.9947501,14 L61.9947501,11.735348 C62.1965736,5.35290144 56.5525064,0 49.6990096,0 Z" id="Shape" fill="#40596B"></path>
            <path d="M38.641568,86.4683033 L60.7486589,93 L62,83.5401994 L52.6149419,83.089803 C49.0695407,83.9908068 47.8181996,79.4859991 47.8181996,79.4859991 C45.732566,74.7560988 41.5614942,77.6842027 41.5614942,77.6842027 C35.5134108,79.0356028 31.3421435,75.4317988 31.3421435,75.4317988 C28.6308393,74.0803987 27.1710718,76.3328026 27.1710718,76.3328026 C23.834097,76.3328026 23,79.2609065 23,79.2609065 C23,79.2609065 28.8396569,79.7113028 32.1764361,82.1890104 C32.1762406,82.6394067 37.1816049,86.4683033 38.641568,86.4683033 Z" id="Shape" fill="#DFBEB4"></path>
            <path d="M23.1933326,79 C23.1933326,79 22.1407912,80.5625 24.9474586,79.78125 C24.9474586,79.78125 26,79.520752 26,79 C26,79 23.1933326,79 23.1933326,79 Z" id="Shape" fill="#FF7058"></path>
            <path d="M58.358432,89.4683033 L36.2513411,96 L35,86.5401994 L44.3850581,86.089803 C47.9304593,86.9908068 49.1818004,82.4859991 49.1818004,82.4859991 C51.267434,77.7560988 55.4385058,80.6842027 55.4385058,80.6842027 C61.4865892,82.0356028 65.6578565,78.4317988 65.6578565,78.4317988 C68.3691607,77.0803987 69.8289282,79.3328026 69.8289282,79.3328026 C73.165903,79.3328026 74,82.2609065 74,82.2609065 C74,82.2609065 68.1603431,82.7113028 64.8235639,85.1890104 C64.8237594,85.414103 60.0268216,89.2429995 58.358432,89.4683033 Z" id="Shape" fill="#F6E1DA"></path>
            <path d="M75.8066674,82 C75.8066674,82 76.8592088,83.5625 74.0525414,82.78125 C74.0525414,82.78125 73,82.520752 73,82 L75.8066674,82 Z" id="Shape" fill="#FF7058"></path>
        </g>
    </g>
</svg>