<?xml version="1.0" encoding="UTF-8"?>
<svg width="71px" height="95px" viewBox="0 0 71 95" version="1.1" xmlns="http://www.w3.org/2000/svg" xmlns:xlink="http://www.w3.org/1999/xlink">
    <!-- Generator: Sketch 48.2 (47327) - http://www.bohemiancoding.com/sketch -->
    <title>apple</title>
    <desc>Created with Sketch.</desc>
    <defs></defs>
    <g id="Style-Guide" stroke="none" stroke-width="1" fill="none" fill-rule="evenodd" transform="translate(-387.000000, -3735.000000)">
        <g id="apple" transform="translate(387.000000, 3735.000000)" fill-rule="nonzero">
            <path d="M59.624988,0 C48.252573,0 39,10.0926702 39,22.4999869 C39,23.3290516 39.6156112,24 40.375012,24 C51.7478105,24 61,13.9073298 61,1.50001307 C61,0.670948401 60.3841971,0 59.624988,0 Z" id="Shape" fill="#8FDA5D"></path>
            <path d="M60.58988,0 L39,23.5523835 C39.2534931,23.8289214 39.6036573,24 39.9903418,24 C51.5752507,24 60.9999998,13.7190945 60.9999998,1.08037284 C61.0001951,0.658109188 60.8433731,0.276111851 60.58988,0 Z" id="Shape" fill="#7DCD55"></path>
            <path d="M48.5041486,12.826748 C47.8429494,12.1143924 46.7717607,12.1143924 46.1105616,12.826748 L36.5243244,23.1544589 C34.7990318,11.0749894 30.1399556,5.81082985 29.8910471,5.53915128 C29.2373267,4.82493622 28.1743839,4.82163063 27.5072401,5.52138371 C26.8418221,6.22299619 26.8303163,7.37540915 27.477325,8.0966486 C27.5442503,8.17143768 34.1786782,15.7813299 33.7663875,34.1319258 C33.743376,35.1399256 34.4830062,35.975208 35.4168925,36 C35.4308912,36 35.4450817,36 35.4590804,36 C36.3747492,36 37.1278029,35.2128553 37.1500474,34.2207636 C37.2018234,31.9184169 37.1400757,29.7892007 37.0075674,27.7909687 L48.503765,15.4053185 C49.1653477,14.6931695 49.1653477,13.5391037 48.5041486,12.826748 Z" id="Shape" fill="#649B4B"></path>
            <path d="M56.1040865,31.8693011 C52.8679199,30.7947999 49.4722857,30.7155871 46.0130109,31.6374974 C39.1356082,33.4696482 31.8642915,33.4696482 24.9868888,31.6374974 C21.526151,30.7152334 18.1312484,30.7946231 14.8958133,31.8693011 C2.69087862,35.9250699 -3.20192182,53.1846311 1.75931032,70.343585 C4.61966757,80.2338755 10.4632745,88.2417998 17.792197,92.3127747 C22.83298,95.1128076 28.0659653,95.7404987 32.9619109,94.1129221 C34.6222384,93.5550727 36.3778442,93.5550727 38.0736496,94.1251223 C39.8343759,94.710378 41.6435642,95 43.4750633,95 C46.6995259,95 49.9927497,94.0993074 53.2077027,92.3129515 C60.5368081,88.2419767 66.380415,80.2340523 69.2405894,70.3437618 C74.2020044,53.1844543 68.309204,35.9250699 56.1040865,31.8693011 Z" id="Shape" fill="#FE5050"></path>
        </g>
    </g>
</svg>