<?xml version="1.0" encoding="UTF-8"?>
<svg width="81px" height="88px" viewBox="0 0 81 88" version="1.1" xmlns="http://www.w3.org/2000/svg" xmlns:xlink="http://www.w3.org/1999/xlink">
    <!-- Generator: Sketch 48.2 (47327) - http://www.bohemiancoding.com/sketch -->
    <title>bagel (1)</title>
    <desc>Created with Sketch.</desc>
    <defs></defs>
    <g id="Style-Guide" stroke="none" stroke-width="1" fill="none" fill-rule="evenodd" transform="translate(-1843.000000, -3739.000000)">
        <g id="bagel-(1)" transform="translate(1843.000000, 3739.000000)" fill-rule="nonzero">
            <path d="M80.3341246,40.1367637 C76.8689144,21.2841174 60.3538921,7 40.5006904,7 C20.6474886,7 4.1312582,21.28429 0.667256192,40.1367637 L0,40.1367637 L0,47.5012944 C0,69.8677556 18.1327647,88 40.5006904,88 C62.8674079,88 81,69.867583 81,47.5012944 L81,40.1367637 L80.3341246,40.1367637 Z M56.1201119,66.8042351 C51.9510552,70.9759734 46.4010577,73.2735275 40.5006904,73.2735275 C34.600323,73.2735275 29.0517064,70.9759734 24.8798881,66.8042351 C20.7066891,62.6297354 18.4090909,57.0827784 18.4090909,51.1823517 C18.4090909,45.2819249 20.7066891,39.7349679 24.8798881,35.5604682 C29.0517064,31.3887299 34.6001504,29.0911758 40.5006904,29.0911758 C46.4012303,29.0911758 51.9510552,31.3887299 56.1201119,35.5604682 C60.2946917,39.7349679 62.5922899,45.2819249 62.5922899,51.1823517 C62.5922899,57.0827784 60.2946917,62.6297354 56.1201119,66.8042351 Z" id="Shape" fill="#FFD2A6"></path>
            <path d="M26.443967,36.4911778 C30.5984875,32.5632676 36.1239257,30.4 42,30.4 C47.8760743,30.4 53.4028876,32.5632676 57.554658,36.4911778 C60.3798556,39.1622738 62.3429013,42.432526 63.3097284,46 C63.7636645,44.3216476 64,42.577318 64,40.8 C64,35.2444389 61.7119285,30.0203881 57.554658,26.0911778 C53.4028876,22.1632676 47.8759024,20 42,20 C36.1240976,20 30.5984875,22.1632676 26.443967,26.0924779 C22.2880715,30.0203881 20,35.2444389 20,40.8 C20,42.577318 20.2349605,44.3216476 20.6902716,46 C21.6569268,42.432526 23.6187693,39.1622738 26.443967,36.4911778 Z" id="Shape" fill="#DA4453"></path>
            <path d="M26.443967,35.9548544 C30.5984875,31.7466703 36.1239257,29.429044 42,29.429044 C47.8760743,29.429044 53.4028876,31.7466703 57.554658,35.9548544 C60.8336198,39.2761703 62.9472327,43.4599803 63.6964593,48 C63.8979031,46.7840819 64,45.541004 64,44.2841723 C64,38.3321972 61.7119285,32.7367801 57.554658,28.5272032 C53.4028876,24.3190191 47.8759024,22 42,22 C36.1240976,22 30.5984875,24.3190191 26.443967,28.5272032 C22.2880715,32.7367801 20,38.3321972 20,44.2841723 C20,45.541004 20.103472,46.7840819 20.3035407,48 C21.0513922,43.4599803 23.1663802,39.2761703 26.443967,35.9548544 Z" id="Shape" fill="#F4BE8E"></path>
            <path d="M40.5006904,0 C18.1325921,0 0,18.1331409 0,40.5 C0,62.8680672 18.1327647,81 40.5006904,81 C62.8674079,81 81,62.8680672 81,40.5 C81,18.1331409 62.8674079,0 40.5006904,0 Z M56.1201119,56.1213176 C51.9510552,60.2929048 46.4010577,62.5903756 40.5006904,62.5903756 C34.600323,62.5903756 29.0517064,60.2929048 24.8798881,56.1213176 C20.7066891,51.9469691 18.4090909,46.4002131 18.4090909,40.5 C18.4090909,34.5997869 20.7066891,29.0516502 24.8798881,24.8800631 C29.0517064,20.7070952 34.6001504,18.4096244 40.5006904,18.4096244 C46.4012303,18.4096244 51.9510552,20.7070952 56.1201119,24.8786824 C60.2946917,29.0516502 62.5922899,34.5997869 62.5922899,40.5 C62.5922899,46.4002131 60.2946917,51.9469691 56.1201119,56.1213176 Z" id="Shape" fill="#ED5564"></path>
            <g id="Group" transform="translate(2.000000, 2.000000)" fill="#DA4453">
                <ellipse id="Oval" cx="34.8325313" cy="1.93048552" rx="1.83339062" ry="1.87682183"></ellipse>
                <path d="M40.8692969,3.25747439 C41.5849844,3.99011581 42.7477188,3.99011581 43.4620313,3.25747439 C44.1763438,2.52483296 44.1763438,1.33596214 43.4620313,0.603320713 C42.7477188,-0.129320713 41.5849844,-0.129320713 40.8692969,0.603320713 C40.1536094,1.33596214 40.1536094,2.52500891 40.8692969,3.25747439 Z" id="Shape"></path>
                <path d="M15.2042344,10.7640579 C15.9199219,11.4966993 17.0800781,11.4966993 17.7971406,10.7640579 C18.5128281,10.0314165 18.5128281,8.84377728 17.7971406,8.10990423 C17.0800781,7.37726281 15.9199219,7.37726281 15.2042344,8.10990423 C14.4887187,8.84360134 14.4887187,10.0312405 15.2042344,10.7640579 Z" id="Shape"></path>
                <path d="M22.5369375,10.7640579 C23.252625,11.4966993 24.4141562,11.4966993 25.1298438,10.7640579 C25.8455313,10.0314165 25.8455313,8.84377728 25.1298438,8.10990423 C24.4141563,7.37726281 23.252625,7.37726281 22.5369375,8.10990423 C21.82125,8.84360134 21.82125,10.0312405 22.5369375,10.7640579 Z" id="Shape"></path>
                <path d="M29.8696406,10.7640579 C30.5853281,11.4966993 31.7466875,11.4966993 32.462375,10.7640579 C33.1780625,10.0314165 33.1780625,8.84377728 32.462375,8.10990423 C31.7466875,7.37726281 30.5853281,7.37726281 29.8696406,8.10990423 C29.1539531,8.84360134 29.1539531,10.0312405 29.8696406,10.7640579 Z" id="Shape"></path>
                <path d="M37.2035469,10.7640579 C37.9192344,11.4966993 39.0793906,11.4966993 39.7964531,10.7640579 C40.5121406,10.0314165 40.5121406,8.84377728 39.7964531,8.10990423 C39.0793906,7.37726281 37.9192344,7.37726281 37.2035469,8.10990423 C36.4880313,8.84360134 36.4880313,10.0312405 37.2035469,10.7640579 Z" id="Shape"></path>
                <path d="M44.53625,10.7640579 C45.2505625,11.4966993 46.4132969,11.4966993 47.1303594,10.7640579 C47.8446719,10.0314165 47.8446719,8.84377728 47.1303594,8.10990423 C46.4132969,7.37726281 45.2505625,7.37726281 44.53625,8.10990423 C43.8219375,8.84360134 43.8219375,10.0312405 44.53625,10.7640579 Z" id="Shape"></path>
                <path d="M51.8675781,10.7640579 C52.5846406,11.4966993 53.747375,11.4966993 54.4616875,10.7640579 C55.176,10.0314165 55.176,8.84377728 54.4616875,8.10990423 C53.747375,7.37726281 52.5846406,7.37726281 51.8675781,8.10990423 C51.1532656,8.84360134 51.1532656,10.0312405 51.8675781,10.7640579 Z" id="Shape"></path>
                <path d="M59.2042344,10.7640579 C59.9185469,11.4966993 61.0787031,11.4966993 61.7957656,10.7640579 C62.5128281,10.0314165 62.5128281,8.84377728 61.7957656,8.10990423 C61.0787031,7.37726281 59.9185469,7.37726281 59.2042344,8.10990423 C58.4871719,8.84360134 58.4871719,10.0312405 59.2042344,10.7640579 Z" id="Shape"></path>
                <path d="M11.5372812,18.2704655 C12.2529687,19.0043385 13.4145,19.0043385 14.1301875,18.2704655 C14.845875,17.5378241 14.845875,16.3501849 14.1301875,15.6175434 C13.4145,14.8834944 12.2529687,14.8834944 11.5372812,15.6175434 C10.8215937,16.3501849 10.8215937,17.5378241 11.5372812,18.2704655 Z" id="Shape"></path>
                <path d="M18.8699844,18.2704655 C19.5856719,19.0043385 20.7470313,19.0043385 21.4627188,18.2704655 C22.1784063,17.5378241 22.1784063,16.3501849 21.4627188,15.6175434 C20.7470313,14.8834944 19.5856719,14.8834944 18.8699844,15.6175434 C18.1542969,16.3501849 18.1542969,17.5378241 18.8699844,18.2704655 Z" id="Shape"></path>
                <path d="M26.2025156,18.2704655 C26.9195781,19.0043385 28.0797344,19.0043385 28.7967969,18.2704655 C29.5111094,17.5378241 29.5111094,16.3501849 28.7967969,15.6175434 C28.0797344,14.8834944 26.9195781,14.8834944 26.2025156,15.6175434 C25.487,16.3501849 25.487,17.5378241 26.2025156,18.2704655 Z" id="Shape"></path>
                <path d="M48.2018281,18.2704655 C48.9188906,19.0043385 50.0790469,19.0043385 50.7961094,18.2704655 C51.5104219,17.5378241 51.5104219,16.3501849 50.7961094,15.6175434 C50.0790469,14.8834944 48.9188906,14.8834944 48.2018281,15.6175434 C47.4847656,16.3501849 47.4847656,17.5378241 48.2018281,18.2704655 Z" id="Shape"></path>
                <path d="M55.5359062,18.2704655 C56.2502187,19.0043385 57.4129531,19.0043385 58.1300156,18.2704655 C58.8443281,17.5378241 58.8443281,16.3501849 58.1300156,15.6175434 C57.4129531,14.8834944 56.2502187,14.8834944 55.5359062,15.6175434 C54.8215937,16.3501849 54.8215937,17.5378241 55.5359062,18.2704655 Z" id="Shape"></path>
                <path d="M62.8672344,18.2704655 C63.5842969,19.0043385 64.7470312,19.0043385 65.4613437,18.2704655 C66.1756562,17.5378241 66.1756562,16.3501849 65.4613437,15.6175434 C64.7470312,14.8834944 63.5842969,14.8834944 62.8672344,15.6175434 C62.1529219,16.3501849 62.1529219,17.5378241 62.8672344,18.2704655 Z" id="Shape"></path>
                <path d="M7.87032812,25.7781047 C8.58739062,26.5107461 9.747375,26.5107461 10.4630625,25.7781047 C11.17875,25.0454633 11.17875,23.8565924 10.4630625,23.123951 C9.747375,22.3913096 8.58739062,22.3913096 7.87032812,23.123951 C7.15464062,23.8565924 7.15464062,25.0454633 7.87032812,25.7781047 Z" id="Shape"></path>
                <path d="M15.2042344,25.7781047 C15.9199219,26.5107461 17.0800781,26.5107461 17.7971406,25.7781047 C18.5128281,25.0454633 18.5128281,23.8565924 17.7971406,23.123951 C17.0800781,22.3913096 15.9199219,22.3913096 15.2042344,23.123951 C14.4887187,23.8565924 14.4887187,25.0454633 15.2042344,25.7781047 Z" id="Shape"></path>
                <path d="M59.2042344,25.7781047 C59.9185469,26.5107461 61.0787031,26.5107461 61.7957656,25.7781047 C62.5128281,25.0454633 62.5128281,23.8565924 61.7957656,23.123951 C61.0787031,22.3913096 59.9185469,22.3913096 59.2042344,23.123951 C58.4871719,23.8565924 58.4871719,25.0454633 59.2042344,25.7781047 Z" id="Shape"></path>
                <path d="M66.5355625,25.7781047 C67.249875,26.5107461 68.4126094,26.5107461 69.1296719,25.7781047 C69.8439844,25.0454633 69.8439844,23.8565924 69.1296719,23.123951 C68.4126094,22.3913096 67.249875,22.3913096 66.5355625,23.123951 C65.82125,23.8565924 65.82125,25.0454633 66.5355625,25.7781047 Z" id="Shape"></path>
                <path d="M4.20457812,33.2857439 C4.92026562,34.0169777 6.08042187,34.0169777 6.79748437,33.2857439 C7.51317187,32.5516949 7.51317187,31.3640557 6.79748437,30.6301826 C6.08042187,29.8975412 4.92026562,29.8975412 4.20457812,30.6301826 C3.4876875,31.3642316 3.4876875,32.5518708 4.20457812,33.2857439 Z" id="Shape"></path>
                <path d="M11.5372812,33.2857439 C12.2529687,34.0169777 13.4145,34.0169777 14.1301875,33.2857439 C14.845875,32.5516949 14.845875,31.3640557 14.1301875,30.6301826 C13.4145,29.8975412 12.2529687,29.8975412 11.5372812,30.6301826 C10.8215937,31.3642316 10.8215937,32.5518708 11.5372812,33.2857439 Z" id="Shape"></path>
                <path d="M62.8672344,33.2857439 C63.5842969,34.0169777 64.7470312,34.0169777 65.4613437,33.2857439 C66.1756562,32.5516949 66.1756562,31.3640557 65.4613437,30.6301826 C64.7470312,29.8975412 63.5842969,29.8975412 62.8672344,30.6301826 C62.1529219,31.3642316 62.1529219,32.5518708 62.8672344,33.2857439 Z" id="Shape"></path>
                <path d="M70.2011406,33.2857439 C70.9182031,34.0169777 72.0783594,34.0169777 72.7954219,33.2857439 C73.5097344,32.5516949 73.5097344,31.3640557 72.7954219,30.6301826 C72.0783594,29.8975412 70.9182031,29.8975412 70.2011406,30.6301826 C69.4840781,31.3642316 69.4840781,32.5518708 70.2011406,33.2857439 Z" id="Shape"></path>
                <path d="M0.537625,40.7909198 C1.2533125,41.5247929 2.41484375,41.5247929 3.13053125,40.7909198 C3.84621875,40.059686 3.84621875,38.8692316 3.13053125,38.1379978 C2.41484375,37.4039488 1.2533125,37.4039488 0.537625,38.1379978 C-0.1780625,38.8692316 -0.1780625,40.05951 0.537625,40.7909198 Z" id="Shape"></path>
                <path d="M7.87032812,40.7909198 C8.58739062,41.5247929 9.747375,41.5247929 10.4630625,40.7909198 C11.17875,40.059686 11.17875,38.8692316 10.4630625,38.1379978 C9.747375,37.4039488 8.58739062,37.4039488 7.87032812,38.1379978 C7.15464062,38.8692316 7.15464062,40.05951 7.87032812,40.7909198 Z" id="Shape"></path>
                <path d="M66.5355625,40.7909198 C67.249875,41.5247929 68.4126094,41.5247929 69.1296719,40.7909198 C69.8439844,40.059686 69.8439844,38.8692316 69.1296719,38.1379978 C68.4126094,37.4039488 67.249875,37.4039488 66.5355625,38.1379978 C65.82125,38.8692316 65.82125,40.05951 66.5355625,40.7909198 Z" id="Shape"></path>
                <path d="M73.8668906,40.7909198 C74.5839531,41.5247929 75.7466875,41.5247929 76.461,40.7909198 C77.1753125,40.059686 77.1753125,38.8692316 76.461,38.1379978 C75.7466875,37.4039488 74.5839531,37.4039488 73.8668906,38.1379978 C73.1525781,38.8692316 73.1525781,40.05951 73.8668906,40.7909198 Z" id="Shape"></path>
                <path d="M4.20457812,48.298559 C4.92026562,49.032608 6.08042187,49.032608 6.79748437,48.298559 C7.51317187,47.56451 7.51317187,46.3770468 6.79748437,45.6458129 C6.08042187,44.9117639 4.92026562,44.9117639 4.20457812,45.6458129 C3.4876875,46.3770468 3.4876875,47.56451 4.20457812,48.298559 Z" id="Shape"></path>
                <path d="M11.5372812,48.298559 C12.2529687,49.032608 13.4145,49.032608 14.1301875,48.298559 C14.845875,47.56451 14.845875,46.3770468 14.1301875,45.6458129 C13.4145,44.9117639 12.2529687,44.9117639 11.5372812,45.6458129 C10.8215937,46.3770468 10.8215937,47.56451 11.5372812,48.298559 Z" id="Shape"></path>
                <path d="M62.8672344,48.298559 C63.5842969,49.032608 64.7470312,49.032608 65.4613437,48.298559 C66.1756562,47.56451 66.1756562,46.3770468 65.4613437,45.6458129 C64.7470312,44.9117639 63.5842969,44.9117639 62.8672344,45.6458129 C62.1529219,46.3770468 62.1529219,47.56451 62.8672344,48.298559 Z" id="Shape"></path>
                <path d="M70.2011406,48.298559 C70.9182031,49.032608 72.0783594,49.032608 72.7954219,48.298559 C73.5097344,47.56451 73.5097344,46.3770468 72.7954219,45.6458129 C72.0783594,44.9117639 70.9182031,44.9117639 70.2011406,45.6458129 C69.4840781,46.3770468 69.4840781,47.56451 70.2011406,48.298559 Z" id="Shape"></path>
                <path d="M7.87032812,55.8063742 C8.58739062,56.537608 9.747375,56.537608 10.4630625,55.8063742 C11.17875,55.0723252 11.17875,53.884686 10.4630625,53.1508129 C9.747375,52.4195791 8.58739062,52.4195791 7.87032812,53.1508129 C7.15464062,53.884686 7.15464062,55.0723252 7.87032812,55.8063742 Z" id="Shape"></path>
                <path d="M15.2042344,55.8063742 C15.9199219,56.537608 17.0800781,56.537608 17.7971406,55.8063742 C18.5128281,55.0723252 18.5128281,53.884686 17.7971406,53.1508129 C17.0800781,52.4195791 15.9199219,52.4195791 15.2042344,53.1508129 C14.4887187,53.884686 14.4887187,55.0723252 15.2042344,55.8063742 Z" id="Shape"></path>
                <path d="M59.2042344,55.8063742 C59.9185469,56.537608 61.0787031,56.537608 61.7957656,55.8063742 C62.5128281,55.0723252 62.5128281,53.884686 61.7957656,53.1508129 C61.0787031,52.4195791 59.9185469,52.4195791 59.2042344,53.1508129 C58.4871719,53.884686 58.4871719,55.0723252 59.2042344,55.8063742 Z" id="Shape"></path>
                <path d="M66.5355625,55.8063742 C67.249875,56.537608 68.4126094,56.537608 69.1296719,55.8063742 C69.8439844,55.0723252 69.8439844,53.884686 69.1296719,53.1508129 C68.4126094,52.4195791 67.249875,52.4195791 66.5355625,53.1508129 C65.82125,53.884686 65.82125,55.0723252 66.5355625,55.8063742 Z" id="Shape"></path>
                <path d="M11.5372812,63.3113742 C12.2529687,64.0454232 13.4145,64.0454232 14.1301875,63.3113742 C14.845875,62.5801403 14.845875,61.389686 14.1301875,60.6584521 C13.4145,59.9244031 12.2529687,59.9244031 11.5372812,60.6584521 C10.8215937,61.389686 10.8215937,62.5801403 11.5372812,63.3113742 Z" id="Shape"></path>
                <path d="M18.8699844,63.3113742 C19.5856719,64.0454232 20.7470313,64.0454232 21.4627188,63.3113742 C22.1784063,62.5801403 22.1784063,61.389686 21.4627188,60.6584521 C20.7470313,59.9244031 19.5856719,59.9244031 18.8699844,60.6584521 C18.1542969,61.389686 18.1542969,62.5801403 18.8699844,63.3113742 Z" id="Shape"></path>
                <path d="M26.2025156,63.3113742 C26.9195781,64.0454232 28.0797344,64.0454232 28.7967969,63.3113742 C29.5111094,62.5801403 29.5111094,61.389686 28.7967969,60.6584521 C28.0797344,59.9244031 26.9195781,59.9244031 26.2025156,60.6584521 C25.487,61.389686 25.487,62.5801403 26.2025156,63.3113742 Z" id="Shape"></path>
                <path d="M48.2018281,63.3113742 C48.9188906,64.0454232 50.0790469,64.0454232 50.7961094,63.3113742 C51.5104219,62.5801403 51.5104219,61.389686 50.7961094,60.6584521 C50.0790469,59.9244031 48.9188906,59.9244031 48.2018281,60.6584521 C47.4847656,61.389686 47.4847656,62.5801403 48.2018281,63.3113742 Z" id="Shape"></path>
                <path d="M55.5359062,63.3113742 C56.2502187,64.0454232 57.4129531,64.0454232 58.1300156,63.3113742 C58.8443281,62.5801403 58.8443281,61.389686 58.1300156,60.6584521 C57.4129531,59.9244031 56.2502187,59.9244031 55.5359062,60.6584521 C54.8215937,61.389686 54.8215937,62.5801403 55.5359062,63.3113742 Z" id="Shape"></path>
                <path d="M62.8672344,63.3113742 C63.5842969,64.0454232 64.7470312,64.0454232 65.4613437,63.3113742 C66.1756562,62.5801403 66.1756562,61.389686 65.4613437,60.6584521 C64.7470312,59.9244031 63.5842969,59.9244031 62.8672344,60.6584521 C62.1529219,61.389686 62.1529219,62.5801403 62.8672344,63.3113742 Z" id="Shape"></path>
                <path d="M15.2042344,70.8190134 C15.9199219,71.5530624 17.0800781,71.5530624 17.7971406,70.8190134 C18.5128281,70.0849644 18.5128281,68.8975011 17.7971406,68.1662673 C17.0800781,67.4322183 15.9199219,67.4322183 15.2042344,68.1662673 C14.4887187,68.8975011 14.4887187,70.0849644 15.2042344,70.8190134 Z" id="Shape"></path>
                <path d="M22.5369375,70.8190134 C23.252625,71.5530624 24.4141562,71.5530624 25.1298438,70.8190134 C25.8455313,70.0849644 25.8455313,68.8975011 25.1298438,68.1662673 C24.4141563,67.4322183 23.252625,67.4322183 22.5369375,68.1662673 C21.82125,68.8975011 21.82125,70.0849644 22.5369375,70.8190134 Z" id="Shape"></path>
                <path d="M29.8696406,70.8190134 C30.5853281,71.5530624 31.7466875,71.5530624 32.462375,70.8190134 C33.1780625,70.0849644 33.1780625,68.8975011 32.462375,68.1662673 C31.7466875,67.4322183 30.5853281,67.4322183 29.8696406,68.1662673 C29.1539531,68.8975011 29.1539531,70.0849644 29.8696406,70.8190134 Z" id="Shape"></path>
                <path d="M37.2035469,70.8190134 C37.9192344,71.5530624 39.0793906,71.5530624 39.7964531,70.8190134 C40.5121406,70.0849644 40.5121406,68.8975011 39.7964531,68.1662673 C39.0793906,67.4322183 37.9192344,67.4322183 37.2035469,68.1662673 C36.4880313,68.8975011 36.4880313,70.0849644 37.2035469,70.8190134 Z" id="Shape"></path>
                <path d="M44.53625,70.8190134 C45.2505625,71.5530624 46.4132969,71.5530624 47.1303594,70.8190134 C47.8446719,70.0849644 47.8446719,68.8975011 47.1303594,68.1662673 C46.4132969,67.4322183 45.2505625,67.4322183 44.53625,68.1662673 C43.8219375,68.8975011 43.8219375,70.0849644 44.53625,70.8190134 Z" id="Shape"></path>
                <path d="M51.8675781,70.8190134 C52.5846406,71.5530624 53.747375,71.5530624 54.4616875,70.8190134 C55.176,70.0849644 55.176,68.8975011 54.4616875,68.1662673 C53.747375,67.4322183 52.5846406,67.4322183 51.8675781,68.1662673 C51.1532656,68.8975011 51.1532656,70.0849644 51.8675781,70.8190134 Z" id="Shape"></path>
                <path d="M59.2042344,70.8190134 C59.9185469,71.5530624 61.0787031,71.5530624 61.7957656,70.8190134 C62.5128281,70.0849644 62.5128281,68.8975011 61.7957656,68.1662673 C61.0787031,67.4322183 59.9185469,67.4322183 59.2042344,68.1662673 C58.4871719,68.8975011 58.4871719,70.0849644 59.2042344,70.8190134 Z" id="Shape"></path>
                <path d="M33.5365937,78.3268285 C34.2522812,79.0580624 35.4138125,79.0580624 36.1295,78.3268285 C36.8451875,77.5927795 36.8451875,76.4051403 36.1295,75.6710913 C35.4138125,74.9400334 34.2522812,74.9400334 33.5365937,75.6710913 C32.8209063,76.4051403 32.8209063,77.5927795 33.5365937,78.3268285 Z" id="Shape"></path>
                <path d="M40.8692969,78.3268285 C41.5849844,79.0580624 42.7477188,79.0580624 43.4620313,78.3268285 C44.1763438,77.5927795 44.1763438,76.4051403 43.4620313,75.6710913 C42.7477188,74.9400334 41.5849844,74.9400334 40.8692969,75.6710913 C40.1536094,76.4051403 40.1536094,77.5927795 40.8692969,78.3268285 Z" id="Shape"></path>
            </g>
        </g>
    </g>
</svg>