<?xml version="1.0" encoding="UTF-8"?>
<svg width="84px" height="84px" viewBox="0 0 84 84" version="1.1" xmlns="http://www.w3.org/2000/svg" xmlns:xlink="http://www.w3.org/1999/xlink">
    <!-- Generator: Sketch 48.2 (47327) - http://www.bohemiancoding.com/sketch -->
    <title>bar-chart</title>
    <desc>Created with Sketch.</desc>
    <defs></defs>
    <g id="Style-Guide" stroke="none" stroke-width="1" fill="none" fill-rule="evenodd" transform="translate(-868.000000, -3278.000000)">
        <g id="bar-chart" transform="translate(868.000000, 3278.000000)" fill="#8DADBD" fill-rule="nonzero">
            <path d="M79.078125,74 L4.921875,74 C2.20352344,74 0,76.2386667 0,79 L0,81.5 C0,82.8806667 1.10184375,84 2.4609375,84 L81.5390625,84 C82.8981562,84 84,82.8806667 84,81.5 L84,79 C84,76.2386667 81.7964766,74 79.078125,74 Z" id="Shape"></path>
            <path d="M47.4180328,29 L31.5819672,29 C30.1560328,29 29,30.1193333 29,31.5 L29,69 L50,69 L50,31.5 C50,30.1193333 48.8439672,29 47.4180328,29 Z" id="Shape"></path>
            <path d="M20.75,40 L7.25,40 C6.0074,40 5,41.0820222 5,42.4166667 L5,69 L23,69 L23,42.4166667 C23,41.0820222 21.9926,40 20.75,40 Z" id="Shape"></path>
            <path d="M81.5103928,20.9490099 L66.9231747,0.965918894 C65.9610208,-0.321972965 64.0388173,-0.321972965 63.0766634,0.965918894 L48.4896072,20.9490099 C47.2929039,22.5506986 48.4264779,24.8493142 50.4127819,24.8493142 L55.3849356,24.8493142 L55.3849356,69 L74.7769341,69 L74.7769341,24.8493142 L79.5872181,24.8493142 C81.5735221,24.8493142 82.7070961,22.5505351 81.5103928,20.9490099 Z" id="Shape"></path>
        </g>
    </g>
</svg>