<?xml version="1.0" encoding="UTF-8"?>
<svg width="91px" height="93px" viewBox="0 0 91 93" version="1.1" xmlns="http://www.w3.org/2000/svg" xmlns:xlink="http://www.w3.org/1999/xlink">
    <!-- Generator: Sketch 48.2 (47327) - http://www.bohemiancoding.com/sketch -->
    <title>chicken (1)</title>
    <desc>Created with Sketch.</desc>
    <defs></defs>
    <g id="Style-Guide" stroke="none" stroke-width="1" fill="none" fill-rule="evenodd" transform="translate(-1606.000000, -3736.000000)">
        <g id="chicken-(1)" transform="translate(1606.000000, 3736.000000)" fill-rule="nonzero">
            <g id="Group" transform="translate(37.000000, 0.000000)" fill="#FFCFB2">
                <path d="M12.9201778,17.2033381 C12.9201778,14.9406043 13.5207111,13.8713094 14.216,12.6334964 C14.9923556,11.2511655 15.8723556,9.68425899 15.8723556,6.69064748 C15.8723556,3.69738129 14.9925333,2.13099281 14.216,0.748661871 L14.2152889,0.749007194 L14.2152889,0.747453237 L14.2154667,0.747453237 L14.2152889,0.747453237 L14.2152889,0.747107914 C13.8248889,0.0523165468 12.9285333,-0.204258993 12.2124444,0.175769784 C11.4968889,0.554935252 11.2336,1.42601439 11.6241778,2.12097842 L11.6247111,2.1214964 L11.6245333,2.12166906 C12.3198222,3.35948201 12.9203556,4.42843165 12.9203556,6.69047482 C12.9203556,8.95320863 12.3198222,10.0225036 11.6245333,11.2603165 C10.8481778,12.6426475 9.96817778,14.209554 9.96817778,17.2031655 C9.96817778,20.1966043 10.848,21.7633381 11.6245333,23.1458417 C11.8924444,23.6229065 12.3989333,23.8929496 12.9216,23.8929496 C13.1603556,23.8929496 13.4026667,23.8364892 13.6272,23.7176978 C14.3427556,23.338705 14.6065778,22.4677986 14.216,21.7726619 C13.5203556,20.5350216 12.9201778,19.4658993 12.9201778,17.2033381 Z" id="Shape"></path>
                <path d="M3.08,17.2033381 C3.08,14.9406043 3.68053333,13.8713094 4.37582222,12.6334964 C5.15217778,11.2511655 6.03217778,9.68425899 6.03217778,6.69064748 C6.03217778,3.69738129 5.15235556,2.13099281 4.37582222,0.748661871 L4.37511111,0.749007194 L4.37511111,0.747453237 L4.37528889,0.747453237 L4.37511111,0.747453237 L4.37511111,0.747107914 C3.98471111,0.0523165468 3.08835556,-0.204258993 2.37226667,0.175769784 C1.65671111,0.554935252 1.39342222,1.42601439 1.784,2.12097842 L1.78453333,2.1214964 L1.78435556,2.12166906 C2.47964444,3.35948201 3.08017778,4.42843165 3.08017778,6.69047482 C3.08017778,8.95320863 2.47964444,10.0225036 1.78435556,11.2603165 C1.008,12.6426475 0.128,14.209554 0.128,17.2031655 C0.128,20.1966043 1.00782222,21.7633381 1.78435556,23.1458417 C2.05226667,23.6229065 2.55875556,23.8929496 3.08142222,23.8929496 C3.32017778,23.8929496 3.56248889,23.8364892 3.78702222,23.7176978 C4.50257778,23.338705 4.7664,22.4677986 4.37582222,21.7726619 C3.68017778,20.5350216 3.08,19.4658993 3.08,17.2033381 Z" id="Shape"></path>
            </g>
            <path d="M76.3067181,47.9960015 L65,44 L65,83 L81,83 C81,83 81,68.5579019 81,66.5162231 C81,59.7546059 79.2875115,53.4241743 76.3067181,47.9960015 Z" id="Shape" fill="#975D50"></path>
            <path d="M68.8359604,44.0003452 L22.9159563,44 L15.0011549,47.821714 C11.8247602,53.0134797 10,59.0678066 10,65.5346853 L10,77 L75,77 C75,77 75,69.5514552 75,65.5346853 C75,57.4074152 72.6971094,49.9296983 68.8359604,44.0003452 Z" id="Shape" fill="#B1786B"></path>
            <g id="Group" transform="translate(16.000000, 30.000000)" fill="#975D50">
                <path d="M31.5,0.0534210526 C18.1593,0.0534210526 6.49872,7.40655263 0.17082,18.3668947 C0.48546,18.3280263 0.81954,18.3046316 1.1826,18.3046316 C6.23538,18.3046316 6.23538,22.3830526 11.28798,22.3830526 C16.34058,22.3830526 16.34058,18.3046316 21.393,18.3046316 C26.44578,18.3046316 26.44578,22.3830526 31.49838,22.3830526 C36.55098,22.3830526 36.55098,18.3046316 41.6034,18.3046316 C46.65618,18.3046316 46.65618,22.3830526 51.70878,22.3830526 C56.76138,22.3830526 56.76138,18.3046316 61.8138,18.3046316 C62.1783,18.3046316 62.51364,18.3280263 62.82918,18.3674474 C56.50164,7.40673684 44.8407,0.0534210526 31.5,0.0534210526 Z" id="Shape"></path>
                <ellipse id="Oval" cx="3.6027" cy="34.2101053" rx="1.49454" ry="1.5295"></ellipse>
                <ellipse id="Oval" cx="9.58068" cy="40.3279211" rx="1.49454" ry="1.5295"></ellipse>
            </g>
            <path d="M79.122402,79.0001946 L69,93 L74.877598,93 C78.110268,93 81.5914144,90.2415192 82.6138131,86.8701725 L85,79 L79.122402,79 L79.122402,79.0001946 Z" id="Shape" fill="#FDA162"></path>
            <path d="M4,79 L6.43608088,86.8701725 C7.47959936,90.2415192 11.0334518,93 14.3334706,93 L68.66671,93 C71.9667288,93 75.5204006,90.2415192 76.5640998,86.8701725 L79,79 L4,79 Z" id="Shape" fill="#FDCE6E"></path>
            <g id="Group" transform="translate(0.000000, 22.000000)" fill="#FDFA7B">
                <path d="M87.97425,53.8420183 L3.02593056,53.8420183 C1.37005556,53.8420183 0.0278055556,55.2062385 0.0278055556,56.8888073 C0.0278055556,58.5715596 1.37023611,59.9355963 3.02593056,59.9355963 L87.97425,59.9355963 C89.630125,59.9355963 90.972375,58.5713761 90.972375,56.8888073 C90.9725556,55.2062385 89.630125,53.8420183 87.97425,53.8420183 Z" id="Shape"></path>
                <path d="M90.9725556,10.1706422 C90.9725556,7.92697248 89.1828889,6.10825688 86.9750556,6.10825688 C86.7042222,6.10825688 85.9077917,6.10825688 84.9763056,6.10825688 C84.9763056,5.16165138 84.9763056,4.35229358 84.9763056,4.07706422 C84.9763056,1.8333945 83.1866389,0.0146788991 80.9788056,0.0146788991 C78.7709722,0.0146788991 76.9813056,1.83357798 76.9813056,4.07706422 L76.9813056,8.48807339 L71.994,13.5563303 L71.9938194,19.3016514 L77.647375,19.3020183 L82.6348611,14.232844 L86.9754167,14.232844 C89.1825278,14.2333945 90.9725556,12.4143119 90.9725556,10.1706422 Z" id="Shape"></path>
            </g>
            <path d="M77.4829031,57.5850913 L80,43.6284514 L74.0207252,38 L59.1910314,40.3690324 C51.7037137,41.5620858 46,47.6912673 46,55.0776662 C46,63.3190447 53.0987059,70 61.8549797,70 C69.7032194,70 76.2154748,64.6319786 77.4829031,57.5850913 Z" id="Shape" fill="#CB9385"></path>
            <circle id="Oval" fill="#B1786B" cx="62" cy="62" r="2"></circle>
        </g>
    </g>
</svg>