<?xml version="1.0" encoding="UTF-8"?>
<svg width="207px" height="140px" viewBox="0 0 207 140" version="1.1" xmlns="http://www.w3.org/2000/svg" xmlns:xlink="http://www.w3.org/1999/xlink">
    <!-- Generator: Sketch 48.2 (47327) - http://www.bohemiancoding.com/sketch -->
    <title>Group 2</title>
    <desc>Created with Sketch.</desc>
    <defs></defs>
    <g id="Style-Guide" stroke="none" stroke-width="1" fill="none" fill-rule="evenodd" transform="translate(-639.000000, -4840.000000)">
        <g id="Group-2" transform="translate(639.000000, 4840.000000)" fill-rule="nonzero">
            <g id="pot" transform="translate(35.000000, 0.000000)">
                <path d="M49.5705824,89.1618315 C48.5344421,90.2009581 46.8546627,90.2009581 45.8185223,89.1618315 L33.3887867,76.6965381 C32.3526463,75.6571473 32.3526463,73.9727267 33.3885234,72.9333359 L45.8185223,60.4677784 C46.8549259,59.4283876 48.5344421,59.4283876 49.5705824,60.4677784 L62.0003181,72.9333359 C63.0364584,73.9727267 63.0364584,75.6571473 62.0003181,76.6965381 L49.5705824,89.1618315 Z" id="Shape" fill="#F48911"></path>
                <path d="M89.6820333,85.8529412 L81.0578407,49.6605631 C80.6319101,47.8723066 78.9851449,46.6058824 77.0872113,46.6058824 L65.5890287,46.6058824 C63.6905394,46.6058824 62.0446078,47.8725753 61.6181214,49.6605631 L52.9939288,85.8529412 L89.6820333,85.8529412 Z" id="Shape" fill="#E0D9AF"></path>
                <path d="M92.7809879,96.5206397 C91.7448452,97.5597868 90.0650622,97.5597868 89.0289196,96.5206397 L76.59942,84.0548373 C75.5630142,83.0156902 75.5630142,81.3312365 76.5991568,80.2918253 L89.0289196,67.8260229 C90.0650622,66.7874041 91.744582,66.7874041 92.7809879,67.8260229 L105.210751,80.2918253 C106.246893,81.3312365 106.246893,83.0156902 105.210751,84.0548373 L92.7809879,96.5206397 Z" id="Shape" fill="#B0CE6F"></path>
                <path d="M84.6458054,116.105882 L60.4762255,116.105882 L53.1990908,132.955738 C52.8522111,133.758862 52.9495332,134.672843 53.4581633,135.393536 C53.9670652,136.114746 54.8201284,136.547059 55.7340858,136.547059 L89.3879451,136.547059 C90.3013588,136.547059 91.1546938,136.114746 91.6638676,135.393536 C92.1722259,134.672843 92.2695479,133.758604 91.92294,132.955738 L84.6458054,116.105882 Z" id="Shape" fill="#B3B3B3"></path>
                <g id="Group" transform="translate(2.445874, 83.400000)" fill="#C6BA83">
                    <path d="M25.1928318,6.87752143 C25.1928318,10.6752 22.6276864,13.75405 19.4633547,13.75405 L5.92075371,13.75405 C2.75642202,13.75405 0.191276561,10.6752 0.191276561,6.87752143 C0.191276561,3.07984286 2.75642202,0.000992857143 5.92075371,0.000992857143 L19.4630791,0.000992857143 C22.6276864,0.00132380952 25.1928318,3.07984286 25.1928318,6.87752143 Z" id="Shape"></path>
                    <path d="M135.963183,6.87752143 C135.963183,10.6752 133.397762,13.75405 130.233706,13.75405 L116.691105,13.75405 C113.527324,13.75405 110.961903,10.6752 110.961903,6.87752143 C110.961903,3.07984286 113.527049,0.000992857143 116.691105,0.000992857143 L130.233706,0.000992857143 C133.397762,0.00132380952 135.963183,3.07984286 135.963183,6.87752143 Z" id="Shape"></path>
                </g>
                <ellipse id="Oval" fill="#B0CE6F" cx="53.4015744" cy="79.7205882" rx="10.1911402" ry="10.2205882"></ellipse>
                <path d="M41.4462617,70.451569 C49.013991,78.0410284 51.1936053,88.1606699 46.3145183,93.0542207 C41.4351606,97.9472282 31.3444938,95.7618116 23.7770353,88.1720805 C16.209306,80.5826211 14.0296916,70.462708 18.9087786,65.5694289 C23.7886779,60.6761497 33.8785324,62.8618379 41.4462617,70.451569 Z" id="Shape" fill="#FFC38D"></path>
                <path d="M28.3954283,70.4584146 C29.6692509,71.7355264 29.6685385,73.8057841 28.3950721,75.0828959 C27.1216058,76.360365 25.056631,76.3607225 23.7835209,75.0832533 C22.5096983,73.8057841 22.5096983,71.7348115 23.7835209,70.4580572 C25.0573435,69.180588 27.1223182,69.180588 28.3954283,70.4584146 Z" id="Shape" fill="#754C24"></path>
                <ellipse id="Oval" fill="#F48911" cx="105.580212" cy="82.1735294" rx="10.1911402" ry="10.2205882"></ellipse>
                <path d="M79.7362443,98.9735962 C78.7001209,100.012723 77.0201058,100.012723 75.9839824,98.9735962 L63.5547133,86.5080386 C62.5183267,85.4686479 62.5183267,83.7842273 63.5547133,82.7448365 L75.9842456,70.2795431 C77.020369,69.2401523 78.7001209,69.2401523 79.7367708,70.2795431 L92.1663031,82.7448365 C93.2021632,83.7842273 93.2021632,85.4686479 92.1663031,86.5080386 L79.7362443,98.9735962 Z" id="Shape" fill="#FFC38D"></path>
                <path d="M16.3058242,83.4 C18.6402847,105.448317 37.8301967,122.647059 61.1583457,122.647059 L83.96349,122.647059 C107.291639,122.647059 126.481825,105.448583 128.816012,83.4 L16.3058242,83.4 Z" id="Shape" fill="#E0D9AF"></path>
                <g id="Group" transform="translate(75.822083, 0.000000)" fill="#FCE9C3">
                    <path d="M27.848989,20.9168062 L13.6920006,20.9168062 C12.5158072,20.9168062 11.5621882,20.0271555 11.5621882,18.9298605 C11.5621882,17.8325654 12.5158072,16.9429147 13.6920006,16.9429147 L27.848989,16.9429147 C31.6841189,16.9429147 34.8045101,14.0338659 34.8045101,10.4580228 C34.8047818,6.8824332 31.6846624,3.97363794 27.848989,3.97363794 L21.5807584,3.97363794 C20.4045649,3.97363794 19.450946,3.08398723 19.450946,1.9866922 C19.450946,0.889397173 20.4045649,0 21.5807584,0 L27.848989,0 C34.0329728,0 39.0638631,4.69164615 39.0638631,10.4582763 C39.0641349,16.2251601 34.0332446,20.9168062 27.848989,20.9168062 Z" id="Shape"></path>
                    <path d="M2.2078086,32.6239909 C1.03161515,32.6239909 0.0779961926,31.7343402 0.0779961926,30.6370451 L0.0779961926,26.0280511 C0.0779961926,21.0184733 4.44850062,16.9429147 9.82018265,16.9429147 L21.682398,16.9429147 C22.8585915,16.9429147 23.8122104,17.8325654 23.8122104,18.9298605 C23.8122104,20.0271555 22.8585915,20.9168062 21.682398,20.9168062 L9.82018265,20.9168062 C6.79681107,20.9168062 4.33734925,23.2097674 4.33734925,26.0280511 L4.33734925,30.6370451 C4.33762101,31.7343402 3.38400206,32.6239909 2.2078086,32.6239909 Z" id="Shape"></path>
                </g>
                <g id="Group" transform="translate(20.382280, 6.541176)" fill="#F2D8A0">
                    <path d="M29.1911876,45.1442609 L12.6060054,45.1442609 C8.15395059,45.1442609 4.53207176,41.4015588 4.53207176,36.8013218 C4.53207176,32.2010847 8.15395059,28.4583827 12.6060054,28.4583827 L20.237623,28.4583827 C21.4401002,28.4583827 22.415029,27.4503122 22.415029,26.2069583 C22.415029,24.9636045 21.4401002,23.955534 20.237623,23.955534 L12.6060054,23.955534 C5.75288609,23.955534 0.177537632,29.7181116 0.177537632,36.8010345 C0.177537632,43.8839574 5.75288609,49.646535 12.6060054,49.646535 L29.1911876,49.646535 C30.3936647,49.646535 31.3685936,48.6384645 31.3685936,47.3951107 C31.3685936,46.152044 30.3936647,45.1442609 29.1911876,45.1442609 Z" id="Shape"></path>
                    <path d="M36.6358212,0.274066455 L26.5264561,0.274066455 C25.323979,0.274066455 24.3490501,1.28213688 24.3490501,2.52549078 C24.3490501,3.76884467 25.323979,4.7769151 26.5264561,4.7769151 L36.6358212,4.7769151 C41.7524613,4.7769151 45.9152881,9.07866677 45.9152881,14.3660809 C45.9152881,19.6537824 41.7524613,23.955534 36.6358212,23.955534 L27.6822566,23.955534 C26.4797795,23.955534 25.5048506,24.9636045 25.5048506,26.2069583 C25.5048506,27.4503122 26.4797795,28.4583827 27.6822566,28.4583827 L36.636099,28.4583827 C44.1540814,28.4583827 50.2703779,22.1364682 50.2703779,14.3660809 C50.2703779,6.59569364 44.1538036,0.274066455 36.6358212,0.274066455 Z" id="Shape"></path>
                    <path d="M87.4499254,28.3762202 L82.2493786,28.3762202 C81.0469015,28.3762202 80.0719726,29.3842906 80.0719726,30.6276445 C80.0719726,31.8709984 81.0469015,32.8790688 82.2493786,32.8790688 L87.4499254,32.8790688 C91.6099739,32.8790688 94.9945802,36.3764326 94.9945802,40.6753114 C94.9945802,44.9741903 91.6102517,48.4715541 87.4499254,48.4715541 L72.9643549,48.4715541 C71.7618778,48.4715541 70.786949,49.4796245 70.786949,50.7229784 C70.786949,51.9663323 71.7618778,52.9744027 72.9643549,52.9744027 L87.4499254,52.9744027 C94.0113162,52.9744027 99.3491143,47.4571634 99.3491143,40.6753114 C99.3488365,33.8934595 94.0110384,28.3762202 87.4499254,28.3762202 Z" id="Shape"></path>
                </g>
                <path d="M96.204363,135.075442 C96.204363,137.242895 94.92203,139 93.3400814,139 L46.0747158,139 C44.4924976,139 43.2104342,137.242895 43.2104342,135.075442 L43.2104342,133.112793 C43.2104342,130.94534 44.4927673,129.188235 46.0747158,129.188235 L93.3398118,129.188235 C94.92203,129.188235 96.2040934,130.94534 96.2040934,133.112793 L96.2040934,135.075442 L96.204363,135.075442 Z" id="Shape" fill="#E0D9AF"></path>
                <path d="M130.794597,81.4372299 L117.323679,81.4372299 C115.886657,76.8221351 111.458067,73.4511209 106.231072,73.4511209 C105.164894,73.4511209 104.132802,73.5938149 103.151701,73.8562134 L96.9654183,67.8643855 C96.0429431,66.9712266 94.8161575,66.4794607 93.5119309,66.4794607 C92.2077043,66.4794607 90.9809187,66.9712266 90.0581708,67.864914 L85.8501789,71.9406782 L83.8923392,63.7077614 C83.627022,62.5931625 82.4804042,61.898454 81.3299689,62.155039 C80.1800789,62.4118882 79.4623861,63.5233161 79.727158,64.6381793 L81.5238441,72.1930352 L80.8347827,71.5255443 C79.9123075,70.6318569 78.6852492,70.1395625 77.3810226,70.1395625 C76.0759779,70.1395625 74.849465,70.6318569 73.9269898,71.5255443 L63.6933237,81.4374941 L63.3644721,81.4374941 C62.7138585,77.7689364 60.2207487,74.7044501 56.8417029,73.173396 L61.8421018,52.14611 C62.0381584,51.3227127 62.7842099,50.7477086 63.6570573,50.7477086 L74.9416307,50.7477086 C75.8144782,50.7477086 76.5602569,51.3229769 76.7560409,52.1458458 L77.8882067,56.9068055 C78.153524,58.0214044 79.3009598,58.7153202 80.4505771,58.459528 C81.600467,58.2024145 82.3178871,57.0912508 82.0528425,55.9763876 L80.9212221,51.2159564 C80.2757894,48.5018632 77.8170373,46.6058824 74.9421761,46.6058824 L63.6576027,46.6058824 C60.7827414,46.6058824 58.3237166,48.5013347 57.678284,51.2159564 L54.6790808,63.8272016 L51.2741304,60.5293841 C50.3516553,59.6356967 49.124597,59.1434023 47.8200977,59.1434023 C46.5153257,59.1434023 45.2888127,59.6356967 44.3660649,60.5293841 L38.0355349,66.660735 C33.7329231,63.6187097 28.9359432,61.8799566 24.587794,61.8799566 C21.1394875,61.8799566 18.1937296,62.9676022 16.0692827,65.0250386 C13.1614272,67.8416602 12.1574209,72.0717453 13.2418677,76.9357618 C13.576991,78.4380128 14.1076255,79.9487198 14.8054127,81.4377584 L7.80545413,81.4377584 C3.501479,81.4377584 0,84.8299125 0,88.9992205 C0,93.1685286 3.501479,96.5606827 7.80545413,96.5606827 L14.616173,96.5606827 C17.246986,102.656096 21.2458326,108.176505 26.4016589,112.710475 C33.2423725,118.726086 41.679898,122.602871 50.6925048,123.964278 L49.0485193,127.844762 L45.4041562,127.844762 C42.6288231,127.844762 40.3710358,130.032209 40.3710358,132.720934 L40.3710358,134.123828 C40.3710358,136.812553 42.6290957,139 45.4041562,139 L74.9983481,139 C76.1785055,139 77.1353383,138.072753 77.1353383,136.929087 C77.1353383,135.785421 76.1785055,134.858174 74.9983481,134.858174 L45.4047016,134.858174 C44.9858657,134.858174 44.6452888,134.528656 44.6452888,134.123828 L44.6452888,132.720934 C44.6452888,132.315842 44.9861384,131.986589 45.4047016,131.986589 L93.1953498,131.986589 C93.6141857,131.986589 93.9547626,132.316106 93.9547626,132.720934 L93.9547626,134.123828 C93.9547626,134.528921 93.6139131,134.858174 93.1953498,134.858174 L83.5460361,134.858174 C82.3658787,134.858174 81.4090459,135.785421 81.4090459,136.929087 C81.4090459,138.072753 82.3658787,139 83.5460361,139 L93.1953498,139 C95.970683,139 98.2284703,136.812553 98.2284703,134.123828 L98.2284703,132.720934 C98.2284703,130.032209 95.9704103,127.844762 93.1953498,127.844762 L89.5509867,127.844762 L87.9070013,123.964278 C96.9198808,122.602607 105.357134,118.725821 112.197847,112.710475 C117.353946,108.176769 121.352793,102.656096 123.983333,96.5606827 L130.794052,96.5606827 C135.097754,96.5606827 138.599506,93.1685286 138.599506,88.9992205 C138.599506,84.8296482 135.0983,81.4372299 130.794597,81.4372299 Z M7.80545413,92.4183279 C5.85824896,92.4183279 4.27370769,90.8843671 4.27370769,88.998692 C4.27370769,87.1130169 5.85824896,85.5790561 7.80545413,85.5790561 L11.4814481,85.5790561 C11.8291146,87.9070827 12.3622033,90.1923011 13.0695342,92.4183279 L7.80545413,92.4183279 Z M106.231072,77.5929471 C109.057396,77.5929471 111.50715,79.1583534 112.723028,81.4372299 L99.7391154,81.4372299 C100.954721,79.1580892 103.404748,77.5929471 106.231072,77.5929471 Z M93.0789156,70.7943695 C93.2269807,70.6508827 93.396042,70.6210227 93.5119309,70.6210227 C93.6278197,70.6210227 93.7971538,70.651147 93.9446734,70.7941053 L99.1294037,75.8161422 C97.2563674,77.2288131 95.8403422,79.1839855 95.1384648,81.4372299 L91.0692668,81.4372299 L86.5804149,77.08929 L93.0789156,70.7943695 Z M76.9488254,74.4547355 C77.0968904,74.311513 77.2659518,74.2813887 77.381568,74.2813887 C77.4971841,74.2813887 77.6662455,74.311513 77.8143105,74.4549998 L85.023687,81.4374941 L69.7397216,81.4374941 L76.9488254,74.4547355 Z M58.990691,81.4372299 L49.1657716,81.4372299 C48.7870196,80.1606468 48.2795628,78.8848565 47.6469461,77.6278279 C48.8551895,76.7711352 50.3423841,76.2621932 51.9511939,76.2621932 C55.3005177,76.2619289 58.1292961,78.4557175 58.990691,81.4372299 Z M47.3879005,63.4580468 C47.5359655,63.3145601 47.7050269,63.2844358 47.820643,63.2844358 C47.9362592,63.2844358 48.1050479,63.3145601 48.2531129,63.4580468 L53.5471877,68.5860473 L52.7005175,72.1465275 C52.452379,72.1309369 52.2028772,72.1206312 51.9509212,72.1206312 C49.5521586,72.1206312 47.32273,72.8322516 45.4723261,74.0467363 C44.4066942,72.5532055 43.174455,71.1159596 41.7881518,69.7735787 C41.6343605,69.6245427 41.4792058,69.4776208 41.323233,69.3322842 L47.3879005,63.4580468 Z M19.0913909,67.9537014 C20.7408299,66.3560568 22.9915275,66.0207258 24.5886121,66.0207258 C29.1469973,66.0207258 34.4476164,68.5183998 38.7671343,72.7022415 C41.5029289,75.3521224 43.5469353,78.3883342 44.6788284,81.4367014 L29.1390896,81.4367014 L34.0884973,76.6427106 C34.9234423,75.8343754 34.923715,74.5229116 34.0893154,73.7143121 C33.2546431,72.9049199 31.9016068,72.9049199 31.0674798,73.7135193 L23.0940551,81.4369656 L19.5936668,81.4369656 C18.5640285,79.6683524 17.8196132,77.8513818 17.4204102,76.0600433 C16.6528171,72.6197961 17.2464406,69.7410762 19.0913909,67.9537014 Z M53.6688028,127.84397 L55.1170043,124.425126 C56.0618392,124.480354 57.0104916,124.511007 57.9626888,124.511007 L80.6368173,124.511007 C81.5890145,124.511007 82.5379396,124.480354 83.4825018,124.425126 L84.9307032,127.84397 L53.6688028,127.84397 Z M109.325985,109.64229 C101.459451,116.559515 91.2710498,120.369181 80.6370899,120.369181 L57.9629615,120.369181 C47.3290017,120.369181 37.1403277,116.559779 29.2737933,109.64229 C22.0521462,103.291877 17.324427,94.8174373 15.8023293,85.5787919 L122.796904,85.5787919 C121.275352,94.8177016 116.547905,103.292141 109.325985,109.64229 Z M130.794597,92.4183279 L125.530245,92.4183279 C126.237848,90.1925654 126.770664,87.9070827 127.118331,85.5790561 L130.794325,85.5790561 C132.741802,85.5790561 134.325798,87.1130169 134.325798,88.998692 C134.325798,90.8843671 132.741802,92.4183279 130.794597,92.4183279 Z" id="Shape" fill="#000000"></path>
            </g>
            <g id="toaster-(3)" transform="translate(0.000000, 135.000000)" fill="#471B40">
                <path d="M34.0339869,0 L8.80756794,0 C3.94330925,0 0,1.11928737 0,2.4996127 C0,3.88071263 3.94330925,5 8.80756794,5 L9.98011696,5 C14.845958,5 29.6580608,5 38.9277249,5 C48.197389,5 93.1196074,5 103.5,5 C113.880393,5 134.216512,5 139.080771,5 L198.192432,5 C203.056691,5 207,3.88071263 207,2.4996127 C207,1.11928737 203.056691,0 198.192432,0 L193.780736,0 L34.0339869,0 Z" id="path-1_122_"></path>
            </g>
        </g>
    </g>
</svg>