<?xml version="1.0" encoding="UTF-8"?>
<svg width="112px" height="63px" viewBox="0 0 112 63" version="1.1" xmlns="http://www.w3.org/2000/svg" xmlns:xlink="http://www.w3.org/1999/xlink">
    <!-- Generator: Sketch 48.2 (47327) - http://www.bohemiancoding.com/sketch -->
    <title>dumbbell</title>
    <desc>Created with Sketch.</desc>
    <defs></defs>
    <g id="Style-Guide" stroke="none" stroke-width="1" fill="none" fill-rule="evenodd" transform="translate(-367.000000, -3289.000000)">
        <g id="dumbbell" transform="translate(367.000000, 3289.000000)" fill="#8BA8B7" fill-rule="nonzero">
            <path d="M110.000814,22 C108.89589,22 108,23.0126955 108,24.2589135 C108,27.7162979 108,34.2878721 108,37.7431716 C108,38.9893896 108.896123,40 110.003139,40 C111.108063,40 112,38.989181 112,37.7431716 C112,34.2899571 112,27.7181744 112,24.2568284 C112,23.0126955 111.105737,22 110.000814,22 Z" id="Shape"></path>
            <path d="M2.00104511,22 C0.897404633,22 0,23.0126837 0,24.2588873 C0,27.7201932 0,34.2816833 0.00232247576,37.7390277 C0.00232247576,38.9852313 0.897404633,39.99583 2.00104511,40 C3.10491784,40 3.99767752,38.9891928 3.99767752,37.7431977 C3.99767752,34.2879383 3.99767752,27.7183167 4,24.2570108 C3.99976775,23.0126837 3.10491784,22 2.00104511,22 Z" id="Shape"></path>
            <path d="M25.5642451,0 C21.9401491,0 19,3.24438244 19,7.24409209 C19,19.3690346 19.0022859,43.63565 19.0045718,55.756131 C19.0045718,59.7558406 21.9401491,63 25.5644737,63 C29.1887984,63 32.1287189,59.7536099 32.1287189,55.756131 C32.1287189,51.0010941 32.1287189,44.3693391 32.1287189,37.3425207 C35.9126007,37.3425207 69.7807773,37.3425207 79.8756244,37.3425207 C79.8756244,44.3715698 79.8756244,51.0010941 79.8756244,55.7583617 C79.8756244,59.7558406 82.8155449,63 86.4400981,63 C90.0641942,63 93,59.7536099 93,55.756131 C93,43.6311885 93,19.3645731 93,7.24409209 C93,3.24237478 90.0639656,3.17006652e-15 86.4400981,3.17006652e-15 C82.8157735,3.17006652e-15 79.8756244,3.24014404 79.8756244,7.24409209 C79.8756244,11.9989059 79.8756244,18.6286533 79.8756244,25.6572563 C69.7768912,25.6572563 35.9126007,25.6572563 32.1287189,25.6572563 C32.1287189,18.6286533 32.1287189,11.9986828 32.1287189,7.24186135 C32.1287189,3.24036712 29.1908557,0 25.5642451,0 Z" id="Shape"></path>
            <path d="M100.833521,11 C100.609742,11 100.388588,11 100.1629,11 C97.3131778,11 95,13.2232556 95,15.97404 C95,24.6313533 95,42.3642775 95,51.0213608 C95,53.7700755 97.3129392,56 100.16457,56 C100.388349,56 100.614275,56 100.83543,56 C103.687061,56 106,53.7767444 106,51.02573 C106,42.3707164 106,24.6357225 105.998091,15.9781793 C106.000477,13.2276249 103.685152,11 100.833521,11 Z" id="Shape"></path>
            <path d="M11.8378199,11 C11.6141971,11 11.3881877,11 11.1645649,11 C8.31188263,11 6,13.2232556 6,15.97404 C6,24.6313533 6,42.3642775 6,51.0213608 C6,53.7723751 8.31188263,56 11.1645649,56 C11.3881877,56 11.6141971,56 11.8354333,56 C14.6881155,56 16.9999982,53.7767444 16.9999982,51.02573 C16.9999982,42.3707164 16.9999982,24.6357225 16.9999982,15.9781793 C17.0023847,13.2276249 14.6905021,11 11.8378199,11 Z" id="Shape"></path>
        </g>
    </g>
</svg>