<?xml version="1.0" encoding="UTF-8"?>
<svg width="110px" height="63px" viewBox="0 0 110 63" version="1.1" xmlns="http://www.w3.org/2000/svg" xmlns:xlink="http://www.w3.org/1999/xlink">
    <!-- Generator: Sketch 48.2 (47327) - http://www.bohemiancoding.com/sketch -->
    <title>dumbbell</title>
    <desc>Created with Sketch.</desc>
    <defs>
        <linearGradient x1="9.04474776%" y1="78.6821779%" x2="90.9599522%" y2="21.3245343%" id="linearGradient-1">
            <stop stop-color="#FF78A4" offset="0%"></stop>
            <stop stop-color="#FFBE4B" offset="100%"></stop>
        </linearGradient>
    </defs>
    <g id="Style-Guide" stroke="none" stroke-width="1" fill="none" fill-rule="evenodd" transform="translate(-368.000000, -3468.000000)">
        <g id="dumbbell" transform="translate(368.000000, 3468.000000)" fill="url(#linearGradient-1)" fill-rule="nonzero">
            <path d="M108.50061,22 C107.671918,22 107,23.0126955 107,24.2589135 C107,27.7162979 107,34.2878721 107,37.7431716 C107,38.9893896 107.672092,40 108.502354,40 C109.331047,40 110,38.989181 110,37.7431716 C110,34.2899571 110,27.7181744 110,24.2568284 C110,23.0126955 109.329303,22 108.50061,22 Z" id="Shape"></path>
            <path d="M1.50078384,22 C0.673053475,22 0,23.0126837 0,24.2588873 C0,27.7201932 0,34.2816833 0.00174185682,37.7390277 C0.00174185682,38.9852313 0.673053475,39.99583 1.50078384,40 C2.32868838,40 2.99825814,38.9891928 2.99825814,37.7431977 C2.99825814,34.2879383 2.99825814,27.7183167 3,24.2570108 C2.99982581,23.0126837 2.32868838,22 1.50078384,22 Z" id="Shape"></path>
            <path d="M24.4755391,0 C20.9004173,0 18,3.24438244 18,7.24409209 C18,19.3690346 18.002255,43.63565 18.0045101,55.756131 C18.0045101,59.7558406 20.9004173,63 24.4757646,63 C28.0511119,63 30.9513037,59.7536099 30.9513037,55.756131 C30.9513037,51.0010941 30.9513037,44.3693391 30.9513037,37.3425207 C34.684052,37.3425207 68.0945506,37.3425207 78.0529808,37.3425207 C78.0529808,44.3715698 78.0529808,51.0010941 78.0529808,55.7583617 C78.0529808,59.7558406 80.9531726,63 84.5287454,63 C88.1038672,63 91,59.7536099 91,55.756131 C91,43.6311885 91,19.3645731 91,7.24409209 C91,3.24237478 88.1036417,3.17006652e-15 84.5287454,3.17006652e-15 C80.9533981,3.17006652e-15 78.0529808,3.24014404 78.0529808,7.24409209 C78.0529808,11.9989059 78.0529808,18.6286533 78.0529808,25.6572563 C68.090717,25.6572563 34.684052,25.6572563 30.9513037,25.6572563 C30.9513037,18.6286533 30.9513037,11.9986828 30.9513037,7.24186135 C30.9513037,3.24036712 28.0531414,0 24.4755391,0 Z" id="Shape"></path>
            <path d="M98.3032012,10 C98.0997658,10 97.8987161,10 97.6935456,10 C95.1028889,10 93,12.2232556 93,14.97404 C93,23.6313533 93,41.3642775 93,50.0213608 C93,52.7700755 95.102672,55 97.6950638,55 C97.8984992,55 98.1038865,55 98.3049362,55 C100.897328,55 103,52.7767444 103,50.02573 C103,41.3707164 103,23.6357225 102.998265,14.9781793 C103.000434,12.2276249 100.895593,10 98.3032012,10 Z" id="Shape"></path>
            <path d="M11.307109,10 C11.1038155,10 10.8983524,10 10.695059,10 C8.10171148,10 6,12.2232556 6,14.97404 C6,23.6313533 6,41.3642775 6,50.0213608 C6,52.7723751 8.10171148,55 10.695059,55 C10.8983524,55 11.1038155,55 11.3049393,55 C13.8982868,55 15.9999983,52.7767444 15.9999983,50.02573 C15.9999983,41.3707164 15.9999983,23.6357225 15.9999983,14.9781793 C16.0021679,12.2276249 13.9004565,10 11.307109,10 Z" id="Shape"></path>
        </g>
    </g>
</svg>