<?xml version="1.0" encoding="UTF-8"?>
<svg width="70px" height="85px" viewBox="0 0 70 85" version="1.1" xmlns="http://www.w3.org/2000/svg" xmlns:xlink="http://www.w3.org/1999/xlink">
    <!-- Generator: Sketch 48.2 (47327) - http://www.bohemiancoding.com/sketch -->
    <title>female-worker</title>
    <desc>Created with Sketch.</desc>
    <defs></defs>
    <g id="Style-Guide" stroke="none" stroke-width="1" fill="none" fill-rule="evenodd" transform="translate(-1379.000000, -3278.000000)">
        <g id="female-worker" transform="translate(1379.000000, 3278.000000)" fill="#8DADBD" fill-rule="nonzero">
            <path d="M69.8705326,72.0280008 C69.8169862,71.4258942 69.7460615,70.8255004 69.6572157,70.2273544 C69.6571071,70.226498 69.3023753,68.2861629 69.2340574,67.9901941 C68.4451974,64.5793275 66.294867,62.0783108 63.3898899,60.1381898 C62.8466051,59.7754273 62.2827923,59.4606192 61.711811,59.1649716 C60.959228,58.7750206 49.5855463,55.0915202 49.2894659,55 C49.359413,55.3832074 49.4072029,55.8071974 49.4229519,56.2675814 C51.0066456,57.3636829 55.6747459,61.319389 53.5549359,68.7213923 C53.5549359,68.7213923 50.2037744,64.7845254 46.7849468,64.2785419 C43.5287135,69.8725129 37.9855141,76.9534998 34.9999457,78.8120554 C32.0144859,76.9534998 26.4713951,69.8724059 23.2151618,64.2783278 C19.7961169,64.7845254 16.4451727,68.7211782 16.4451727,68.7211782 C14.3253627,61.319496 18.9933544,57.3636829 20.5771567,56.2675814 C20.5929057,55.8071974 20.6406957,55.3832074 20.7105341,55 C20.4144537,55.0915202 9.0406634,58.7751276 8.28818895,59.1647575 C7.71742492,59.4606192 7.15350354,59.7752132 6.61011011,60.1381898 C3.70513298,62.0780967 1.55480257,64.5791134 0.766051206,67.9900871 C0.697516077,68.2865911 0.342892943,70.2268192 0.342892943,70.2272473 C0.254047086,70.8256074 0.183013846,71.4260013 0.129575995,72.0281078 C0.127295112,72.0531554 -0.000108544111,75.1866784 6.94063583e-08,75.2046613 C6.94063583e-08,75.2046613 0.0328013516,76.6729449 0.0512656495,77.0235047 C0.153362356,78.9711186 0.567940151,80.7824691 2.01032766,82.2917495 C3.84839421,84.2143157 6.08105367,85.0013894 8.69939973,84.9999979 C17.4661398,84.9960373 26.2332057,84.9949669 34.9999457,84.9947528 C43.7671202,84.9949669 52.5339688,84.9960373 61.3006003,84.9999979 C63.9188377,85.0014964 66.1516058,84.2143157 67.9896723,82.2917495 C69.4319512,80.7824691 69.8466376,78.9713327 69.9486257,77.0235047 C69.9671986,76.6729449 69.9999999,75.2046613 69.9999999,75.2046613 C70.0001085,75.1866784 69.8729221,72.0530484 69.8705326,72.0280008 Z" id="Shape"></path>
            <path d="M13.9545849,37.2267393 C14.2257797,38.216711 14.3992925,39.1482047 14.3926938,40.0325882 C14.3904221,40.3272733 14.3681381,40.6168212 14.3228127,40.9013411 C14.0776881,41.7382863 12.332392,44.5591099 12.0537331,45.0330546 C15.1290413,48.3832404 19.2019398,49.160396 23.2188036,50.0155951 C24.4064574,50.2683074 25.6172606,50.4201314 26.9040027,50.5883512 C27.3189622,50.6645365 27.7368423,50.7429079 28.1574269,50.8237933 L26.1165966,56.8517229 C26.1165966,56.8517229 26.0585066,65.6475727 34.4737676,71 L34.5264488,71 C42.9417098,65.6472448 42.8837279,56.8517229 42.8837279,56.8517229 L40.8428976,50.8240119 C41.2634822,50.7431265 41.6813624,50.6647551 42.0963218,50.5885698 C43.3831721,50.4203501 44.5938672,50.2683074 45.7815209,50.0160324 C49.7984929,49.1606146 53.8712832,48.383459 56.9466996,45.0334919 C56.6681489,44.5593285 54.9226364,41.7385049 54.6775118,40.9015597 C54.6320783,40.6169305 54.6099024,40.327492 54.6076307,40.0328068 C54.6009239,39.1484233 54.7745448,38.2169296 55.0456315,37.2269579 C55.3034126,36.2859547 55.6002449,35.3494329 55.8832308,34.408539 C57.2428829,31.3470267 58,27.9482004 58,24.3688029 C58,11.0591107 47.530495,0.243858544 34.5262324,0.00185817806 L34.5262324,0 C34.5173621,0.000109304592 34.5087081,0.000655827551 34.4998377,0.000765132143 C34.4909674,0.000655827551 34.4824216,0.000218609184 34.4735512,0 L34.4735512,0.00163956888 C21.469505,0.243639935 11,11.0588921 11,24.3685843 C11,27.9477632 11.7571171,31.3466988 13.1168774,34.4083204 C13.3999715,35.3492143 13.6969119,36.2855174 13.9545849,37.2267393 Z" id="Shape"></path>
        </g>
    </g>
</svg>