<?xml version="1.0" encoding="UTF-8"?>
<svg width="100px" height="94px" viewBox="0 0 100 94" version="1.1" xmlns="http://www.w3.org/2000/svg" xmlns:xlink="http://www.w3.org/1999/xlink">
    <!-- Generator: Sketch 48.2 (47327) - http://www.bohemiancoding.com/sketch -->
    <title>fitness (1)</title>
    <desc>Created with Sketch.</desc>
    <defs></defs>
    <g id="Style-Guide" stroke="none" stroke-width="1" fill="none" fill-rule="evenodd" transform="translate(-610.000000, -3736.000000)">
        <g id="fitness-(1)" transform="translate(610.000000, 3736.000000)" fill-rule="nonzero">
            <rect id="Rectangle-path" fill="#F9CD4D" transform="translate(42.500000, 42.500000) rotate(135.000000) translate(-42.500000, -42.500000) " x="8" y="38" width="69" height="9"></rect>
            <rect id="Rectangle-path" fill="#6CCBAD" transform="translate(67.000000, 17.500000) rotate(135.000000) translate(-67.000000, -17.500000) " x="64" y="-1" width="6" height="37"></rect>
            <rect id="Rectangle-path" fill="#6CCBAD" transform="translate(72.000000, 13.500000) rotate(135.000000) translate(-72.000000, -13.500000) " x="69" y="1" width="6" height="25"></rect>
            <g id="Group" transform="translate(2.000000, 1.000000)">
                <rect id="Rectangle-path" fill="#6CCBAD" transform="translate(74.146176, 7.786165) rotate(135.000000) translate(-74.146176, -7.786165) " x="70.9966785" y="0.00829763507" width="6.29899475" height="15.5557357"></rect>
                <rect id="Rectangle-path" fill="#6ACAAC" transform="translate(15.697687, 65.522371) rotate(-45.000000) translate(-15.697687, -65.522371) " x="12.5481892" y="46.8555462" width="6.29899475" height="37.3336492"></rect>
            </g>
            <rect id="Rectangle-path" fill="#6ACAAC" transform="translate(13.000000, 72.500000) rotate(-45.000000) translate(-13.000000, -72.500000) " x="10" y="60" width="6" height="25"></rect>
            <rect id="Rectangle-path" fill="#6ACAAC" transform="translate(9.000000, 76.000000) rotate(-45.000000) translate(-9.000000, -76.000000) " x="6" y="68" width="6" height="16"></rect>
            <path d="M99,78.4114987 L76.976392,56.2690629 L79.1914061,54.0420779 L74.4352184,49.2601858 L59.2570614,34 L36,57.3825554 L52.6122147,74.0845491 C54.4472383,75.92949 57.4222334,75.92949 59.2570614,74.0845491 L61.4720755,71.8575642 L83.4954879,94 L99,78.4114987 Z" id="Shape" fill="#EAEAEA"></path>
            <path d="M55,50.6057073 L57.1512647,52.7372009 C59.5274188,55.0915171 63.3799795,55.0915171 65.7561336,52.7372009 L67.9073984,50.6057073 L74.3610026,57 L78.6633421,52.7372009 C80.4455526,50.9713696 80.4455526,48.1085512 78.6633421,46.3429082 L75.436445,43.1456677 L71.1341055,38.8828686 C69.9460284,37.7057105 68.0198431,37.7057105 66.831766,38.8828686 L55,50.6057073 Z" id="Shape" fill="#EAEAEA"></path>
            <path d="M60.1047755,37.9434511 L57.9434511,40.1047755 C56.7498184,41.2984082 54.8146259,41.2984082 53.6209933,40.1047755 L43.8952245,30.3790067 C42.7015918,29.1853741 42.7015918,27.2501816 43.8952245,26.0565489 L46.0565489,23.8952245 C47.2501816,22.7015918 49.1853741,22.7015918 50.3790067,23.8952245 L60.1047755,33.6209933 C61.2984082,34.8146259 61.2984082,36.7500093 60.1047755,37.9434511 Z" id="Shape" fill="#EAEAEA"></path>
            <path d="M53.1047755,44.9434511 L50.9434511,47.1047755 C49.7498184,48.2984082 47.8146259,48.2984082 46.6209933,47.1047755 L36.8952245,37.3790067 C35.7015918,36.1853741 35.7015918,34.2501816 36.8952245,33.0565489 L39.0565489,30.8952245 C40.2501816,29.7015918 42.1853741,29.7015918 43.3790067,30.8952245 L53.1047755,40.6209933 C54.2984082,41.8146259 54.2984082,43.7500093 53.1047755,44.9434511 Z" id="Shape" fill="#EAEAEA"></path>
            <path d="M46.1047755,51.9434511 L43.9434511,54.1047755 C42.7498184,55.2984082 40.8146259,55.2984082 39.6209933,54.1047755 L29.8952245,44.3790067 C28.7015918,43.1853741 28.7015918,41.2501816 29.8952245,40.0565489 L32.0565489,37.8952245 C33.2501816,36.7015918 35.1853741,36.7015918 36.3790067,37.8952245 L46.1047755,47.6209933 C47.2984082,48.8146259 47.2984082,50.7500093 46.1047755,51.9434511 Z" id="Shape" fill="#EAEAEA"></path>
            <path d="M40.1047755,58.9434511 L37.9434511,61.1047755 C36.7498184,62.2984082 34.8146259,62.2984082 33.6209933,61.1047755 L23.8952245,51.3790067 C22.7015918,50.1853741 22.7015918,48.2501816 23.8952245,47.0565489 L26.0565489,44.8952245 C27.2501816,43.7015918 29.1853741,43.7015918 30.3790067,44.8952245 L40.1047755,54.6209933 C41.2984082,55.8146259 41.2984082,57.7496276 40.1047755,58.9434511 Z" id="Shape" fill="#EAEAEA"></path>
            <path d="M61.752673,69.5904199 C61.1831874,69.0200649 60.2598127,69.0196756 59.6905213,69.5904199 C59.6303097,69.6507647 57.4906598,71.7951439 57.4906598,71.7951439 C56.2539903,73.0343521 54.1900906,73.0343521 52.9536153,71.7949492 L40.7860076,59.600447 L40.8547654,59.5315372 C41.6798591,58.7048144 42.14951,57.6166626 42.1891331,56.4535666 C43.3032427,56.4132719 44.4055043,55.97295 45.2542942,55.1224786 L47.4539615,52.9179494 L47.4539615,52.9177547 C48.3025572,52.0670886 48.741908,50.9623907 48.7819196,49.8458186 C49.9424505,49.8061078 51.0280081,49.3356136 51.8532961,48.5085015 L54.0531576,46.3039722 C54.8782514,45.4770547 55.3480964,44.3890976 55.3875253,43.2258069 C56.501635,43.1855122 57.6040907,42.7449956 58.4528807,41.8945243 L60.652548,39.6898003 C61.0586852,39.2827654 61.3778069,38.8116871 61.603115,38.3003142 L63.0584887,39.7589048 L53.0907425,49.748683 C52.5292204,50.311641 52.5292204,51.2528241 53.0907425,51.8155874 L55.290604,54.0201167 C56.7411219,55.4740354 58.6696426,56.2746737 60.7213058,56.2746737 C62.7727747,56.2746737 64.7014896,55.4740354 66.1522018,54.0203113 L67.3206961,52.8490396 L69.1301531,54.6626907 C69.6996387,55.2332404 70.6230134,55.2332404 71.1923048,54.6626907 C71.7617904,54.0917517 71.7617904,53.1665307 71.1923048,52.5957864 L68.3518691,49.7490723 C67.7823835,49.1785226 66.8590088,49.1785226 66.2897174,49.7490723 L64.0900501,51.9536016 C62.2537892,53.7941159 59.189405,53.7941159 57.3531441,51.9536016 L56.1846498,50.7825245 L67.2523268,39.6903843 C67.8965914,39.044501 68.9452451,39.0448903 69.5897039,39.6903843 L77.289025,47.4069181 C78.5256945,48.646321 78.5256945,50.7143934 77.289025,51.9537963 L75.639226,53.6072419 C75.3212697,53.925901 74.9242613,54.2358004 74.7589706,54.6673626 C74.5544453,55.2011215 74.6857455,55.8211149 75.0893577,56.2254246 L79.8249064,60.9712457 C80.4180882,61.565544 81.4193495,61.5254439 81.9647505,60.8873471 C82.4536302,60.3154348 82.4180859,59.4363483 81.8872523,58.9043413 L78.1828766,55.1919724 L79.3513709,54.0208953 C80.5082114,52.8616925 81.1452894,51.3199819 81.1452894,49.6805519 C81.1452894,48.0407325 80.5084056,46.4994112 79.3513709,45.3402084 L71.6518556,37.6232853 C69.8703679,35.8380545 66.9716628,35.8378599 65.1899809,37.6232853 L65.1212231,37.692195 L60.5841786,33.1451222 L68.1044186,25.60826 L76.9722341,34.4956762 C77.533562,35.0582449 78.4730579,35.0582449 79.0343858,34.4956762 L83.4339146,30.0862283 C84.0034002,29.5152893 84.0034002,28.5900683 83.4339146,28.019324 L79.9682489,24.545998 L83.3643798,21.1425552 C83.925902,20.5797919 83.925902,19.6384141 83.3643798,19.0756508 L81.1930703,16.899542 L84.5728858,13.5120613 C85.1423714,12.9411223 85.1423714,12.0159013 84.5728858,11.4451569 L73.5737724,0.421926467 C73.0124445,-0.140642156 72.0729486,-0.140642156 71.5116207,0.421926467 L68.1318052,3.80940715 L65.7660703,1.4384432 C65.2047424,0.875874574 64.2652466,0.875874574 63.7039187,1.4384432 L60.307982,4.84208069 L57.0367417,1.56360985 C56.4754138,1.00104123 55.5359179,1.00104123 54.97459,1.56360985 L50.5746727,5.97227911 C50.0051871,6.54321813 50.0051871,7.46843912 50.5746727,8.03918348 L59.4424882,16.9265998 L51.9220539,24.463462 L50.7535596,23.2923849 C48.9718776,21.5069595 46.0733668,21.5069595 44.2916849,23.2923849 L42.0918233,25.4971089 C41.2667296,26.3240263 40.7970788,27.4121781 40.7574556,28.5754688 C39.643346,28.6155688 38.5410844,29.0560854 37.6922945,29.9063621 L35.492433,32.1110861 C34.6438373,32.9617521 34.2044865,34.06645 34.1644749,35.1830222 C33.003944,35.2227329 31.9183864,35.6932272 31.0929042,36.5203393 L28.8930426,38.7250633 C28.0679489,39.5519807 27.5981038,40.6399378 27.5586749,41.8034232 C26.4445653,41.8437179 25.3421095,42.2842344 24.4933196,43.1345112 L22.2936523,45.3390404 C21.4306835,46.2039167 20.9554,47.3539705 20.9554,48.5772166 C20.9554,49.8004627 21.4308777,50.9505165 22.2936523,51.8153927 L23.4621466,52.9864698 L16.9299603,59.5330945 L8.06195058,50.6454836 C7.49265921,50.0751285 6.56928452,50.0747392 5.99979891,50.6454836 L1.6002701,55.0551261 C1.03874796,55.6180841 1.03874796,56.5592672 1.6002701,57.1220305 L4.96862596,60.4978316 L1.58803354,63.8860909 C1.0265114,64.4490488 1.0265114,65.390232 1.58803354,65.9529953 L3.85645864,68.2264343 L0.427114206,71.6635534 C-0.142371402,72.2344925 -0.142371402,73.1597134 0.427114206,73.7304578 L11.4260334,84.7536882 C11.987944,85.3166462 12.9264687,85.3166462 13.488185,84.7536882 L16.9177237,81.3165692 L19.1861488,83.5900082 C19.7480594,84.1529662 20.6865841,84.1529662 21.2483005,83.5900082 L24.6290871,80.2017489 L27.997443,83.57755 C28.5587709,84.1401186 29.4982668,84.1401186 30.0595947,83.57755 L34.4591235,79.1681021 C35.0286091,78.597163 35.0286091,77.6719421 34.4591235,77.1011977 L25.591308,68.2139761 L32.1233002,61.6675461 L32.192058,61.7364558 C33.0828019,62.6291685 34.2528501,63.0753302 35.4230925,63.0753302 C36.5933349,63.0753302 37.7633831,62.6291685 38.6543212,61.7362612 L38.7228848,61.6675461 L50.8904925,73.8618536 C52.0471387,75.0212511 53.5854491,75.6599319 55.2212635,75.6599319 C56.8572721,75.6599319 58.3953883,75.0216404 59.5520345,73.8620483 L60.7207231,72.6909712 L81.5623036,93.5786185 C82.1552912,94.1727221 83.156941,94.1330114 83.7021477,93.4949145 C84.1910274,92.9228076 84.1554831,92.0439158 83.6248438,91.5117142 L61.752673,69.5904199 Z M72.5431821,3.5218937 L81.4799496,12.4784144 L79.1425725,14.8207633 L70.205805,5.86443724 L72.5431821,3.5218937 Z M64.7350916,4.53841043 L80.2710552,20.1087137 L77.9336781,22.4512572 L62.3977145,6.88095396 L64.7350916,4.53841043 Z M12.4570121,81.6535263 L3.52043883,72.6972003 L5.85781597,70.3546568 L14.7945835,79.3113721 L12.4570121,81.6535263 Z M53.6681916,7.00612062 L56.0055687,4.66357709 L80.34059,29.0525815 L78.0032128,31.395125 L53.6681916,7.00612062 Z M61.5050283,18.9940881 L66.0420727,23.5411609 L58.5218327,31.0778285 L53.9847883,26.5307557 L61.5050283,18.9940881 Z M44.1543635,27.5642079 L46.3540308,25.3596786 C46.9899434,24.7223604 48.055301,24.7221657 48.6914079,25.3596786 L58.5905905,35.2807417 C59.102778,35.7940613 59.220482,36.6163069 58.8697006,37.2520678 C58.8304659,37.3231189 56.3911175,39.8278145 56.3911175,39.8278145 C55.7470471,40.4733085 54.6981991,40.4736978 54.0537403,39.8278145 L44.1545577,29.9067514 C43.5172854,29.2684599 43.5172854,28.2026941 44.1543635,27.5642079 Z M37.5549731,34.1781851 L39.7548346,31.9736558 C40.3907473,31.3363376 41.4562991,31.3363376 42.0922118,31.9736558 L51.9913944,41.8947189 C52.6282782,42.5330104 52.6282782,43.5985816 51.9913944,44.2370678 L49.7915329,46.4417917 C49.1548433,47.0800833 48.0910395,47.0798886 47.45435,46.4415971 L37.5551673,36.5209233 C36.9105143,35.8748453 36.9105143,34.8240684 37.5549731,34.1781851 Z M30.9555828,40.7923569 L33.1554443,38.587633 C33.7923281,37.9493415 34.8559376,37.9493415 35.4928214,38.5878277 L45.3920041,48.5085015 C46.0362687,49.1541901 46.0362687,50.2053564 45.3920041,50.8512396 L43.1923368,53.0557689 C42.547878,53.7012629 41.4994184,53.7018469 40.8549596,53.0557689 L30.955777,43.1347058 C30.3185047,42.496025 30.3185047,41.4306485 30.9555828,40.7923569 Z M20.2177102,80.490041 L4.68155239,64.9197377 L7.01892954,62.5771942 L22.5548931,78.1474975 L20.2177102,80.490041 Z M31.3663816,78.1350392 L29.0290044,80.4775827 L4.69378895,56.0885783 L7.0311661,53.7460348 L31.3663816,78.1350392 Z M23.5297391,66.1472664 L18.9925004,61.5999989 L25.5246868,55.0533742 L30.0619254,59.6006417 L23.5297391,66.1472664 Z M38.7922253,57.4646329 L36.592558,59.6693568 C35.9484876,60.3148508 34.8996396,60.3154348 34.2551808,59.6693568 L24.3559982,49.7482937 C23.7189202,49.1098075 23.7193086,48.044431 24.3559982,47.4057502 L26.5556655,45.2012209 C27.1915781,44.5639026 28.25713,44.5639026 28.8930426,45.2012209 L38.7922253,55.122284 C39.4293033,55.7609648 39.4293033,56.826536 38.7922253,57.4646329 Z" id="Shape" fill="#000000"></path>
            <path d="M99.5734052,74.6144201 L82.5143174,58.4102499 C81.9391006,57.86325 81.0064332,57.86325 80.4314126,58.4102499 C79.8561958,58.9576229 79.8561958,59.8446547 80.4314126,60.3918411 L97.4905004,76.5960114 C98.0894557,77.1655929 99.101186,77.1275213 99.6518796,76.5157623 C100.145483,75.9672695 100.109581,75.1248413 99.5734052,74.6144201 Z" id="Shape" fill="#000000"></path>
        </g>
    </g>
</svg>