<?xml version="1.0" encoding="UTF-8"?>
<svg width="85px" height="82px" viewBox="0 0 85 82" version="1.1" xmlns="http://www.w3.org/2000/svg" xmlns:xlink="http://www.w3.org/1999/xlink">
    <!-- Generator: Sketch 48.2 (47327) - http://www.bohemiancoding.com/sketch -->
    <title>website-home-page</title>
    <desc>Created with Sketch.</desc>
    <defs>
        <linearGradient x1="9.04474776%" y1="78.6821779%" x2="90.9599522%" y2="21.3245343%" id="linearGradient-1">
            <stop stop-color="#E835FF" offset="0%"></stop>
            <stop stop-color="#6162FF" offset="100%"></stop>
        </linearGradient>
    </defs>
    <g id="Style-Guide" stroke="none" stroke-width="1" fill="none" fill-rule="evenodd" transform="translate(-143.000000, -3279.000000)">
        <g id="website-home-page" transform="translate(143.000000, 3279.000000)" fill="#8BA8B7" fill-rule="nonzero">
            <path d="M83.1496353,37.1099839 L46.9669903,1.80544023 C44.499863,-0.601813409 40.500137,-0.601813409 38.0330097,1.80544023 L1.85036472,37.1099839 C0.0436408108,38.8728612 -0.496581917,41.5240885 0.480918998,43.8274402 C1.45889214,46.1307919 3.76239429,47.6324169 6.31735502,47.6324169 L11.2194985,47.6324169 L11.2194985,74.0281178 C11.2194985,78.4311641 14.8775714,82 19.3896589,82 L65.6103411,82 C70.1224286,82 73.7805015,78.4309337 73.7805015,74.0281178 L73.7805015,47.6324169 L78.682645,47.6324169 C81.2376057,47.6324169 83.541344,46.1305615 84.519081,43.8274402 C85.4965819,41.5240885 84.9563592,38.8728612 83.1496353,37.1099839 Z M52.0462173,70.4392387 L32.9537827,70.4392387 L32.9537827,59.9377704 C32.9537827,54.7933572 37.2278701,50.6232262 42.5,50.6232262 C47.7721299,50.6232262 52.0462173,54.7931268 52.0462173,59.9377704 L52.0462173,70.4392387 Z" id="Shape"></path>
        </g>
    </g>
</svg>