<?xml version="1.0" encoding="UTF-8"?>
<svg width="84px" height="82px" viewBox="0 0 84 82" version="1.1" xmlns="http://www.w3.org/2000/svg" xmlns:xlink="http://www.w3.org/1999/xlink">
    <!-- Generator: Sketch 48.2 (47327) - http://www.bohemiancoding.com/sketch -->
    <title>website-home-page</title>
    <desc>Created with Sketch.</desc>
    <defs>
        <linearGradient x1="9.04474776%" y1="78.6821779%" x2="90.9599522%" y2="21.3245343%" id="linearGradient-1">
            <stop stop-color="#E835FF" offset="0%"></stop>
            <stop stop-color="#6162FF" offset="100%"></stop>
        </linearGradient>
    </defs>
    <g id="Style-Guide" stroke="none" stroke-width="1" fill="none" fill-rule="evenodd" transform="translate(-143.000000, -3458.000000)">
        <g id="website-home-page" transform="translate(143.000000, 3458.000000)" fill="url(#linearGradient-1)" fill-rule="nonzero">
            <path d="M82.1714043,37.1099839 L46.4144375,1.80544023 C43.9763352,-0.601813409 40.0236648,-0.601813409 37.5855625,1.80544023 L1.82859573,37.1099839 C0.0431273895,38.8728612 -0.490739777,41.5240885 0.475261127,43.8274402 C1.4417287,46.1307919 3.71813083,47.6324169 6.24303319,47.6324169 L11.0875044,47.6324169 L11.0875044,74.0281178 C11.0875044,78.4311641 14.7025411,82 19.1615453,82 L64.8384547,82 C69.2974589,82 72.9124956,78.4309337 72.9124956,74.0281178 L72.9124956,47.6324169 L77.7569668,47.6324169 C80.2818692,47.6324169 82.5585046,46.1305615 83.5247389,43.8274402 C84.4907398,41.5240885 83.9568726,38.8728612 82.1714043,37.1099839 Z M51.4339088,70.4392387 L32.5660912,70.4392387 L32.5660912,59.9377704 C32.5660912,54.7933572 36.7898951,50.6232262 42,50.6232262 C47.2101049,50.6232262 51.4339088,54.7931268 51.4339088,59.9377704 L51.4339088,70.4392387 Z" id="Shape"></path>
        </g>
    </g>
</svg>