<?xml version="1.0" encoding="UTF-8"?>
<svg width="196px" height="136px" viewBox="0 0 196 136" version="1.1" xmlns="http://www.w3.org/2000/svg" xmlns:xlink="http://www.w3.org/1999/xlink">
    <!-- Generator: Sketch 48.2 (47327) - http://www.bohemiancoding.com/sketch -->
    <title>Group 2</title>
    <desc>Created with Sketch.</desc>
    <defs></defs>
    <g id="Style-Guide" stroke="none" stroke-width="1" fill="none" fill-rule="evenodd" transform="translate(-643.000000, -4590.000000)">
        <g id="Group-2" transform="translate(643.000000, 4590.000000)" fill-rule="nonzero">
            <g id="chicken" transform="translate(32.000000, 0.000000)">
                <path d="M108.132046,65.1705556 L93.4035088,59.754386 L93.4035088,112.614035 L114.245614,112.614035 C114.245614,112.614035 114.245614,93.0397272 114.245614,90.2723354 C114.245614,81.1079055 112.01489,72.5281512 108.132046,65.1705556 Z" id="Shape" fill="#975D50"></path>
                <path d="M98.4406928,59.7549538 L32.4545969,59.754386 L21.0812625,65.4325167 C16.5171434,73.1459735 13.8947368,82.1409844 13.8947368,91.7492334 L13.8947368,108.783626 L107.298246,108.783626 C107.298246,108.783626 107.298246,97.7172327 107.298246,91.7492334 C107.298246,79.6744044 103.98889,68.5645737 98.4406928,59.7549538 Z" id="Shape" fill="#B1786B"></path>
                <path d="M60.9821812,38.3040936 C42.5747976,38.3040936 26.485727,48.8993627 17.754386,64.6923608 C18.1885198,64.6362374 18.6495979,64.6027397 19.1505427,64.6027397 C26.1222533,64.6027397 26.1222533,70.4795322 33.093964,70.4795322 C40.0653997,70.4795322 40.0653997,64.6027397 47.0368353,64.6027397 C54.008546,64.6027397 54.008546,70.4795322 60.9802566,70.4795322 C67.9516923,70.4795322 67.9516923,64.6027397 74.923128,64.6027397 C81.8948386,64.6027397 81.8948386,70.4795322 88.8665492,70.4795322 C95.8379849,70.4795322 95.8379849,64.6027397 102.809421,64.6027397 C103.31229,64.6027397 103.775018,64.6365313 104.210526,64.6932423 C95.4791853,48.8993627 79.3898398,38.3040936 60.9821812,38.3040936 Z" id="Shape" fill="#975D50"></path>
                <path d="M109.677081,113.380117 L96.4912281,127.169591 L104.14748,127.169591 C108.358419,127.169591 112.893217,124.45264 114.224895,121.131923 L117.333333,113.380117 L109.677081,113.380117 Z" id="Shape" fill="#FDCE6E"></path>
                <path d="M10.8070175,113.380117 L14.2920553,121.131923 C15.7850706,124.45264 20.8692771,127.169591 25.5903873,127.169591 L103.321893,127.169591 C108.043004,127.169591 113.12721,124.45264 114.620225,121.131923 L118.105263,113.380117 L10.8070175,113.380117 Z" id="Shape" fill="#FDFA7B"></path>
                <path d="M127.775593,106.48538 L8.08405629,106.48538 C5.75105703,106.48538 3.85964912,108.886383 3.85964912,111.847953 C3.85964912,114.809524 5.75105703,117.210526 8.08405629,117.210526 L127.775593,117.210526 C130.108592,117.210526 132,114.809524 132,111.847953 C132,108.886383 130.108592,106.48538 127.775593,106.48538 Z" id="Shape" fill="#FEFDCA"></path>
                <path d="M128.140351,48.1483122 C128.140351,45.2965562 125.810993,42.9848937 122.937407,42.9848937 C122.584908,42.9848937 121.548222,42.9848937 120.335936,42.9848937 C120.335936,41.7818172 120.335936,40.7530061 120.335936,40.4031845 C120.335936,37.5514285 118.006578,35.2397661 115.132992,35.2397661 C112.259407,35.2397661 109.930049,37.5516867 109.930049,40.4031845 L109.930049,46.0096243 L103.438857,52.4515051 L103.438596,59.7538696 L110.796859,59.754386 L117.288312,53.3114724 L122.937668,53.3114724 C125.810733,53.3117306 128.140351,51.0000682 128.140351,48.1483122 Z" id="Shape" fill="#FFFFFF"></path>
                <path d="M110.87383,76.6922774 L114.245614,56.9790539 L106.236247,49.0292398 L86.3714082,52.3754798 C76.3418592,54.0602626 68.7017544,62.7174326 68.7017544,73.1507206 C68.7017544,84.7913192 78.2105416,94.2280702 89.9399997,94.2280702 C100.452648,94.2280702 109.175903,86.645845 110.87383,76.6922774 Z" id="Shape" fill="#CB9385"></path>
                <path d="M68.7018771,25.3853751 C68.7188996,29.801315 70.3469047,32.1082377 71.7833159,34.1431109 C72.2776934,34.8436734 73.2074129,35.2397661 74.1664691,35.2397661 C74.6086925,35.2397661 75.057073,35.1554731 75.4717706,34.9781476 C76.7864888,34.4160061 77.2667413,33.1304669 76.5445517,32.1068281 C75.2580836,30.284238 74.1472734,28.7100163 74.1345971,25.372407 C74.1219208,22.0353615 75.2211411,20.4557834 76.4938463,18.6267092 C77.9150459,16.584788 79.5253041,14.2702536 79.5086437,9.85459561 C79.4916212,5.4389376 77.8632539,3.13201495 76.4264806,1.09657789 C75.704291,0.0735029385 74.0527441,-0.300882162 72.7376637,0.261823155 C71.4225833,0.823964639 70.9423308,2.10950384 71.6648826,3.13314262 C72.9517129,4.95601465 74.0628852,6.53051826 74.0755615,9.86756377 C74.0882379,13.2046093 72.9890175,14.7841874 71.7163123,16.6132616 C70.2958371,18.6551827 68.6855789,20.9697171 68.7018771,25.3853751 Z" id="Shape" fill="#AABFCB"></path>
                <path d="M53.2632806,25.3852231 C53.2803026,29.8008229 54.9082531,32.1077152 56.3446161,34.1428435 C56.8386149,34.8433967 57.7686654,35.2397661 58.7276894,35.2397661 C59.169898,35.2397661 59.6182635,35.1557561 60.0329472,34.978151 C61.3479836,34.416017 61.8282199,33.1304947 61.1060545,32.1071513 C59.8196296,30.2840214 58.7088566,28.7098205 58.6961807,25.3722551 C58.6835048,22.0352536 59.7826883,20.4556963 61.0553509,18.6266463 C62.4765028,16.584752 64.086707,14.2702482 64.0700472,9.85464837 C64.0530253,5.43904857 62.4247126,3.13215634 60.9879874,1.0967461 C60.265822,0.0734027318 58.6143305,-0.300977433 57.2992941,0.262002378 C55.9842578,0.824136451 55.5040214,2.1096587 56.226549,3.13328399 C57.5133361,4.95613199 58.6244712,6.53061484 58.6371471,9.86761635 C58.6498231,13.2046179 57.5506395,14.7841751 56.277977,16.6132252 C54.8571872,18.6551195 53.246983,20.9696233 53.2632806,25.3852231 Z" id="Shape" fill="#AABFCB"></path>
                <ellipse id="Oval" fill="#000000" cx="26.6315789" cy="87.7163743" rx="1.92982456" ry="1.91520468"></ellipse>
                <ellipse id="Oval" fill="#000000" cx="37.4385965" cy="94.6111111" rx="1.92982456" ry="1.91520468"></ellipse>
                <path d="M125.680851,104.921296 L119.361702,104.921296 L119.361702,92.5682261 C119.361702,83.3964833 116.89274,74.4072914 112.227523,66.5125815 L113.134111,61.2924485 L119.050238,55.5090156 L124.276596,55.5090156 C128.535421,55.5090156 132,52.1223528 132,47.9599172 C132,43.7974815 128.535421,40.4108187 124.276596,40.4108187 L123.574468,40.4108187 L123.574468,39.724537 C123.574468,35.5621014 120.109889,32.1754386 115.851064,32.1754386 C111.592238,32.1754386 108.12766,35.5621014 108.12766,39.724537 L108.12766,44.8329433 L102.211813,50.6152782 L98.5351915,51.2252454 C89.1449362,44.1474852 77.9173532,40.4105442 66.0002809,40.4105442 C46.5628596,40.4105442 29.5222213,50.6226901 20.1920681,65.8446922 C20.0766383,65.9874387 19.9817106,66.1452835 19.9081277,66.3135598 C15.2895319,74.0298365 12.6382979,83.0014596 12.6382979,92.5682261 L12.6382979,98.7447612 C12.6382979,99.8820672 13.5813957,100.803606 14.7446809,100.803606 C15.907966,100.803606 16.8510638,99.8820672 16.8510638,98.7447612 L16.8510638,92.5682261 C16.8510638,84.050647 19.1335404,76.045583 23.1278043,69.1015105 C23.1752681,69.1009615 23.2213277,69.0973928 23.2693532,69.0973928 C26.0994894,69.0973928 27.4175234,70.1136387 29.0863404,71.4002796 C30.9284426,72.8203336 33.2207489,74.5876462 37.5121532,74.5876462 C41.8035574,74.5876462 44.0958638,72.8203336 45.937966,71.4002796 C47.6065021,70.1136387 48.924817,69.0973928 51.7546723,69.0973928 C54.5848085,69.0973928 55.9028426,70.1136387 57.5716596,71.4002796 C59.0972426,72.5765664 60.9359745,73.987836 63.959617,74.4388603 C63.9191745,74.9873366 63.8930553,75.5396561 63.8930553,76.0974659 C63.8930553,88.5850473 74.2870723,98.7447612 87.0632681,98.7447612 C98.4057191,98.7447612 108.010826,90.8198549 109.901796,79.901388 L111.042332,73.3342213 C113.73766,79.3671863 115.148374,85.915137 115.148374,92.5682261 L115.148374,104.921296 L6.31914894,104.921296 C2.83462979,104.921296 0,107.692227 0,111.097831 C0,114.503436 2.83462979,117.274366 6.31914894,117.274366 L9.01363404,117.274366 L10.5498894,121.779394 C12.3130723,126.94984 18.0623745,131 23.6381106,131 L108.361609,131 C113.937626,131 119.686647,126.94984 121.44983,121.779394 L122.986085,117.274366 L125.68057,117.274366 C129.165089,117.274366 131.999719,114.503436 131.999719,111.097831 C131.999719,107.692227 129.16537,104.921296 125.680851,104.921296 Z M60.180766,68.1670693 C58.3386638,66.7470153 56.0463574,64.9797027 51.7549532,64.9797027 C47.4635489,64.9797027 45.1712426,66.7470153 43.3291404,68.1670693 C41.6606043,69.4537102 40.3422894,70.4699561 37.512434,70.4699561 C34.6822979,70.4699561 33.3642638,69.4537102 31.6954468,68.1670693 C30.2268766,67.0349791 28.4684681,65.6849258 25.6431064,65.1828421 C34.5297957,52.7092609 49.3048085,44.5285088 66.0002809,44.5285088 C75.611566,44.5285088 84.7347319,47.1679481 92.6614723,52.2000399 L83.1732,53.77437 C73.9885277,55.2940722 66.8790638,61.9120236 64.6392766,70.3785434 C62.6963489,70.1029327 61.5566553,69.2277863 60.180766,68.1670693 Z M87.0638298,94.6270712 C76.6105532,94.6270712 68.106383,86.3148275 68.106383,76.0974659 C68.106383,75.0161605 68.2032766,73.955718 68.3847064,72.9219033 C68.3928511,72.8823735 68.3984681,72.8420201 68.4040851,72.8016668 C69.7875574,65.2199013 75.8696681,59.1589361 83.8767319,57.8341379 L102.505583,54.7433998 L103.721949,55.9328632 C104.133396,56.3352987 104.67263,56.536242 105.211864,56.536242 C105.750817,56.536242 106.28977,56.3355732 106.700936,55.9336867 C107.523549,55.1296391 107.524111,53.8262529 106.701498,53.0222053 L106.204391,52.5360434 L111.723115,47.1418694 C112.118272,46.7556301 112.340145,46.2321344 112.340145,45.6858542 L112.340145,39.724537 C112.340145,37.8323212 113.914877,36.2931287 115.850783,36.2931287 C117.786689,36.2931287 119.361421,37.8323212 119.361421,39.724537 L119.361421,42.4699383 C119.361421,43.6069697 120.304519,44.5285088 121.467804,44.5285088 L124.276315,44.5285088 C126.212221,44.5285088 127.786953,46.0677013 127.786953,47.9599172 C127.786953,49.852133 126.212221,51.3913255 124.276315,51.3913255 L118.177353,51.3913255 C117.61874,51.3913255 117.082877,51.6081905 116.687719,51.9944299 L109.679643,58.8451681 C109.370706,59.147132 109.165685,59.5355674 109.092664,59.9563954 L105.74857,79.2131847 C104.201923,88.1444544 96.3437106,94.6270712 87.0638298,94.6270712 Z M125.680851,113.156676 L121.518077,113.156676 C121.508809,113.156402 121.499821,113.156676 121.490553,113.156676 L27.3829787,113.156676 C26.2196936,113.156676 25.2765957,114.078215 25.2765957,115.215521 C25.2765957,116.352827 26.2196936,117.274366 27.3829787,117.274366 L118.545549,117.274366 L117.453319,120.477106 C116.269251,123.948868 112.105915,126.88231 108.361609,126.88231 L23.6383915,126.88231 C19.8940851,126.88231 15.7307489,123.948868 14.5466809,120.477106 L13.4544511,117.274366 L18.9574468,117.274366 C20.1207319,117.274366 21.0638298,116.352827 21.0638298,115.215521 C21.0638298,114.078215 20.1207319,113.156676 18.9574468,113.156676 L6.31914894,113.156676 C5.15754894,113.156676 4.21276596,112.233216 4.21276596,111.097831 C4.21276596,109.962447 5.15754894,109.038986 6.31914894,109.038986 L125.680851,109.038986 C126.842451,109.038986 127.787234,109.962447 127.787234,111.097831 C127.787234,112.233216 126.842451,113.156676 125.680851,113.156676 Z" id="Shape" fill="#000000"></path>
                <ellipse id="Oval" fill="#000000" cx="88.3859649" cy="83.8859649" rx="1.92982456" ry="1.91520468"></ellipse>
            </g>
            <g id="toaster-(3)" transform="translate(0.000000, 131.000000)" fill="#471B40">
                <path d="M32.2254176,0 L8.33953293,0 C3.73376142,0 0,1.11928737 0,2.4996127 C0,3.88071263 3.73376142,5 8.33953293,5 L9.44977258,5 C14.0570424,5 28.0820286,5 36.8591018,5 C45.6361751,5 88.1712225,5 98,5 C107.828778,5 127.084233,5 131.690005,5 L187.660467,5 C192.266239,5 196,3.88071263 196,2.4996127 C196,1.11928737 192.266239,0 187.660467,0 L183.483209,0 L32.2254176,0 Z" id="path-1_122_"></path>
            </g>
        </g>
    </g>
</svg>