<?xml version="1.0" encoding="UTF-8"?>
<svg width="50px" height="50px" viewBox="0 0 50 50" version="1.1" xmlns="http://www.w3.org/2000/svg" xmlns:xlink="http://www.w3.org/1999/xlink">
    <!-- Generator: Sketch 48.2 (47327) - http://www.bohemiancoding.com/sketch -->
    <title>magnifying-glass</title>
    <desc>Created with Sketch.</desc>
    <defs></defs>
    <g id="search-breakfast" stroke="none" stroke-width="1" fill="none" fill-rule="evenodd" transform="translate(-549.000000, -317.000000)">
        <g id="magnifying-glass" transform="translate(549.000000, 317.000000)" fill="#8DAAB9" fill-rule="nonzero">
            <path d="M49.5675316,47.4501109 L37.4140608,35.2993348 C40.6742071,31.5521064 42.6480373,26.6629712 42.6480373,21.3192905 C42.6480373,9.55654102 33.0782879,0 21.3240186,0 C9.55866046,0 0,9.56762749 0,21.3192905 C0,33.0709534 9.56974939,42.6385809 21.3240186,42.6385809 C26.6688845,42.6385809 31.559104,40.6651885 35.3071635,37.405765 L47.4606343,49.556541 C47.7489466,49.8447894 48.1370592,50 48.5140829,50 C48.8911067,50 49.2792193,49.8558758 49.5675316,49.556541 C50.1441561,48.9800443 50.1441561,48.0266075 49.5675316,47.4501109 Z M2.98292304,21.3192905 C2.98292304,11.2084257 11.2109115,2.99334812 21.3129297,2.99334812 C31.4260368,2.99334812 39.6429363,11.2195122 39.6429363,21.3192905 C39.6429363,31.4190687 31.4260368,39.6563193 21.3129297,39.6563193 C11.2109115,39.6563193 2.98292304,31.4301552 2.98292304,21.3192905 Z" id="Shape"></path>
        </g>
    </g>
</svg>