<?xml version="1.0" encoding="UTF-8"?>
<svg width="92px" height="85px" viewBox="0 0 92 85" version="1.1" xmlns="http://www.w3.org/2000/svg" xmlns:xlink="http://www.w3.org/1999/xlink">
    <!-- Generator: Sketch 48.2 (47327) - http://www.bohemiancoding.com/sketch -->
    <title>male-student-silhouette</title>
    <desc>Created with Sketch.</desc>
    <defs></defs>
    <g id="Style-Guide" stroke="none" stroke-width="1" fill="none" fill-rule="evenodd" transform="translate(-1606.000000, -3278.000000)">
        <g id="male-student-silhouette" transform="translate(1606.000000, 3278.000000)" fill="#8DADBD" fill-rule="nonzero">
            <path d="M91.0338652,77.1442479 C82.0102902,73.1441138 76.8066463,69.8183885 67.346981,66.681646 C66.6422442,66.4500495 65.7995041,65.9924149 65.5161374,65.4439945 C64.746999,63.9747465 64.2078662,62.4110072 63.6595331,60.8583845 C63.3136049,59.8727099 63.0044775,58.9407657 61.7477276,58.4664562 C61.4109996,58.3386149 61.1037123,57.7679612 61.1110724,57.4029652 C61.175474,53.8085881 59.9076838,51.1980327 61.471721,49.7880734 C64.323789,47.2053097 63.6742535,44.0444811 65.1021275,42.4770362 C66.5281615,40.9095914 70.0573655,29.8022249 69.3820694,28.3755907 C68.7049333,26.9508092 66.3165564,27.6196598 66.8759298,26.9267232 C70.5486572,22.3689047 69.9837638,10.0035063 68.5540497,7.57637532 C66.6588046,4.35255253 58.6196531,-0.0866885131 52.6431907,4.53041862 C44.2286703,-4.52778233 31.5562885,1.62527256 24.4205985,8.81217406 C21.6973336,11.5524234 21.1490006,15.4506551 22.1867853,20.0177374 C22.9430433,23.349021 24.3966779,23.1433633 25.5779861,26.9230176 C25.7233495,27.382505 25.2430981,28.2088412 24.8566889,28.316302 C23.4545755,28.7072368 23.4177746,29.4854009 23.6091392,30.491456 C23.7397823,31.1843926 24.8125278,36.3369507 25.4326226,38.1841642 C25.8999937,39.5552152 26.8016152,40.8503027 27.0518612,42.2491453 C27.5560332,45.0375668 28.7465416,47.4628449 30.9233134,49.5638881 C31.283962,49.9159147 31.5544484,50.5013906 31.5158075,50.9553196 C31.3465235,53.1045348 31.0944375,55.2500445 30.7577095,57.3844375 C30.6933079,57.8068695 30.1817757,58.4201369 29.7696059,58.4979533 C28.1209266,58.7962496 27.8651606,59.8949432 27.4732312,61.0066062 C26.9524988,62.4702959 26.3968056,63.9339855 25.74175,65.3532087 C25.533825,65.7941683 25.0241329,66.251803 24.5218009,66.4481968 C21.5906111,67.5561542 18.6023799,68.5677676 15.6509496,69.6386697 C12.5081548,70.7873881 4.18379649,75.9306824 1.09068282,77.3591694 C-0.732800618,78.2040333 0.281063532,85 0.281063532,85 C36.2410401,85 55.6056613,85 91.5619577,85 C91.5582777,84.9981472 92.8407882,77.9502036 91.0338652,77.1442479 Z" id="Shape"></path>
        </g>
    </g>
</svg>