<?xml version="1.0" encoding="UTF-8"?>
<svg width="74px" height="93px" viewBox="0 0 74 93" version="1.1" xmlns="http://www.w3.org/2000/svg" xmlns:xlink="http://www.w3.org/1999/xlink">
    <!-- Generator: Sketch 48.2 (47327) - http://www.bohemiancoding.com/sketch -->
    <title>popcorn</title>
    <desc>Created with Sketch.</desc>
    <defs></defs>
    <g id="Style-Guide" stroke="none" stroke-width="1" fill="none" fill-rule="evenodd" transform="translate(-2305.000000, -3736.000000)">
        <g id="popcorn" transform="translate(2305.000000, 3736.000000)" fill-rule="nonzero">
            <path d="M59.405224,91 L8.59622471,91 C6.09765004,91 4.03276768,89.0853787 3.8897126,86.6352538 L1,37 L67,37 L64.1117361,86.6352538 C63.968681,89.0853787 61.9037986,91 59.405224,91" id="Shape" fill="#E64C3C"></path>
            <path d="M67.3636364,30 C71.0286252,30 74,27.2664208 74,23.8947368 C74,20.5230528 71.0286252,17.7894737 67.3636364,17.7894737 C67.3636364,14.9398115 65.2334692,12.5664415 62.3632304,11.8933358 C62.3664805,11.8231584 62.3863636,11.7559709 62.3863636,11.6842105 C62.3863636,8.31252653 59.4149888,5.57894737 55.75,5.57894737 C55.6719971,5.57894737 55.598965,5.59723924 55.5226828,5.60022925 C54.7910233,2.95969239 52.2111924,1 49.1136364,1 C46.5951754,1 44.4317422,2.30505452 43.3068182,4.2067054 C42.1818941,2.30487864 40.018461,1 37.5,1 C35.2337101,1 33.2377538,2.04861659 32.0415183,3.64352689 C31.2467682,2.08520033 29.5396902,1 27.5454545,1 C24.7964262,1 22.5681818,3.04992055 22.5681818,5.57894737 C22.5681818,5.65528075 22.5880649,5.72704116 22.5930357,5.80179158 C22.0521774,5.6705826 21.4946861,5.57894737 20.9090909,5.57894737 C17.2441021,5.57894737 14.2727273,8.31252653 14.2727273,11.6842105 C10.6077385,11.6842105 7.63636364,14.4177897 7.63636364,17.7894737 C3.97137485,17.7894737 1,20.5230528 1,23.8947368 C1,27.2664208 3.97137485,30 7.63636364,30 L67.3636364,30 Z" id="Shape" fill="#EEECDE"></path>
            <g id="Group" transform="translate(13.000000, 0.000000)" fill="#D2C1A3">
                <path d="M46.7635473,22.7250608 C46.3984561,22.7250608 46.0301419,22.5937095 45.7364932,22.3293649 C45.093152,21.7516014 45.0310203,20.7509595 45.5982635,20.0940203 C47.0727736,18.3921081 49.1952804,17.4153649 51.4250405,17.4153649 C52.2843209,17.4153649 52.9788716,18.1230203 52.9788716,18.9985135 C52.9788716,19.8723649 52.2843209,20.5816622 51.4250405,20.5816622 C50.0887601,20.5816622 48.813,21.1674527 47.9290101,22.1901689 C47.6228277,22.5446351 47.1923818,22.7250608 46.7635473,22.7250608" id="Shape"></path>
                <path d="M35.1629932,11.0818581 C34.8988885,11.0818581 34.6315608,11.0138108 34.3860777,10.8696892 C33.6433615,10.4311216 33.3885676,9.46386486 33.8204459,8.70713514 C35.2032804,6.26600676 37.7841655,4.74926351 40.5485811,4.74926351 C41.4078615,4.74926351 42.1024122,5.45856081 42.1024122,6.33241216 C42.1024122,7.20626351 41.4078615,7.91556081 40.5485811,7.91556081 C38.8874966,7.91556081 37.3399324,8.82589865 36.5085845,10.2902838 C36.2228142,10.7985405 35.7006926,11.0818581 35.1629932,11.0818581" id="Shape"></path>
                <path d="M7.0864223,17.4120811 C6.54872297,17.4120811 6.02821284,17.1287635 5.74083108,16.6221486 C4.90948311,15.1577635 3.36191892,14.2474257 1.70244595,14.2474257 C0.843165541,14.2474257 0.148614865,13.5397703 0.148614865,12.664277 C0.148614865,11.7904257 0.843165541,11.0811284 1.70244595,11.0811284 C4.46668243,11.0811284 7.04452365,12.5962297 8.42896959,15.0358986 C8.86084797,15.7926284 8.60605405,16.761527 7.86333784,17.2000946 C7.61785473,17.3440338 7.35052703,17.4120811 7.0864223,17.4120811" id="Shape"></path>
                <path d="M3.47042568,26.9704459 C3.07256757,26.9704459 2.67488851,26.8153784 2.37192905,26.5065203 C1.76439865,25.8891689 1.76439865,24.8868851 2.37192905,24.2678919 C4.32505068,22.276277 7.19654054,21.4927297 9.87232432,22.2177162 C10.7004493,22.442473 11.1946385,23.3084797 10.9724324,24.1538716 C10.7518378,25.0009054 9.90347973,25.5011351 9.07052027,25.2763784 C7.46547973,24.8394527 5.74065203,25.3128649 4.56910135,26.5065203 C4.26596284,26.8151959 3.86828378,26.9704459 3.47042568,26.9704459" id="Shape"></path>
                <path d="M32.7776351,18.9976014 C32.4870304,18.9976014 32.1917703,18.9136824 31.929277,18.7394595 C31.2098378,18.2613041 31.0078649,17.2814595 31.478598,16.5484459 C32.3595439,15.172723 34.1185709,14.2766149 35.9597838,14.2607432 C37.7949088,14.1990811 39.315973,15.0729324 40.2808953,16.5278311 C40.7625507,17.2513581 40.5761554,18.2361284 39.8644155,18.7268716 C39.1542872,19.215973 38.1877534,19.0244189 37.7077095,18.3010743 C37.2244426,17.5728041 36.4677601,17.4573243 35.9828818,17.427223 C35.0972804,17.4350676 34.3420304,17.8721757 34.0793581,18.2804595 C33.7814122,18.7442027 33.2841791,18.9976014 32.7776351,18.9976014" id="Shape"></path>
                <path d="M14.1316622,15.8313041 C13.8410574,15.8313041 13.5457973,15.7473851 13.2833041,15.5731622 C12.5638649,15.0950068 12.3618919,14.1151622 12.832625,13.3821486 C13.7135709,12.0064257 15.472598,11.1103176 17.3138108,11.0944459 C19.1054257,11.1150608 20.6716115,11.9066351 21.6349223,13.3615338 C22.1165777,14.0850608 21.9301824,15.0698311 21.2184426,15.5605743 C20.5083142,16.0496757 19.540348,15.8581216 19.0617365,15.134777 C18.5768581,14.4081486 17.8839189,14.2576419 17.3369088,14.2609257 C16.4513074,14.2687703 15.6960574,14.7056959 15.4333851,15.1141622 C15.1354392,15.5779054 14.6382061,15.8313041 14.1316622,15.8313041" id="Shape"></path>
                <path d="M23.4546486,26.9002095 C23.1640439,26.9002095 22.8687838,26.8162905 22.6062905,26.6420676 C21.8868514,26.1639122 21.6848784,25.1840676 22.1556115,24.4510541 C23.0365574,23.0753311 24.7955845,22.179223 26.6367973,22.1633514 C28.361625,22.1775811 29.9929865,22.9755405 30.9579088,24.4304392 C31.4395642,25.1539662 31.2531689,26.1387365 30.5414291,26.6294797 C29.8313007,27.1185811 28.8649459,26.927027 28.384723,26.2036824 C27.9014561,25.4770541 27.1759291,25.3250878 26.6598953,25.3298311 C25.7742939,25.3376757 25.0190439,25.7747838 24.7565507,26.1830676 C24.4584257,26.6468108 23.9611926,26.9002095 23.4546486,26.9002095" id="Shape"></path>
                <path d="M18.7431993,7.21593243 C17.9849054,7.21593243 17.3215101,6.65075676 17.2079899,5.86392568 C16.9841723,4.32675 15.6634696,3.1662973 14.1329155,3.1662973 C13.2736351,3.1662973 12.5790845,2.457 12.5790845,1.58314865 C12.5790845,0.709297297 13.2736351,0 14.1329155,0 C17.1924122,0 19.8354291,2.3225473 20.2814527,5.40164189 C20.4073277,6.26600676 19.8200304,7.07181081 18.9714932,7.19841892 C18.8953953,7.21118919 18.8176858,7.21593243 18.7431993,7.21593243" id="Shape"></path>
            </g>
            <path d="M45,59.5 C45,53.1487423 40.0751161,48 34,48 C27.9248839,48 23,53.1487423 23,59.5 C23,65.8512577 27.9248839,71 34,71 C40.0751161,71 45,65.8512577 45,59.5" id="Shape" fill="#F3D55B"></path>
            <path d="M70.7824153,39 L3.21739936,39 C1.43982144,39 0,37.2099562 0,35 C0,32.7900438 1.43982144,31 3.21739936,31 L70.7826006,31 C72.5601786,31 74,32.7900438 74,35 C73.9998146,37.2101867 72.5599932,39 70.7824153,39" id="Shape" fill="#F3D55B"></path>
            <g id="Group" transform="translate(13.000000, 37.000000)" fill="#FFFFFF">
                <polygon id="Shape" points="42.3709965 55.8162098 49.7696961 55.8162098 51.9908127 0.0495737705 44.5922968 0.0495737705"></polygon>
                <polygon id="Shape" points="0.159674912 0.0495737705 7.55837456 0.0495737705 9.77949117 55.8162098 2.38079152 55.8162098"></polygon>
                <path d="M20.9409329,0.0495737705 L20.9409329,10.6978361 C22.3919717,10.0078426 24.0104028,9.6096 25.7245654,9.6096 C27.4387279,9.6096 29.057159,10.0078426 30.5081979,10.6978361 L30.5081979,0.0495737705 L20.9409329,0.0495737705 Z" id="Shape"></path>
                <path d="M20.9409329,30.828459 L20.9409329,55.8167607 L30.5081979,55.8167607 L30.5081979,30.828459 C29.057159,31.5184525 27.4387279,31.9166951 25.7245654,31.9166951 C24.0104028,31.9166951 22.3919717,31.5184525 20.9409329,30.828459" id="Shape"></path>
            </g>
        </g>
    </g>
</svg>