<?xml version="1.0" encoding="UTF-8"?>
<svg width="89px" height="91px" viewBox="0 0 89 91" version="1.1" xmlns="http://www.w3.org/2000/svg" xmlns:xlink="http://www.w3.org/1999/xlink">
    <!-- Generator: Sketch 48.2 (47327) - http://www.bohemiancoding.com/sketch -->
    <title>pork-roast</title>
    <desc>Created with Sketch.</desc>
    <defs></defs>
    <g id="Style-Guide" stroke="none" stroke-width="1" fill="none" fill-rule="evenodd" transform="translate(-2078.000000, -3737.000000)">
        <g id="pork-roast" transform="translate(2078.000000, 3737.000000)" fill-rule="nonzero">
            <path d="M63,50 C54.1636387,50 47,56.5452815 47,68 L52.8181511,68 C52.8181511,61.4547185 57.3765995,56.5454718 63,56.5454718 C68.6232313,56.5454718 73.1818489,61.4547185 73.1818489,68 L79,68 C79.0001692,56.5454718 71.8363613,50 63,50 Z" id="Shape" fill="#EF9B85"></path>
            <path d="M63.0001828,63.8569719 C65.6039018,63.8569719 67.7144424,65.571514 67.7144424,69 L74,69 C74,62.1430281 69.0749788,57 63,57 C56.9248384,57 52,62.1430281 52,69 L58.2855576,69 C58.286106,65.571514 60.3964638,63.8569719 63.0001828,63.8569719 Z" id="Shape" fill="#E55934"></path>
            <path d="M63.0000969,65 C60.2385079,65 58,67.0002326 58,71 L68,71 C68.0001939,67.0002326 65.761686,65 63.0000969,65 Z" id="Shape" fill="#EF9B85"></path>
            <path d="M83.8424285,63.6562649 C83.1974927,63.431515 82.5363079,63.3709855 81.8824938,63.4093323 C81.8824938,63.3739088 81.8855091,63.339861 81.8855091,63.3044375 C81.8855091,55.9559584 78.6613329,50 74.6850108,50 C70.7088563,50 67.4846801,55.9559584 67.4846801,63.3044375 C67.4846801,63.3604961 67.488868,63.4139752 67.488868,63.4700337 C66.607735,63.3828507 65.7133682,63.4891211 64.8694237,63.8705253 C61.9590046,65.1879002 60.0494922,68.9809632 61.4923056,72.342582 C62.7481714,75.2622672 66.0443794,76.8896835 67.4845126,76.4049322 L67.4845126,84 L79.0050753,84 L79.0050753,76.4269429 C81.8851741,76.9340488 85.4418691,75.043192 86.4962135,71.8545635 C87.6458743,68.3761847 86.8551998,64.7055563 83.8424285,63.6562649 Z" id="Shape" fill="#F5BB00"></path>
            <g id="Group" transform="translate(61.000000, 50.000000)" fill="#F7C933">
                <path d="M9.3218536,28.6215385 C8.64762106,28.8557363 7.55982827,28.5927033 6.47087472,27.9472527 L6.47087472,31.853011 L9.3218536,31.853011 L9.3218536,28.6215385 Z" id="Shape"></path>
                <path d="M3.39155884,24.4678681 C1.96184093,21.031033 3.85204673,17.1525275 6.73453181,15.8055385 C7.56977759,15.4155604 8.45360923,15.3067253 9.32749155,15.396044 C9.32599916,15.3387253 9.3218536,15.2842198 9.3218536,15.2267253 C9.3218536,7.71323077 12.513431,1.62320879 16.4493837,1.62320879 C16.6021059,1.62320879 16.7515115,1.64887912 16.9012489,1.66716484 C15.913281,0.678505495 14.7914947,0.111648352 13.598239,0.111648352 C9.66228632,0.111648352 6.4707089,6.20149451 6.4707089,13.7151648 C6.4707089,13.7724835 6.47485445,13.8271648 6.47485445,13.8846593 C5.60263035,13.7955165 4.71730631,13.9041758 3.88189471,14.2941538 C1.00090203,15.6411429 -0.889303773,19.5194725 0.538921734,22.9566593 C1.51544792,25.3039121 3.73049916,26.8154725 5.33001886,27.1208791 C4.54468553,26.4283077 3.83629364,25.5382857 3.39155884,24.4678681 Z" id="Shape"></path>
                <path d="M24.5048542,15.3582418 C24.2353933,15.0380659 23.9146934,14.7671209 23.5583418,14.5359121 C23.5639797,14.7655385 23.5769139,14.9939341 23.5769139,15.2267253 C23.5769139,15.2629451 23.5739291,15.2977582 23.5739291,15.333978 C23.883353,15.316044 24.1954302,15.3236044 24.5048542,15.3582418 Z" id="Shape"></path>
                <path d="M18.4448865,18.5519121 L15.0238114,21.2726154 L15.0238114,13.7151648 C15.0238114,12.8808791 14.3865572,12.2036044 13.5980732,12.2036044 C12.8097551,12.2036044 12.1728325,12.8808791 12.1728325,13.7155165 L12.1728325,21.272967 L8.7515915,18.5522637 C8.1242866,18.0504615 7.22917905,18.1881319 6.75724944,18.8546813 C6.28382742,19.5226374 6.41233953,20.4703297 7.0424634,20.9707253 L12.1743249,25.0516044 L12.1743249,30.3418022 C12.1743249,31.1760879 12.8112475,31.8533626 13.5998972,31.8533626 C14.388547,31.8533626 15.0254696,31.1760879 15.0254696,30.3418022 L15.0254696,25.0514286 L20.1573311,20.9705495 C20.787455,20.4701538 20.9156354,19.5224615 20.4423792,18.8545055 C19.9689572,18.1863736 19.0733522,18.0502857 18.4448865,18.5519121 Z" id="Shape"></path>
            </g>
            <path d="M85.87698,91 L3.12248447,91 C1.40550178,91 0,89.2002501 0,87.0001163 L0,83 L89,83 L89,86.9998837 C89,89.2002501 87.5941412,91 85.87698,91 Z" id="Shape" fill="#B88C00"></path>
            <g id="Group" transform="translate(21.000000, 83.000000)" fill="#C6A333">
                <rect id="Rectangle-path" x="0.107423077" y="0.168222222" width="6.943125" height="7.64111111"></rect>
                <rect id="Rectangle-path" x="10.5214038" y="0.168222222" width="3.47166346" height="7.64111111"></rect>
                <rect id="Rectangle-path" x="17.4647308" y="0.168222222" width="3.47166346" height="7.64111111"></rect>
            </g>
            <path d="M65.6940896,66.906509 L45.1859496,52.6296035 L45.1843183,52.6340195 C40.7483917,46.2197985 33.2273991,42 24.6933971,42 C11.0548351,42 0,52.7737433 0,66.0655169 C0,79.3553475 11.0550163,83 24.6933971,83 C25.852857,83 26.9836793,82.962022 28.0996391,82.9058499 L28.046714,83 L64.1315284,80.1860944 C65.7520898,80.0601487 67,78.7420468 67,77.1596886 L67,69.3787892 C67,68.3961302 66.5137047,67.4760026 65.6940896,66.906509 Z" id="Shape" fill="#AC4327"></path>
            <path d="M24.5001798,44.8518744 C37.4999853,44.8518744 48.1064196,54.199049 48.921234,66 C48.9536036,65.5380405 49,65.0875263 49,64.5985292 C49,52.1171624 38.0299474,42 24.5,42 C10.9700526,42 0,52.1169966 0,64.5985292 C0,65.0875263 0.0463964063,65.5395333 0.0787659921,66 C0.89376023,54.1988831 11.5003743,44.8518744 24.5001798,44.8518744 Z" id="Shape" fill="#BD6952"></path>
            <path d="M45,67.1958283 C45,77.2452165 36.7175215,80 26.5000915,80 C16.2822954,80 8,77.2453965 8,67.1958283 C8,57.14608 16.2824785,49 26.5000915,49 C36.7177046,49 45,57.14626 45,67.1958283 Z" id="Shape" fill="#E55934"></path>
            <g id="Group" transform="translate(18.000000, 60.000000)" fill="#FAF3F1">
                <path d="M8.26317284,0.167933824 C7.45552593,0.167933824 6.7064321,0.410786765 6.08689136,0.820558824 C5.46752593,0.410617647 4.71860741,0.167933824 3.91078519,0.167933824 C1.78288889,0.167933824 0.0587283951,1.83103676 0.0587283951,3.88361765 C0.0587283951,5.93636765 1.78288889,6.49919118 3.91078519,6.49919118 C4.7184321,6.49919118 5.46752593,6.41632353 6.08689136,6.20238971 C6.7064321,6.41615441 7.45552593,6.49919118 8.26317284,6.49919118 C10.3910691,6.49919118 12.1152296,5.93653676 12.1152296,3.88361765 C12.1152296,1.83103676 10.3910691,0.167933824 8.26317284,0.167933824 Z" id="Shape"></path>
                <path d="M70.8904321,10.6019853 C70.8904321,7.79175735 68.5288494,5.51357353 65.6155704,5.51357353 C62.7024667,5.51357353 60.340884,7.79175735 60.340884,10.6019853 C60.340884,10.8505882 60.3831333,11.088875 60.4176691,11.3288529 L48.2843827,11.3288529 L48.2843827,17.1441324 L60.4176691,17.1441324 C60.382958,17.3841103 60.340884,17.6225662 60.340884,17.871 C60.340884,20.6812279 62.7024667,22.9594118 65.6155704,22.9594118 C68.5288494,22.9594118 70.8904321,20.6813971 70.8904321,17.871 C70.8904321,16.4446618 70.2782543,15.1595368 69.2988049,14.2363235 C70.2782543,13.3132794 70.8904321,12.0283235 70.8904321,10.6019853 Z" id="Shape"></path>
            </g>
            <path d="M50.6572337,68 C48.5312264,72.1920528 48.3676183,77.5140362 50.6511276,82.0036 C52.9346368,86.4933676 57.0797942,88.9932754 61.3425841,89 C63.468771,84.808151 63.6323791,79.4859638 61.3490494,74.9964 C59.065181,70.5068362 54.9202033,68.0073359 50.6572337,68 Z" id="Shape" fill="#9BC53D"></path>
            <path d="M58.5467883,82 C58.0435969,82 57.5549565,81.7335261 57.2857643,81.2558124 L52.19497,72.2327547 C51.793466,71.5199068 52.0320335,70.6103634 52.7272633,70.1994846 C53.4211395,69.7886058 54.3111148,70.0329168 54.7143109,70.7442064 L59.8051051,79.7672642 C60.20644,80.4804583 59.9680417,81.3898285 59.2728119,81.8005342 C59.0443962,81.9361086 58.7939849,82 58.5467883,82 Z" id="Shape" fill="#AFD164"></path>
            <path d="M33.6571863,68 C31.5312772,72.1920528 31.3676628,77.5140362 33.6509003,82.0036 C35.9343174,86.4933676 40.0799927,88.9932754 44.3425867,89 C46.4686754,84.808151 46.6324693,79.4859638 44.3490523,74.9964 C42.0638392,70.5068362 37.9199599,68.0073359 33.6571863,68 Z" id="Shape" fill="#9BC53D"></path>
            <path d="M44.5470344,82 C44.0436679,82 43.5550218,81.7335398 43.2858264,81.2558506 L38.1949723,72.2332557 C37.7934635,71.5204444 38.0320339,70.6109477 38.7272718,70.2000899 C39.4242018,69.7878471 40.3113112,70.0335307 40.7141736,70.7447838 L45.8050277,79.7673787 C46.2065365,80.4805363 45.9679661,81.3898598 45.2727282,81.8005444 C45.044479,81.9361119 44.7942339,82 44.5470344,82 Z" id="Shape" fill="#AFD164"></path>
            <g id="Group" transform="translate(14.000000, 0.000000)" fill="#E55934">
                <path d="M13.2300772,33.1390176 C12.8159018,33.1390176 12.4033684,32.9777269 12.0944702,32.657674 L4.11237895,24.3664626 C1.35637895,21.4428194 -0.0771789474,17.6466167 0.0625824561,13.6669075 C0.202526316,9.68719824 1.89936842,5.99828194 4.84019649,3.28234802 C9.82489825,-1.31814097 17.6626667,-1.05100881 22.3132912,3.88470485 C24.1719719,5.85830396 25.1442807,8.42938326 25.0503158,11.1267137 C24.9547088,13.8222379 23.8065123,16.3219736 21.8129965,18.1619163 C18.3950456,21.3183744 13.0198877,21.1321586 9.83274386,17.7488458 C9.24140351,17.1215639 9.27570526,16.1386476 9.90955789,15.5547137 C10.5432281,14.9693348 11.5345123,15.0050969 12.1258526,15.6309339 C14.1365193,17.7643789 17.5198035,17.8790705 19.6736982,15.8901189 C21.0537965,14.6155066 21.8507649,12.8841145 21.9166316,11.0178018 C21.9824982,9.15148899 21.3096,7.36880176 20.0218246,6.00424229 C16.5522386,2.32291189 10.7048842,2.121163 6.9829614,5.55540969 C4.65372632,7.70601322 3.31084912,10.6265859 3.19955088,13.7770837 C3.08989474,16.9274009 4.2253193,19.9334053 6.39782456,22.238978 L14.3689684,30.5179075 C14.9666947,31.1390485 14.9429754,32.1217841 14.3156912,32.7134846 C14.0080702,32.9961498 13.6192561,33.1390176 13.2300772,33.1390176 Z" id="Shape"></path>
                <path d="M19.504014,39.3497048 C19.1024281,39.3497048 18.7008421,39.1976256 18.3948632,38.8947313 L16.8262877,37.3419692 C16.2128702,36.7347357 16.2128702,35.7536256 16.8262877,35.1465727 C17.4397053,34.5393392 18.4309895,34.5393392 19.0440421,35.1465727 L20.6126175,36.6993348 C21.2260351,37.3063877 21.2260351,38.287859 20.6126175,38.8947313 C20.3070035,39.1978062 19.9056,39.3497048 19.504014,39.3497048 Z" id="Shape"></path>
                <path d="M40.3572912,40.9351586 C39.9682947,40.9351586 39.5792982,40.7924714 39.2766035,40.5065551 C38.6491368,39.9152159 38.6254175,38.9322996 39.2233263,38.3111586 L46.0260211,31.2465154 C47.8233965,29.3382996 48.7694316,26.8369383 48.6767439,24.2127577 C48.5827789,21.5885771 47.4657825,19.1571145 45.5257263,17.367022 C44.035607,15.99 42.0844211,15.2646432 40.0564211,15.3408634 C38.0189333,15.4107621 36.1317895,16.261467 34.7422035,17.7367445 C33.6866947,18.856207 33.1360421,20.3155903 33.1893193,21.8452335 C33.2425965,23.376141 33.8952421,24.7938018 35.0261053,25.8370441 C36.7685614,27.4456167 39.5070456,27.3495286 41.1307228,25.6275286 C41.7235228,25.0018722 42.7131649,24.9659295 43.3484772,25.551489 C43.9806877,26.1352423 44.0166316,27.117978 43.4254737,27.7454405 C40.6209404,30.7220044 35.8904,30.8805859 32.8882667,28.1088414 C31.143986,26.4986432 30.1373754,24.3124581 30.053993,21.9539648 C29.970793,19.5938458 30.8212211,17.3440837 32.4476351,15.6190132 C34.409586,13.5368634 37.0712561,12.3366652 39.9465825,12.2371454 C42.7996491,12.1253436 45.5614877,13.1532335 47.665207,15.0954053 C50.2170386,17.4524537 51.6881825,20.6511762 51.8106105,24.104207 C51.9330386,27.5572379 50.687593,30.8506035 48.308,33.3768899 L41.4930807,40.4541762 C41.1838175,40.7736872 40.7712842,40.9351586 40.3572912,40.9351586 Z" id="Shape"></path>
            </g>
        </g>
    </g>
</svg>