<?xml version="1.0" encoding="UTF-8"?>
<svg width="72px" height="70px" viewBox="0 0 72 70" version="1.1" xmlns="http://www.w3.org/2000/svg" xmlns:xlink="http://www.w3.org/1999/xlink">
    <!-- Generator: Sketch 48.2 (47327) - http://www.bohemiancoding.com/sketch -->
    <title>restaurant (1)</title>
    <desc>Created with Sketch.</desc>
    <defs>
        <linearGradient x1="9.04474776%" y1="78.6821779%" x2="90.9599522%" y2="21.3245343%" id="linearGradient-1">
            <stop stop-color="#E835FF" offset="0%"></stop>
            <stop stop-color="#6162FF" offset="100%"></stop>
        </linearGradient>
    </defs>
    <g id="Style-Guide" stroke="none" stroke-width="1" fill="none" fill-rule="evenodd" transform="translate(-624.000000, -3464.000000)">
        <g id="restaurant-(1)" transform="translate(624.000000, 3464.000000)" fill="url(#linearGradient-1)" fill-rule="nonzero">
            <path d="M22.5648526,43.3631155 C22.2578759,43.3885845 21.9516368,43.4016828 21.6446601,43.4016828 C20.8048627,43.4016828 19.9880775,43.2814691 19.1882565,43.0988198 L0.681293555,61.3583613 C-0.227097852,62.2532699 -0.227097852,63.706896 0.681293555,64.6019502 L5.47107416,69.3287094 C6.37946557,70.2237635 7.85121306,70.2237635 8.75709673,69.3287094 L31,47.3879484 L26.8778679,43 L22.5648526,43.3631155 Z" id="XMLID_98_"></path>
            <path d="M71.3381949,15.4762922 C70.4581546,14.5966962 69.0339181,14.5966962 68.1540272,15.4762922 L56.0022068,27.6278687 C54.8523851,28.7764999 52.9899221,28.7764999 51.8401003,27.6278687 C50.6953604,26.4801343 50.6953604,24.6191574 51.8401003,23.4717219 L63.9318365,11.3824719 C64.8453566,10.4680509 64.8453566,8.98566644 63.9318365,8.0691529 C63.0139819,7.15592757 61.5322021,7.15592757 60.6186819,8.0691529 L48.5318781,20.1572072 C47.3820564,21.3070341 45.5216858,21.3070341 44.3718641,20.1572072 C43.2244338,19.0099212 43.2244338,17.1475991 44.3718641,16.0012099 L56.5211436,3.85082909 C57.4035754,2.96988799 57.4035754,1.54295473 56.5211436,0.66081792 C55.6411033,-0.22027264 54.214326,-0.22027264 53.3318942,0.66081792 L39.6622733,14.3312481 C36.3757233,17.6199055 35.3375507,22.2361026 36.4015804,26.4364908 L45.5651797,35.6007294 C49.7652498,36.6608779 54.383668,35.6222522 57.6664815,32.3362851 L71.3380454,18.6666023 C72.2206266,17.7856612 72.2206266,16.3572333 71.3381949,15.4762922 Z" id="XMLID_97_"></path>
            <path d="M5.93394992,1.70065856 C5.48138631,1.24813186 4.86940016,1 4.24095191,1 C4.10723337,1 3.97279281,1.01140338 3.84152915,1.03334407 C3.07690748,1.16267866 2.42087797,1.65331286 2.08383794,2.35166187 C-1.78475781,10.344568 -0.168005363,19.9086872 6.11185622,26.1863222 L17.3466684,37.4151911 C18.4551171,38.524495 19.9538911,39.1385456 21.5082608,39.1385456 C21.6744703,39.1385456 21.8411131,39.1316169 22.0073227,39.117904 L28.530217,38.5614477 L56.9737098,69.2335194 C57.4152987,69.7102963 58.0339274,69.9871531 58.6856248,70 C58.6990544,70 58.7130616,70 58.7272133,70 C59.3643258,70 59.9742903,69.7484038 60.4269983,69.2991971 L65.2983387,64.4287974 C65.7484474,63.9798793 66,63.3705922 66,62.7356114 C66,62.1007749 65.7484474,61.4910547 65.3002159,61.0421367 L5.93394992,1.70065856 Z" id="XMLID_96_"></path>
        </g>
    </g>
</svg>