<?xml version="1.0" encoding="UTF-8"?>
<svg width="74px" height="72px" viewBox="0 0 74 72" version="1.1" xmlns="http://www.w3.org/2000/svg" xmlns:xlink="http://www.w3.org/1999/xlink">
    <!-- Generator: Sketch 48.2 (47327) - http://www.bohemiancoding.com/sketch -->
    <title>restaurant (1)</title>
    <desc>Created with Sketch.</desc>
    <defs></defs>
    <g id="Style-Guide" stroke="none" stroke-width="1" fill="none" fill-rule="evenodd" transform="translate(-625.000000, -3284.000000)">
        <g id="restaurant-(1)" transform="translate(625.000000, 3284.000000)" fill="#8DADBD" fill-rule="nonzero">
            <path d="M22.5648526,45.3631155 C22.2578759,45.3885845 21.9516368,45.4016828 21.6446601,45.4016828 C20.8048627,45.4016828 19.9880775,45.2814691 19.1882565,45.0988198 L0.681293555,63.3583613 C-0.227097852,64.2532699 -0.227097852,65.706896 0.681293555,66.6019502 L5.47107416,71.3287094 C6.37946557,72.2237635 7.85121306,72.2237635 8.75709673,71.3287094 L31,49.3879484 L26.8778679,45 L22.5648526,45.3631155 Z" id="XMLID_98_"></path>
            <path d="M73.3198114,15.9061892 C72.4153255,15.00216 70.9515269,15.00216 70.0471947,15.9061892 L57.5578237,28.3953095 C56.3760625,29.5758471 54.4618643,29.5758471 53.2801031,28.3953095 C52.1035649,27.2156936 52.1035649,25.3030229 53.2801031,24.1237142 L65.7077208,11.6986517 C66.6466165,10.7588301 66.6466165,9.23526829 65.7077208,8.29329604 C64.7643703,7.35470334 63.2414299,7.35470334 62.3025342,8.29329604 L49.8799858,20.7171296 C48.6982246,21.8988962 46.7861771,21.8988962 45.6044159,20.7171296 C44.4251125,19.5379745 44.4251125,17.6239213 45.6044159,16.445688 L58.0911754,3.95779656 C58.9981191,3.05238488 58.9981191,1.58581458 58.0911754,0.679173974 C57.1866895,-0.226391325 55.7202795,-0.226391325 54.8133358,0.679173974 L40.7640031,14.7293383 C37.38616,18.1093474 36.3191493,22.8537722 37.4127354,27.1708377 L46.8308791,36.5896385 C51.1476179,37.6792356 55.8943254,36.6117592 59.2683282,33.2345153 L73.3196578,19.185119 C74.2267551,18.2797073 74.2267551,16.8116009 73.3198114,15.9061892 Z" id="XMLID_97_"></path>
            <path d="M6.11376658,1.7209675 C5.64748892,1.25532409 5.01695775,1 4.36946561,1 C4.23169499,1 4.09318047,1.01173392 3.95793912,1.03431057 C3.1701471,1.16739398 2.49423791,1.67224946 2.14698455,2.39084047 C-1.83884138,10.615425 -0.173096434,20.456765 6.29706399,26.9163605 L17.872325,38.4707039 C19.0143631,39.6121615 20.5585545,40.2440107 22.1600263,40.2440107 C22.3312725,40.2440107 22.502965,40.2368812 22.6742112,40.2227708 L29.394769,39.6501853 L58.7001859,71.2113026 C59.1551562,71.7018991 59.7925313,71.9867808 60.4639771,72 C60.4778136,72 60.4922453,72 60.5068258,72 C61.1632448,72 61.791693,71.7411112 62.2581195,71.278884 L67.2770762,66.2673132 C67.7408246,65.8053831 68,65.1784354 68,64.5250494 C68,63.8718118 67.7408246,63.2444186 67.2790104,62.7824885 L6.11376658,1.7209675 Z" id="XMLID_96_"></path>
        </g>
    </g>
</svg>