<?xml version="1.0" encoding="UTF-8"?>
<svg width="74px" height="68px" viewBox="0 0 74 68" version="1.1" xmlns="http://www.w3.org/2000/svg" xmlns:xlink="http://www.w3.org/1999/xlink">
    <!-- Generator: Sketch 48.2 (47327) - http://www.bohemiancoding.com/sketch -->
    <title>sent-mail</title>
    <desc>Created with Sketch.</desc>
    <defs></defs>
    <g id="Style-Guide" stroke="none" stroke-width="1" fill="none" fill-rule="evenodd" transform="translate(-1846.000000, -3286.000000)">
        <g id="sent-mail" transform="translate(1846.000000, 3286.000000)" fill="#8DADBD" fill-rule="nonzero">
            <path d="M73.6232358,0.272560805 C73.2938311,-0.0143016686 72.8250543,-0.0808555196 72.4277334,0.102112658 L0.640071325,33.2191332 C0.253590445,33.3974887 0.00471180127,33.7803381 6.60665967e-05,34.2033834 C-0.00457966808,34.6264286 0.236113633,35.0145496 0.618833681,35.2010322 L20.9346314,45.1002037 C21.3071751,45.2818539 21.7513958,45.2407795 22.0841189,44.9938932 L41.8366766,30.3357919 L26.3300992,46.1725334 C26.1088737,46.3985529 25.9960487,46.7080393 26.0203835,47.0221383 L27.564316,66.9858775 C27.598606,67.4282519 27.8972604,67.8064886 28.321792,67.9450876 C28.4352807,67.9819887 28.5518665,68 28.667125,68 C28.9832561,68 29.2907595,67.8653548 29.5046846,67.6193471 L40.287656,55.2130943 L53.6175961,61.5368084 C53.906959,61.6740894 54.2418944,61.6798003 54.535903,61.5528428 C54.8299116,61.4256656 55.0537918,61.1783401 55.1498037,60.8747842 L73.9491009,1.42725914 C74.0805088,1.01212125 73.9524193,0.559423278 73.6232358,0.272560805 Z" id="Shape"></path>
        </g>
    </g>
</svg>