<?xml version="1.0" encoding="UTF-8"?>
<svg width="95px" height="88px" viewBox="0 0 95 88" version="1.1" xmlns="http://www.w3.org/2000/svg" xmlns:xlink="http://www.w3.org/1999/xlink">
    <!-- Generator: Sketch 48.2 (47327) - http://www.bohemiancoding.com/sketch -->
    <title>Group 2</title>
    <desc>Created with Sketch.</desc>
    <defs></defs>
    <g id="Style-Guide" stroke="none" stroke-width="1" fill="none" fill-rule="evenodd" transform="translate(-865.000000, -3739.000000)">
        <g id="Group-2" transform="translate(865.000000, 3739.000000)" fill-rule="nonzero">
            <g id="running-shoes" transform="translate(10.000000, 59.000000)" fill="#000000">
                <path d="M40.100751,23.7000552 L8.0201502,23.7000552 C7.48547352,23.7000552 7.12895278,23.3373802 7.12895278,22.7934739 C7.12895278,22.2495676 7.48547352,21.8868926 8.0201502,21.8868926 L40.100751,21.8868926 C40.6354277,21.8868926 40.9919484,22.2495676 40.9919484,22.7934739 C40.9919484,23.3373802 40.6354277,23.7000552 40.100751,23.7000552 Z M29.4072174,12.8219292 L0.891197419,12.8219292 C0.356520739,12.8219292 0,12.4592541 0,11.9153478 C0,11.3714415 0.356520739,11.0087665 0.891197419,11.0087665 L29.4072174,11.0087665 C29.9418941,11.0087665 30.2984148,11.3714415 30.2984148,11.9153478 C30.2984148,12.4592541 29.9418941,12.8219292 29.4072174,12.8219292 Z M18.7136838,1.9438031 L4.45556938,1.9438031 C3.9208927,1.9438031 3.56437196,1.58112808 3.56437196,1.03722178 C3.56437196,0.493315475 3.9208927,0.130640452 4.45556938,0.130640452 L18.7136838,0.130640452 C19.2483605,0.130640452 19.6048812,0.493315475 19.6048812,1.03722178 C19.6048812,1.58112808 19.2483605,1.9438031 18.7136838,1.9438031 Z" id="Shape"></path>
            </g>
            <g id="running-1">
                <path d="M2.67608869,32.8372426 C2.17069227,33.63484 2.17020286,34.6939314 2.75814627,35.5041527 C3.21933273,36.1396075 3.93631699,36.4765166 4.6634157,36.4765166 C4.86521536,36.4765166 5.06783071,36.4488097 5.2657151,36.3960191 C6.53263199,37.951539 8.11684908,39.7229759 10.1105384,41.8388634 C9.74054517,42.690563 9.89095688,43.7185047 10.5725406,44.4293747 C11.0350321,44.9118678 11.6518506,45.154508 12.2694849,45.154508 C12.5623146,45.154508 12.8554706,45.0999139 13.1324762,44.9905619 C14.59793,46.4980457 16.2341876,48.1573435 18.0634355,49.9992771 C17.7118766,50.8570428 17.8825172,51.88023 18.5763361,52.5770006 C19.0363806,53.0383447 19.6390063,53.2698365 20.241632,53.2698365 C20.5478389,53.2698365 20.854209,53.2095044 21.1416552,53.0899877 C22.6715479,54.6228831 24.3146572,56.2656224 26.0841972,58.0341082 C25.7347592,58.8922018 25.9078468,59.9145692 26.6028077,60.6097004 C27.0623628,61.0694051 27.6635202,61.2989295 28.2645145,61.2989295 C28.5723528,61.2989295 28.8797017,61.2381055 29.1686162,61.1176052 C30.7251001,62.6741088 32.366578,64.317176 34.1015331,66.0561515 C33.7499743,66.914409 33.9211043,67.9377601 34.6152495,68.6340389 C35.0751309,69.0952191 35.6772671,69.3262191 36.2794034,69.3262191 C36.5862629,69.3262191 36.8927961,69.265723 37.1805686,69.1457145 C37.4484385,69.4149139 37.718266,69.6857527 37.9900512,69.9590508 C39.4820962,71.4585012 41.0529361,72.8222043 42.6903357,74.0667186 C42.4722224,74.9900626 42.8206816,75.9940681 43.6453359,76.5639445 C44.0530136,76.8462596 44.5182785,76.9813511 44.9784861,76.9813511 C45.450929,76.9813511 45.9181515,76.8380623 46.3134309,76.5657479 C48.4240889,77.8832183 50.6238195,79.0359228 52.8927198,80.0504209 C52.8826054,80.9983568 53.4413474,81.8992403 54.3692669,82.2738569 C54.6573657,82.3897668 54.9539476,82.4450166 55.2461248,82.4450166 C55.8931236,82.4450166 56.5120629,82.170243 56.95612,81.6974227 C59.2302407,82.5320719 61.5590121,83.2491719 63.9238367,83.8738063 C64.065439,84.7979701 64.7463701,85.5886818 65.7070801,85.8183702 C65.8904454,85.8623077 66.0734843,85.8828009 66.2542394,85.8828009 C67.0180438,85.8828009 67.7293183,85.5053972 68.16685,84.8919111 C70.4969265,85.3989962 72.8508208,85.8321416 75.2128721,86.2111848 C75.438979,87.1104288 76.181902,87.8301519 77.152237,87.9745884 C77.2693689,87.9916388 77.3853588,88 77.5005331,88 C78.3392171,88 79.1002481,87.5481647 79.5178772,86.8472954 C80.4841338,86.9787802 81.449901,87.103707 82.4141999,87.2235516 C83.1179702,87.3106069 83.8135835,87.3552003 84.4808112,87.3552003 C90.6380665,87.3552003 93.7927972,83.7974074 94.692331,80.4674996 C95.7569588,76.5250893 94.0006329,72.4207004 90.3217451,70.2539897 C80.5079517,64.4747281 75.6871094,59.568807 71.5599229,50.8947504 C71.4853696,50.5065262 71.3170129,50.1524027 71.0786707,49.856808 C68.4410822,44.0536104 66.0232383,36.6011156 62.6627927,26.2415298 L62.4246136,25.5077073 C62.1260741,24.5869864 61.2702608,23.9400554 60.308572,23.8771001 C60.308572,23.8771001 60.2304297,23.8721817 60.086054,23.8721817 C59.3103407,23.8721817 52.8023423,24.1095756 51.2301973,31.9248829 C50.5967388,32.1227658 49.9189073,32.222445 49.2032281,32.222445 C42.9004553,32.222445 34.6229169,24.5996103 32.267228,18.3590045 C31.795764,17.1102276 31.1763352,14.8621996 32.324652,13.8398322 C35.2020509,11.2773557 36.235846,7.93531584 35.0899763,4.90018295 C34.000878,2.01489673 31.0725805,0 27.9689115,0 C26.6075386,0 25.2582379,0.384289499 24.0662006,1.11139015 C17.7420568,4.96920423 4.69326965,16.6980673 0.311916706,24.3781192 C0.0298539576,24.8729083 -0.0652545342,25.4536051 0.0443730927,26.012989 C0.52627787,28.4752945 1.20851408,30.4828136 2.67608869,32.8372426 Z M30.6833372,6.57948215 C31.1194007,7.7346459 30.5918177,9.05408356 29.198307,10.295319 C27.7964763,11.543768 25.7585771,14.4698768 27.8605889,20.0379759 C30.8751855,28.0246068 40.6429745,36.9570424 49.2020862,36.9570424 C51.0929996,36.9570424 52.8587875,36.5296351 54.4505088,35.6872804 C55.1404125,35.3218447 55.6056773,34.6372061 55.6932815,33.8584624 C56.0492451,30.6992224 57.41437,29.4292964 58.5768797,28.9266379 C59.9646806,33.2033341 61.2040274,37.0040949 62.3802405,40.4187629 L58.6450707,40.4187629 C57.3438951,40.4187629 56.2893818,41.4790019 56.2893818,42.7864715 C56.2893818,44.0939411 57.3443845,45.1540161 58.6450707,45.1540161 L64.0695174,45.1540161 C64.5670833,46.4924715 65.0604076,47.7648567 65.5569947,48.9774015 L62.1790934,48.9774015 C60.8777547,48.9774015 59.8234045,50.0374766 59.8234045,51.3447822 C59.8234045,52.6524158 60.878081,53.7124908 62.1790934,53.7124908 L67.6658582,53.7124908 C72.0491688,62.6759122 77.3661087,68.1128545 87.9388124,74.338705 C88.9463425,74.9320257 89.6589221,75.7730689 90.018964,76.7193654 C89.642119,76.708217 89.2541808,76.6795265 88.8543336,76.6300148 C73.5483919,74.7326674 57.9070418,71.4914543 47.1852315,60.7169211 C45.1899108,58.7118611 43.3017707,56.8159892 41.5154277,55.0224196 C16.8673197,30.2742743 11.8702902,25.2562141 10.2850943,19.2000477 C15.3785374,13.6950678 22.1305878,7.83055432 26.5101462,5.15872584 C26.9713327,4.87739445 27.4617206,4.73492535 27.9679327,4.73492535 C29.1379466,4.73508929 30.2800641,5.51071797 30.6833372,6.57948215 Z M14.9737961,40.1051341 C7.78780306,32.6242767 5.76311783,29.6852162 4.85803736,25.9718385 C5.37517959,25.1540757 6.00651726,24.272374 6.72692738,23.3485381 C9.39616434,29.4660203 16.2888382,36.38733 38.1853254,58.3729847 C39.9713421,60.1662264 41.8588297,62.0612786 43.8538241,64.0665025 C55.5826751,75.8534024 72.1359574,79.330042 88.2776466,81.3308394 C88.4203909,81.3485455 88.5621564,81.3633007 88.7035956,81.3772361 C87.6866036,82.1753254 86.2340376,82.6197831 84.4803218,82.6197831 C84.0051056,82.6197831 83.5039508,82.5874857 82.9907238,82.5238746 C81.3675171,82.322385 79.7407214,82.1046646 78.1160465,81.8659592 C78.0950019,81.8623524 78.0749362,81.8566143 78.0540547,81.8534993 C78.0325207,81.8502204 78.011313,81.8500564 77.989779,81.8474333 C74.343029,81.3085427 70.7099825,80.6558736 67.1609512,79.8048297 C67.1508368,79.8020426 67.1413749,79.7987637 67.1310973,79.7958127 C67.123593,79.7940093 67.1160887,79.7931895 67.1084213,79.791878 C57.3926729,77.4561388 48.3111986,73.6345568 41.3217848,66.610453 C36.8428763,62.1093147 32.9258095,58.1937917 29.4696028,54.7391209 C27.0597526,52.3305897 24.8903654,50.1619116 22.9355025,48.1998055 C22.9340343,48.19833 22.9330555,48.1968545 22.9317504,48.1957068 C22.9304453,48.1945592 22.9289771,48.1929198 22.927672,48.1921 C19.7704942,45.023679 17.1754843,42.395952 15.0348091,40.1689091 C15.0251841,40.1585805 15.0170273,40.1471043 15.0070759,40.1369396 C14.9966352,40.1252995 14.9848894,40.1161185 14.9737961,40.1051341 Z" id="Shape" fill="#000000"></path>
                <g id="Group" transform="translate(9.116162, 2.901099)" fill="#F7CF40">
                    <path d="M1.62974817,15.9729512 C3.21416667,22.017319 8.20874556,27.0260377 32.8450917,51.7279606 C34.6307218,53.5181328 36.5176098,55.41025 38.5122781,57.4116757 C49.2286671,68.1659638 64.8623464,71.4007102 80.1607818,73.2946274 C80.560596,73.3440453 80.9481809,73.3726815 81.3248411,73.3836451 C80.9649757,72.4393047 80.2527456,71.599691 79.2457096,71.0074941 C68.678191,64.7934363 63.3646739,59.3669562 58.9826977,50.4203493 L53.4987867,50.4203493 C52.1980862,50.4203493 51.14409,49.3621186 51.14409,48.0572892 C51.14409,46.7519689 52.1984123,45.6942291 53.4987867,45.6942291 L56.8750314,45.6942291 C56.3788509,44.483981 55.8857685,43.2141696 55.3884467,41.8782494 L49.9666602,41.8782494 C48.6659597,41.8782494 47.6119635,40.8200187 47.6119635,39.5151893 C47.6119635,38.2103599 48.6664489,37.1519655 49.9666602,37.1519655 L53.6999982,37.1519655 C52.5238728,33.7437655 51.2852968,29.9502039 49.8983395,25.6816085 C48.736237,26.1833149 47.3721076,27.4508355 47.0163187,30.6040914 C46.9287574,31.38136 46.4633946,32.0647018 45.7741554,32.4294453 C44.1832147,33.2705317 42.4182928,33.6968021 40.5283067,33.6968021 C31.9730664,33.6968021 22.2103939,24.7812861 19.1972757,16.8097831 C17.0964577,11.2520673 19.1331945,8.33166467 20.5343377,7.0855804 C21.927165,5.84685973 22.4541631,4.52959403 22.0186396,3.376782 C21.6154013,2.31004223 20.4738438,1.53588272 19.3044037,1.53588272 C18.7984399,1.53588272 18.3082925,1.67840923 17.8473322,1.95888046 C13.4695955,4.62532079 6.72069336,10.4787259 1.62974817,15.9729512 Z" id="Shape"></path>
                    <path d="M83.3615779,74.8349283 L81.2844031,74.7740559 C80.8560541,74.7616196 80.4210198,74.7284016 79.9915294,74.67522 C64.4468788,72.750703 48.5448088,69.4465752 37.5323094,58.3952886 C35.5378042,56.3940266 33.6509162,54.502073 31.8656123,52.7120644 C7.11936612,27.8998512 1.96955759,22.736497 0.289425012,16.3268948 L0.0953879616,15.5864442 L0.614885476,15.025829 C5.87182203,9.35225923 12.6624666,3.49001776 17.1280907,0.76974135 C17.8099923,0.35492538 18.5417892,0.14481741 19.3044037,0.14481741 C21.055955,0.14481741 22.7049438,1.27095686 23.3144484,2.88325735 C23.9593362,4.5903028 23.2808588,6.50123806 21.4534863,8.12646576 C18.8121366,10.4754532 19.7179146,14.2660694 20.4929214,16.3164221 C21.8966735,20.0302932 24.9526755,24.0879625 28.6674251,27.1706915 C32.6580661,30.4821829 36.8701376,32.3059005 40.5279806,32.3059005 C42.1906661,32.3059005 43.7382339,31.9334661 45.1278001,31.1989064 C45.4115181,31.0488526 45.6027832,30.7678905 45.6388187,30.4478195 C46.0741791,26.5888037 47.8974751,25.0311574 49.3503072,24.4039426 L50.7450911,23.801764 L51.2158348,25.250429 C52.5959437,29.4975882 53.8341936,33.2903316 55.0096668,36.6968952 L55.6465649,38.5428672 L49.9666602,38.5428672 C49.4324876,38.5428672 48.9979424,38.9791194 48.9979424,39.5151893 C48.9979424,40.0512592 49.4324876,40.4873478 49.9666602,40.4873478 L56.350153,40.4873478 L56.6867013,41.3914338 C57.1985352,42.7666265 57.6793883,44.000929 58.1566542,45.1650319 L58.9438903,47.0851308 L53.4987867,47.0851308 C52.9646141,47.0851308 52.530069,47.5212193 52.530069,48.0572892 C52.530069,48.5933591 52.9646141,49.0294477 53.4987867,49.0294477 L59.845918,49.0294477 L60.2266545,49.8068799 C64.4953066,58.5222698 69.6555507,63.7559873 79.9463627,69.8073914 C81.2108647,70.5509511 82.1350681,71.6158909 82.6195085,72.8868477 L83.3615779,74.8349283 Z M3.18188151,16.3458765 C4.92691051,21.7695748 10.5564308,27.4138538 33.8247343,50.744184 C35.6103643,52.5343563 37.4974154,54.4266371 39.4922467,56.4282264 C49.2405703,66.2110106 63.318692,69.6125016 77.4183372,71.536364 C67.6357718,65.6268319 62.4285674,60.297224 58.1263258,51.8114147 L53.4987867,51.8114147 C51.4361239,51.8114147 49.7581111,50.1272782 49.7581111,48.0574529 C49.7581111,45.9874639 51.4361239,44.3034911 53.4987867,44.3034911 L54.8270437,44.3034911 C54.6959464,43.9665656 54.5638707,43.6222765 54.4298384,43.2693147 L49.9666602,43.2693147 C47.9041605,43.2693147 46.2259846,41.5853419 46.2259846,39.5153529 C46.2259846,37.445364 47.9041605,35.7612275 49.9666602,35.7612275 L51.7594647,35.7612275 C50.9528249,33.3783675 50.1129217,30.8207448 49.2154596,28.0652867 C48.7171594,28.8618643 48.4918155,29.8885134 48.3933295,30.7606905 C48.2540794,31.9959749 47.5165755,33.0798963 46.4201847,33.6599842 C44.6278693,34.6075973 42.6457564,35.0878675 40.5279806,35.0878675 C36.2268803,35.0878675 31.387205,33.0375148 26.9010357,29.3146437 C22.7714708,25.8879529 19.4912663,21.5098853 17.9011408,17.3033077 C16.8727444,14.5825404 16.6413675,12.1155718 17.2135322,9.97129229 C17.7313991,8.03057536 18.8052882,6.76485484 19.614863,6.04485868 C20.049082,5.65867892 21.0261156,4.67392053 20.7223417,3.86997937 C20.5224346,3.34127309 19.8995594,2.92694803 19.3040776,2.92694803 C19.0521555,2.92694803 18.810506,2.99943855 18.5654324,3.14851049 C14.5105472,5.61826095 8.13520715,11.0964499 3.18188151,16.3458765 Z" id="Shape"></path>
                </g>
                <g id="Group" transform="translate(2.878788, 20.791209)" fill="#6ECCAE">
                    <path d="M19.5882534,27.5703723 C19.5897165,27.5718453 19.5911797,27.572991 19.5924802,27.5738094 C19.5939433,27.5754461 19.5949187,27.5769191 19.5962193,27.5780648 C21.5442826,29.5368788 23.7059614,31.7014272 26.1075919,34.1064082 C29.5516144,37.5552825 33.4548939,41.4640722 37.918386,45.9576583 C44.8838136,52.970304 53.9338624,56.7853103 63.6154915,59.1171304 C63.6229696,59.1187671 63.6306104,59.1194218 63.6380885,59.1210585 C63.6481678,59.1236772 63.6575968,59.127278 63.6676761,59.1300604 C67.2043628,59.979349 70.8246099,60.6312504 74.4588379,61.1692368 C74.4804596,61.1718555 74.5015935,61.1723465 74.5228901,61.1752926 C74.544024,61.1784024 74.56402,61.1841308 74.5846663,61.1877316 C76.2036901,61.4262002 77.8249898,61.6433915 79.4425505,61.8445431 C79.9539923,61.9082111 80.4535666,61.9402907 80.9268047,61.9402907 C82.6744205,61.9402907 84.1219341,61.4965787 85.1352261,60.6998285 C84.9942789,60.6855891 84.8533316,60.6711861 84.7109213,60.6535096 C68.6257028,58.6559056 52.1298352,55.1850994 40.4416181,43.4181398 C38.4535629,41.4166077 36.5728031,39.5245714 34.7929987,37.7341749 C12.9723489,15.7858999 6.10332468,8.87636687 3.44369727,2.76898521 C2.72563039,3.69127103 2.0964887,4.57149343 1.58114524,5.38788415 C2.48324014,9.09503126 4.50088291,12.0291605 11.6618809,19.4974661 C11.6726105,19.5082684 11.684478,19.517925 11.6952076,19.5288909 C11.7051243,19.5392022 11.7132527,19.5503318 11.7228443,19.5608068 C13.8563987,21.784113 16.4420572,24.4072674 19.5882534,27.5703723 Z" id="Shape"></path>
                    <path d="M80.9266421,63.3316574 C80.3961797,63.3316574 79.8397064,63.2958135 79.2729911,63.225435 C77.5419573,63.0103714 75.9429295,62.7939984 74.3845439,62.5645317 L74.3443894,62.5579848 C74.3369112,62.5566755 74.3292705,62.5552024 74.3217923,62.5538931 C74.3136639,62.5530747 74.305698,62.5522564 74.2978947,62.5512743 L74.2579027,62.5458732 C70.1821375,61.9424184 66.6132622,61.2679304 63.3470902,60.4834555 L63.2942553,60.4703618 C51.8708629,57.7190531 43.2509715,53.2937178 36.9415094,46.9416481 C32.4955748,42.4657385 28.6043253,38.5690604 25.171195,35.1308247 L25.1333165,35.0930167 C22.7372132,32.6937641 20.5797612,30.5334712 18.6351119,28.5779307 L18.6113768,28.5541984 C15.0855822,25.0094128 12.6543642,22.533726 10.7292231,20.5274474 L10.7076014,20.5043698 C10.7051629,20.5017511 10.7027244,20.4991324 10.7004484,20.4965136 C10.6952462,20.4914398 10.690044,20.486366 10.6850043,20.4811285 L10.6679346,20.4636158 C3.47117142,12.9581568 1.22950869,9.78866877 0.239301439,5.71882682 L0.0990044678,5.14254139 L0.415201003,4.64170827 C0.941274004,3.80829577 1.59431333,2.88944703 2.35643639,1.91069472 L3.78184061,0.0800350967 L4.7096214,2.21037624 C7.26487956,8.07797995 14.4476618,15.3030706 35.7697127,36.7503488 C37.5496797,38.5407453 39.430602,40.4327816 41.4188198,42.4344773 C52.8119744,53.9042105 69.0402535,57.3056202 84.8803181,59.2727814 C85.0124866,59.2894759 85.1428669,59.3025696 85.2732471,59.3156632 L88.7006875,59.6615 L85.9861118,61.7962602 C84.7084827,62.8007089 82.9590787,63.3316574 80.9266421,63.3316574 Z M20.6002449,26.6215717 C22.5400172,28.5718748 24.692267,30.727094 27.08203,33.120127 L27.1199086,33.157935 C30.5543394,36.5973164 34.447052,40.4954675 38.8954252,44.9738322 C43.7147806,49.8258576 49.7740491,53.3978125 57.675386,55.9969073 C50.9726697,53.3904473 44.7532708,49.7265094 39.4642538,44.4019659 C37.4761986,42.4004338 35.5956014,40.5085612 33.8159595,38.7183283 C14.0257955,18.8118485 6.56437012,11.3067169 3.22276612,5.41128909 C3.17220719,5.48526836 3.12262367,5.55859295 3.07417814,5.63126286 C3.89628913,8.52971179 5.66227522,11.2348653 12.6294911,18.5034924 C12.6467234,18.5196958 12.6633054,18.5357356 12.6795623,18.55243 C12.7047605,18.5786174 12.7254068,18.601204 12.7442648,18.6229722 C14.6385177,20.5963529 17.0295813,23.0314494 20.4833578,26.5042197 L20.5166845,26.527952 L20.6002449,26.6215717 Z" id="Shape"></path>
                </g>
                <path d="M70.0505051,50.7693125 C70.0505051,51.8373922 69.1558353,52.7032967 68.0521054,52.7032967 L61.9731472,52.7032967 C60.8695861,52.7032967 59.9747475,51.8373922 59.9747475,50.7693125 C59.9747475,49.7010694 60.8695861,48.8351648 61.9731472,48.8351648 L68.0521054,48.8351648 C69.1558353,48.8351648 70.0505051,49.7010694 70.0505051,50.7693125 Z" id="Shape" fill="#000000"></path>
                <path d="M67.1717172,42.5495323 C67.1717172,43.6176119 66.2770474,44.4835165 65.1733175,44.4835165 L59.0943593,44.4835165 C57.9907982,44.4835165 57.0959596,43.6176119 57.0959596,42.5495323 C57.0959596,41.4812892 57.9907982,40.6153846 59.0943593,40.6153846 L65.1733175,40.6153846 C66.2770474,40.6153846 67.1717172,41.4812892 67.1717172,42.5495323 Z" id="Shape" fill="#000000"></path>
            </g>
        </g>
    </g>
</svg>