<?xml version="1.0" encoding="UTF-8"?>
<svg width="54px" height="52px" viewBox="0 0 54 52" version="1.1" xmlns="http://www.w3.org/2000/svg" xmlns:xlink="http://www.w3.org/1999/xlink">
    <!-- Generator: Sketch 48.2 (47327) - http://www.bohemiancoding.com/sketch -->
    <title>star</title>
    <desc>Created with Sketch.</desc>
    <defs></defs>
    <g id="add-breakfast" stroke="none" stroke-width="1" fill="none" fill-rule="evenodd" transform="translate(-678.000000, -210.000000)">
        <g id="star" transform="translate(680.000000, 212.000000)" fill-rule="nonzero" stroke="#ABC1CD" stroke-width="4">
            <path d="M27.413966,1.50685135 L33.0533325,12.977453 C33.4454912,13.775244 34.2037341,14.3280441 35.0808762,14.4557744 L47.6914885,16.2953005 C49.9005099,16.6177672 50.7818239,19.3419827 49.1839859,20.9051087 L40.0589965,29.8336676 C39.4248676,30.4545207 39.1349205,31.3496799 39.2851089,32.2259937 L41.4388526,44.8336046 C41.8164096,47.041664 39.5072626,48.7251915 37.5318677,47.6834565 L26.2531346,41.7314329 C25.4688173,41.3178798 24.5311827,41.3178798 23.7468654,41.7314329 L12.4681323,47.6834565 C10.4927374,48.7262385 8.18359041,47.041664 8.5611474,44.8336046 L10.7148911,32.2259937 C10.8650795,31.3496799 10.5751324,30.4545207 9.94100351,29.8336676 L0.81601405,20.9051087 C-0.781823857,19.3409357 0.0994901322,16.6167202 2.30851147,16.2953005 L14.9191238,14.4557744 C15.7962659,14.3280441 16.5545088,13.775244 16.9466675,12.977453 L22.586034,1.50685135 C23.5726885,-0.502283784 26.4262685,-0.502283784 27.413966,1.50685135 Z" id="Shape"></path>
        </g>
    </g>
</svg>