<?xml version="1.0" encoding="UTF-8"?>
<svg width="82px" height="79px" viewBox="0 0 82 79" version="1.1" xmlns="http://www.w3.org/2000/svg" xmlns:xlink="http://www.w3.org/1999/xlink">
    <!-- Generator: Sketch 48.2 (47327) - http://www.bohemiancoding.com/sketch -->
    <title>toast</title>
    <desc>Created with Sketch.</desc>
    <defs></defs>
    <g id="Style-Guide" stroke="none" stroke-width="1" fill="none" fill-rule="evenodd" transform="translate(-144.000000, -3743.000000)">
        <g id="toast" transform="translate(144.000000, 3743.000000)" fill-rule="nonzero">
            <path d="M76.0657895,33.7413793 C80.1118421,29.9913793 82,25.0775862 82,19.6465517 C82,7.62068966 71.6151316,4 58.5328947,4 C51.5197368,4 45.3157895,5.03448276 41,7.87931034 C36.6842105,5.03448276 30.3453947,4 23.3322368,4 C10.25,4.12931034 0,7.62068966 0,19.6465517 C0,25.0775862 1.88815789,29.9913793 5.93421053,33.7413793 L5.93421053,64.5172414 C5.93421053,72.4051724 1.61842105,79 9.84539474,79 L72.2894737,79 C80.5164474,79 76.2006579,72.4051724 76.2006579,64.5172414 L76.2006579,33.7413793 L76.0657895,33.7413793 Z" id="Shape" fill="#AD6B1A"></path>
            <path d="M76.0657895,29.7927461 C80.1118421,26.0362694 82,21.1139896 82,15.6735751 C82,3.62694301 71.6151316,0 58.5328947,0 C51.5197368,0 45.3157895,1.03626943 41,3.88601036 C36.6842105,1.03626943 30.3453947,9.34773272e-16 23.3322368,9.34773272e-16 C10.25,0.129533679 0,3.62694301 0,15.6735751 C0,21.1139896 1.88815789,26.0362694 5.93421053,29.7927461 L5.93421053,60.6217617 C5.93421053,68.5233161 1.61842105,75 9.84539474,75 L72.2894737,75 C80.5164474,75 76.2006579,68.5233161 76.2006579,60.6217617 L76.2006579,29.7927461 L76.0657895,29.7927461 Z" id="Shape" fill="#E5A641"></path>
            <path d="M74,19.852459 C74,9.8852459 65.359127,7 54.8571429,7 C49.2738095,7 44.0892857,7.91803279 40.6329365,10.147541 C37.1765873,7.78688525 32.125,7 26.4087302,7 C15.906746,7 7,9.8852459 7,19.852459 C7,24.3114754 8.5952381,28.3770492 11.2539683,31.5245902 L11.2539683,56.9672131 C11.2539683,63.5245902 8.86111111,71 15.375,71 L65.4920635,71 C72.1388889,71 69.6130952,63.3934426 69.6130952,56.9672131 L69.6130952,31.5245902 C72.4047619,28.3770492 74,24.3114754 74,19.852459 Z" id="Shape" fill="#F2E5A2"></path>
            <g id="Group" transform="translate(21.000000, 23.000000)" fill="#E2CE8D">
                <ellipse id="Oval" cx="3.40776915" cy="3.40149228" rx="3.37402886" ry="3.36465564"></ellipse>
                <ellipse id="Oval" cx="20.4128746" cy="40.4127044" rx="3.37402886" ry="3.36465564"></ellipse>
            </g>
            <circle id="Oval" fill="#E2CE8D" cx="62.5" cy="22.5" r="3.5"></circle>
            <g id="Group" transform="translate(21.000000, 36.000000)" fill="#E2CE8D">
                <ellipse id="Oval" cx="4.86736842" cy="17.8387097" rx="2.29052632" ry="2.06451613"></ellipse>
                <ellipse id="Oval" cx="2.00421053" cy="1.70967742" rx="1.86105263" ry="1.67741935"></ellipse>
                <ellipse id="Oval" cx="15.0315789" cy="9.83870968" rx="1.86105263" ry="1.67741935"></ellipse>
            </g>
            <ellipse id="Oval" fill="#E2CE8D" cx="53.5" cy="38" rx="2.5" ry="2"></ellipse>
            <g id="Group" transform="translate(17.000000, 17.000000)" fill="#E2CE8D">
                <ellipse id="Oval" cx="1.549955" cy="1.47330023" rx="1.51215122" ry="1.37051184"></ellipse>
                <ellipse id="Oval" cx="17.5787579" cy="19.0158518" rx="1.51215122" ry="1.37051184"></ellipse>
            </g>
            <ellipse id="Oval" fill="#E2CE8D" cx="50.5" cy="22" rx="2.5" ry="2"></ellipse>
            <ellipse id="Oval" fill="#E2CE8D" cx="42.5" cy="46" rx="1.5" ry="1"></ellipse>
            <ellipse id="Oval" fill="#E2CE8D" cx="60.5" cy="44" rx="1.5" ry="1"></ellipse>
        </g>
    </g>
</svg>