<?xml version="1.0" encoding="UTF-8"?>
<svg width="73px" height="82px" viewBox="0 0 73 82" version="1.1" xmlns="http://www.w3.org/2000/svg" xmlns:xlink="http://www.w3.org/1999/xlink">
    <!-- Generator: Sketch 48.2 (47327) - http://www.bohemiancoding.com/sketch -->
    <title>user (2)</title>
    <desc>Created with Sketch.</desc>
    <defs></defs>
    <g id="Style-Guide" stroke="none" stroke-width="1" fill="none" fill-rule="evenodd" transform="translate(-1124.000000, -3279.000000)">
        <g id="user-(2)" transform="translate(1124.000000, 3279.000000)" fill="#8DADBD" fill-rule="nonzero">
            <path d="M37.6060606,0 C25.4084242,0 15.4848485,9.5927899 15.4848485,21.3838384 C15.4848485,33.1748869 25.4084242,42.7676768 37.6060606,42.7676768 C49.803697,42.7676768 59.7272727,33.1748869 59.7272727,21.3838384 C59.7272727,9.5927899 49.803697,0 37.6060606,0 Z" id="Shape"></path>
            <path d="M63.7478178,57.0378585 C57.7520844,51.1640506 49.8036822,47.9292929 41.3666667,47.9292929 L31.6333333,47.9292929 C23.19648,47.9292929 15.2479156,51.1640506 9.25218222,57.0378585 C3.28581111,62.8828671 0,70.5982659 0,78.763341 C0,80.0599362 1.08948444,81.1111111 2.43333333,81.1111111 L70.5666667,81.1111111 C71.9105156,81.1111111 73,80.0599362 73,78.763341 C73,70.5982659 69.7141889,62.8828671 63.7478178,57.0378585 Z" id="Shape"></path>
        </g>
    </g>
</svg>