<?xml version="1.0" encoding="UTF-8"?>
<svg width="40px" height="38px" viewBox="0 0 40 38" version="1.1" xmlns="http://www.w3.org/2000/svg" xmlns:xlink="http://www.w3.org/1999/xlink">
    <!-- Generator: Sketch 48.2 (47327) - http://www.bohemiancoding.com/sketch -->
    <title>star</title>
    <desc>Created with Sketch.</desc>
    <defs></defs>
    <g id="search-breakfast-list" stroke="none" stroke-width="1" fill="none" fill-rule="evenodd" transform="translate(-21.000000, -599.000000)">
        <g id="Group-4" transform="translate(21.000000, 597.000000)" fill="#FFD10A" fill-rule="nonzero" stroke="#8DAAB9" stroke-width="2">
            <g id="star" transform="translate(1.000000, 3.000000)">
                <path d="M20.8346141,1.13013852 L25.1205327,9.73308975 C25.4185733,10.331433 25.9948379,10.7460331 26.6614659,10.8418308 L36.2455313,12.2214753 C37.9243875,12.4633254 38.5941861,14.506487 37.3798293,15.6788315 L30.4448373,22.3752507 C29.9628994,22.8408905 29.7425396,23.5122599 29.8566828,24.1694952 L31.493528,33.6252034 C31.7804713,35.281248 30.0255196,36.5438936 28.5242195,35.7625924 L19.9523823,31.2985747 C19.3563012,30.9884099 18.6436988,30.9884099 18.0476177,31.2985747 L9.47578052,35.7625924 C7.97448039,36.5446788 6.21952871,35.281248 6.50647203,33.6252034 L8.14331721,24.1694952 C8.2574604,23.5122599 8.03710062,22.8408905 7.55516267,22.3752507 L0.620170678,15.6788315 C-0.594186131,14.5057018 0.0756125004,12.4625401 1.75446872,12.2214753 L11.3385341,10.8418308 C12.0051621,10.7460331 12.5814267,10.331433 12.8794673,9.73308975 L17.1653859,1.13013852 C17.9152433,-0.376712838 20.0839641,-0.376712838 20.8346141,1.13013852 Z" id="Shape"></path>
            </g>
        </g>
    </g>
</svg>