<?xml version="1.0" encoding="UTF-8"?>
<svg width="158px" height="331px" viewBox="0 0 158 331" version="1.1" xmlns="http://www.w3.org/2000/svg" xmlns:xlink="http://www.w3.org/1999/xlink">
    <!-- Generator: Sketch 48.2 (47327) - http://www.bohemiancoding.com/sketch -->
    <title>water</title>
    <desc>Created with Sketch.</desc>
    <defs></defs>
    <g id="reco-water" stroke="none" stroke-width="1" fill="none" fill-rule="evenodd" transform="translate(-294.000000, -524.000000)">
        <g id="water" transform="translate(299.000000, 524.000000)" fill-rule="nonzero">
            <path d="M103.519327,56 L39.796552,56 C37.0555734,56 35,54 35,50.666875 L35,47.333125 C35,44.66625 37.0555734,42 40.4813149,42 L103.518685,42 C106.259664,42 109,44 109,47.333125 L109,51.333125 C109.000642,54 106.259664,56 103.519327,56 Z" id="Shape" fill="#F8B64C"></path>
            <path d="M124.641026,69 L116.538462,69 C113.162604,69 110.461538,66.2855022 110.461538,62.8928571 C110.461538,59.5002121 113.162604,56.7857143 116.538462,56.7857143 L124.641026,56.7857143 C133.419014,56.7857143 140.846154,49.3216406 140.846154,40.5 C140.846154,31.6783594 133.419014,24.2142857 124.641026,24.2142857 L80.0769231,24.2142857 C76.7010657,24.2142857 74,21.4997879 74,18.1071429 C74,14.7144978 76.7010657,12 80.0769231,12 L124.641026,12 C140.170729,12 153,24.8930692 153,40.5 C153,56.1069308 140.170729,69 124.641026,69 Z" id="Shape" fill="#CDD6E0"></path>
            <rect id="Rectangle-path" fill="#FFD15C" x="61" y="16" width="21" height="23"></rect>
            <g id="Group" transform="translate(21.000000, 0.000000)" fill="#40596B">
                <ellipse id="Oval" cx="51.5647799" cy="16.5517241" rx="16.5836478" ry="16.5517241"></ellipse>
                <path d="M102.698126,74.4827586 L0.432081761,74.4827586 L0.432081761,56.5519397 C0.432081761,52.4140086 3.19623899,49.6551724 7.34215094,49.6551724 L95.7880566,49.6551724 C99.9339686,49.6551724 102.698126,52.4140086 102.698126,56.5519397 L102.698126,74.4827586 Z" id="Shape"></path>
            </g>
            <path d="M144,127.158131 C144,124.43406 143.320544,122.391166 141.96227,120.348272 C140.603996,117.624201 139.245085,114.219591 139.245085,110.814981 L139.245085,85.6190787 C139.245085,78.1286812 133.131895,72 125.660431,72 L18.3395686,72 C10.8681048,72 4.75491523,78.1286812 4.75491523,85.6190787 L4.75491523,110.814981 C4.75491523,114.219591 3.39664093,116.943662 2.03772984,120.348272 C0.679455544,122.391166 0,124.43406 0,127.158131 C0,129.882202 0.679455544,131.925096 2.03772984,133.967989 C3.39600414,136.69206 4.75491523,140.09667 4.75491523,143.501281 L4.75491523,149.629962 C4.75491523,153.034572 3.39664093,155.758643 2.03772984,159.163253 C0.679455544,161.206147 0,163.249041 0,165.973112 C0,168.697183 0.679455544,170.740076 2.03772984,172.78297 C3.39600414,175.507041 4.75491523,178.911651 4.75491523,182.316261 L4.75491523,188.444943 C4.75491523,191.849553 3.39664093,194.573624 2.03772984,197.978234 C0.679455544,200.021128 0,202.064021 0,204.788093 C0,207.512164 0.679455544,209.555057 2.03772984,211.597951 C3.39600414,214.322022 4.75491523,217.726632 4.75491523,221.131242 L4.75491523,312.380283 C4.75491523,319.871319 10.8681048,326 18.3395686,326 L125.659795,326 C133.131258,326 139.244448,319.871319 139.244448,312.380921 L139.244448,219.769526 C139.244448,216.364916 140.602722,213.640845 141.961633,210.236235 C143.319908,208.193341 143.999363,206.150447 143.999363,203.426376 C143.999363,200.702305 143.319908,198.659411 141.961633,196.616518 C140.603359,193.892446 139.244448,190.487836 139.244448,187.083226 L139.244448,180.954545 C139.244448,177.549935 140.602722,174.825864 141.961633,171.421254 C143.319908,169.37836 143.999363,167.335466 143.999363,164.611395 C143.999363,161.887324 143.319908,159.84443 141.961633,157.801537 C140.603359,155.077466 139.244448,151.672856 139.244448,148.268245 L139.244448,142.139564 C139.244448,138.734954 140.602722,136.010883 141.961633,132.606273 C143.320544,131.925096 144,129.882202 144,127.158131 Z" id="Shape" stroke="#000000" stroke-width="9" fill="#84DBFF"></path>
            <g id="Group" transform="translate(30.000000, 50.000000)" fill="#334A5E">
                <rect id="Rectangle-path" x="0.253731343" y="0.0446666667" width="3.38287313" height="19.9113333"></rect>
                <rect id="Rectangle-path" x="16.4925373" y="0.0446666667" width="3.38287313" height="19.9113333"></rect>
                <rect id="Rectangle-path" x="32.7313433" y="0.0446666667" width="3.38287313" height="19.9113333"></rect>
                <rect id="Rectangle-path" x="48.9701493" y="0.0446666667" width="3.38287313" height="19.9113333"></rect>
                <rect id="Rectangle-path" x="65.2089552" y="0.0446666667" width="3.38287313" height="19.9113333"></rect>
                <rect id="Rectangle-path" x="81.4477612" y="0.0446666667" width="3.38287313" height="19.9113333"></rect>
            </g>
            <path d="M102.028303,248 L40.9716966,248 C34.3873477,248 29,242.63251 29,236.072431 L29,160.927569 C29,154.36749 34.3873477,149 40.9716966,149 L102.028303,149 C108.612652,149 114,154.36749 114,160.927569 L114,235.475856 C114,242.63251 108.612652,248 102.028303,248 Z" id="Shape" fill="#54C0EB"></path>
            <g id="Group-3" transform="translate(50.000000, 169.000000)">
                <path d="M43,39.3331904 C43,50.3099346 33.6090409,59 21.746972,59 C9.88490302,59 0,50.3099346 0,39.3331904 C0,28.3564462 21.253028,0 21.253028,0 C21.253028,0 43,28.3564462 43,39.3331904 Z" id="Shape" fill="#FFFFFF"></path>
                <path d="M25.4615385,51.7811388 C15.9230769,51.7811388 8.37167067,43.7654211 8.37167067,33.6404705 C8.37167067,26.4687624 17.1153846,10.8593317 22.2818029,2.84361404 C21.8842428,2 21.4870553,2 21.4870553,2 C21.4870553,2 4,27.7343812 4,37.8593317 C4,47.9842823 11.5514063,56 21.0898678,56 C26.6538462,56 31.820637,53.0467576 35,48.4062871 C32.6153846,50.5155199 29.0384615,51.7811388 25.4615385,51.7811388 Z" id="Shape" fill="#231F20" opacity="0.1"></path>
            </g>
        </g>
    </g>
</svg>