<?xml version="1.0" encoding="UTF-8"?>
<svg width="101px" height="94px" viewBox="0 0 101 94" version="1.1" xmlns="http://www.w3.org/2000/svg" xmlns:xlink="http://www.w3.org/1999/xlink">
    <!-- Generator: Sketch 49.3 (51167) - http://www.bohemiancoding.com/sketch -->
    <title>calendar</title>
    <desc>Created with Sketch.</desc>
    <defs></defs>
    <g id="UI-Kit" stroke="none" stroke-width="1" fill="none" fill-rule="evenodd">
        <g id="Style-Guide" transform="translate(-372.000000, -2804.000000)" fill="#8DADBD" fill-rule="nonzero">
            <g id="calendar" transform="translate(372.000000, 2804.000000)">
                <path d="M85.2187387,6.26693076 L72.5938747,6.26693076 L72.5938747,3.13346538 C72.5938747,1.25360223 71.3314609,0 69.4374773,0 C67.5434938,0 66.28108,1.2532421 66.28108,3.13346538 L66.28108,6.26693076 L34.71892,6.26693076 L34.71892,3.13346538 C34.71892,1.25360223 33.4565062,0 31.5625227,0 C29.6689019,0 28.4061253,1.2532421 28.4061253,3.13346538 L28.4061253,6.26693076 L15.7812613,6.26693076 C6.9436389,6.26693076 0,13.1601224 0,21.9335374 L0,78.3333934 C0,87.1068083 6.9436389,94 15.7812613,94 L85.2187387,94 C94.0563611,94 101,87.1068083 101,78.3333934 L101,21.9335374 C101,13.1601224 94.0563611,6.26693076 85.2187387,6.26693076 Z M6.31243198,21.9335374 C6.31243198,16.9202089 10.7312432,12.5335014 15.7812613,12.5335014 L28.4061253,12.5335014 L28.4061253,15.6669668 C28.4061253,17.5468299 29.6685391,18.8004322 31.5625227,18.8004322 C33.4561434,18.8004322 34.71892,17.5471901 34.71892,15.6669668 L34.71892,12.5335014 L66.2814427,12.5335014 L66.2814427,15.6669668 C66.2814427,17.5468299 67.5438566,18.8004322 69.4378401,18.8004322 C71.3318236,18.8004322 72.5942375,17.5471901 72.5942375,15.6669668 L72.5942375,12.5335014 L85.2191014,12.5335014 C90.2691196,12.5335014 94.6879308,16.9202089 94.6879308,21.9335374 L94.6879308,31.3335734 L6.31243198,31.3335734 L6.31243198,21.9335374 Z M94.687568,78.3333934 C94.687568,83.3467219 90.2687568,87.7334294 85.2187387,87.7334294 L15.7812613,87.7334294 C10.7312432,87.7334294 6.31243198,83.3467219 6.31243198,78.3333934 L6.31243198,37.6001441 L94.687568,37.6001441 L94.687568,78.3333934 Z" id="Shape"></path>
                <path d="M21,80 C23.0998793,80 24.5002011,79.4000345 25.9001207,78.2001034 C27.3000402,77.0001724 28,75.199931 28,74 C28,72.800069 27.3000402,70.9998276 25.9001207,69.7998966 C23.1002816,67.4000345 18.9001207,67.4000345 16.0998793,69.7998966 C14.6999598,70.9998276 14,72.1997586 14,74 C14,75.199931 14.6999598,77.0001724 16.0998793,78.2001034 C17.4997989,79.4000345 18.9001207,80 21,80 Z" id="Shape"></path>
                <path d="M21,59 C23.0998793,59 24.5002011,58.4000345 25.9001207,57.2001034 C27.3000402,56.0001724 28,54.199931 28,53 C28,51.800069 27.3000402,49.9998276 25.9001207,48.7998966 C23.1002816,46.4000345 18.9001207,46.4000345 16.0998793,48.7998966 C14.6999598,49.9998276 14,51.1997586 14,53 C14,54.8002414 14.6999598,56.0001724 16.0998793,57.2001034 C17.4997989,58.4000345 18.9001207,59 21,59 Z" id="Shape"></path>
                <path d="M40,80 C42.0998793,80 43.5002011,79.4000345 44.9001207,78.2001034 C46.3000402,77.0001724 47,75.199931 47,74 C47,72.800069 46.3000402,70.9998276 44.9001207,69.7998966 C42.1002816,67.4000345 37.9001207,67.4000345 35.0998793,69.7998966 C33.6999598,70.9998276 33,72.800069 33,74 C33,75.199931 33.6999598,77.0001724 35.0998793,78.2001034 C36.4997989,79.4000345 37.9001207,80 40,80 Z" id="Shape"></path>
                <path d="M40,59 C42.0998793,59 43.5002011,58.4000345 44.9001207,57.2001034 C46.3000402,56.0001724 47,54.199931 47,53 C47,51.800069 46.3000402,49.9998276 44.9001207,48.7998966 C42.1002816,46.4000345 37.9001207,46.4000345 35.0998793,48.7998966 C33.6999598,49.9998276 33,51.800069 33,53 C33,54.199931 33.6999598,56.0001724 35.0998793,57.2001034 C36.4997989,58.4000345 37.9001207,59 40,59 Z" id="Shape"></path>
                <path d="M61,80 C63.0998793,80 64.5002011,79.4000345 65.9001207,78.2001034 C67.3000402,77.0001724 68,75.8002414 68,74 C68,72.1997586 67.3000402,70.9998276 65.9001207,69.7998966 C63.1002816,67.4000345 58.9001207,67.4000345 56.0998793,69.7998966 C54.6999598,70.9998276 54,72.800069 54,74 C54,75.199931 54.6999598,77.0001724 56.0998793,78.2001034 C57.4997989,79.4000345 58.9001207,80 61,80 Z" id="Shape"></path>
                <path d="M61,59 C63.0998793,59 64.5002011,58.4000345 65.9001207,57.2001034 C67.3000402,56.0001724 68,54.8002414 68,53 C68,51.800069 67.3000402,49.9998276 65.9001207,48.7998966 C63.1002816,46.4000345 58.9001207,46.4000345 56.0998793,48.7998966 C54.6999598,49.9998276 54,51.800069 54,53 C54,54.199931 54.6999598,56.0001724 56.0998793,57.2001034 C57.4997989,58.4000345 58.9001207,59 61,59 Z" id="Shape"></path>
                <path d="M82,80 C84.0998793,80 85.5002011,79.4000345 86.9001207,78.2001034 C88.3000402,77.0001724 89,75.199931 89,74 C89,72.800069 88.3000402,70.9998276 86.9001207,69.7998966 C84.1002816,67.4000345 79.9001207,67.4000345 77.0998793,69.7998966 C75.6999598,70.9998276 75,72.1997586 75,74 C75,75.199931 75.6999598,77.0001724 77.0998793,78.2001034 C78.4997989,79.4000345 79.9001207,80 82,80 Z" id="Shape"></path>
                <path d="M82,59 C84.0998793,59 85.5002011,58.4000345 86.9001207,57.2001034 C88.3000402,56.0001724 89,54.8002414 89,53 C89,51.800069 88.3000402,49.9998276 86.9001207,48.7998966 C84.1002816,46.4000345 79.9001207,46.4000345 77.0998793,48.7998966 C75.6999598,49.9998276 75,51.800069 75,53 C75,54.199931 75.6999598,56.0001724 77.0998793,57.2001034 C78.4997989,58.4000345 79.9001207,59 82,59 Z" id="Shape"></path>
            </g>
        </g>
    </g>
</svg>