<?xml version="1.0" encoding="UTF-8"?>
<svg width="102px" height="80px" viewBox="0 0 102 80" version="1.1" xmlns="http://www.w3.org/2000/svg" xmlns:xlink="http://www.w3.org/1999/xlink">
    <!-- Generator: Sketch 49.3 (51167) - http://www.bohemiancoding.com/sketch -->
    <title>envelope</title>
    <desc>Created with Sketch.</desc>
    <defs></defs>
    <g id="UI-Kit" stroke="none" stroke-width="1" fill="none" fill-rule="evenodd">
        <g id="Style-Guide" transform="translate(-611.000000, -2811.000000)" fill="#8DADBD" fill-rule="nonzero" stroke="#8DADBD" stroke-width="0.5">
            <g id="envelope" transform="translate(612.000000, 2812.000000)">
                <path d="M87.7922103,0 L12.2284224,0 C5.48313357,0 0,5.61990212 0,12.5334421 L0,65.4665579 C0,72.3800979 5.48313357,78 12.2284224,78 L87.7715192,78 C94.5168081,78 99.9999416,72.3800979 99.9999416,65.4665579 L99.9999416,12.5546493 C100.020633,5.6411093 94.5374991,0 87.7922103,0 Z M94.4340438,65.4665579 C94.4340438,69.2202284 91.4545297,72.274062 87.7922103,72.274062 L12.2284224,72.274062 C8.56610301,72.274062 5.58658892,69.2202284 5.58658892,65.4665579 L5.58658892,12.5546493 C5.58658892,8.80097879 8.56610301,5.74714519 12.2284224,5.74714519 L87.7715192,5.74714519 C91.4338386,5.74714519 94.4133527,8.80097879 94.4133527,12.5546493 L94.4133527,65.4665579 L94.4340438,65.4665579 Z" id="Shape"></path>
                <path d="M63.2193819,38.3065286 L87.0539037,15.1630877 C88.162955,14.071416 88.2637779,12.215574 87.2555494,10.9929017 C86.2473209,9.79206275 84.5333324,9.68289557 83.4041165,10.7745673 L50.5358673,42.7168825 L44.123534,36.516187 C43.9420529,36.2978526 43.8009009,36.166852 43.6395843,36.0358514 L17.5466306,10.7527339 C16.4174147,9.66106214 14.7034263,9.77022931 13.6951978,10.9929017 C12.6869693,12.215574 12.7877921,14.071416 13.917008,15.1630877 L38.0338338,38.5030295 L14.0178309,62.8473094 C12.9289441,63.9608146 12.8684504,65.8166565 13.8968435,67.0174954 C14.4412869,67.6288316 15.1672114,67.9563331 15.8931359,67.9563331 C16.5585667,67.9563331 17.2239975,67.6943319 17.7482763,67.1703295 L42.1272416,42.4767147 L48.7412205,48.8739111 C49.2654994,49.3760801 49.9107656,49.6162479 50.5560318,49.6162479 C51.2012981,49.6162479 51.8667289,49.3542467 52.3708432,48.8520777 L59.1663033,42.2583803 L83.4041165,67.1921629 C83.9283953,67.7379988 84.6139907,68 85.2794215,68 C86.005346,68 86.711106,67.6943319 87.2555494,67.0829957 C88.2839424,65.9039903 88.2436133,64.0263149 87.1547265,62.9128097 L63.2193819,38.3065286 Z" id="Shape"></path>
            </g>
        </g>
    </g>
</svg>