<?xml version="1.0" encoding="UTF-8"?>
<svg width="96px" height="96px" viewBox="0 0 96 96" version="1.1" xmlns="http://www.w3.org/2000/svg" xmlns:xlink="http://www.w3.org/1999/xlink">
    <!-- Generator: Sketch 49.3 (51167) - http://www.bohemiancoding.com/sketch -->
    <title>female</title>
    <desc>Created with Sketch.</desc>
    <defs></defs>
    <g id="UI-Kit" stroke="none" stroke-width="1" fill="none" fill-rule="evenodd">
        <g id="Style-Guide" transform="translate(-862.000000, -2805.000000)" fill="#8DADBD" fill-rule="nonzero">
            <g id="female" transform="translate(862.000000, 2805.000000)">
                <path d="M58.5288118,0 C37.8682411,0 21.0583915,16.809216 21.0583915,37.47072 C21.0583915,45.825792 23.8945928,54.004224 29.0578155,60.578304 L16.4319965,73.20576 L7.67993856,64.452096 C6.83053736,63.60192 5.7000504,63.134208 4.49814001,63.134208 C3.29622963,63.134208 2.16727866,63.601152 1.31710946,64.452096 C0.467708258,65.302272 0,66.432 0,67.633152 C0,68.834304 0.467708258,69.9648 1.31787746,70.81344 L10.0707034,79.567104 L1.31787746,88.32 C0.468476252,89.16864 0,90.299136 0,91.501056 C0,92.702208 0.467708258,93.832704 1.31787746,94.681344 C2.16727866,95.53152 3.29699762,96 4.49890801,96 C5.70081839,96 6.83053736,95.532288 7.68070655,94.681344 L16.4327645,85.929216 L25.1863585,94.681344 C26.0349917,95.53152 27.1647107,96 28.3673891,96 C29.5685315,96 30.6982504,95.532288 31.5484196,94.681344 C32.3985888,93.832704 32.8670651,92.702208 32.8670651,91.501056 C32.8670651,90.299136 32.3993568,89.16864 31.5484196,88.32 L22.7955936,79.567104 L35.4214126,66.941184 C41.996208,72.104448 50.1738066,74.940672 58.5295798,74.940672 C79.1909185,74.940672 96,58.130688 96,37.47072 C95.999232,16.809216 79.1901505,0 58.5288118,0 Z M58.5288118,65.942784 C42.8294814,65.942784 30.0562076,53.170944 30.0562076,37.47072 C30.0562076,21.770496 42.8294814,8.99712 58.5288118,8.99712 C74.2289102,8.99712 87.002184,21.770496 87.002184,37.47072 C87.002184,53.170944 74.2289102,65.942784 58.5288118,65.942784 Z" id="Shape"></path>
            </g>
        </g>
    </g>
</svg>