<?xml version="1.0" encoding="UTF-8"?>
<svg width="77px" height="103px" viewBox="0 0 77 103" version="1.1" xmlns="http://www.w3.org/2000/svg" xmlns:xlink="http://www.w3.org/1999/xlink">
    <!-- Generator: Sketch 49.3 (51167) - http://www.bohemiancoding.com/sketch -->
    <title>height</title>
    <desc>Created with Sketch.</desc>
    <defs></defs>
    <g id="UI-Kit" stroke="none" stroke-width="1" fill="none" fill-rule="evenodd">
        <g id="Style-Guide" transform="translate(-147.000000, -2800.000000)" fill="#8DADBD" fill-rule="nonzero">
            <g id="height" transform="translate(147.000000, 2800.000000)">
                <path d="M56.9830302,0 C50.3671569,0 45,5.38767512 45,11.9915091 C45,18.6120636 50.3838656,24 57,24 C63.6161344,24 69,18.6123249 69,11.9915091 C68.9997389,5.38767512 63.5989035,0 56.9830302,0 Z M56.9999609,18.4615385 C53.4314382,18.4615385 50.5384615,15.5685443 50.5384615,12 C50.5384615,8.43145574 53.4314382,5.53846154 56.9999609,5.53846154 C60.5684835,5.53846154 63.4614602,8.43145574 63.4614602,12 C63.4788781,15.5685443 60.5859014,18.4615385 56.9999609,18.4615385 Z" id="Shape"></path>
                <g id="Group">
                    <path d="M67.3236616,26.2181818 L63.9673283,26.2181818 C62.8088452,26.2181818 61.7526122,26.9371673 61.3267458,27.9985645 L57.2891843,37.8593902 L53.2344934,27.9985645 C52.7914974,26.919954 51.7523939,26.2181818 50.5939108,26.2181818 L47.2207115,26.2181818 C41.8884213,26.2181818 37.5609756,30.5837343 37.5609756,35.9251472 L37.5609756,70.3699782 C37.5609756,71.9620742 38.8385748,73.2631333 40.4400539,73.2631333 L42.041533,73.2631333 L42.041533,100.106845 C42.041533,101.698941 43.3191322,103 44.9206113,103 L69.6574939,103 C71.2418434,103 72.5365722,101.716154 72.5365722,100.106845 L72.5365722,73.2628684 L74.1209217,73.2628684 C75.7052712,73.2628684 77,71.9790226 77,70.3697134 L77,35.9420957 C77.0002635,30.5834694 72.6559518,26.2181818 67.3236616,26.2181818 Z M66.7784156,97.2303736 L60.1682626,97.2303736 L60.1682626,83.8085177 C60.1682626,82.2164218 58.8906634,80.9153627 57.2891843,80.9153627 C55.7048348,80.9153627 54.410106,82.1992086 54.410106,83.8085177 L54.410106,97.2303736 L47.7999531,97.2303736 L47.7999531,73.2628684 L66.7955451,73.2628684 L66.7955451,97.2303736 L66.7784156,97.2303736 Z M43.2854002,67.4935069 L43.2854002,35.9420957 C43.2854002,33.7679261 45.0402544,32.0044918 47.2038455,32.0044918 L48.6519494,32.0044918 L54.6146062,46.5732817 C55.5857187,48.8674146 58.9077929,49.0212749 59.9300304,46.5732817 L65.8926872,32.0214403 L67.3407911,32.0214403 C69.5043822,32.0214403 71.2592365,33.7848746 71.2592365,35.9590441 L71.2592365,67.5104553 L43.2854002,67.5104553 L43.2854002,67.4935069 Z" id="Shape"></path>
                    <path d="M17.836191,5.73273102 C19.3893207,5.73273102 20.6585366,4.46083134 20.6585366,2.86649669 C20.6585366,1.27216204 19.372787,0 17.836191,0 L2.82234562,0 C1.26921593,0 0,1.27189968 0,2.86623433 L0,100.133766 C0,101.711047 1.25242394,103 2.82234562,103 L17.836191,103 C19.3893207,103 20.6585366,101.7281 20.6585366,100.133766 C20.6585366,98.5564841 19.4061126,97.2675313 17.836191,97.2675313 L5.66148323,97.2675313 L5.66148323,89.2454858 L17.836191,89.2454858 C19.3893207,89.2454858 20.6585366,87.9735861 20.6585366,86.3792515 C20.6585366,84.7849168 19.4061126,83.5130172 17.836191,83.5130172 L5.66148323,83.5130172 L5.66148323,75.1005866 L11.4733193,75.1005866 C13.026449,75.1005866 14.2956649,73.8284246 14.2956649,72.2343523 C14.2956649,70.64028 13.043241,69.3681179 11.4733193,69.3681179 L5.66148323,69.3681179 L5.66148323,61.3964447 L17.836191,61.3964447 C19.3893207,61.3964447 20.6585366,60.124545 20.6585366,58.5302104 C20.6585366,56.9529288 19.4061126,55.663976 17.836191,55.663976 L5.66148323,55.663976 L5.66148323,47.2515455 L11.4733193,47.2515455 C13.026449,47.2515455 14.2956649,45.9796458 14.2956649,44.3853111 C14.2956649,42.8080296 13.043241,41.5190768 11.4733193,41.5190768 L5.66148323,41.5190768 L5.66148323,33.564719 L17.836191,33.564719 C19.3893207,33.564719 20.6585366,32.2928194 20.6585366,30.6984847 C20.6585366,29.1212032 19.4061126,27.8322504 17.836191,27.8322504 L5.66148323,27.8322504 L5.66148323,19.4027667 L11.4733193,19.4027667 C13.026449,19.4027667 14.2956649,18.130867 14.2956649,16.5365324 C14.2956649,14.9421977 13.043241,13.670298 11.4733193,13.670298 L5.66148323,13.670298 L5.66148323,5.61388396 L17.836191,5.61388396 L17.836191,5.73273102 Z" id="Shape"></path>
                </g>
            </g>
        </g>
    </g>
</svg>