<?xml version="1.0" encoding="UTF-8"?>
<svg width="50px" height="105px" viewBox="0 0 50 105" version="1.1" xmlns="http://www.w3.org/2000/svg" xmlns:xlink="http://www.w3.org/1999/xlink">
    <!-- Generator: Sketch 49.3 (51167) - http://www.bohemiancoding.com/sketch -->
    <title>pregnant-woman-outlined-side-view</title>
    <desc>Created with Sketch.</desc>
    <defs></defs>
    <g id="UI-Kit" stroke="none" stroke-width="1" fill="none" fill-rule="evenodd">
        <g id="Style-Guide" transform="translate(-2311.000000, -2798.000000)" fill-rule="nonzero">
            <g id="pregnant-woman-outlined-side-view" transform="translate(2336.000000, 2850.500000) scale(-1, 1) translate(-2336.000000, -2850.500000) translate(2311.000000, 2798.000000)">
                <path d="M44.4543548,32.5982932 L50,31.6193165 L45.8454955,28.0486621 C45.7845389,27.9977553 39.8689505,22.8173368 38.7829429,13.3284417 C37.7260123,4.12051302 29.8598141,0 22.5282119,0 C21.0028967,0 19.6065011,0.189268833 18.4637409,0.548879616 C14.7068553,1.2070783 11.3528434,3.26619267 9.23582929,6.22596563 C7.20464477,9.0672824 6.52571486,12.4088563 7.32936048,15.6375215 C9.12407561,22.8718332 13.2393437,26.0978878 20.6637821,26.0978878 C22.086452,26.0978878 23.6926923,25.9849791 25.5290961,25.7526353 C27.3434294,28.4611376 31.6366626,33 40.0423614,33 C41.4499673,32.9983684 42.9356958,32.8649012 44.4543548,32.5982932 Z M29.7449075,21.9166782 L28.9174397,19.8826909 L26.6175559,20.2458913 C24.2129249,20.6244289 22.2668694,20.8078239 20.6623808,20.8078239 C15.8930558,20.8078239 14.0699644,19.3210846 12.8550372,14.4415383 C12.410825,12.6474003 12.8024884,10.7690703 13.9564591,9.15506398 C15.2579165,7.33612523 17.3388472,6.08172972 19.6639544,5.71493978 L20.189442,5.58343057 C20.3880763,5.51294425 21.1510842,5.28484267 22.5254093,5.28484267 C24.1334012,5.28484267 32.198584,5.69960248 33.1371047,13.8864585 C33.8317993,19.961988 36.1597091,24.5654629 38.258156,27.6061646 C31.9288337,26.8419101 29.8317881,22.1154105 29.7449075,21.9166782 Z" id="Shape" fill="#8BA8B7"></path>
                <path d="M0,62.6907446 C0,70.2245902 4.60344341,76.7357605 10.9994669,78.6936893 L12.618622,105 L28.2996205,105 L30,65.0260174 L30,36.9092822 C30,32.5490043 26.5004547,29 22.1974472,29 C19.6192806,29 12.2968608,32.4367866 10.386678,37.8582053 C9.63088406,39.998925 9.45495029,43.0148157 11.8496566,46.443019 C5.08608524,48.0515788 0,54.7261483 0,62.6907446 Z M14.9992329,51.2390093 C15.4377105,51.2390093 15.903804,51.2853759 16.4687007,51.3882716 L19.3797136,51.9116425 L19.3797136,46.9259631 L18.4686988,46.1545627 C15.7114139,43.814955 14.5779384,41.6881256 15.0998772,39.8290156 C15.9832762,36.6840265 20.925892,34.3275871 22.0415706,34.1818182 C23.5107316,34.1818182 24.7040413,35.4187901 24.7040413,36.9387252 L24.7058824,64.9152498 L23.2526772,99.8181818 L17.3401328,99.8181818 L15.8043871,74.3391018 L13.7979453,74.0456584 C8.94922318,73.3374563 5.29411765,68.4572132 5.29411765,62.692829 C5.2938108,56.3771269 9.64667574,51.2390093 14.9992329,51.2390093 Z" id="Shape" fill="#8DADBD"></path>
            </g>
        </g>
    </g>
</svg>